G04 #@! TF.GenerationSoftware,KiCad,Pcbnew,(5.1.10-1-10_14)*
G04 #@! TF.CreationDate,2021-12-04T11:47:49+01:00*
G04 #@! TF.ProjectId,panel,70616e65-6c2e-46b6-9963-61645f706362,C3*
G04 #@! TF.SameCoordinates,Original*
G04 #@! TF.FileFunction,Profile,NP*
%FSLAX46Y46*%
G04 Gerber Fmt 4.6, Leading zero omitted, Abs format (unit mm)*
G04 Created by KiCad (PCBNEW (5.1.10-1-10_14)) date 2021-12-04 11:47:49*
%MOMM*%
%LPD*%
G01*
G04 APERTURE LIST*
G04 #@! TA.AperFunction,Profile*
%ADD10C,0.150000*%
G04 #@! TD*
G04 APERTURE END LIST*
D10*
X106502500Y-55343000D02*
X111002500Y-55343000D01*
X106502500Y-73843000D02*
X106502500Y-71843000D01*
X106502500Y-55343000D02*
X106502500Y-53343000D01*
X97004500Y-71843000D02*
X101502500Y-71843000D01*
X106502500Y-73843000D02*
X111002500Y-73843000D01*
X101502500Y-73843000D02*
X101502500Y-71843000D01*
X97004500Y-73843000D02*
X101502500Y-73843000D01*
X97004500Y-92343000D02*
X101502500Y-92343000D01*
X106502500Y-90343000D02*
X111002500Y-90343000D01*
X101502500Y-92343000D02*
X101502500Y-90343000D01*
X97004500Y-90343000D02*
X101502500Y-90343000D01*
X106502500Y-92343000D02*
X111002500Y-92343000D01*
X106502500Y-92343000D02*
X106502500Y-90343000D01*
X97004500Y-53343000D02*
X101502500Y-53343000D01*
X101502500Y-55343000D02*
X101502500Y-53343000D01*
X97004500Y-55343000D02*
X101502500Y-55343000D01*
X106502500Y-53343000D02*
X111002500Y-53343000D01*
X106502500Y-36843000D02*
X111002500Y-36843000D01*
X106502500Y-34843000D02*
X111002500Y-34843000D01*
X97004500Y-34843000D02*
X101502500Y-34843000D01*
X97004500Y-36843000D02*
X101502500Y-36843000D01*
X101502500Y-36843000D02*
X101502500Y-34843000D01*
X106502500Y-36843000D02*
X106502500Y-34843000D01*
X106502500Y-71843000D02*
X111002500Y-71843000D01*
X26502500Y-92343000D02*
X26502500Y-90343000D01*
X17004500Y-90343000D02*
X21502500Y-90343000D01*
X26502500Y-92343000D02*
X31002500Y-92343000D01*
X21502500Y-92343000D02*
X21502500Y-90343000D01*
X17004500Y-92343000D02*
X21502500Y-92343000D01*
X26502500Y-90343000D02*
X31002500Y-90343000D01*
X26502500Y-73843000D02*
X31002500Y-73843000D01*
X26502500Y-73843000D02*
X26502500Y-71843000D01*
X17004500Y-71843000D02*
X21502500Y-71843000D01*
X21502500Y-73843000D02*
X21502500Y-71843000D01*
X17004500Y-73843000D02*
X21502500Y-73843000D01*
X26502500Y-71843000D02*
X31002500Y-71843000D01*
X26502500Y-55343000D02*
X31002500Y-55343000D01*
X26502500Y-53343000D02*
X31002500Y-53343000D01*
X17004500Y-53343000D02*
X21502500Y-53343000D01*
X17004500Y-55343000D02*
X21502500Y-55343000D01*
X21502500Y-55343000D02*
X21502500Y-53343000D01*
X26502500Y-55343000D02*
X26502500Y-53343000D01*
X73004500Y-106843000D02*
X73002500Y-103093000D01*
X35000500Y-98093000D02*
X33002500Y-98093000D01*
X33004500Y-94343000D02*
X33002500Y-98093000D01*
X95002500Y-98093000D02*
X95004500Y-94343000D01*
X73004500Y-94343000D02*
X73002500Y-98093000D01*
X53004500Y-106843000D02*
X53002500Y-103093000D01*
X55000500Y-98093000D02*
X55004500Y-94343000D01*
X53004500Y-94343000D02*
X53002500Y-98093000D01*
X75004500Y-106843000D02*
X75002500Y-103093000D01*
X95002500Y-103093000D02*
X93002500Y-103093000D01*
X95000500Y-98093000D02*
X93002500Y-98093000D01*
X93004500Y-94343000D02*
X93002500Y-98093000D01*
X55000500Y-98093000D02*
X53002500Y-98093000D01*
X55002500Y-103093000D02*
X53002500Y-103093000D01*
X75000500Y-98093000D02*
X73002500Y-98093000D01*
X55004500Y-106843000D02*
X55006500Y-103093000D01*
X95004500Y-106843000D02*
X95006500Y-103093000D01*
X33004500Y-106843000D02*
X33002500Y-103093000D01*
X35004500Y-106843000D02*
X35006500Y-103093000D01*
X35002500Y-103093000D02*
X33002500Y-103093000D01*
X35002500Y-98093000D02*
X35004500Y-94343000D01*
X93004500Y-106843000D02*
X93002500Y-103093000D01*
X75002500Y-103093000D02*
X73002500Y-103093000D01*
X75000500Y-98093000D02*
X75004500Y-94343000D01*
X95004500Y-88343000D02*
X95006500Y-84593000D01*
X35004500Y-88343000D02*
X35006500Y-84593000D01*
X35000500Y-79593000D02*
X33002500Y-79593000D01*
X55000500Y-79593000D02*
X55004500Y-75843000D01*
X53004500Y-88343000D02*
X53002500Y-84593000D01*
X55000500Y-79593000D02*
X53002500Y-79593000D01*
X75000500Y-79593000D02*
X75004500Y-75843000D01*
X93004500Y-88343000D02*
X93002500Y-84593000D01*
X95002500Y-84593000D02*
X93002500Y-84593000D01*
X75002500Y-84593000D02*
X73002500Y-84593000D01*
X93004500Y-75843000D02*
X93002500Y-79593000D01*
X75000500Y-79593000D02*
X73002500Y-79593000D01*
X95000500Y-79593000D02*
X93002500Y-79593000D01*
X75004500Y-88343000D02*
X75002500Y-84593000D01*
X33004500Y-75843000D02*
X33002500Y-79593000D01*
X55002500Y-84593000D02*
X53002500Y-84593000D01*
X35002500Y-79593000D02*
X35004500Y-75843000D01*
X35002500Y-84593000D02*
X33002500Y-84593000D01*
X73004500Y-75843000D02*
X73002500Y-79593000D01*
X53004500Y-75843000D02*
X53002500Y-79593000D01*
X55004500Y-88343000D02*
X55006500Y-84593000D01*
X33004500Y-88343000D02*
X33002500Y-84593000D01*
X95002500Y-79593000D02*
X95004500Y-75843000D01*
X73004500Y-88343000D02*
X73002500Y-84593000D01*
X95000500Y-61093000D02*
X93002500Y-61093000D01*
X75004500Y-69843000D02*
X75002500Y-66093000D01*
X75002500Y-66093000D02*
X73002500Y-66093000D01*
X93004500Y-57343000D02*
X93002500Y-61093000D01*
X35002500Y-61093000D02*
X35004500Y-57343000D01*
X35002500Y-66093000D02*
X33002500Y-66093000D01*
X35000500Y-61093000D02*
X33002500Y-61093000D01*
X55000500Y-61093000D02*
X55004500Y-57343000D01*
X55000500Y-61093000D02*
X53002500Y-61093000D01*
X75000500Y-61093000D02*
X75004500Y-57343000D01*
X95004500Y-69843000D02*
X95006500Y-66093000D01*
X35004500Y-69843000D02*
X35006500Y-66093000D01*
X75000500Y-61093000D02*
X73002500Y-61093000D01*
X95002500Y-61093000D02*
X95004500Y-57343000D01*
X55004500Y-69843000D02*
X55006500Y-66093000D01*
X55002500Y-66093000D02*
X53002500Y-66093000D01*
X73004500Y-69843000D02*
X73002500Y-66093000D01*
X53004500Y-69843000D02*
X53002500Y-66093000D01*
X53004500Y-57343000D02*
X53002500Y-61093000D01*
X93004500Y-69843000D02*
X93002500Y-66093000D01*
X95002500Y-66093000D02*
X93002500Y-66093000D01*
X33004500Y-69843000D02*
X33002500Y-66093000D01*
X73004500Y-57343000D02*
X73002500Y-61093000D01*
X33004500Y-57343000D02*
X33002500Y-61093000D01*
X33004500Y-38843000D02*
X33002500Y-42593000D01*
X35000500Y-42593000D02*
X33002500Y-42593000D01*
X35002500Y-47593000D02*
X33002500Y-47593000D01*
X33004500Y-51343000D02*
X33002500Y-47593000D01*
X53004500Y-38843000D02*
X53002500Y-42593000D01*
X35002500Y-42593000D02*
X35004500Y-38843000D01*
X53004500Y-51343000D02*
X53002500Y-47593000D01*
X55000500Y-42593000D02*
X53002500Y-42593000D01*
X55002500Y-47593000D02*
X53002500Y-47593000D01*
X35004500Y-51343000D02*
X35006500Y-47593000D01*
X73004500Y-38843000D02*
X73002500Y-42593000D01*
X55000500Y-42593000D02*
X55004500Y-38843000D01*
X75002500Y-47593000D02*
X73002500Y-47593000D01*
X73004500Y-51343000D02*
X73002500Y-47593000D01*
X75000500Y-42593000D02*
X73002500Y-42593000D01*
X55004500Y-51343000D02*
X55006500Y-47593000D01*
X95002500Y-47593000D02*
X93002500Y-47593000D01*
X93004500Y-38843000D02*
X93002500Y-42593000D01*
X93004500Y-51343000D02*
X93002500Y-47593000D01*
X95000500Y-42593000D02*
X93002500Y-42593000D01*
X75004500Y-51343000D02*
X75002500Y-47593000D01*
X75000500Y-42593000D02*
X75004500Y-38843000D01*
X95002500Y-42593000D02*
X95004500Y-38843000D01*
X95004500Y-51343000D02*
X95006500Y-47593000D01*
X26502500Y-36843000D02*
X26502500Y-34843000D01*
X21502500Y-36843000D02*
X21502500Y-34843000D01*
X17004500Y-36843000D02*
X21502500Y-36843000D01*
X17004500Y-34843000D02*
X21502500Y-34843000D01*
X26502500Y-34843000D02*
X31002500Y-34843000D01*
X26502500Y-36843000D02*
X31002500Y-36843000D01*
X17004500Y-18343000D02*
X31004500Y-18343000D01*
X97004500Y-18343000D02*
X111002500Y-18343000D01*
X26502500Y-110843000D02*
X26502500Y-108843000D01*
X26502500Y-108843000D02*
X31002500Y-108843000D01*
X106502500Y-110843000D02*
X113002500Y-110843000D01*
X106502500Y-108843000D02*
X111002500Y-108843000D01*
X106502500Y-110843000D02*
X106502500Y-108843000D01*
X113002500Y-114343000D02*
X113002500Y-110843000D01*
X26502500Y-110843000D02*
X101502500Y-110843000D01*
X15002500Y-110841000D02*
X21502500Y-110843000D01*
X15002500Y-114341000D02*
X113002500Y-114343000D01*
X15002500Y-110841000D02*
X15002500Y-114341000D01*
X21502500Y-110843000D02*
X21502500Y-108843000D01*
X15004500Y-106843000D02*
X15006500Y-94343000D01*
X31004500Y-92343000D02*
G75*
G02*
X33004500Y-94343000I0J-2000000D01*
G01*
X15004500Y-94343000D02*
G75*
G02*
X17004500Y-92343000I2000000J0D01*
G01*
X17004500Y-108843000D02*
X21502500Y-108843000D01*
X17004500Y-108843000D02*
G75*
G02*
X15004500Y-106843000I0J2000000D01*
G01*
X33004500Y-106843000D02*
G75*
G02*
X31004500Y-108843000I-2000000J0D01*
G01*
X15004500Y-88343000D02*
X15002500Y-75843000D01*
X15004500Y-75843000D02*
G75*
G02*
X17004500Y-73843000I2000000J0D01*
G01*
X33004500Y-88343000D02*
G75*
G02*
X31004500Y-90343000I-2000000J0D01*
G01*
X17004500Y-90343000D02*
G75*
G02*
X15004500Y-88343000I0J2000000D01*
G01*
X31004500Y-73843000D02*
G75*
G02*
X33004500Y-75843000I0J-2000000D01*
G01*
X33004500Y-69843000D02*
G75*
G02*
X31004500Y-71843000I-2000000J0D01*
G01*
X17004500Y-71843000D02*
G75*
G02*
X15004500Y-69843000I0J2000000D01*
G01*
X15004500Y-57343000D02*
G75*
G02*
X17004500Y-55343000I2000000J0D01*
G01*
X15004500Y-69843000D02*
X15006500Y-57343000D01*
X31004500Y-55343000D02*
G75*
G02*
X33004500Y-57343000I0J-2000000D01*
G01*
X15004500Y-51343000D02*
X15002500Y-38843000D01*
X31004500Y-36843000D02*
G75*
G02*
X33004500Y-38843000I0J-2000000D01*
G01*
X15004500Y-38843000D02*
G75*
G02*
X17004500Y-36843000I2000000J0D01*
G01*
X17004500Y-53343000D02*
G75*
G02*
X15004500Y-51343000I0J2000000D01*
G01*
X33004500Y-51343000D02*
G75*
G02*
X31004500Y-53343000I-2000000J0D01*
G01*
X71004500Y-73843000D02*
G75*
G02*
X73004500Y-75843000I0J-2000000D01*
G01*
X57004500Y-90343000D02*
X71004500Y-90343000D01*
X93004500Y-106843000D02*
G75*
G02*
X91004500Y-108843000I-2000000J0D01*
G01*
X77004500Y-108843000D02*
G75*
G02*
X75004500Y-106843000I0J2000000D01*
G01*
X37004500Y-108843000D02*
G75*
G02*
X35004500Y-106843000I0J2000000D01*
G01*
X73004500Y-106843000D02*
G75*
G02*
X71004500Y-108843000I-2000000J0D01*
G01*
X35004500Y-94343000D02*
G75*
G02*
X37004500Y-92343000I2000000J0D01*
G01*
X57004500Y-108843000D02*
G75*
G02*
X55004500Y-106843000I0J2000000D01*
G01*
X57004500Y-92343000D02*
X71004500Y-92343000D01*
X97004500Y-108843000D02*
G75*
G02*
X95004500Y-106843000I0J2000000D01*
G01*
X91004500Y-92343000D02*
G75*
G02*
X93004500Y-94343000I0J-2000000D01*
G01*
X51004500Y-92343000D02*
G75*
G02*
X53004500Y-94343000I0J-2000000D01*
G01*
X77004500Y-92343000D02*
X91004500Y-92343000D01*
X113004500Y-106843000D02*
X113002500Y-94343000D01*
X37004500Y-108843000D02*
X51004500Y-108843000D01*
X53004500Y-106843000D02*
G75*
G02*
X51004500Y-108843000I-2000000J0D01*
G01*
X97004500Y-90343000D02*
G75*
G02*
X95004500Y-88343000I0J2000000D01*
G01*
X37004500Y-90343000D02*
G75*
G02*
X35004500Y-88343000I0J2000000D01*
G01*
X57004500Y-73843000D02*
X71004500Y-73843000D01*
X57004500Y-90343000D02*
G75*
G02*
X55004500Y-88343000I0J2000000D01*
G01*
X35004500Y-75843000D02*
G75*
G02*
X37004500Y-73843000I2000000J0D01*
G01*
X37004500Y-73843000D02*
X51004500Y-73843000D01*
X57004500Y-108843000D02*
X71004500Y-108843000D01*
X111004500Y-92343000D02*
G75*
G02*
X113004500Y-94343000I0J-2000000D01*
G01*
X71004500Y-92343000D02*
G75*
G02*
X73004500Y-94343000I0J-2000000D01*
G01*
X113004500Y-88343000D02*
X113004500Y-75843000D01*
X51004500Y-73843000D02*
G75*
G02*
X53004500Y-75843000I0J-2000000D01*
G01*
X37004500Y-90343000D02*
X51004500Y-90343000D01*
X77004500Y-73843000D02*
X91004500Y-73843000D01*
X53004500Y-88343000D02*
G75*
G02*
X51004500Y-90343000I-2000000J0D01*
G01*
X91004500Y-73843000D02*
G75*
G02*
X93004500Y-75843000I0J-2000000D01*
G01*
X111004500Y-73843000D02*
G75*
G02*
X113004500Y-75843000I0J-2000000D01*
G01*
X113004500Y-88343000D02*
G75*
G02*
X111004500Y-90343000I-2000000J0D01*
G01*
X97004500Y-108843000D02*
X101502500Y-108843000D01*
X101502500Y-110843000D02*
X101502500Y-108843000D01*
X113004500Y-106843000D02*
G75*
G02*
X111004500Y-108843000I-2000000J0D01*
G01*
X77004500Y-90343000D02*
G75*
G02*
X75004500Y-88343000I0J2000000D01*
G01*
X95004500Y-94343000D02*
G75*
G02*
X97004500Y-92343000I2000000J0D01*
G01*
X55004500Y-94343000D02*
G75*
G02*
X57004500Y-92343000I2000000J0D01*
G01*
X75004500Y-94343000D02*
G75*
G02*
X77004500Y-92343000I2000000J0D01*
G01*
X77004500Y-108843000D02*
X91004500Y-108843000D01*
X37004500Y-92343000D02*
X51004500Y-92343000D01*
X77004500Y-90343000D02*
X91004500Y-90343000D01*
X75004500Y-75843000D02*
G75*
G02*
X77004500Y-73843000I2000000J0D01*
G01*
X55004500Y-75843000D02*
G75*
G02*
X57004500Y-73843000I2000000J0D01*
G01*
X95004500Y-75843000D02*
G75*
G02*
X97004500Y-73843000I2000000J0D01*
G01*
X93004500Y-88343000D02*
G75*
G02*
X91004500Y-90343000I-2000000J0D01*
G01*
X73004500Y-88343000D02*
G75*
G02*
X71004500Y-90343000I-2000000J0D01*
G01*
X71004500Y-55343000D02*
G75*
G02*
X73004500Y-57343000I0J-2000000D01*
G01*
X57004500Y-71843000D02*
X71004500Y-71843000D01*
X97004500Y-71843000D02*
G75*
G02*
X95004500Y-69843000I0J2000000D01*
G01*
X37004500Y-71843000D02*
G75*
G02*
X35004500Y-69843000I0J2000000D01*
G01*
X57004500Y-55343000D02*
X71004500Y-55343000D01*
X57004500Y-71843000D02*
G75*
G02*
X55004500Y-69843000I0J2000000D01*
G01*
X35004500Y-57343000D02*
G75*
G02*
X37004500Y-55343000I2000000J0D01*
G01*
X37004500Y-55343000D02*
X51004500Y-55343000D01*
X51004500Y-55343000D02*
G75*
G02*
X53004500Y-57343000I0J-2000000D01*
G01*
X37004500Y-71843000D02*
X51004500Y-71843000D01*
X77004500Y-55343000D02*
X91004500Y-55343000D01*
X53004500Y-69843000D02*
G75*
G02*
X51004500Y-71843000I-2000000J0D01*
G01*
X91004500Y-55343000D02*
G75*
G02*
X93004500Y-57343000I0J-2000000D01*
G01*
X113004500Y-57343000D02*
X113004500Y-69843000D01*
X111004500Y-55343000D02*
G75*
G02*
X113004500Y-57343000I0J-2000000D01*
G01*
X113004500Y-69843000D02*
G75*
G02*
X111004500Y-71843000I-2000000J0D01*
G01*
X77004500Y-71843000D02*
G75*
G02*
X75004500Y-69843000I0J2000000D01*
G01*
X77004500Y-71843000D02*
X91004500Y-71843000D01*
X75004500Y-57343000D02*
G75*
G02*
X77004500Y-55343000I2000000J0D01*
G01*
X55004500Y-57343000D02*
G75*
G02*
X57004500Y-55343000I2000000J0D01*
G01*
X95004500Y-57343000D02*
G75*
G02*
X97004500Y-55343000I2000000J0D01*
G01*
X93004500Y-69843000D02*
G75*
G02*
X91004500Y-71843000I-2000000J0D01*
G01*
X73004500Y-69843000D02*
G75*
G02*
X71004500Y-71843000I-2000000J0D01*
G01*
X35004500Y-38843000D02*
G75*
G02*
X37004500Y-36843000I2000000J0D01*
G01*
X77004500Y-36843000D02*
X91004500Y-36843000D01*
X77004500Y-53343000D02*
G75*
G02*
X75004500Y-51343000I0J2000000D01*
G01*
X37004500Y-36843000D02*
X51004500Y-36843000D01*
X53004500Y-51343000D02*
G75*
G02*
X51004500Y-53343000I-2000000J0D01*
G01*
X57004500Y-53343000D02*
G75*
G02*
X55004500Y-51343000I0J2000000D01*
G01*
X57004500Y-36843000D02*
X71004500Y-36843000D01*
X55004500Y-38843000D02*
G75*
G02*
X57004500Y-36843000I2000000J0D01*
G01*
X73004500Y-51343000D02*
G75*
G02*
X71004500Y-53343000I-2000000J0D01*
G01*
X37004500Y-53343000D02*
G75*
G02*
X35004500Y-51343000I0J2000000D01*
G01*
X97004500Y-53343000D02*
G75*
G02*
X95004500Y-51343000I0J2000000D01*
G01*
X37004500Y-53343000D02*
X51004500Y-53343000D01*
X75004500Y-38843000D02*
G75*
G02*
X77004500Y-36843000I2000000J0D01*
G01*
X95004500Y-38843000D02*
G75*
G02*
X97004500Y-36843000I2000000J0D01*
G01*
X77004500Y-53343000D02*
X91004500Y-53343000D01*
X91004500Y-36843000D02*
G75*
G02*
X93004500Y-38843000I0J-2000000D01*
G01*
X111004500Y-36843000D02*
G75*
G02*
X113004500Y-38843000I0J-2000000D01*
G01*
X113004500Y-51343000D02*
G75*
G02*
X111004500Y-53343000I-2000000J0D01*
G01*
X57004500Y-53343000D02*
X71004500Y-53343000D01*
X71004500Y-36843000D02*
G75*
G02*
X73004500Y-38843000I0J-2000000D01*
G01*
X51004500Y-36843000D02*
G75*
G02*
X53004500Y-38843000I0J-2000000D01*
G01*
X113004500Y-51343000D02*
X113004500Y-38843000D01*
X93004500Y-51343000D02*
G75*
G02*
X91004500Y-53343000I-2000000J0D01*
G01*
X95004500Y-32843000D02*
X95006500Y-29093000D01*
X97004500Y-34843000D02*
G75*
G02*
X95004500Y-32843000I0J2000000D01*
G01*
X95002500Y-24093000D02*
X95004500Y-20343000D01*
X95004500Y-20343000D02*
G75*
G02*
X97004500Y-18343000I2000000J0D01*
G01*
X111004500Y-18343000D02*
G75*
G02*
X113004500Y-20343000I0J-2000000D01*
G01*
X113004500Y-32843000D02*
G75*
G02*
X111004500Y-34843000I-2000000J0D01*
G01*
X113004500Y-20343000D02*
X113004500Y-32843000D01*
X77004500Y-34843000D02*
G75*
G02*
X75004500Y-32843000I0J2000000D01*
G01*
X75000500Y-24093000D02*
X75004500Y-20343000D01*
X77004500Y-18343000D02*
X91004500Y-18343000D01*
X75004500Y-32843000D02*
X75002500Y-29093000D01*
X95000500Y-24093000D02*
X93002500Y-24093000D01*
X93004500Y-32843000D02*
X93002500Y-29093000D01*
X75004500Y-20343000D02*
G75*
G02*
X77004500Y-18343000I2000000J0D01*
G01*
X93004500Y-32843000D02*
G75*
G02*
X91004500Y-34843000I-2000000J0D01*
G01*
X93004500Y-20343000D02*
X93002500Y-24093000D01*
X95002500Y-29093000D02*
X93002500Y-29093000D01*
X77004500Y-34843000D02*
X91004500Y-34843000D01*
X91004500Y-18343000D02*
G75*
G02*
X93004500Y-20343000I0J-2000000D01*
G01*
X55004500Y-20343000D02*
G75*
G02*
X57004500Y-18343000I2000000J0D01*
G01*
X57004500Y-18343000D02*
X71004500Y-18343000D01*
X73004500Y-32843000D02*
G75*
G02*
X71004500Y-34843000I-2000000J0D01*
G01*
X55004500Y-32843000D02*
X55006500Y-29093000D01*
X57004500Y-34843000D02*
G75*
G02*
X55004500Y-32843000I0J2000000D01*
G01*
X75000500Y-24093000D02*
X73002500Y-24093000D01*
X73004500Y-32843000D02*
X73002500Y-29093000D01*
X75002500Y-29093000D02*
X73002500Y-29093000D01*
X55000500Y-24093000D02*
X55004500Y-20343000D01*
X73004500Y-20343000D02*
X73002500Y-24093000D01*
X57004500Y-34843000D02*
X71004500Y-34843000D01*
X71004500Y-18343000D02*
G75*
G02*
X73004500Y-20343000I0J-2000000D01*
G01*
X35004500Y-32843000D02*
X35006500Y-29093000D01*
X55002500Y-29093000D02*
X53002500Y-29093000D01*
X55000500Y-24093000D02*
X53002500Y-24093000D01*
X53004500Y-32843000D02*
X53002500Y-29093000D01*
X51004500Y-18343000D02*
G75*
G02*
X53004500Y-20343000I0J-2000000D01*
G01*
X35004500Y-20343000D02*
G75*
G02*
X37004500Y-18343000I2000000J0D01*
G01*
X35002500Y-24093000D02*
X35004500Y-20343000D01*
X37004500Y-34843000D02*
G75*
G02*
X35004500Y-32843000I0J2000000D01*
G01*
X53004500Y-32843000D02*
G75*
G02*
X51004500Y-34843000I-2000000J0D01*
G01*
X37004500Y-18343000D02*
X51004500Y-18343000D01*
X37004500Y-34843000D02*
X51004500Y-34843000D01*
X53004500Y-20343000D02*
X53002500Y-24093000D01*
X33004500Y-32843000D02*
X33002500Y-29093000D01*
X35002500Y-29093000D02*
X33002500Y-29093000D01*
X35000500Y-24093000D02*
X33002500Y-24093000D01*
X15004500Y-32843000D02*
X15002500Y-20343000D01*
X33004500Y-20343000D02*
X33002500Y-24093000D01*
X33004500Y-32843000D02*
G75*
G02*
X31004500Y-34843000I-2000000J0D01*
G01*
X17004500Y-34843000D02*
G75*
G02*
X15004500Y-32843000I0J2000000D01*
G01*
X15004500Y-20343000D02*
G75*
G02*
X17004500Y-18343000I2000000J0D01*
G01*
X31004500Y-18343000D02*
G75*
G02*
X33004500Y-20343000I0J-2000000D01*
G01*
M02*
