M48
; DRILL file {KiCad (5.1.10-1-10_14)} date Sunday, October 31, 2021 at 03:09:41 PM
; FORMAT={-:-/ absolute / metric / decimal}
; #@! TF.CreationDate,2021-10-31T15:09:41+01:00
; #@! TF.GenerationSoftware,Kicad,Pcbnew,(5.1.10-1-10_14)
; #@! TF.FileFunction,NonPlated,1,2,NPTH
FMAT,2
METRIC
T1C0.500
T2C0.650
T3C2.100
%
G90
G05
T1
X22.852Y-18.093
X22.852Y-19.593
X22.852Y-35.593
X22.852Y-37.093
X22.852Y-53.093
X22.852Y-54.593
X22.852Y-70.593
X22.852Y-72.093
X22.852Y-88.093
X22.852Y-89.593
X22.852Y-105.593
X22.852Y-107.093
X23.652Y-17.843
X23.652Y-19.843
X23.652Y-35.343
X23.652Y-37.343
X23.652Y-52.843
X23.652Y-54.843
X23.652Y-70.343
X23.652Y-72.343
X23.652Y-87.843
X23.652Y-89.843
X23.652Y-105.343
X23.652Y-107.343
X24.352Y-17.843
X24.352Y-19.843
X24.352Y-35.343
X24.352Y-37.343
X24.352Y-52.843
X24.352Y-54.843
X24.352Y-70.343
X24.352Y-72.343
X24.352Y-87.843
X24.352Y-89.843
X24.352Y-105.343
X24.352Y-107.343
X25.152Y-18.093
X25.152Y-19.593
X25.152Y-35.593
X25.152Y-37.093
X25.152Y-53.093
X25.152Y-54.593
X25.152Y-70.593
X25.152Y-72.093
X25.152Y-88.093
X25.152Y-89.593
X25.152Y-105.593
X25.152Y-107.093
X41.852Y-18.093
X41.852Y-19.593
X41.852Y-35.593
X41.852Y-37.093
X41.852Y-53.093
X41.852Y-54.593
X41.852Y-70.593
X41.852Y-72.093
X41.852Y-88.093
X41.852Y-89.593
X41.852Y-105.593
X41.852Y-107.093
X42.652Y-17.843
X42.652Y-19.843
X42.652Y-35.343
X42.652Y-37.343
X42.652Y-52.843
X42.652Y-54.843
X42.652Y-70.343
X42.652Y-72.343
X42.652Y-87.843
X42.652Y-89.843
X42.652Y-105.343
X42.652Y-107.343
X43.352Y-17.843
X43.352Y-19.843
X43.352Y-35.343
X43.352Y-37.343
X43.352Y-52.843
X43.352Y-54.843
X43.352Y-70.343
X43.352Y-72.343
X43.352Y-87.843
X43.352Y-89.843
X43.352Y-105.343
X43.352Y-107.343
X44.152Y-18.093
X44.152Y-19.593
X44.152Y-35.593
X44.152Y-37.093
X44.152Y-53.093
X44.152Y-54.593
X44.152Y-70.593
X44.152Y-72.093
X44.152Y-88.093
X44.152Y-89.593
X44.152Y-105.593
X44.152Y-107.093
X60.852Y-18.093
X60.852Y-19.593
X60.852Y-35.593
X60.852Y-37.093
X60.852Y-53.093
X60.852Y-54.593
X60.852Y-70.593
X60.852Y-72.093
X60.852Y-88.093
X60.852Y-89.593
X60.852Y-105.593
X60.852Y-107.093
X61.652Y-17.843
X61.652Y-19.843
X61.652Y-35.343
X61.652Y-37.343
X61.652Y-52.843
X61.652Y-54.843
X61.652Y-70.343
X61.652Y-72.343
X61.652Y-87.843
X61.652Y-89.843
X61.652Y-105.343
X61.652Y-107.343
X62.352Y-17.843
X62.352Y-19.843
X62.352Y-35.343
X62.352Y-37.343
X62.352Y-52.843
X62.352Y-54.843
X62.352Y-70.343
X62.352Y-72.343
X62.352Y-87.843
X62.352Y-89.843
X62.352Y-105.343
X62.352Y-107.343
X63.152Y-18.093
X63.152Y-19.593
X63.152Y-35.593
X63.152Y-37.093
X63.152Y-53.093
X63.152Y-54.593
X63.152Y-70.593
X63.152Y-72.093
X63.152Y-88.093
X63.152Y-89.593
X63.152Y-105.593
X63.152Y-107.093
X79.852Y-18.093
X79.852Y-19.593
X79.852Y-35.593
X79.852Y-37.093
X79.852Y-53.093
X79.852Y-54.593
X79.852Y-70.593
X79.852Y-72.093
X79.852Y-88.093
X79.852Y-89.593
X79.852Y-105.593
X79.852Y-107.093
X80.653Y-17.843
X80.653Y-19.843
X80.653Y-35.343
X80.653Y-37.343
X80.653Y-52.843
X80.653Y-54.843
X80.653Y-70.343
X80.653Y-72.343
X80.653Y-87.843
X80.653Y-89.843
X80.653Y-105.343
X80.653Y-107.343
X81.352Y-17.843
X81.352Y-19.843
X81.352Y-35.343
X81.352Y-37.343
X81.352Y-52.843
X81.352Y-54.843
X81.352Y-70.343
X81.352Y-72.343
X81.352Y-87.843
X81.352Y-89.843
X81.352Y-105.343
X81.352Y-107.343
X82.152Y-18.093
X82.152Y-19.593
X82.152Y-35.593
X82.152Y-37.093
X82.152Y-53.093
X82.152Y-54.593
X82.152Y-70.593
X82.152Y-72.093
X82.152Y-88.093
X82.152Y-89.593
X82.152Y-105.593
X82.152Y-107.093
X98.852Y-18.093
X98.852Y-19.593
X98.852Y-35.593
X98.852Y-37.093
X98.852Y-53.093
X98.852Y-54.593
X98.852Y-70.593
X98.852Y-72.093
X98.852Y-88.093
X98.852Y-89.593
X98.852Y-105.593
X98.852Y-107.093
X99.652Y-17.843
X99.652Y-19.843
X99.652Y-35.343
X99.652Y-37.343
X99.652Y-52.843
X99.652Y-54.843
X99.652Y-70.343
X99.652Y-72.343
X99.652Y-87.843
X99.652Y-89.843
X99.652Y-105.343
X99.652Y-107.343
X100.352Y-17.843
X100.352Y-19.843
X100.352Y-35.343
X100.352Y-37.343
X100.352Y-52.843
X100.352Y-54.843
X100.352Y-70.343
X100.352Y-72.343
X100.352Y-87.843
X100.352Y-89.843
X100.352Y-105.343
X100.352Y-107.343
X101.152Y-18.093
X101.152Y-19.593
X101.152Y-35.593
X101.152Y-37.093
X101.152Y-53.093
X101.152Y-54.593
X101.152Y-70.593
X101.152Y-72.093
X101.152Y-88.093
X101.152Y-89.593
X101.152Y-105.593
X101.152Y-107.093
T2
X21.104Y-43.093
X21.104Y-60.593
X21.104Y-78.093
X21.104Y-95.593
X21.105Y-25.593
X26.883Y-43.093
X26.883Y-60.593
X26.883Y-78.093
X26.883Y-95.593
X26.886Y-25.593
X40.103Y-43.093
X40.103Y-60.593
X40.103Y-78.093
X40.103Y-95.593
X40.105Y-25.593
X45.883Y-43.093
X45.883Y-60.593
X45.883Y-78.093
X45.883Y-95.593
X45.886Y-25.593
X59.103Y-43.093
X59.103Y-60.593
X59.103Y-78.093
X59.103Y-95.593
X59.105Y-25.593
X64.883Y-43.093
X64.883Y-60.593
X64.883Y-78.093
X64.883Y-95.593
X64.885Y-25.593
X78.103Y-43.093
X78.103Y-60.593
X78.103Y-78.093
X78.103Y-95.593
X78.105Y-25.593
X83.883Y-43.093
X83.883Y-60.593
X83.883Y-78.093
X83.883Y-95.593
X83.885Y-25.593
X97.103Y-43.093
X97.103Y-60.593
X97.103Y-78.093
X97.103Y-95.593
X97.105Y-25.593
X102.883Y-43.093
X102.883Y-60.593
X102.883Y-78.093
X102.883Y-95.593
X102.885Y-25.593
T3
X16.802Y-16.543
X16.802Y-108.643
X107.203Y-16.643
X107.203Y-108.643
T0
M30
