M48
; DRILL file {KiCad (5.1.10-1-10_14)} date Saturday, December 04, 2021 at 11:47:51 AM
; FORMAT={-:-/ absolute / metric / decimal}
; #@! TF.CreationDate,2021-12-04T11:47:51+01:00
; #@! TF.GenerationSoftware,Kicad,Pcbnew,(5.1.10-1-10_14)
; #@! TF.FileFunction,NonPlated,1,2,NPTH
FMAT,2
METRIC
T1C0.500
T2C0.650
T3C2.100
%
G90
G05
T1
X22.002Y-35.093
X22.002Y-36.593
X22.002Y-53.593
X22.002Y-55.093
X22.002Y-72.093
X22.002Y-73.593
X22.002Y-90.593
X22.002Y-92.093
X22.002Y-109.093
X22.002Y-110.593
X22.802Y-35.093
X22.802Y-36.593
X22.802Y-53.593
X22.802Y-55.093
X22.802Y-72.093
X22.802Y-73.593
X22.802Y-90.593
X22.802Y-92.093
X22.802Y-109.093
X22.802Y-110.593
X23.602Y-35.093
X23.602Y-36.593
X23.602Y-53.593
X23.602Y-55.093
X23.602Y-72.093
X23.602Y-73.593
X23.602Y-90.593
X23.602Y-92.093
X23.602Y-109.093
X23.602Y-110.593
X24.402Y-35.093
X24.402Y-36.593
X24.402Y-53.593
X24.402Y-55.093
X24.402Y-72.093
X24.402Y-73.593
X24.402Y-90.593
X24.402Y-92.093
X24.402Y-109.093
X24.402Y-110.593
X25.203Y-35.093
X25.203Y-36.593
X25.203Y-53.593
X25.203Y-55.093
X25.203Y-72.093
X25.203Y-73.593
X25.203Y-90.593
X25.203Y-92.093
X25.203Y-109.093
X25.203Y-110.593
X26.002Y-35.093
X26.002Y-36.593
X26.002Y-53.593
X26.002Y-55.093
X26.002Y-72.093
X26.002Y-73.593
X26.002Y-90.593
X26.002Y-92.093
X26.002Y-109.093
X26.002Y-110.593
X33.252Y-24.593
X33.252Y-25.393
X33.252Y-26.193
X33.252Y-26.993
X33.252Y-27.793
X33.252Y-28.593
X33.252Y-43.093
X33.252Y-43.893
X33.252Y-44.693
X33.252Y-45.493
X33.252Y-46.293
X33.252Y-47.093
X33.252Y-61.593
X33.252Y-62.393
X33.252Y-63.193
X33.252Y-63.993
X33.252Y-64.793
X33.252Y-65.593
X33.252Y-80.093
X33.252Y-80.893
X33.252Y-81.693
X33.252Y-82.493
X33.252Y-83.293
X33.252Y-84.093
X33.252Y-98.593
X33.252Y-99.393
X33.252Y-100.193
X33.252Y-100.993
X33.252Y-101.793
X33.252Y-102.593
X34.752Y-24.593
X34.752Y-25.393
X34.752Y-26.193
X34.752Y-26.993
X34.752Y-27.793
X34.752Y-28.593
X34.752Y-43.093
X34.752Y-43.893
X34.752Y-44.693
X34.752Y-45.493
X34.752Y-46.293
X34.752Y-47.093
X34.752Y-61.593
X34.752Y-62.393
X34.752Y-63.193
X34.752Y-63.993
X34.752Y-64.793
X34.752Y-65.593
X34.752Y-80.093
X34.752Y-80.893
X34.752Y-81.693
X34.752Y-82.493
X34.752Y-83.293
X34.752Y-84.093
X34.752Y-98.593
X34.752Y-99.393
X34.752Y-100.193
X34.752Y-100.993
X34.752Y-101.793
X34.752Y-102.593
X53.252Y-24.593
X53.252Y-25.393
X53.252Y-26.193
X53.252Y-26.993
X53.252Y-27.793
X53.252Y-28.593
X53.252Y-43.093
X53.252Y-43.893
X53.252Y-44.693
X53.252Y-45.493
X53.252Y-46.293
X53.252Y-47.093
X53.252Y-61.593
X53.252Y-62.393
X53.252Y-63.193
X53.252Y-63.993
X53.252Y-64.793
X53.252Y-65.593
X53.252Y-80.093
X53.252Y-80.893
X53.252Y-81.693
X53.252Y-82.493
X53.252Y-83.293
X53.252Y-84.093
X53.252Y-98.593
X53.252Y-99.393
X53.252Y-100.193
X53.252Y-100.993
X53.252Y-101.793
X53.252Y-102.593
X54.752Y-24.593
X54.752Y-25.393
X54.752Y-26.193
X54.752Y-26.993
X54.752Y-27.793
X54.752Y-28.593
X54.752Y-43.093
X54.752Y-43.893
X54.752Y-44.693
X54.752Y-45.493
X54.752Y-46.293
X54.752Y-47.093
X54.752Y-61.593
X54.752Y-62.393
X54.752Y-63.193
X54.752Y-63.993
X54.752Y-64.793
X54.752Y-65.593
X54.752Y-80.093
X54.752Y-80.893
X54.752Y-81.693
X54.752Y-82.493
X54.752Y-83.293
X54.752Y-84.093
X54.752Y-98.593
X54.752Y-99.393
X54.752Y-100.193
X54.752Y-100.993
X54.752Y-101.793
X54.752Y-102.593
X73.252Y-24.593
X73.252Y-25.393
X73.252Y-26.193
X73.252Y-26.993
X73.252Y-27.793
X73.252Y-28.593
X73.252Y-43.093
X73.252Y-43.893
X73.252Y-44.693
X73.252Y-45.493
X73.252Y-46.293
X73.252Y-47.093
X73.252Y-61.593
X73.252Y-62.393
X73.252Y-63.193
X73.252Y-63.993
X73.252Y-64.793
X73.252Y-65.593
X73.252Y-80.093
X73.252Y-80.893
X73.252Y-81.693
X73.252Y-82.493
X73.252Y-83.293
X73.252Y-84.093
X73.252Y-98.593
X73.252Y-99.393
X73.252Y-100.193
X73.252Y-100.993
X73.252Y-101.793
X73.252Y-102.593
X74.752Y-24.593
X74.752Y-25.393
X74.752Y-26.193
X74.752Y-26.993
X74.752Y-27.793
X74.752Y-28.593
X74.752Y-43.093
X74.752Y-43.893
X74.752Y-44.693
X74.752Y-45.493
X74.752Y-46.293
X74.752Y-47.093
X74.752Y-61.593
X74.752Y-62.393
X74.752Y-63.193
X74.752Y-63.993
X74.752Y-64.793
X74.752Y-65.593
X74.752Y-80.093
X74.752Y-80.893
X74.752Y-81.693
X74.752Y-82.493
X74.752Y-83.293
X74.752Y-84.093
X74.752Y-98.593
X74.752Y-99.393
X74.752Y-100.193
X74.752Y-100.993
X74.752Y-101.793
X74.752Y-102.593
X93.252Y-24.593
X93.252Y-25.393
X93.252Y-26.193
X93.252Y-26.993
X93.252Y-27.793
X93.252Y-28.593
X93.252Y-43.093
X93.252Y-43.893
X93.252Y-44.693
X93.252Y-45.493
X93.252Y-46.293
X93.252Y-47.093
X93.252Y-61.593
X93.252Y-62.393
X93.252Y-63.193
X93.252Y-63.993
X93.252Y-64.793
X93.252Y-65.593
X93.252Y-80.093
X93.252Y-80.893
X93.252Y-81.693
X93.252Y-82.493
X93.252Y-83.293
X93.252Y-84.093
X93.252Y-98.593
X93.252Y-99.393
X93.252Y-100.193
X93.252Y-100.993
X93.252Y-101.793
X93.252Y-102.593
X94.752Y-24.593
X94.752Y-25.393
X94.752Y-26.193
X94.752Y-26.993
X94.752Y-27.793
X94.752Y-28.593
X94.752Y-43.093
X94.752Y-43.893
X94.752Y-44.693
X94.752Y-45.493
X94.752Y-46.293
X94.752Y-47.093
X94.752Y-61.593
X94.752Y-62.393
X94.752Y-63.193
X94.752Y-63.993
X94.752Y-64.793
X94.752Y-65.593
X94.752Y-80.093
X94.752Y-80.893
X94.752Y-81.693
X94.752Y-82.493
X94.752Y-83.293
X94.752Y-84.093
X94.752Y-98.593
X94.752Y-99.393
X94.752Y-100.193
X94.752Y-100.993
X94.752Y-101.793
X94.752Y-102.593
X102.002Y-35.093
X102.002Y-36.593
X102.002Y-53.593
X102.002Y-55.093
X102.002Y-72.093
X102.002Y-73.593
X102.002Y-90.593
X102.002Y-92.093
X102.002Y-109.093
X102.002Y-110.593
X102.802Y-35.093
X102.802Y-36.593
X102.802Y-53.593
X102.802Y-55.093
X102.802Y-72.093
X102.802Y-73.593
X102.802Y-90.593
X102.802Y-92.093
X102.802Y-109.093
X102.802Y-110.593
X103.602Y-35.093
X103.602Y-36.593
X103.602Y-53.593
X103.602Y-55.093
X103.602Y-72.093
X103.602Y-73.593
X103.602Y-90.593
X103.602Y-92.093
X103.602Y-109.093
X103.602Y-110.593
X104.402Y-35.093
X104.402Y-36.593
X104.402Y-53.593
X104.402Y-55.093
X104.402Y-72.093
X104.402Y-73.593
X104.402Y-90.593
X104.402Y-92.093
X104.402Y-109.093
X104.402Y-110.593
X105.203Y-35.093
X105.203Y-36.593
X105.203Y-53.593
X105.203Y-55.093
X105.203Y-72.093
X105.203Y-73.593
X105.203Y-90.593
X105.203Y-92.093
X105.203Y-109.093
X105.203Y-110.593
X106.002Y-35.093
X106.002Y-36.593
X106.002Y-53.593
X106.002Y-55.093
X106.002Y-72.093
X106.002Y-73.593
X106.002Y-90.593
X106.002Y-92.093
X106.002Y-109.093
X106.002Y-110.593
T2
X21.105Y-24.593
X21.105Y-43.093
X21.105Y-61.593
X21.105Y-80.093
X21.105Y-98.593
X26.886Y-24.593
X26.886Y-43.093
X26.886Y-61.593
X26.886Y-80.093
X26.886Y-98.593
X40.855Y-98.593
X41.105Y-24.593
X41.105Y-43.093
X41.105Y-61.593
X41.105Y-80.093
X46.636Y-98.593
X46.886Y-24.593
X46.886Y-43.093
X46.886Y-61.593
X46.886Y-80.093
X61.105Y-24.593
X61.105Y-43.093
X61.105Y-61.593
X61.105Y-80.093
X61.105Y-98.593
X66.885Y-24.593
X66.885Y-43.093
X66.885Y-61.593
X66.885Y-80.093
X66.885Y-98.593
X80.855Y-43.093
X81.105Y-24.593
X81.105Y-61.593
X81.105Y-80.093
X81.105Y-98.593
X86.635Y-43.093
X86.885Y-24.593
X86.885Y-61.593
X86.885Y-80.093
X86.885Y-98.593
X101.105Y-24.593
X101.105Y-43.093
X101.105Y-61.593
X101.105Y-80.093
X101.105Y-98.593
X106.885Y-24.593
X106.885Y-43.093
X106.885Y-61.593
X106.885Y-80.093
X106.885Y-98.593
T3
X16.752Y-112.593
X111.252Y-112.593
T0
M30
