M48
; DRILL file {KiCad (5.1.10-1-10_14)} date Saturday, December 04, 2021 at 11:47:51 AM
; FORMAT={-:-/ absolute / metric / decimal}
; #@! TF.CreationDate,2021-12-04T11:47:51+01:00
; #@! TF.GenerationSoftware,Kicad,Pcbnew,(5.1.10-1-10_14)
; #@! TF.FileFunction,Plated,1,2,PTH
FMAT,2
METRIC
T1C0.400
T2C0.600
T3C2.200
%
G90
G05
T1
X21.55Y-27.318
X21.55Y-45.818
X21.55Y-64.318
X21.55Y-82.818
X21.55Y-101.318
X23.075Y-28.099
X23.075Y-46.599
X23.075Y-65.099
X23.075Y-83.599
X23.075Y-102.099
X26.445Y-27.354
X26.445Y-45.854
X26.445Y-64.354
X26.445Y-82.854
X26.445Y-101.354
X26.45Y-29.082
X26.45Y-47.582
X26.45Y-66.082
X26.45Y-84.582
X26.45Y-103.082
X27.525Y-29.889
X27.525Y-48.389
X27.525Y-66.889
X27.525Y-85.389
X27.525Y-103.889
X29.175Y-26.768
X29.175Y-45.268
X29.175Y-63.768
X29.175Y-82.268
X29.175Y-100.768
X30.308Y-29.068
X30.308Y-47.568
X30.308Y-66.068
X30.308Y-84.568
X30.308Y-103.068
X30.351Y-30.018
X30.351Y-48.518
X30.351Y-67.018
X30.351Y-85.518
X30.351Y-104.018
X41.3Y-101.318
X41.55Y-27.318
X41.55Y-45.818
X41.55Y-64.318
X41.55Y-82.818
X42.825Y-102.099
X43.075Y-28.099
X43.075Y-46.599
X43.075Y-65.099
X43.075Y-83.599
X46.195Y-101.354
X46.2Y-103.082
X46.445Y-27.354
X46.445Y-45.854
X46.445Y-64.354
X46.445Y-82.854
X46.45Y-29.082
X46.45Y-47.582
X46.45Y-66.082
X46.45Y-84.582
X47.275Y-103.889
X47.525Y-29.889
X47.525Y-48.389
X47.525Y-66.889
X47.525Y-85.389
X48.925Y-100.768
X49.175Y-26.768
X49.175Y-45.268
X49.175Y-63.768
X49.175Y-82.268
X50.058Y-103.068
X50.1Y-104.018
X50.308Y-29.068
X50.308Y-47.568
X50.308Y-66.068
X50.308Y-84.568
X50.35Y-30.018
X50.35Y-48.518
X50.35Y-67.018
X50.35Y-85.518
X61.55Y-27.318
X61.55Y-45.818
X61.55Y-64.318
X61.55Y-82.818
X61.55Y-101.318
X63.075Y-28.099
X63.075Y-46.599
X63.075Y-65.099
X63.075Y-83.599
X63.075Y-102.099
X66.445Y-27.354
X66.445Y-45.854
X66.445Y-64.354
X66.445Y-82.854
X66.445Y-101.354
X66.45Y-29.082
X66.45Y-47.582
X66.45Y-66.082
X66.45Y-84.582
X66.45Y-103.082
X67.525Y-29.889
X67.525Y-48.389
X67.525Y-66.889
X67.525Y-85.389
X67.525Y-103.889
X69.175Y-26.768
X69.175Y-45.268
X69.175Y-63.768
X69.175Y-82.268
X69.175Y-100.768
X70.308Y-29.068
X70.308Y-47.568
X70.308Y-66.068
X70.308Y-84.568
X70.308Y-103.068
X70.35Y-30.018
X70.35Y-48.518
X70.35Y-67.018
X70.35Y-85.518
X70.35Y-104.018
X81.3Y-45.818
X81.55Y-27.318
X81.55Y-64.318
X81.55Y-82.818
X81.55Y-101.318
X82.825Y-46.599
X83.075Y-28.099
X83.075Y-65.099
X83.075Y-83.599
X83.075Y-102.099
X86.195Y-45.854
X86.2Y-47.582
X86.445Y-27.354
X86.445Y-64.354
X86.445Y-82.854
X86.445Y-101.354
X86.45Y-29.082
X86.45Y-66.082
X86.45Y-84.582
X86.45Y-103.082
X87.275Y-48.389
X87.525Y-29.889
X87.525Y-66.889
X87.525Y-85.389
X87.525Y-103.889
X88.925Y-45.268
X89.175Y-26.768
X89.175Y-63.768
X89.175Y-82.268
X89.175Y-100.768
X90.058Y-47.568
X90.1Y-48.518
X90.308Y-29.068
X90.308Y-66.068
X90.308Y-84.568
X90.308Y-103.068
X90.35Y-30.018
X90.35Y-67.018
X90.35Y-85.518
X90.35Y-104.018
X101.55Y-27.318
X101.55Y-45.818
X101.55Y-64.318
X101.55Y-82.818
X101.55Y-101.318
X103.075Y-28.099
X103.075Y-46.599
X103.075Y-65.099
X103.075Y-83.599
X103.075Y-102.099
X106.445Y-27.354
X106.445Y-45.854
X106.445Y-64.354
X106.445Y-82.854
X106.445Y-101.354
X106.45Y-29.082
X106.45Y-47.582
X106.45Y-66.082
X106.45Y-84.582
X106.45Y-103.082
X107.525Y-29.889
X107.525Y-48.389
X107.525Y-66.889
X107.525Y-85.389
X107.525Y-103.889
X109.175Y-26.768
X109.175Y-45.268
X109.175Y-63.768
X109.175Y-82.268
X109.175Y-100.768
X110.308Y-29.068
X110.308Y-47.568
X110.308Y-66.068
X110.308Y-84.568
X110.308Y-103.068
X110.35Y-30.018
X110.35Y-48.518
X110.35Y-67.018
X110.35Y-85.518
X110.35Y-104.018
T3
X17.002Y-20.343
X17.002Y-32.843
X17.002Y-38.843
X17.002Y-51.343
X17.002Y-57.343
X17.002Y-69.843
X17.002Y-75.843
X17.002Y-88.343
X17.002Y-94.343
X17.002Y-106.843
X31.002Y-20.343
X31.002Y-32.843
X31.002Y-38.843
X31.002Y-51.343
X31.002Y-57.343
X31.002Y-69.843
X31.002Y-75.843
X31.002Y-88.343
X31.002Y-94.343
X31.002Y-106.843
X36.752Y-94.343
X36.752Y-106.843
X37.002Y-20.343
X37.002Y-32.843
X37.002Y-38.843
X37.002Y-51.343
X37.002Y-57.343
X37.002Y-69.843
X37.002Y-75.843
X37.002Y-88.343
X50.752Y-94.343
X50.752Y-106.843
X51.002Y-20.343
X51.002Y-32.843
X51.002Y-38.843
X51.002Y-51.343
X51.002Y-57.343
X51.002Y-69.843
X51.002Y-75.843
X51.002Y-88.343
X57.002Y-20.343
X57.002Y-32.843
X57.002Y-38.843
X57.002Y-51.343
X57.002Y-57.343
X57.002Y-69.843
X57.002Y-75.843
X57.002Y-88.343
X57.002Y-94.343
X57.002Y-106.843
X71.002Y-20.343
X71.002Y-32.843
X71.002Y-38.843
X71.002Y-51.343
X71.002Y-57.343
X71.002Y-69.843
X71.002Y-75.843
X71.002Y-88.343
X71.002Y-94.343
X71.002Y-106.843
X76.752Y-38.843
X76.752Y-51.343
X77.002Y-20.343
X77.002Y-32.843
X77.002Y-57.343
X77.002Y-69.843
X77.002Y-75.843
X77.002Y-88.343
X77.002Y-94.343
X77.002Y-106.843
X90.752Y-38.843
X90.752Y-51.343
X91.002Y-20.343
X91.002Y-32.843
X91.002Y-57.343
X91.002Y-69.843
X91.002Y-75.843
X91.002Y-88.343
X91.002Y-94.343
X91.002Y-106.843
X97.002Y-20.343
X97.002Y-32.843
X97.002Y-38.843
X97.002Y-51.343
X97.002Y-57.343
X97.002Y-69.843
X97.002Y-75.843
X97.002Y-88.343
X97.002Y-94.343
X97.002Y-106.843
X111.002Y-20.343
X111.002Y-32.843
X111.002Y-38.843
X111.002Y-51.343
X111.002Y-57.343
X111.002Y-69.843
X111.002Y-75.843
X111.002Y-88.343
X111.002Y-94.343
X111.002Y-106.843
T2
G00X19.675Y-21.243
M15
G01X19.675Y-20.643
M16
G05
G00X19.675Y-25.673
M15
G01X19.675Y-24.573
M16
G05
G00X19.675Y-39.743
M15
G01X19.675Y-39.143
M16
G05
G00X19.675Y-44.173
M15
G01X19.675Y-43.073
M16
G05
G00X19.675Y-58.243
M15
G01X19.675Y-57.643
M16
G05
G00X19.675Y-62.673
M15
G01X19.675Y-61.573
M16
G05
G00X19.675Y-76.743
M15
G01X19.675Y-76.143
M16
G05
G00X19.675Y-81.173
M15
G01X19.675Y-80.073
M16
G05
G00X19.675Y-95.243
M15
G01X19.675Y-94.643
M16
G05
G00X19.675Y-99.673
M15
G01X19.675Y-98.573
M16
G05
G00X28.316Y-21.243
M15
G01X28.316Y-20.643
M16
G05
G00X28.316Y-25.673
M15
G01X28.316Y-24.573
M16
G05
G00X28.316Y-39.743
M15
G01X28.316Y-39.143
M16
G05
G00X28.316Y-44.173
M15
G01X28.316Y-43.073
M16
G05
G00X28.316Y-58.243
M15
G01X28.316Y-57.643
M16
G05
G00X28.316Y-62.673
M15
G01X28.316Y-61.573
M16
G05
G00X28.316Y-76.743
M15
G01X28.316Y-76.143
M16
G05
G00X28.316Y-81.173
M15
G01X28.316Y-80.073
M16
G05
G00X28.316Y-95.243
M15
G01X28.316Y-94.643
M16
G05
G00X28.316Y-99.673
M15
G01X28.316Y-98.573
M16
G05
G00X39.425Y-95.243
M15
G01X39.425Y-94.643
M16
G05
G00X39.425Y-99.673
M15
G01X39.425Y-98.573
M16
G05
G00X39.675Y-21.243
M15
G01X39.675Y-20.643
M16
G05
G00X39.675Y-25.673
M15
G01X39.675Y-24.573
M16
G05
G00X39.675Y-39.743
M15
G01X39.675Y-39.143
M16
G05
G00X39.675Y-44.173
M15
G01X39.675Y-43.073
M16
G05
G00X39.675Y-58.243
M15
G01X39.675Y-57.643
M16
G05
G00X39.675Y-62.673
M15
G01X39.675Y-61.573
M16
G05
G00X39.675Y-76.743
M15
G01X39.675Y-76.143
M16
G05
G00X39.675Y-81.173
M15
G01X39.675Y-80.073
M16
G05
G00X48.066Y-95.243
M15
G01X48.066Y-94.643
M16
G05
G00X48.066Y-99.673
M15
G01X48.066Y-98.573
M16
G05
G00X48.316Y-21.243
M15
G01X48.316Y-20.643
M16
G05
G00X48.316Y-25.673
M15
G01X48.316Y-24.573
M16
G05
G00X48.316Y-39.743
M15
G01X48.316Y-39.143
M16
G05
G00X48.316Y-44.173
M15
G01X48.316Y-43.073
M16
G05
G00X48.316Y-58.243
M15
G01X48.316Y-57.643
M16
G05
G00X48.316Y-62.673
M15
G01X48.316Y-61.573
M16
G05
G00X48.316Y-76.743
M15
G01X48.316Y-76.143
M16
G05
G00X48.316Y-81.173
M15
G01X48.316Y-80.073
M16
G05
G00X59.675Y-21.243
M15
G01X59.675Y-20.643
M16
G05
G00X59.675Y-25.673
M15
G01X59.675Y-24.573
M16
G05
G00X59.675Y-39.743
M15
G01X59.675Y-39.143
M16
G05
G00X59.675Y-44.173
M15
G01X59.675Y-43.073
M16
G05
G00X59.675Y-58.243
M15
G01X59.675Y-57.643
M16
G05
G00X59.675Y-62.673
M15
G01X59.675Y-61.573
M16
G05
G00X59.675Y-76.743
M15
G01X59.675Y-76.143
M16
G05
G00X59.675Y-81.173
M15
G01X59.675Y-80.073
M16
G05
G00X59.675Y-95.243
M15
G01X59.675Y-94.643
M16
G05
G00X59.675Y-99.673
M15
G01X59.675Y-98.573
M16
G05
G00X68.316Y-21.243
M15
G01X68.316Y-20.643
M16
G05
G00X68.316Y-25.673
M15
G01X68.316Y-24.573
M16
G05
G00X68.316Y-39.743
M15
G01X68.316Y-39.143
M16
G05
G00X68.316Y-44.173
M15
G01X68.316Y-43.073
M16
G05
G00X68.316Y-58.243
M15
G01X68.316Y-57.643
M16
G05
G00X68.316Y-62.673
M15
G01X68.316Y-61.573
M16
G05
G00X68.316Y-76.743
M15
G01X68.316Y-76.143
M16
G05
G00X68.316Y-81.173
M15
G01X68.316Y-80.073
M16
G05
G00X68.316Y-95.243
M15
G01X68.316Y-94.643
M16
G05
G00X68.316Y-99.673
M15
G01X68.316Y-98.573
M16
G05
G00X79.425Y-39.743
M15
G01X79.425Y-39.143
M16
G05
G00X79.425Y-44.173
M15
G01X79.425Y-43.073
M16
G05
G00X79.675Y-21.243
M15
G01X79.675Y-20.643
M16
G05
G00X79.675Y-25.673
M15
G01X79.675Y-24.573
M16
G05
G00X79.675Y-58.243
M15
G01X79.675Y-57.643
M16
G05
G00X79.675Y-62.673
M15
G01X79.675Y-61.573
M16
G05
G00X79.675Y-76.743
M15
G01X79.675Y-76.143
M16
G05
G00X79.675Y-81.173
M15
G01X79.675Y-80.073
M16
G05
G00X79.675Y-95.243
M15
G01X79.675Y-94.643
M16
G05
G00X79.675Y-99.673
M15
G01X79.675Y-98.573
M16
G05
G00X88.066Y-39.743
M15
G01X88.066Y-39.143
M16
G05
G00X88.066Y-44.173
M15
G01X88.066Y-43.073
M16
G05
G00X88.316Y-21.243
M15
G01X88.316Y-20.643
M16
G05
G00X88.316Y-25.673
M15
G01X88.316Y-24.573
M16
G05
G00X88.316Y-58.243
M15
G01X88.316Y-57.643
M16
G05
G00X88.316Y-62.673
M15
G01X88.316Y-61.573
M16
G05
G00X88.316Y-76.743
M15
G01X88.316Y-76.143
M16
G05
G00X88.316Y-81.173
M15
G01X88.316Y-80.073
M16
G05
G00X88.316Y-95.243
M15
G01X88.316Y-94.643
M16
G05
G00X88.316Y-99.673
M15
G01X88.316Y-98.573
M16
G05
G00X99.675Y-21.243
M15
G01X99.675Y-20.643
M16
G05
G00X99.675Y-25.673
M15
G01X99.675Y-24.573
M16
G05
G00X99.675Y-39.743
M15
G01X99.675Y-39.143
M16
G05
G00X99.675Y-44.173
M15
G01X99.675Y-43.073
M16
G05
G00X99.675Y-58.243
M15
G01X99.675Y-57.643
M16
G05
G00X99.675Y-62.673
M15
G01X99.675Y-61.573
M16
G05
G00X99.675Y-76.743
M15
G01X99.675Y-76.143
M16
G05
G00X99.675Y-81.173
M15
G01X99.675Y-80.073
M16
G05
G00X99.675Y-95.243
M15
G01X99.675Y-94.643
M16
G05
G00X99.675Y-99.673
M15
G01X99.675Y-98.573
M16
G05
G00X108.316Y-21.243
M15
G01X108.316Y-20.643
M16
G05
G00X108.316Y-25.673
M15
G01X108.316Y-24.573
M16
G05
G00X108.316Y-39.743
M15
G01X108.316Y-39.143
M16
G05
G00X108.316Y-44.173
M15
G01X108.316Y-43.073
M16
G05
G00X108.316Y-58.243
M15
G01X108.316Y-57.643
M16
G05
G00X108.316Y-62.673
M15
G01X108.316Y-61.573
M16
G05
G00X108.316Y-76.743
M15
G01X108.316Y-76.143
M16
G05
G00X108.316Y-81.173
M15
G01X108.316Y-80.073
M16
G05
G00X108.316Y-95.243
M15
G01X108.316Y-94.643
M16
G05
G00X108.316Y-99.673
M15
G01X108.316Y-98.573
M16
G05
T0
M30
