G04 #@! TF.GenerationSoftware,KiCad,Pcbnew,(5.1.10-1-10_14)*
G04 #@! TF.CreationDate,2021-12-04T11:47:49+01:00*
G04 #@! TF.ProjectId,panel,70616e65-6c2e-46b6-9963-61645f706362,C3*
G04 #@! TF.SameCoordinates,Original*
G04 #@! TF.FileFunction,Soldermask,Top*
G04 #@! TF.FilePolarity,Negative*
%FSLAX46Y46*%
G04 Gerber Fmt 4.6, Leading zero omitted, Abs format (unit mm)*
G04 Created by KiCad (PCBNEW (5.1.10-1-10_14)) date 2021-12-04 11:47:49*
%MOMM*%
%LPD*%
G01*
G04 APERTURE LIST*
%ADD10C,0.500000*%
%ADD11R,1.560000X0.650000*%
%ADD12R,1.100000X1.100000*%
%ADD13C,2.600000*%
%ADD14C,3.500000*%
%ADD15R,0.600000X1.450000*%
%ADD16R,0.300000X1.450000*%
%ADD17O,1.000000X2.100000*%
%ADD18C,0.650000*%
%ADD19O,1.000000X1.600000*%
%ADD20C,2.100000*%
G04 APERTURE END LIST*
D10*
X104402500Y-110593000D03*
X102002500Y-109093000D03*
X102802500Y-109093000D03*
X102002500Y-110593000D03*
X106002500Y-109093000D03*
X106002500Y-110593000D03*
X103602500Y-110593000D03*
X104402500Y-109093000D03*
X102802500Y-110593000D03*
X105202500Y-110593000D03*
X105202500Y-109093000D03*
X103602500Y-109093000D03*
X33252500Y-26993000D03*
X34752500Y-24593000D03*
X34752500Y-25393000D03*
X33252500Y-24593000D03*
X34752500Y-28593000D03*
X33252500Y-28593000D03*
X33252500Y-26193000D03*
X34752500Y-26993000D03*
X33252500Y-25393000D03*
X33252500Y-27793000D03*
X34752500Y-27793000D03*
X34752500Y-26193000D03*
X24402500Y-110593000D03*
X22002500Y-109093000D03*
X22802500Y-109093000D03*
X22002500Y-110593000D03*
X26002500Y-109093000D03*
X26002500Y-110593000D03*
X23602500Y-110593000D03*
X24402500Y-109093000D03*
X22802500Y-110593000D03*
X25202500Y-110593000D03*
X25202500Y-109093000D03*
X23602500Y-109093000D03*
X24402500Y-92093000D03*
X22002500Y-90593000D03*
X22802500Y-90593000D03*
X22002500Y-92093000D03*
X26002500Y-90593000D03*
X26002500Y-92093000D03*
X23602500Y-92093000D03*
X24402500Y-90593000D03*
X22802500Y-92093000D03*
X25202500Y-92093000D03*
X25202500Y-90593000D03*
X23602500Y-90593000D03*
X24402500Y-73593000D03*
X22002500Y-72093000D03*
X22802500Y-72093000D03*
X22002500Y-73593000D03*
X26002500Y-72093000D03*
X26002500Y-73593000D03*
X23602500Y-73593000D03*
X24402500Y-72093000D03*
X22802500Y-73593000D03*
X25202500Y-73593000D03*
X25202500Y-72093000D03*
X23602500Y-72093000D03*
X24402500Y-55093000D03*
X22002500Y-53593000D03*
X22802500Y-53593000D03*
X22002500Y-55093000D03*
X26002500Y-53593000D03*
X26002500Y-55093000D03*
X23602500Y-55093000D03*
X24402500Y-53593000D03*
X22802500Y-55093000D03*
X25202500Y-55093000D03*
X25202500Y-53593000D03*
X23602500Y-53593000D03*
X24402500Y-36593000D03*
X22002500Y-35093000D03*
X22802500Y-35093000D03*
X22002500Y-36593000D03*
X26002500Y-35093000D03*
X26002500Y-36593000D03*
X23602500Y-36593000D03*
X24402500Y-35093000D03*
X22802500Y-36593000D03*
X25202500Y-36593000D03*
X25202500Y-35093000D03*
X23602500Y-35093000D03*
X53252500Y-100993000D03*
X54752500Y-98593000D03*
X54752500Y-99393000D03*
X53252500Y-98593000D03*
X54752500Y-102593000D03*
X53252500Y-102593000D03*
X53252500Y-100193000D03*
X54752500Y-100993000D03*
X53252500Y-99393000D03*
X53252500Y-101793000D03*
X54752500Y-101793000D03*
X54752500Y-100193000D03*
X93252500Y-100993000D03*
X94752500Y-98593000D03*
X94752500Y-99393000D03*
X93252500Y-98593000D03*
X94752500Y-102593000D03*
X93252500Y-102593000D03*
X93252500Y-100193000D03*
X94752500Y-100993000D03*
X93252500Y-99393000D03*
X93252500Y-101793000D03*
X94752500Y-101793000D03*
X94752500Y-100193000D03*
X33252500Y-100993000D03*
X34752500Y-98593000D03*
X34752500Y-99393000D03*
X33252500Y-98593000D03*
X34752500Y-102593000D03*
X33252500Y-102593000D03*
X33252500Y-100193000D03*
X34752500Y-100993000D03*
X33252500Y-99393000D03*
X33252500Y-101793000D03*
X34752500Y-101793000D03*
X34752500Y-100193000D03*
X73252500Y-100993000D03*
X74752500Y-98593000D03*
X74752500Y-99393000D03*
X73252500Y-98593000D03*
X74752500Y-102593000D03*
X73252500Y-102593000D03*
X73252500Y-100193000D03*
X74752500Y-100993000D03*
X73252500Y-99393000D03*
X73252500Y-101793000D03*
X74752500Y-101793000D03*
X74752500Y-100193000D03*
X53252500Y-82493000D03*
X54752500Y-80093000D03*
X54752500Y-80893000D03*
X53252500Y-80093000D03*
X54752500Y-84093000D03*
X53252500Y-84093000D03*
X53252500Y-81693000D03*
X54752500Y-82493000D03*
X53252500Y-80893000D03*
X53252500Y-83293000D03*
X54752500Y-83293000D03*
X54752500Y-81693000D03*
X73252500Y-82493000D03*
X74752500Y-80093000D03*
X74752500Y-80893000D03*
X73252500Y-80093000D03*
X74752500Y-84093000D03*
X73252500Y-84093000D03*
X73252500Y-81693000D03*
X74752500Y-82493000D03*
X73252500Y-80893000D03*
X73252500Y-83293000D03*
X74752500Y-83293000D03*
X74752500Y-81693000D03*
X33252500Y-82493000D03*
X34752500Y-80093000D03*
X34752500Y-80893000D03*
X33252500Y-80093000D03*
X34752500Y-84093000D03*
X33252500Y-84093000D03*
X33252500Y-81693000D03*
X34752500Y-82493000D03*
X33252500Y-80893000D03*
X33252500Y-83293000D03*
X34752500Y-83293000D03*
X34752500Y-81693000D03*
X93252500Y-82493000D03*
X94752500Y-80093000D03*
X94752500Y-80893000D03*
X93252500Y-80093000D03*
X94752500Y-84093000D03*
X93252500Y-84093000D03*
X93252500Y-81693000D03*
X94752500Y-82493000D03*
X93252500Y-80893000D03*
X93252500Y-83293000D03*
X94752500Y-83293000D03*
X94752500Y-81693000D03*
X53252500Y-63993000D03*
X54752500Y-61593000D03*
X54752500Y-62393000D03*
X53252500Y-61593000D03*
X54752500Y-65593000D03*
X53252500Y-65593000D03*
X53252500Y-63193000D03*
X54752500Y-63993000D03*
X53252500Y-62393000D03*
X53252500Y-64793000D03*
X54752500Y-64793000D03*
X54752500Y-63193000D03*
X73252500Y-63993000D03*
X74752500Y-61593000D03*
X74752500Y-62393000D03*
X73252500Y-61593000D03*
X74752500Y-65593000D03*
X73252500Y-65593000D03*
X73252500Y-63193000D03*
X74752500Y-63993000D03*
X73252500Y-62393000D03*
X73252500Y-64793000D03*
X74752500Y-64793000D03*
X74752500Y-63193000D03*
X33252500Y-63993000D03*
X34752500Y-61593000D03*
X34752500Y-62393000D03*
X33252500Y-61593000D03*
X34752500Y-65593000D03*
X33252500Y-65593000D03*
X33252500Y-63193000D03*
X34752500Y-63993000D03*
X33252500Y-62393000D03*
X33252500Y-64793000D03*
X34752500Y-64793000D03*
X34752500Y-63193000D03*
X93252500Y-63993000D03*
X94752500Y-61593000D03*
X94752500Y-62393000D03*
X93252500Y-61593000D03*
X94752500Y-65593000D03*
X93252500Y-65593000D03*
X93252500Y-63193000D03*
X94752500Y-63993000D03*
X93252500Y-62393000D03*
X93252500Y-64793000D03*
X94752500Y-64793000D03*
X94752500Y-63193000D03*
X93252500Y-45493000D03*
X94752500Y-43093000D03*
X94752500Y-43893000D03*
X93252500Y-43093000D03*
X94752500Y-47093000D03*
X93252500Y-47093000D03*
X93252500Y-44693000D03*
X94752500Y-45493000D03*
X93252500Y-43893000D03*
X93252500Y-46293000D03*
X94752500Y-46293000D03*
X94752500Y-44693000D03*
X33252500Y-45493000D03*
X34752500Y-43093000D03*
X34752500Y-43893000D03*
X33252500Y-43093000D03*
X34752500Y-47093000D03*
X33252500Y-47093000D03*
X33252500Y-44693000D03*
X34752500Y-45493000D03*
X33252500Y-43893000D03*
X33252500Y-46293000D03*
X34752500Y-46293000D03*
X34752500Y-44693000D03*
X53252500Y-45493000D03*
X54752500Y-43093000D03*
X54752500Y-43893000D03*
X53252500Y-43093000D03*
X54752500Y-47093000D03*
X53252500Y-47093000D03*
X53252500Y-44693000D03*
X54752500Y-45493000D03*
X53252500Y-43893000D03*
X53252500Y-46293000D03*
X54752500Y-46293000D03*
X54752500Y-44693000D03*
X73252500Y-45493000D03*
X74752500Y-43093000D03*
X74752500Y-43893000D03*
X73252500Y-43093000D03*
X74752500Y-47093000D03*
X73252500Y-47093000D03*
X73252500Y-44693000D03*
X74752500Y-45493000D03*
X73252500Y-43893000D03*
X73252500Y-46293000D03*
X74752500Y-46293000D03*
X74752500Y-44693000D03*
X104402500Y-92093000D03*
X102002500Y-90593000D03*
X102802500Y-90593000D03*
X102002500Y-92093000D03*
X106002500Y-90593000D03*
X106002500Y-92093000D03*
X103602500Y-92093000D03*
X104402500Y-90593000D03*
X102802500Y-92093000D03*
X105202500Y-92093000D03*
X105202500Y-90593000D03*
X103602500Y-90593000D03*
X104402500Y-73593000D03*
X102002500Y-72093000D03*
X102802500Y-72093000D03*
X102002500Y-73593000D03*
X106002500Y-72093000D03*
X106002500Y-73593000D03*
X103602500Y-73593000D03*
X104402500Y-72093000D03*
X102802500Y-73593000D03*
X105202500Y-73593000D03*
X105202500Y-72093000D03*
X103602500Y-72093000D03*
X104402500Y-55093000D03*
X102002500Y-53593000D03*
X102802500Y-53593000D03*
X102002500Y-55093000D03*
X106002500Y-53593000D03*
X106002500Y-55093000D03*
X103602500Y-55093000D03*
X104402500Y-53593000D03*
X102802500Y-55093000D03*
X105202500Y-55093000D03*
X105202500Y-53593000D03*
X103602500Y-53593000D03*
X104402500Y-36593000D03*
X102002500Y-35093000D03*
X102802500Y-35093000D03*
X102002500Y-36593000D03*
X106002500Y-35093000D03*
X106002500Y-36593000D03*
X103602500Y-36593000D03*
X104402500Y-35093000D03*
X102802500Y-36593000D03*
X105202500Y-36593000D03*
X105202500Y-35093000D03*
X103602500Y-35093000D03*
X93252500Y-26993000D03*
X94752500Y-24593000D03*
X94752500Y-25393000D03*
X93252500Y-24593000D03*
X94752500Y-28593000D03*
X93252500Y-28593000D03*
X93252500Y-26193000D03*
X94752500Y-26993000D03*
X93252500Y-25393000D03*
X93252500Y-27793000D03*
X94752500Y-27793000D03*
X94752500Y-26193000D03*
X73252500Y-26993000D03*
X74752500Y-24593000D03*
X74752500Y-25393000D03*
X73252500Y-24593000D03*
X74752500Y-28593000D03*
X73252500Y-28593000D03*
X73252500Y-26193000D03*
X74752500Y-26993000D03*
X73252500Y-25393000D03*
X73252500Y-27793000D03*
X74752500Y-27793000D03*
X74752500Y-26193000D03*
X53252500Y-26993000D03*
X54752500Y-24593000D03*
X54752500Y-25393000D03*
X53252500Y-24593000D03*
X54752500Y-28593000D03*
X53252500Y-28593000D03*
X53252500Y-26193000D03*
X54752500Y-26993000D03*
X53252500Y-25393000D03*
X53252500Y-27793000D03*
X54752500Y-27793000D03*
X54752500Y-26193000D03*
D11*
X29000500Y-103068000D03*
X29000500Y-104018000D03*
X29000500Y-102118000D03*
X31700500Y-102118000D03*
X31700500Y-103068000D03*
X31700500Y-104018000D03*
D12*
X16100500Y-103976750D03*
X18900500Y-103976750D03*
G36*
G01*
X17413000Y-96780500D02*
X17888000Y-96780500D01*
G75*
G02*
X18125500Y-97018000I0J-237500D01*
G01*
X18125500Y-97518000D01*
G75*
G02*
X17888000Y-97755500I-237500J0D01*
G01*
X17413000Y-97755500D01*
G75*
G02*
X17175500Y-97518000I0J237500D01*
G01*
X17175500Y-97018000D01*
G75*
G02*
X17413000Y-96780500I237500J0D01*
G01*
G37*
G36*
G01*
X17413000Y-98605500D02*
X17888000Y-98605500D01*
G75*
G02*
X18125500Y-98843000I0J-237500D01*
G01*
X18125500Y-99343000D01*
G75*
G02*
X17888000Y-99580500I-237500J0D01*
G01*
X17413000Y-99580500D01*
G75*
G02*
X17175500Y-99343000I0J237500D01*
G01*
X17175500Y-98843000D01*
G75*
G02*
X17413000Y-98605500I237500J0D01*
G01*
G37*
G36*
G01*
X31650500Y-100993000D02*
X30400500Y-100993000D01*
G75*
G02*
X30150500Y-100743000I0J250000D01*
G01*
X30150500Y-99993000D01*
G75*
G02*
X30400500Y-99743000I250000J0D01*
G01*
X31650500Y-99743000D01*
G75*
G02*
X31900500Y-99993000I0J-250000D01*
G01*
X31900500Y-100743000D01*
G75*
G02*
X31650500Y-100993000I-250000J0D01*
G01*
G37*
G36*
G01*
X31650500Y-98193000D02*
X30400500Y-98193000D01*
G75*
G02*
X30150500Y-97943000I0J250000D01*
G01*
X30150500Y-97193000D01*
G75*
G02*
X30400500Y-96943000I250000J0D01*
G01*
X31650500Y-96943000D01*
G75*
G02*
X31900500Y-97193000I0J-250000D01*
G01*
X31900500Y-97943000D01*
G75*
G02*
X31650500Y-98193000I-250000J0D01*
G01*
G37*
D13*
X17002500Y-94343000D03*
D14*
X17002500Y-94343000D03*
X31002500Y-94343000D03*
D13*
X17002500Y-106843000D03*
D14*
X17002500Y-106843000D03*
X31002500Y-106843000D03*
D13*
X31002500Y-106843000D03*
G36*
G01*
X26200500Y-107968001D02*
X26200500Y-106667999D01*
G75*
G02*
X26450499Y-106418000I249999J0D01*
G01*
X27150501Y-106418000D01*
G75*
G02*
X27400500Y-106667999I0J-249999D01*
G01*
X27400500Y-107968001D01*
G75*
G02*
X27150501Y-108218000I-249999J0D01*
G01*
X26450499Y-108218000D01*
G75*
G02*
X26200500Y-107968001I0J249999D01*
G01*
G37*
G36*
G01*
X20600500Y-107968001D02*
X20600500Y-106667999D01*
G75*
G02*
X20850499Y-106418000I249999J0D01*
G01*
X21550501Y-106418000D01*
G75*
G02*
X21800500Y-106667999I0J-249999D01*
G01*
X21800500Y-107968001D01*
G75*
G02*
X21550501Y-108218000I-249999J0D01*
G01*
X20850499Y-108218000D01*
G75*
G02*
X20600500Y-107968001I0J249999D01*
G01*
G37*
G36*
G01*
X25200500Y-104068000D02*
X25200500Y-102818000D01*
G75*
G02*
X25350500Y-102668000I150000J0D01*
G01*
X25650500Y-102668000D01*
G75*
G02*
X25800500Y-102818000I0J-150000D01*
G01*
X25800500Y-104068000D01*
G75*
G02*
X25650500Y-104218000I-150000J0D01*
G01*
X25350500Y-104218000D01*
G75*
G02*
X25200500Y-104068000I0J150000D01*
G01*
G37*
G36*
G01*
X24200500Y-104068000D02*
X24200500Y-102818000D01*
G75*
G02*
X24350500Y-102668000I150000J0D01*
G01*
X24650500Y-102668000D01*
G75*
G02*
X24800500Y-102818000I0J-150000D01*
G01*
X24800500Y-104068000D01*
G75*
G02*
X24650500Y-104218000I-150000J0D01*
G01*
X24350500Y-104218000D01*
G75*
G02*
X24200500Y-104068000I0J150000D01*
G01*
G37*
G36*
G01*
X23200500Y-104068000D02*
X23200500Y-102818000D01*
G75*
G02*
X23350500Y-102668000I150000J0D01*
G01*
X23650500Y-102668000D01*
G75*
G02*
X23800500Y-102818000I0J-150000D01*
G01*
X23800500Y-104068000D01*
G75*
G02*
X23650500Y-104218000I-150000J0D01*
G01*
X23350500Y-104218000D01*
G75*
G02*
X23200500Y-104068000I0J150000D01*
G01*
G37*
G36*
G01*
X22200500Y-104068000D02*
X22200500Y-102818000D01*
G75*
G02*
X22350500Y-102668000I150000J0D01*
G01*
X22650500Y-102668000D01*
G75*
G02*
X22800500Y-102818000I0J-150000D01*
G01*
X22800500Y-104068000D01*
G75*
G02*
X22650500Y-104218000I-150000J0D01*
G01*
X22350500Y-104218000D01*
G75*
G02*
X22200500Y-104068000I0J150000D01*
G01*
G37*
D15*
X20745500Y-100038000D03*
X21545500Y-100038000D03*
X26445500Y-100038000D03*
X27245500Y-100038000D03*
X27245500Y-100038000D03*
X26445500Y-100038000D03*
X21545500Y-100038000D03*
X20745500Y-100038000D03*
D16*
X25745500Y-100038000D03*
X25245500Y-100038000D03*
X24745500Y-100038000D03*
X23745500Y-100038000D03*
X23245500Y-100038000D03*
X22745500Y-100038000D03*
X22245500Y-100038000D03*
X24245500Y-100038000D03*
D17*
X19675500Y-99123000D03*
X28315500Y-99123000D03*
D18*
X26885500Y-98593000D03*
D19*
X28315500Y-94943000D03*
D18*
X21105500Y-98593000D03*
D19*
X19675500Y-94943000D03*
G36*
G01*
X19596125Y-100970500D02*
X19596125Y-102220500D01*
G75*
G02*
X19346125Y-102470500I-250000J0D01*
G01*
X18596125Y-102470500D01*
G75*
G02*
X18346125Y-102220500I0J250000D01*
G01*
X18346125Y-100970500D01*
G75*
G02*
X18596125Y-100720500I250000J0D01*
G01*
X19346125Y-100720500D01*
G75*
G02*
X19596125Y-100970500I0J-250000D01*
G01*
G37*
G36*
G01*
X16796125Y-100970500D02*
X16796125Y-102220500D01*
G75*
G02*
X16546125Y-102470500I-250000J0D01*
G01*
X15796125Y-102470500D01*
G75*
G02*
X15546125Y-102220500I0J250000D01*
G01*
X15546125Y-100970500D01*
G75*
G02*
X15796125Y-100720500I250000J0D01*
G01*
X16546125Y-100720500D01*
G75*
G02*
X16796125Y-100970500I0J-250000D01*
G01*
G37*
G36*
G01*
X15863000Y-98605500D02*
X16338000Y-98605500D01*
G75*
G02*
X16575500Y-98843000I0J-237500D01*
G01*
X16575500Y-99343000D01*
G75*
G02*
X16338000Y-99580500I-237500J0D01*
G01*
X15863000Y-99580500D01*
G75*
G02*
X15625500Y-99343000I0J237500D01*
G01*
X15625500Y-98843000D01*
G75*
G02*
X15863000Y-98605500I237500J0D01*
G01*
G37*
G36*
G01*
X15863000Y-96780500D02*
X16338000Y-96780500D01*
G75*
G02*
X16575500Y-97018000I0J-237500D01*
G01*
X16575500Y-97518000D01*
G75*
G02*
X16338000Y-97755500I-237500J0D01*
G01*
X15863000Y-97755500D01*
G75*
G02*
X15625500Y-97518000I0J237500D01*
G01*
X15625500Y-97018000D01*
G75*
G02*
X15863000Y-96780500I237500J0D01*
G01*
G37*
D11*
X48750500Y-103068000D03*
X48750500Y-104018000D03*
X48750500Y-102118000D03*
X51450500Y-102118000D03*
X51450500Y-103068000D03*
X51450500Y-104018000D03*
D12*
X35850500Y-103976750D03*
X38650500Y-103976750D03*
G36*
G01*
X37163000Y-96780500D02*
X37638000Y-96780500D01*
G75*
G02*
X37875500Y-97018000I0J-237500D01*
G01*
X37875500Y-97518000D01*
G75*
G02*
X37638000Y-97755500I-237500J0D01*
G01*
X37163000Y-97755500D01*
G75*
G02*
X36925500Y-97518000I0J237500D01*
G01*
X36925500Y-97018000D01*
G75*
G02*
X37163000Y-96780500I237500J0D01*
G01*
G37*
G36*
G01*
X37163000Y-98605500D02*
X37638000Y-98605500D01*
G75*
G02*
X37875500Y-98843000I0J-237500D01*
G01*
X37875500Y-99343000D01*
G75*
G02*
X37638000Y-99580500I-237500J0D01*
G01*
X37163000Y-99580500D01*
G75*
G02*
X36925500Y-99343000I0J237500D01*
G01*
X36925500Y-98843000D01*
G75*
G02*
X37163000Y-98605500I237500J0D01*
G01*
G37*
G36*
G01*
X51400500Y-100993000D02*
X50150500Y-100993000D01*
G75*
G02*
X49900500Y-100743000I0J250000D01*
G01*
X49900500Y-99993000D01*
G75*
G02*
X50150500Y-99743000I250000J0D01*
G01*
X51400500Y-99743000D01*
G75*
G02*
X51650500Y-99993000I0J-250000D01*
G01*
X51650500Y-100743000D01*
G75*
G02*
X51400500Y-100993000I-250000J0D01*
G01*
G37*
G36*
G01*
X51400500Y-98193000D02*
X50150500Y-98193000D01*
G75*
G02*
X49900500Y-97943000I0J250000D01*
G01*
X49900500Y-97193000D01*
G75*
G02*
X50150500Y-96943000I250000J0D01*
G01*
X51400500Y-96943000D01*
G75*
G02*
X51650500Y-97193000I0J-250000D01*
G01*
X51650500Y-97943000D01*
G75*
G02*
X51400500Y-98193000I-250000J0D01*
G01*
G37*
D13*
X36752500Y-94343000D03*
D14*
X36752500Y-94343000D03*
X50752500Y-94343000D03*
D13*
X36752500Y-106843000D03*
D14*
X36752500Y-106843000D03*
X50752500Y-106843000D03*
D13*
X50752500Y-106843000D03*
G36*
G01*
X45950500Y-107968001D02*
X45950500Y-106667999D01*
G75*
G02*
X46200499Y-106418000I249999J0D01*
G01*
X46900501Y-106418000D01*
G75*
G02*
X47150500Y-106667999I0J-249999D01*
G01*
X47150500Y-107968001D01*
G75*
G02*
X46900501Y-108218000I-249999J0D01*
G01*
X46200499Y-108218000D01*
G75*
G02*
X45950500Y-107968001I0J249999D01*
G01*
G37*
G36*
G01*
X40350500Y-107968001D02*
X40350500Y-106667999D01*
G75*
G02*
X40600499Y-106418000I249999J0D01*
G01*
X41300501Y-106418000D01*
G75*
G02*
X41550500Y-106667999I0J-249999D01*
G01*
X41550500Y-107968001D01*
G75*
G02*
X41300501Y-108218000I-249999J0D01*
G01*
X40600499Y-108218000D01*
G75*
G02*
X40350500Y-107968001I0J249999D01*
G01*
G37*
G36*
G01*
X44950500Y-104068000D02*
X44950500Y-102818000D01*
G75*
G02*
X45100500Y-102668000I150000J0D01*
G01*
X45400500Y-102668000D01*
G75*
G02*
X45550500Y-102818000I0J-150000D01*
G01*
X45550500Y-104068000D01*
G75*
G02*
X45400500Y-104218000I-150000J0D01*
G01*
X45100500Y-104218000D01*
G75*
G02*
X44950500Y-104068000I0J150000D01*
G01*
G37*
G36*
G01*
X43950500Y-104068000D02*
X43950500Y-102818000D01*
G75*
G02*
X44100500Y-102668000I150000J0D01*
G01*
X44400500Y-102668000D01*
G75*
G02*
X44550500Y-102818000I0J-150000D01*
G01*
X44550500Y-104068000D01*
G75*
G02*
X44400500Y-104218000I-150000J0D01*
G01*
X44100500Y-104218000D01*
G75*
G02*
X43950500Y-104068000I0J150000D01*
G01*
G37*
G36*
G01*
X42950500Y-104068000D02*
X42950500Y-102818000D01*
G75*
G02*
X43100500Y-102668000I150000J0D01*
G01*
X43400500Y-102668000D01*
G75*
G02*
X43550500Y-102818000I0J-150000D01*
G01*
X43550500Y-104068000D01*
G75*
G02*
X43400500Y-104218000I-150000J0D01*
G01*
X43100500Y-104218000D01*
G75*
G02*
X42950500Y-104068000I0J150000D01*
G01*
G37*
G36*
G01*
X41950500Y-104068000D02*
X41950500Y-102818000D01*
G75*
G02*
X42100500Y-102668000I150000J0D01*
G01*
X42400500Y-102668000D01*
G75*
G02*
X42550500Y-102818000I0J-150000D01*
G01*
X42550500Y-104068000D01*
G75*
G02*
X42400500Y-104218000I-150000J0D01*
G01*
X42100500Y-104218000D01*
G75*
G02*
X41950500Y-104068000I0J150000D01*
G01*
G37*
D15*
X40495500Y-100038000D03*
X41295500Y-100038000D03*
X46195500Y-100038000D03*
X46995500Y-100038000D03*
X46995500Y-100038000D03*
X46195500Y-100038000D03*
X41295500Y-100038000D03*
X40495500Y-100038000D03*
D16*
X45495500Y-100038000D03*
X44995500Y-100038000D03*
X44495500Y-100038000D03*
X43495500Y-100038000D03*
X42995500Y-100038000D03*
X42495500Y-100038000D03*
X41995500Y-100038000D03*
X43995500Y-100038000D03*
D17*
X39425500Y-99123000D03*
X48065500Y-99123000D03*
D18*
X46635500Y-98593000D03*
D19*
X48065500Y-94943000D03*
D18*
X40855500Y-98593000D03*
D19*
X39425500Y-94943000D03*
G36*
G01*
X39346125Y-100970500D02*
X39346125Y-102220500D01*
G75*
G02*
X39096125Y-102470500I-250000J0D01*
G01*
X38346125Y-102470500D01*
G75*
G02*
X38096125Y-102220500I0J250000D01*
G01*
X38096125Y-100970500D01*
G75*
G02*
X38346125Y-100720500I250000J0D01*
G01*
X39096125Y-100720500D01*
G75*
G02*
X39346125Y-100970500I0J-250000D01*
G01*
G37*
G36*
G01*
X36546125Y-100970500D02*
X36546125Y-102220500D01*
G75*
G02*
X36296125Y-102470500I-250000J0D01*
G01*
X35546125Y-102470500D01*
G75*
G02*
X35296125Y-102220500I0J250000D01*
G01*
X35296125Y-100970500D01*
G75*
G02*
X35546125Y-100720500I250000J0D01*
G01*
X36296125Y-100720500D01*
G75*
G02*
X36546125Y-100970500I0J-250000D01*
G01*
G37*
G36*
G01*
X35613000Y-98605500D02*
X36088000Y-98605500D01*
G75*
G02*
X36325500Y-98843000I0J-237500D01*
G01*
X36325500Y-99343000D01*
G75*
G02*
X36088000Y-99580500I-237500J0D01*
G01*
X35613000Y-99580500D01*
G75*
G02*
X35375500Y-99343000I0J237500D01*
G01*
X35375500Y-98843000D01*
G75*
G02*
X35613000Y-98605500I237500J0D01*
G01*
G37*
G36*
G01*
X35613000Y-96780500D02*
X36088000Y-96780500D01*
G75*
G02*
X36325500Y-97018000I0J-237500D01*
G01*
X36325500Y-97518000D01*
G75*
G02*
X36088000Y-97755500I-237500J0D01*
G01*
X35613000Y-97755500D01*
G75*
G02*
X35375500Y-97518000I0J237500D01*
G01*
X35375500Y-97018000D01*
G75*
G02*
X35613000Y-96780500I237500J0D01*
G01*
G37*
D11*
X69000500Y-103068000D03*
X69000500Y-104018000D03*
X69000500Y-102118000D03*
X71700500Y-102118000D03*
X71700500Y-103068000D03*
X71700500Y-104018000D03*
D12*
X56100500Y-103976750D03*
X58900500Y-103976750D03*
G36*
G01*
X57413000Y-96780500D02*
X57888000Y-96780500D01*
G75*
G02*
X58125500Y-97018000I0J-237500D01*
G01*
X58125500Y-97518000D01*
G75*
G02*
X57888000Y-97755500I-237500J0D01*
G01*
X57413000Y-97755500D01*
G75*
G02*
X57175500Y-97518000I0J237500D01*
G01*
X57175500Y-97018000D01*
G75*
G02*
X57413000Y-96780500I237500J0D01*
G01*
G37*
G36*
G01*
X57413000Y-98605500D02*
X57888000Y-98605500D01*
G75*
G02*
X58125500Y-98843000I0J-237500D01*
G01*
X58125500Y-99343000D01*
G75*
G02*
X57888000Y-99580500I-237500J0D01*
G01*
X57413000Y-99580500D01*
G75*
G02*
X57175500Y-99343000I0J237500D01*
G01*
X57175500Y-98843000D01*
G75*
G02*
X57413000Y-98605500I237500J0D01*
G01*
G37*
G36*
G01*
X71650500Y-100993000D02*
X70400500Y-100993000D01*
G75*
G02*
X70150500Y-100743000I0J250000D01*
G01*
X70150500Y-99993000D01*
G75*
G02*
X70400500Y-99743000I250000J0D01*
G01*
X71650500Y-99743000D01*
G75*
G02*
X71900500Y-99993000I0J-250000D01*
G01*
X71900500Y-100743000D01*
G75*
G02*
X71650500Y-100993000I-250000J0D01*
G01*
G37*
G36*
G01*
X71650500Y-98193000D02*
X70400500Y-98193000D01*
G75*
G02*
X70150500Y-97943000I0J250000D01*
G01*
X70150500Y-97193000D01*
G75*
G02*
X70400500Y-96943000I250000J0D01*
G01*
X71650500Y-96943000D01*
G75*
G02*
X71900500Y-97193000I0J-250000D01*
G01*
X71900500Y-97943000D01*
G75*
G02*
X71650500Y-98193000I-250000J0D01*
G01*
G37*
D13*
X57002500Y-94343000D03*
D14*
X57002500Y-94343000D03*
X71002500Y-94343000D03*
D13*
X57002500Y-106843000D03*
D14*
X57002500Y-106843000D03*
X71002500Y-106843000D03*
D13*
X71002500Y-106843000D03*
G36*
G01*
X66200500Y-107968001D02*
X66200500Y-106667999D01*
G75*
G02*
X66450499Y-106418000I249999J0D01*
G01*
X67150501Y-106418000D01*
G75*
G02*
X67400500Y-106667999I0J-249999D01*
G01*
X67400500Y-107968001D01*
G75*
G02*
X67150501Y-108218000I-249999J0D01*
G01*
X66450499Y-108218000D01*
G75*
G02*
X66200500Y-107968001I0J249999D01*
G01*
G37*
G36*
G01*
X60600500Y-107968001D02*
X60600500Y-106667999D01*
G75*
G02*
X60850499Y-106418000I249999J0D01*
G01*
X61550501Y-106418000D01*
G75*
G02*
X61800500Y-106667999I0J-249999D01*
G01*
X61800500Y-107968001D01*
G75*
G02*
X61550501Y-108218000I-249999J0D01*
G01*
X60850499Y-108218000D01*
G75*
G02*
X60600500Y-107968001I0J249999D01*
G01*
G37*
G36*
G01*
X65200500Y-104068000D02*
X65200500Y-102818000D01*
G75*
G02*
X65350500Y-102668000I150000J0D01*
G01*
X65650500Y-102668000D01*
G75*
G02*
X65800500Y-102818000I0J-150000D01*
G01*
X65800500Y-104068000D01*
G75*
G02*
X65650500Y-104218000I-150000J0D01*
G01*
X65350500Y-104218000D01*
G75*
G02*
X65200500Y-104068000I0J150000D01*
G01*
G37*
G36*
G01*
X64200500Y-104068000D02*
X64200500Y-102818000D01*
G75*
G02*
X64350500Y-102668000I150000J0D01*
G01*
X64650500Y-102668000D01*
G75*
G02*
X64800500Y-102818000I0J-150000D01*
G01*
X64800500Y-104068000D01*
G75*
G02*
X64650500Y-104218000I-150000J0D01*
G01*
X64350500Y-104218000D01*
G75*
G02*
X64200500Y-104068000I0J150000D01*
G01*
G37*
G36*
G01*
X63200500Y-104068000D02*
X63200500Y-102818000D01*
G75*
G02*
X63350500Y-102668000I150000J0D01*
G01*
X63650500Y-102668000D01*
G75*
G02*
X63800500Y-102818000I0J-150000D01*
G01*
X63800500Y-104068000D01*
G75*
G02*
X63650500Y-104218000I-150000J0D01*
G01*
X63350500Y-104218000D01*
G75*
G02*
X63200500Y-104068000I0J150000D01*
G01*
G37*
G36*
G01*
X62200500Y-104068000D02*
X62200500Y-102818000D01*
G75*
G02*
X62350500Y-102668000I150000J0D01*
G01*
X62650500Y-102668000D01*
G75*
G02*
X62800500Y-102818000I0J-150000D01*
G01*
X62800500Y-104068000D01*
G75*
G02*
X62650500Y-104218000I-150000J0D01*
G01*
X62350500Y-104218000D01*
G75*
G02*
X62200500Y-104068000I0J150000D01*
G01*
G37*
D15*
X60745500Y-100038000D03*
X61545500Y-100038000D03*
X66445500Y-100038000D03*
X67245500Y-100038000D03*
X67245500Y-100038000D03*
X66445500Y-100038000D03*
X61545500Y-100038000D03*
X60745500Y-100038000D03*
D16*
X65745500Y-100038000D03*
X65245500Y-100038000D03*
X64745500Y-100038000D03*
X63745500Y-100038000D03*
X63245500Y-100038000D03*
X62745500Y-100038000D03*
X62245500Y-100038000D03*
X64245500Y-100038000D03*
D17*
X59675500Y-99123000D03*
X68315500Y-99123000D03*
D18*
X66885500Y-98593000D03*
D19*
X68315500Y-94943000D03*
D18*
X61105500Y-98593000D03*
D19*
X59675500Y-94943000D03*
G36*
G01*
X59596125Y-100970500D02*
X59596125Y-102220500D01*
G75*
G02*
X59346125Y-102470500I-250000J0D01*
G01*
X58596125Y-102470500D01*
G75*
G02*
X58346125Y-102220500I0J250000D01*
G01*
X58346125Y-100970500D01*
G75*
G02*
X58596125Y-100720500I250000J0D01*
G01*
X59346125Y-100720500D01*
G75*
G02*
X59596125Y-100970500I0J-250000D01*
G01*
G37*
G36*
G01*
X56796125Y-100970500D02*
X56796125Y-102220500D01*
G75*
G02*
X56546125Y-102470500I-250000J0D01*
G01*
X55796125Y-102470500D01*
G75*
G02*
X55546125Y-102220500I0J250000D01*
G01*
X55546125Y-100970500D01*
G75*
G02*
X55796125Y-100720500I250000J0D01*
G01*
X56546125Y-100720500D01*
G75*
G02*
X56796125Y-100970500I0J-250000D01*
G01*
G37*
G36*
G01*
X55863000Y-98605500D02*
X56338000Y-98605500D01*
G75*
G02*
X56575500Y-98843000I0J-237500D01*
G01*
X56575500Y-99343000D01*
G75*
G02*
X56338000Y-99580500I-237500J0D01*
G01*
X55863000Y-99580500D01*
G75*
G02*
X55625500Y-99343000I0J237500D01*
G01*
X55625500Y-98843000D01*
G75*
G02*
X55863000Y-98605500I237500J0D01*
G01*
G37*
G36*
G01*
X55863000Y-96780500D02*
X56338000Y-96780500D01*
G75*
G02*
X56575500Y-97018000I0J-237500D01*
G01*
X56575500Y-97518000D01*
G75*
G02*
X56338000Y-97755500I-237500J0D01*
G01*
X55863000Y-97755500D01*
G75*
G02*
X55625500Y-97518000I0J237500D01*
G01*
X55625500Y-97018000D01*
G75*
G02*
X55863000Y-96780500I237500J0D01*
G01*
G37*
D11*
X89000500Y-103068000D03*
X89000500Y-104018000D03*
X89000500Y-102118000D03*
X91700500Y-102118000D03*
X91700500Y-103068000D03*
X91700500Y-104018000D03*
D12*
X76100500Y-103976750D03*
X78900500Y-103976750D03*
G36*
G01*
X77413000Y-96780500D02*
X77888000Y-96780500D01*
G75*
G02*
X78125500Y-97018000I0J-237500D01*
G01*
X78125500Y-97518000D01*
G75*
G02*
X77888000Y-97755500I-237500J0D01*
G01*
X77413000Y-97755500D01*
G75*
G02*
X77175500Y-97518000I0J237500D01*
G01*
X77175500Y-97018000D01*
G75*
G02*
X77413000Y-96780500I237500J0D01*
G01*
G37*
G36*
G01*
X77413000Y-98605500D02*
X77888000Y-98605500D01*
G75*
G02*
X78125500Y-98843000I0J-237500D01*
G01*
X78125500Y-99343000D01*
G75*
G02*
X77888000Y-99580500I-237500J0D01*
G01*
X77413000Y-99580500D01*
G75*
G02*
X77175500Y-99343000I0J237500D01*
G01*
X77175500Y-98843000D01*
G75*
G02*
X77413000Y-98605500I237500J0D01*
G01*
G37*
G36*
G01*
X91650500Y-100993000D02*
X90400500Y-100993000D01*
G75*
G02*
X90150500Y-100743000I0J250000D01*
G01*
X90150500Y-99993000D01*
G75*
G02*
X90400500Y-99743000I250000J0D01*
G01*
X91650500Y-99743000D01*
G75*
G02*
X91900500Y-99993000I0J-250000D01*
G01*
X91900500Y-100743000D01*
G75*
G02*
X91650500Y-100993000I-250000J0D01*
G01*
G37*
G36*
G01*
X91650500Y-98193000D02*
X90400500Y-98193000D01*
G75*
G02*
X90150500Y-97943000I0J250000D01*
G01*
X90150500Y-97193000D01*
G75*
G02*
X90400500Y-96943000I250000J0D01*
G01*
X91650500Y-96943000D01*
G75*
G02*
X91900500Y-97193000I0J-250000D01*
G01*
X91900500Y-97943000D01*
G75*
G02*
X91650500Y-98193000I-250000J0D01*
G01*
G37*
D13*
X77002500Y-94343000D03*
D14*
X77002500Y-94343000D03*
X91002500Y-94343000D03*
D13*
X77002500Y-106843000D03*
D14*
X77002500Y-106843000D03*
X91002500Y-106843000D03*
D13*
X91002500Y-106843000D03*
G36*
G01*
X86200500Y-107968001D02*
X86200500Y-106667999D01*
G75*
G02*
X86450499Y-106418000I249999J0D01*
G01*
X87150501Y-106418000D01*
G75*
G02*
X87400500Y-106667999I0J-249999D01*
G01*
X87400500Y-107968001D01*
G75*
G02*
X87150501Y-108218000I-249999J0D01*
G01*
X86450499Y-108218000D01*
G75*
G02*
X86200500Y-107968001I0J249999D01*
G01*
G37*
G36*
G01*
X80600500Y-107968001D02*
X80600500Y-106667999D01*
G75*
G02*
X80850499Y-106418000I249999J0D01*
G01*
X81550501Y-106418000D01*
G75*
G02*
X81800500Y-106667999I0J-249999D01*
G01*
X81800500Y-107968001D01*
G75*
G02*
X81550501Y-108218000I-249999J0D01*
G01*
X80850499Y-108218000D01*
G75*
G02*
X80600500Y-107968001I0J249999D01*
G01*
G37*
G36*
G01*
X85200500Y-104068000D02*
X85200500Y-102818000D01*
G75*
G02*
X85350500Y-102668000I150000J0D01*
G01*
X85650500Y-102668000D01*
G75*
G02*
X85800500Y-102818000I0J-150000D01*
G01*
X85800500Y-104068000D01*
G75*
G02*
X85650500Y-104218000I-150000J0D01*
G01*
X85350500Y-104218000D01*
G75*
G02*
X85200500Y-104068000I0J150000D01*
G01*
G37*
G36*
G01*
X84200500Y-104068000D02*
X84200500Y-102818000D01*
G75*
G02*
X84350500Y-102668000I150000J0D01*
G01*
X84650500Y-102668000D01*
G75*
G02*
X84800500Y-102818000I0J-150000D01*
G01*
X84800500Y-104068000D01*
G75*
G02*
X84650500Y-104218000I-150000J0D01*
G01*
X84350500Y-104218000D01*
G75*
G02*
X84200500Y-104068000I0J150000D01*
G01*
G37*
G36*
G01*
X83200500Y-104068000D02*
X83200500Y-102818000D01*
G75*
G02*
X83350500Y-102668000I150000J0D01*
G01*
X83650500Y-102668000D01*
G75*
G02*
X83800500Y-102818000I0J-150000D01*
G01*
X83800500Y-104068000D01*
G75*
G02*
X83650500Y-104218000I-150000J0D01*
G01*
X83350500Y-104218000D01*
G75*
G02*
X83200500Y-104068000I0J150000D01*
G01*
G37*
G36*
G01*
X82200500Y-104068000D02*
X82200500Y-102818000D01*
G75*
G02*
X82350500Y-102668000I150000J0D01*
G01*
X82650500Y-102668000D01*
G75*
G02*
X82800500Y-102818000I0J-150000D01*
G01*
X82800500Y-104068000D01*
G75*
G02*
X82650500Y-104218000I-150000J0D01*
G01*
X82350500Y-104218000D01*
G75*
G02*
X82200500Y-104068000I0J150000D01*
G01*
G37*
D15*
X80745500Y-100038000D03*
X81545500Y-100038000D03*
X86445500Y-100038000D03*
X87245500Y-100038000D03*
X87245500Y-100038000D03*
X86445500Y-100038000D03*
X81545500Y-100038000D03*
X80745500Y-100038000D03*
D16*
X85745500Y-100038000D03*
X85245500Y-100038000D03*
X84745500Y-100038000D03*
X83745500Y-100038000D03*
X83245500Y-100038000D03*
X82745500Y-100038000D03*
X82245500Y-100038000D03*
X84245500Y-100038000D03*
D17*
X79675500Y-99123000D03*
X88315500Y-99123000D03*
D18*
X86885500Y-98593000D03*
D19*
X88315500Y-94943000D03*
D18*
X81105500Y-98593000D03*
D19*
X79675500Y-94943000D03*
G36*
G01*
X79596125Y-100970500D02*
X79596125Y-102220500D01*
G75*
G02*
X79346125Y-102470500I-250000J0D01*
G01*
X78596125Y-102470500D01*
G75*
G02*
X78346125Y-102220500I0J250000D01*
G01*
X78346125Y-100970500D01*
G75*
G02*
X78596125Y-100720500I250000J0D01*
G01*
X79346125Y-100720500D01*
G75*
G02*
X79596125Y-100970500I0J-250000D01*
G01*
G37*
G36*
G01*
X76796125Y-100970500D02*
X76796125Y-102220500D01*
G75*
G02*
X76546125Y-102470500I-250000J0D01*
G01*
X75796125Y-102470500D01*
G75*
G02*
X75546125Y-102220500I0J250000D01*
G01*
X75546125Y-100970500D01*
G75*
G02*
X75796125Y-100720500I250000J0D01*
G01*
X76546125Y-100720500D01*
G75*
G02*
X76796125Y-100970500I0J-250000D01*
G01*
G37*
G36*
G01*
X75863000Y-98605500D02*
X76338000Y-98605500D01*
G75*
G02*
X76575500Y-98843000I0J-237500D01*
G01*
X76575500Y-99343000D01*
G75*
G02*
X76338000Y-99580500I-237500J0D01*
G01*
X75863000Y-99580500D01*
G75*
G02*
X75625500Y-99343000I0J237500D01*
G01*
X75625500Y-98843000D01*
G75*
G02*
X75863000Y-98605500I237500J0D01*
G01*
G37*
G36*
G01*
X75863000Y-96780500D02*
X76338000Y-96780500D01*
G75*
G02*
X76575500Y-97018000I0J-237500D01*
G01*
X76575500Y-97518000D01*
G75*
G02*
X76338000Y-97755500I-237500J0D01*
G01*
X75863000Y-97755500D01*
G75*
G02*
X75625500Y-97518000I0J237500D01*
G01*
X75625500Y-97018000D01*
G75*
G02*
X75863000Y-96780500I237500J0D01*
G01*
G37*
D11*
X109000500Y-103068000D03*
X109000500Y-104018000D03*
X109000500Y-102118000D03*
X111700500Y-102118000D03*
X111700500Y-103068000D03*
X111700500Y-104018000D03*
D12*
X96100500Y-103976750D03*
X98900500Y-103976750D03*
G36*
G01*
X97413000Y-96780500D02*
X97888000Y-96780500D01*
G75*
G02*
X98125500Y-97018000I0J-237500D01*
G01*
X98125500Y-97518000D01*
G75*
G02*
X97888000Y-97755500I-237500J0D01*
G01*
X97413000Y-97755500D01*
G75*
G02*
X97175500Y-97518000I0J237500D01*
G01*
X97175500Y-97018000D01*
G75*
G02*
X97413000Y-96780500I237500J0D01*
G01*
G37*
G36*
G01*
X97413000Y-98605500D02*
X97888000Y-98605500D01*
G75*
G02*
X98125500Y-98843000I0J-237500D01*
G01*
X98125500Y-99343000D01*
G75*
G02*
X97888000Y-99580500I-237500J0D01*
G01*
X97413000Y-99580500D01*
G75*
G02*
X97175500Y-99343000I0J237500D01*
G01*
X97175500Y-98843000D01*
G75*
G02*
X97413000Y-98605500I237500J0D01*
G01*
G37*
G36*
G01*
X111650500Y-100993000D02*
X110400500Y-100993000D01*
G75*
G02*
X110150500Y-100743000I0J250000D01*
G01*
X110150500Y-99993000D01*
G75*
G02*
X110400500Y-99743000I250000J0D01*
G01*
X111650500Y-99743000D01*
G75*
G02*
X111900500Y-99993000I0J-250000D01*
G01*
X111900500Y-100743000D01*
G75*
G02*
X111650500Y-100993000I-250000J0D01*
G01*
G37*
G36*
G01*
X111650500Y-98193000D02*
X110400500Y-98193000D01*
G75*
G02*
X110150500Y-97943000I0J250000D01*
G01*
X110150500Y-97193000D01*
G75*
G02*
X110400500Y-96943000I250000J0D01*
G01*
X111650500Y-96943000D01*
G75*
G02*
X111900500Y-97193000I0J-250000D01*
G01*
X111900500Y-97943000D01*
G75*
G02*
X111650500Y-98193000I-250000J0D01*
G01*
G37*
D13*
X97002500Y-94343000D03*
D14*
X97002500Y-94343000D03*
X111002500Y-94343000D03*
D13*
X97002500Y-106843000D03*
D14*
X97002500Y-106843000D03*
X111002500Y-106843000D03*
D13*
X111002500Y-106843000D03*
G36*
G01*
X106200500Y-107968001D02*
X106200500Y-106667999D01*
G75*
G02*
X106450499Y-106418000I249999J0D01*
G01*
X107150501Y-106418000D01*
G75*
G02*
X107400500Y-106667999I0J-249999D01*
G01*
X107400500Y-107968001D01*
G75*
G02*
X107150501Y-108218000I-249999J0D01*
G01*
X106450499Y-108218000D01*
G75*
G02*
X106200500Y-107968001I0J249999D01*
G01*
G37*
G36*
G01*
X100600500Y-107968001D02*
X100600500Y-106667999D01*
G75*
G02*
X100850499Y-106418000I249999J0D01*
G01*
X101550501Y-106418000D01*
G75*
G02*
X101800500Y-106667999I0J-249999D01*
G01*
X101800500Y-107968001D01*
G75*
G02*
X101550501Y-108218000I-249999J0D01*
G01*
X100850499Y-108218000D01*
G75*
G02*
X100600500Y-107968001I0J249999D01*
G01*
G37*
G36*
G01*
X105200500Y-104068000D02*
X105200500Y-102818000D01*
G75*
G02*
X105350500Y-102668000I150000J0D01*
G01*
X105650500Y-102668000D01*
G75*
G02*
X105800500Y-102818000I0J-150000D01*
G01*
X105800500Y-104068000D01*
G75*
G02*
X105650500Y-104218000I-150000J0D01*
G01*
X105350500Y-104218000D01*
G75*
G02*
X105200500Y-104068000I0J150000D01*
G01*
G37*
G36*
G01*
X104200500Y-104068000D02*
X104200500Y-102818000D01*
G75*
G02*
X104350500Y-102668000I150000J0D01*
G01*
X104650500Y-102668000D01*
G75*
G02*
X104800500Y-102818000I0J-150000D01*
G01*
X104800500Y-104068000D01*
G75*
G02*
X104650500Y-104218000I-150000J0D01*
G01*
X104350500Y-104218000D01*
G75*
G02*
X104200500Y-104068000I0J150000D01*
G01*
G37*
G36*
G01*
X103200500Y-104068000D02*
X103200500Y-102818000D01*
G75*
G02*
X103350500Y-102668000I150000J0D01*
G01*
X103650500Y-102668000D01*
G75*
G02*
X103800500Y-102818000I0J-150000D01*
G01*
X103800500Y-104068000D01*
G75*
G02*
X103650500Y-104218000I-150000J0D01*
G01*
X103350500Y-104218000D01*
G75*
G02*
X103200500Y-104068000I0J150000D01*
G01*
G37*
G36*
G01*
X102200500Y-104068000D02*
X102200500Y-102818000D01*
G75*
G02*
X102350500Y-102668000I150000J0D01*
G01*
X102650500Y-102668000D01*
G75*
G02*
X102800500Y-102818000I0J-150000D01*
G01*
X102800500Y-104068000D01*
G75*
G02*
X102650500Y-104218000I-150000J0D01*
G01*
X102350500Y-104218000D01*
G75*
G02*
X102200500Y-104068000I0J150000D01*
G01*
G37*
D15*
X100745500Y-100038000D03*
X101545500Y-100038000D03*
X106445500Y-100038000D03*
X107245500Y-100038000D03*
X107245500Y-100038000D03*
X106445500Y-100038000D03*
X101545500Y-100038000D03*
X100745500Y-100038000D03*
D16*
X105745500Y-100038000D03*
X105245500Y-100038000D03*
X104745500Y-100038000D03*
X103745500Y-100038000D03*
X103245500Y-100038000D03*
X102745500Y-100038000D03*
X102245500Y-100038000D03*
X104245500Y-100038000D03*
D17*
X99675500Y-99123000D03*
X108315500Y-99123000D03*
D18*
X106885500Y-98593000D03*
D19*
X108315500Y-94943000D03*
D18*
X101105500Y-98593000D03*
D19*
X99675500Y-94943000D03*
G36*
G01*
X99596125Y-100970500D02*
X99596125Y-102220500D01*
G75*
G02*
X99346125Y-102470500I-250000J0D01*
G01*
X98596125Y-102470500D01*
G75*
G02*
X98346125Y-102220500I0J250000D01*
G01*
X98346125Y-100970500D01*
G75*
G02*
X98596125Y-100720500I250000J0D01*
G01*
X99346125Y-100720500D01*
G75*
G02*
X99596125Y-100970500I0J-250000D01*
G01*
G37*
G36*
G01*
X96796125Y-100970500D02*
X96796125Y-102220500D01*
G75*
G02*
X96546125Y-102470500I-250000J0D01*
G01*
X95796125Y-102470500D01*
G75*
G02*
X95546125Y-102220500I0J250000D01*
G01*
X95546125Y-100970500D01*
G75*
G02*
X95796125Y-100720500I250000J0D01*
G01*
X96546125Y-100720500D01*
G75*
G02*
X96796125Y-100970500I0J-250000D01*
G01*
G37*
G36*
G01*
X95863000Y-98605500D02*
X96338000Y-98605500D01*
G75*
G02*
X96575500Y-98843000I0J-237500D01*
G01*
X96575500Y-99343000D01*
G75*
G02*
X96338000Y-99580500I-237500J0D01*
G01*
X95863000Y-99580500D01*
G75*
G02*
X95625500Y-99343000I0J237500D01*
G01*
X95625500Y-98843000D01*
G75*
G02*
X95863000Y-98605500I237500J0D01*
G01*
G37*
G36*
G01*
X95863000Y-96780500D02*
X96338000Y-96780500D01*
G75*
G02*
X96575500Y-97018000I0J-237500D01*
G01*
X96575500Y-97518000D01*
G75*
G02*
X96338000Y-97755500I-237500J0D01*
G01*
X95863000Y-97755500D01*
G75*
G02*
X95625500Y-97518000I0J237500D01*
G01*
X95625500Y-97018000D01*
G75*
G02*
X95863000Y-96780500I237500J0D01*
G01*
G37*
D11*
X109000500Y-84568000D03*
X109000500Y-85518000D03*
X109000500Y-83618000D03*
X111700500Y-83618000D03*
X111700500Y-84568000D03*
X111700500Y-85518000D03*
D12*
X96100500Y-85476750D03*
X98900500Y-85476750D03*
G36*
G01*
X97413000Y-78280500D02*
X97888000Y-78280500D01*
G75*
G02*
X98125500Y-78518000I0J-237500D01*
G01*
X98125500Y-79018000D01*
G75*
G02*
X97888000Y-79255500I-237500J0D01*
G01*
X97413000Y-79255500D01*
G75*
G02*
X97175500Y-79018000I0J237500D01*
G01*
X97175500Y-78518000D01*
G75*
G02*
X97413000Y-78280500I237500J0D01*
G01*
G37*
G36*
G01*
X97413000Y-80105500D02*
X97888000Y-80105500D01*
G75*
G02*
X98125500Y-80343000I0J-237500D01*
G01*
X98125500Y-80843000D01*
G75*
G02*
X97888000Y-81080500I-237500J0D01*
G01*
X97413000Y-81080500D01*
G75*
G02*
X97175500Y-80843000I0J237500D01*
G01*
X97175500Y-80343000D01*
G75*
G02*
X97413000Y-80105500I237500J0D01*
G01*
G37*
G36*
G01*
X111650500Y-82493000D02*
X110400500Y-82493000D01*
G75*
G02*
X110150500Y-82243000I0J250000D01*
G01*
X110150500Y-81493000D01*
G75*
G02*
X110400500Y-81243000I250000J0D01*
G01*
X111650500Y-81243000D01*
G75*
G02*
X111900500Y-81493000I0J-250000D01*
G01*
X111900500Y-82243000D01*
G75*
G02*
X111650500Y-82493000I-250000J0D01*
G01*
G37*
G36*
G01*
X111650500Y-79693000D02*
X110400500Y-79693000D01*
G75*
G02*
X110150500Y-79443000I0J250000D01*
G01*
X110150500Y-78693000D01*
G75*
G02*
X110400500Y-78443000I250000J0D01*
G01*
X111650500Y-78443000D01*
G75*
G02*
X111900500Y-78693000I0J-250000D01*
G01*
X111900500Y-79443000D01*
G75*
G02*
X111650500Y-79693000I-250000J0D01*
G01*
G37*
D13*
X97002500Y-75843000D03*
D14*
X97002500Y-75843000D03*
X111002500Y-75843000D03*
D13*
X97002500Y-88343000D03*
D14*
X97002500Y-88343000D03*
X111002500Y-88343000D03*
D13*
X111002500Y-88343000D03*
G36*
G01*
X106200500Y-89468001D02*
X106200500Y-88167999D01*
G75*
G02*
X106450499Y-87918000I249999J0D01*
G01*
X107150501Y-87918000D01*
G75*
G02*
X107400500Y-88167999I0J-249999D01*
G01*
X107400500Y-89468001D01*
G75*
G02*
X107150501Y-89718000I-249999J0D01*
G01*
X106450499Y-89718000D01*
G75*
G02*
X106200500Y-89468001I0J249999D01*
G01*
G37*
G36*
G01*
X100600500Y-89468001D02*
X100600500Y-88167999D01*
G75*
G02*
X100850499Y-87918000I249999J0D01*
G01*
X101550501Y-87918000D01*
G75*
G02*
X101800500Y-88167999I0J-249999D01*
G01*
X101800500Y-89468001D01*
G75*
G02*
X101550501Y-89718000I-249999J0D01*
G01*
X100850499Y-89718000D01*
G75*
G02*
X100600500Y-89468001I0J249999D01*
G01*
G37*
G36*
G01*
X105200500Y-85568000D02*
X105200500Y-84318000D01*
G75*
G02*
X105350500Y-84168000I150000J0D01*
G01*
X105650500Y-84168000D01*
G75*
G02*
X105800500Y-84318000I0J-150000D01*
G01*
X105800500Y-85568000D01*
G75*
G02*
X105650500Y-85718000I-150000J0D01*
G01*
X105350500Y-85718000D01*
G75*
G02*
X105200500Y-85568000I0J150000D01*
G01*
G37*
G36*
G01*
X104200500Y-85568000D02*
X104200500Y-84318000D01*
G75*
G02*
X104350500Y-84168000I150000J0D01*
G01*
X104650500Y-84168000D01*
G75*
G02*
X104800500Y-84318000I0J-150000D01*
G01*
X104800500Y-85568000D01*
G75*
G02*
X104650500Y-85718000I-150000J0D01*
G01*
X104350500Y-85718000D01*
G75*
G02*
X104200500Y-85568000I0J150000D01*
G01*
G37*
G36*
G01*
X103200500Y-85568000D02*
X103200500Y-84318000D01*
G75*
G02*
X103350500Y-84168000I150000J0D01*
G01*
X103650500Y-84168000D01*
G75*
G02*
X103800500Y-84318000I0J-150000D01*
G01*
X103800500Y-85568000D01*
G75*
G02*
X103650500Y-85718000I-150000J0D01*
G01*
X103350500Y-85718000D01*
G75*
G02*
X103200500Y-85568000I0J150000D01*
G01*
G37*
G36*
G01*
X102200500Y-85568000D02*
X102200500Y-84318000D01*
G75*
G02*
X102350500Y-84168000I150000J0D01*
G01*
X102650500Y-84168000D01*
G75*
G02*
X102800500Y-84318000I0J-150000D01*
G01*
X102800500Y-85568000D01*
G75*
G02*
X102650500Y-85718000I-150000J0D01*
G01*
X102350500Y-85718000D01*
G75*
G02*
X102200500Y-85568000I0J150000D01*
G01*
G37*
D15*
X100745500Y-81538000D03*
X101545500Y-81538000D03*
X106445500Y-81538000D03*
X107245500Y-81538000D03*
X107245500Y-81538000D03*
X106445500Y-81538000D03*
X101545500Y-81538000D03*
X100745500Y-81538000D03*
D16*
X105745500Y-81538000D03*
X105245500Y-81538000D03*
X104745500Y-81538000D03*
X103745500Y-81538000D03*
X103245500Y-81538000D03*
X102745500Y-81538000D03*
X102245500Y-81538000D03*
X104245500Y-81538000D03*
D17*
X99675500Y-80623000D03*
X108315500Y-80623000D03*
D18*
X106885500Y-80093000D03*
D19*
X108315500Y-76443000D03*
D18*
X101105500Y-80093000D03*
D19*
X99675500Y-76443000D03*
G36*
G01*
X99596125Y-82470500D02*
X99596125Y-83720500D01*
G75*
G02*
X99346125Y-83970500I-250000J0D01*
G01*
X98596125Y-83970500D01*
G75*
G02*
X98346125Y-83720500I0J250000D01*
G01*
X98346125Y-82470500D01*
G75*
G02*
X98596125Y-82220500I250000J0D01*
G01*
X99346125Y-82220500D01*
G75*
G02*
X99596125Y-82470500I0J-250000D01*
G01*
G37*
G36*
G01*
X96796125Y-82470500D02*
X96796125Y-83720500D01*
G75*
G02*
X96546125Y-83970500I-250000J0D01*
G01*
X95796125Y-83970500D01*
G75*
G02*
X95546125Y-83720500I0J250000D01*
G01*
X95546125Y-82470500D01*
G75*
G02*
X95796125Y-82220500I250000J0D01*
G01*
X96546125Y-82220500D01*
G75*
G02*
X96796125Y-82470500I0J-250000D01*
G01*
G37*
G36*
G01*
X95863000Y-80105500D02*
X96338000Y-80105500D01*
G75*
G02*
X96575500Y-80343000I0J-237500D01*
G01*
X96575500Y-80843000D01*
G75*
G02*
X96338000Y-81080500I-237500J0D01*
G01*
X95863000Y-81080500D01*
G75*
G02*
X95625500Y-80843000I0J237500D01*
G01*
X95625500Y-80343000D01*
G75*
G02*
X95863000Y-80105500I237500J0D01*
G01*
G37*
G36*
G01*
X95863000Y-78280500D02*
X96338000Y-78280500D01*
G75*
G02*
X96575500Y-78518000I0J-237500D01*
G01*
X96575500Y-79018000D01*
G75*
G02*
X96338000Y-79255500I-237500J0D01*
G01*
X95863000Y-79255500D01*
G75*
G02*
X95625500Y-79018000I0J237500D01*
G01*
X95625500Y-78518000D01*
G75*
G02*
X95863000Y-78280500I237500J0D01*
G01*
G37*
D11*
X89000500Y-84568000D03*
X89000500Y-85518000D03*
X89000500Y-83618000D03*
X91700500Y-83618000D03*
X91700500Y-84568000D03*
X91700500Y-85518000D03*
D12*
X76100500Y-85476750D03*
X78900500Y-85476750D03*
G36*
G01*
X77413000Y-78280500D02*
X77888000Y-78280500D01*
G75*
G02*
X78125500Y-78518000I0J-237500D01*
G01*
X78125500Y-79018000D01*
G75*
G02*
X77888000Y-79255500I-237500J0D01*
G01*
X77413000Y-79255500D01*
G75*
G02*
X77175500Y-79018000I0J237500D01*
G01*
X77175500Y-78518000D01*
G75*
G02*
X77413000Y-78280500I237500J0D01*
G01*
G37*
G36*
G01*
X77413000Y-80105500D02*
X77888000Y-80105500D01*
G75*
G02*
X78125500Y-80343000I0J-237500D01*
G01*
X78125500Y-80843000D01*
G75*
G02*
X77888000Y-81080500I-237500J0D01*
G01*
X77413000Y-81080500D01*
G75*
G02*
X77175500Y-80843000I0J237500D01*
G01*
X77175500Y-80343000D01*
G75*
G02*
X77413000Y-80105500I237500J0D01*
G01*
G37*
G36*
G01*
X91650500Y-82493000D02*
X90400500Y-82493000D01*
G75*
G02*
X90150500Y-82243000I0J250000D01*
G01*
X90150500Y-81493000D01*
G75*
G02*
X90400500Y-81243000I250000J0D01*
G01*
X91650500Y-81243000D01*
G75*
G02*
X91900500Y-81493000I0J-250000D01*
G01*
X91900500Y-82243000D01*
G75*
G02*
X91650500Y-82493000I-250000J0D01*
G01*
G37*
G36*
G01*
X91650500Y-79693000D02*
X90400500Y-79693000D01*
G75*
G02*
X90150500Y-79443000I0J250000D01*
G01*
X90150500Y-78693000D01*
G75*
G02*
X90400500Y-78443000I250000J0D01*
G01*
X91650500Y-78443000D01*
G75*
G02*
X91900500Y-78693000I0J-250000D01*
G01*
X91900500Y-79443000D01*
G75*
G02*
X91650500Y-79693000I-250000J0D01*
G01*
G37*
D13*
X77002500Y-75843000D03*
D14*
X77002500Y-75843000D03*
X91002500Y-75843000D03*
D13*
X77002500Y-88343000D03*
D14*
X77002500Y-88343000D03*
X91002500Y-88343000D03*
D13*
X91002500Y-88343000D03*
G36*
G01*
X86200500Y-89468001D02*
X86200500Y-88167999D01*
G75*
G02*
X86450499Y-87918000I249999J0D01*
G01*
X87150501Y-87918000D01*
G75*
G02*
X87400500Y-88167999I0J-249999D01*
G01*
X87400500Y-89468001D01*
G75*
G02*
X87150501Y-89718000I-249999J0D01*
G01*
X86450499Y-89718000D01*
G75*
G02*
X86200500Y-89468001I0J249999D01*
G01*
G37*
G36*
G01*
X80600500Y-89468001D02*
X80600500Y-88167999D01*
G75*
G02*
X80850499Y-87918000I249999J0D01*
G01*
X81550501Y-87918000D01*
G75*
G02*
X81800500Y-88167999I0J-249999D01*
G01*
X81800500Y-89468001D01*
G75*
G02*
X81550501Y-89718000I-249999J0D01*
G01*
X80850499Y-89718000D01*
G75*
G02*
X80600500Y-89468001I0J249999D01*
G01*
G37*
G36*
G01*
X85200500Y-85568000D02*
X85200500Y-84318000D01*
G75*
G02*
X85350500Y-84168000I150000J0D01*
G01*
X85650500Y-84168000D01*
G75*
G02*
X85800500Y-84318000I0J-150000D01*
G01*
X85800500Y-85568000D01*
G75*
G02*
X85650500Y-85718000I-150000J0D01*
G01*
X85350500Y-85718000D01*
G75*
G02*
X85200500Y-85568000I0J150000D01*
G01*
G37*
G36*
G01*
X84200500Y-85568000D02*
X84200500Y-84318000D01*
G75*
G02*
X84350500Y-84168000I150000J0D01*
G01*
X84650500Y-84168000D01*
G75*
G02*
X84800500Y-84318000I0J-150000D01*
G01*
X84800500Y-85568000D01*
G75*
G02*
X84650500Y-85718000I-150000J0D01*
G01*
X84350500Y-85718000D01*
G75*
G02*
X84200500Y-85568000I0J150000D01*
G01*
G37*
G36*
G01*
X83200500Y-85568000D02*
X83200500Y-84318000D01*
G75*
G02*
X83350500Y-84168000I150000J0D01*
G01*
X83650500Y-84168000D01*
G75*
G02*
X83800500Y-84318000I0J-150000D01*
G01*
X83800500Y-85568000D01*
G75*
G02*
X83650500Y-85718000I-150000J0D01*
G01*
X83350500Y-85718000D01*
G75*
G02*
X83200500Y-85568000I0J150000D01*
G01*
G37*
G36*
G01*
X82200500Y-85568000D02*
X82200500Y-84318000D01*
G75*
G02*
X82350500Y-84168000I150000J0D01*
G01*
X82650500Y-84168000D01*
G75*
G02*
X82800500Y-84318000I0J-150000D01*
G01*
X82800500Y-85568000D01*
G75*
G02*
X82650500Y-85718000I-150000J0D01*
G01*
X82350500Y-85718000D01*
G75*
G02*
X82200500Y-85568000I0J150000D01*
G01*
G37*
D15*
X80745500Y-81538000D03*
X81545500Y-81538000D03*
X86445500Y-81538000D03*
X87245500Y-81538000D03*
X87245500Y-81538000D03*
X86445500Y-81538000D03*
X81545500Y-81538000D03*
X80745500Y-81538000D03*
D16*
X85745500Y-81538000D03*
X85245500Y-81538000D03*
X84745500Y-81538000D03*
X83745500Y-81538000D03*
X83245500Y-81538000D03*
X82745500Y-81538000D03*
X82245500Y-81538000D03*
X84245500Y-81538000D03*
D17*
X79675500Y-80623000D03*
X88315500Y-80623000D03*
D18*
X86885500Y-80093000D03*
D19*
X88315500Y-76443000D03*
D18*
X81105500Y-80093000D03*
D19*
X79675500Y-76443000D03*
G36*
G01*
X79596125Y-82470500D02*
X79596125Y-83720500D01*
G75*
G02*
X79346125Y-83970500I-250000J0D01*
G01*
X78596125Y-83970500D01*
G75*
G02*
X78346125Y-83720500I0J250000D01*
G01*
X78346125Y-82470500D01*
G75*
G02*
X78596125Y-82220500I250000J0D01*
G01*
X79346125Y-82220500D01*
G75*
G02*
X79596125Y-82470500I0J-250000D01*
G01*
G37*
G36*
G01*
X76796125Y-82470500D02*
X76796125Y-83720500D01*
G75*
G02*
X76546125Y-83970500I-250000J0D01*
G01*
X75796125Y-83970500D01*
G75*
G02*
X75546125Y-83720500I0J250000D01*
G01*
X75546125Y-82470500D01*
G75*
G02*
X75796125Y-82220500I250000J0D01*
G01*
X76546125Y-82220500D01*
G75*
G02*
X76796125Y-82470500I0J-250000D01*
G01*
G37*
G36*
G01*
X75863000Y-80105500D02*
X76338000Y-80105500D01*
G75*
G02*
X76575500Y-80343000I0J-237500D01*
G01*
X76575500Y-80843000D01*
G75*
G02*
X76338000Y-81080500I-237500J0D01*
G01*
X75863000Y-81080500D01*
G75*
G02*
X75625500Y-80843000I0J237500D01*
G01*
X75625500Y-80343000D01*
G75*
G02*
X75863000Y-80105500I237500J0D01*
G01*
G37*
G36*
G01*
X75863000Y-78280500D02*
X76338000Y-78280500D01*
G75*
G02*
X76575500Y-78518000I0J-237500D01*
G01*
X76575500Y-79018000D01*
G75*
G02*
X76338000Y-79255500I-237500J0D01*
G01*
X75863000Y-79255500D01*
G75*
G02*
X75625500Y-79018000I0J237500D01*
G01*
X75625500Y-78518000D01*
G75*
G02*
X75863000Y-78280500I237500J0D01*
G01*
G37*
D11*
X69000500Y-84568000D03*
X69000500Y-85518000D03*
X69000500Y-83618000D03*
X71700500Y-83618000D03*
X71700500Y-84568000D03*
X71700500Y-85518000D03*
D12*
X56100500Y-85476750D03*
X58900500Y-85476750D03*
G36*
G01*
X57413000Y-78280500D02*
X57888000Y-78280500D01*
G75*
G02*
X58125500Y-78518000I0J-237500D01*
G01*
X58125500Y-79018000D01*
G75*
G02*
X57888000Y-79255500I-237500J0D01*
G01*
X57413000Y-79255500D01*
G75*
G02*
X57175500Y-79018000I0J237500D01*
G01*
X57175500Y-78518000D01*
G75*
G02*
X57413000Y-78280500I237500J0D01*
G01*
G37*
G36*
G01*
X57413000Y-80105500D02*
X57888000Y-80105500D01*
G75*
G02*
X58125500Y-80343000I0J-237500D01*
G01*
X58125500Y-80843000D01*
G75*
G02*
X57888000Y-81080500I-237500J0D01*
G01*
X57413000Y-81080500D01*
G75*
G02*
X57175500Y-80843000I0J237500D01*
G01*
X57175500Y-80343000D01*
G75*
G02*
X57413000Y-80105500I237500J0D01*
G01*
G37*
G36*
G01*
X71650500Y-82493000D02*
X70400500Y-82493000D01*
G75*
G02*
X70150500Y-82243000I0J250000D01*
G01*
X70150500Y-81493000D01*
G75*
G02*
X70400500Y-81243000I250000J0D01*
G01*
X71650500Y-81243000D01*
G75*
G02*
X71900500Y-81493000I0J-250000D01*
G01*
X71900500Y-82243000D01*
G75*
G02*
X71650500Y-82493000I-250000J0D01*
G01*
G37*
G36*
G01*
X71650500Y-79693000D02*
X70400500Y-79693000D01*
G75*
G02*
X70150500Y-79443000I0J250000D01*
G01*
X70150500Y-78693000D01*
G75*
G02*
X70400500Y-78443000I250000J0D01*
G01*
X71650500Y-78443000D01*
G75*
G02*
X71900500Y-78693000I0J-250000D01*
G01*
X71900500Y-79443000D01*
G75*
G02*
X71650500Y-79693000I-250000J0D01*
G01*
G37*
D13*
X57002500Y-75843000D03*
D14*
X57002500Y-75843000D03*
X71002500Y-75843000D03*
D13*
X57002500Y-88343000D03*
D14*
X57002500Y-88343000D03*
X71002500Y-88343000D03*
D13*
X71002500Y-88343000D03*
G36*
G01*
X66200500Y-89468001D02*
X66200500Y-88167999D01*
G75*
G02*
X66450499Y-87918000I249999J0D01*
G01*
X67150501Y-87918000D01*
G75*
G02*
X67400500Y-88167999I0J-249999D01*
G01*
X67400500Y-89468001D01*
G75*
G02*
X67150501Y-89718000I-249999J0D01*
G01*
X66450499Y-89718000D01*
G75*
G02*
X66200500Y-89468001I0J249999D01*
G01*
G37*
G36*
G01*
X60600500Y-89468001D02*
X60600500Y-88167999D01*
G75*
G02*
X60850499Y-87918000I249999J0D01*
G01*
X61550501Y-87918000D01*
G75*
G02*
X61800500Y-88167999I0J-249999D01*
G01*
X61800500Y-89468001D01*
G75*
G02*
X61550501Y-89718000I-249999J0D01*
G01*
X60850499Y-89718000D01*
G75*
G02*
X60600500Y-89468001I0J249999D01*
G01*
G37*
G36*
G01*
X65200500Y-85568000D02*
X65200500Y-84318000D01*
G75*
G02*
X65350500Y-84168000I150000J0D01*
G01*
X65650500Y-84168000D01*
G75*
G02*
X65800500Y-84318000I0J-150000D01*
G01*
X65800500Y-85568000D01*
G75*
G02*
X65650500Y-85718000I-150000J0D01*
G01*
X65350500Y-85718000D01*
G75*
G02*
X65200500Y-85568000I0J150000D01*
G01*
G37*
G36*
G01*
X64200500Y-85568000D02*
X64200500Y-84318000D01*
G75*
G02*
X64350500Y-84168000I150000J0D01*
G01*
X64650500Y-84168000D01*
G75*
G02*
X64800500Y-84318000I0J-150000D01*
G01*
X64800500Y-85568000D01*
G75*
G02*
X64650500Y-85718000I-150000J0D01*
G01*
X64350500Y-85718000D01*
G75*
G02*
X64200500Y-85568000I0J150000D01*
G01*
G37*
G36*
G01*
X63200500Y-85568000D02*
X63200500Y-84318000D01*
G75*
G02*
X63350500Y-84168000I150000J0D01*
G01*
X63650500Y-84168000D01*
G75*
G02*
X63800500Y-84318000I0J-150000D01*
G01*
X63800500Y-85568000D01*
G75*
G02*
X63650500Y-85718000I-150000J0D01*
G01*
X63350500Y-85718000D01*
G75*
G02*
X63200500Y-85568000I0J150000D01*
G01*
G37*
G36*
G01*
X62200500Y-85568000D02*
X62200500Y-84318000D01*
G75*
G02*
X62350500Y-84168000I150000J0D01*
G01*
X62650500Y-84168000D01*
G75*
G02*
X62800500Y-84318000I0J-150000D01*
G01*
X62800500Y-85568000D01*
G75*
G02*
X62650500Y-85718000I-150000J0D01*
G01*
X62350500Y-85718000D01*
G75*
G02*
X62200500Y-85568000I0J150000D01*
G01*
G37*
D15*
X60745500Y-81538000D03*
X61545500Y-81538000D03*
X66445500Y-81538000D03*
X67245500Y-81538000D03*
X67245500Y-81538000D03*
X66445500Y-81538000D03*
X61545500Y-81538000D03*
X60745500Y-81538000D03*
D16*
X65745500Y-81538000D03*
X65245500Y-81538000D03*
X64745500Y-81538000D03*
X63745500Y-81538000D03*
X63245500Y-81538000D03*
X62745500Y-81538000D03*
X62245500Y-81538000D03*
X64245500Y-81538000D03*
D17*
X59675500Y-80623000D03*
X68315500Y-80623000D03*
D18*
X66885500Y-80093000D03*
D19*
X68315500Y-76443000D03*
D18*
X61105500Y-80093000D03*
D19*
X59675500Y-76443000D03*
G36*
G01*
X59596125Y-82470500D02*
X59596125Y-83720500D01*
G75*
G02*
X59346125Y-83970500I-250000J0D01*
G01*
X58596125Y-83970500D01*
G75*
G02*
X58346125Y-83720500I0J250000D01*
G01*
X58346125Y-82470500D01*
G75*
G02*
X58596125Y-82220500I250000J0D01*
G01*
X59346125Y-82220500D01*
G75*
G02*
X59596125Y-82470500I0J-250000D01*
G01*
G37*
G36*
G01*
X56796125Y-82470500D02*
X56796125Y-83720500D01*
G75*
G02*
X56546125Y-83970500I-250000J0D01*
G01*
X55796125Y-83970500D01*
G75*
G02*
X55546125Y-83720500I0J250000D01*
G01*
X55546125Y-82470500D01*
G75*
G02*
X55796125Y-82220500I250000J0D01*
G01*
X56546125Y-82220500D01*
G75*
G02*
X56796125Y-82470500I0J-250000D01*
G01*
G37*
G36*
G01*
X55863000Y-80105500D02*
X56338000Y-80105500D01*
G75*
G02*
X56575500Y-80343000I0J-237500D01*
G01*
X56575500Y-80843000D01*
G75*
G02*
X56338000Y-81080500I-237500J0D01*
G01*
X55863000Y-81080500D01*
G75*
G02*
X55625500Y-80843000I0J237500D01*
G01*
X55625500Y-80343000D01*
G75*
G02*
X55863000Y-80105500I237500J0D01*
G01*
G37*
G36*
G01*
X55863000Y-78280500D02*
X56338000Y-78280500D01*
G75*
G02*
X56575500Y-78518000I0J-237500D01*
G01*
X56575500Y-79018000D01*
G75*
G02*
X56338000Y-79255500I-237500J0D01*
G01*
X55863000Y-79255500D01*
G75*
G02*
X55625500Y-79018000I0J237500D01*
G01*
X55625500Y-78518000D01*
G75*
G02*
X55863000Y-78280500I237500J0D01*
G01*
G37*
D11*
X49000500Y-84568000D03*
X49000500Y-85518000D03*
X49000500Y-83618000D03*
X51700500Y-83618000D03*
X51700500Y-84568000D03*
X51700500Y-85518000D03*
D12*
X36100500Y-85476750D03*
X38900500Y-85476750D03*
G36*
G01*
X37413000Y-78280500D02*
X37888000Y-78280500D01*
G75*
G02*
X38125500Y-78518000I0J-237500D01*
G01*
X38125500Y-79018000D01*
G75*
G02*
X37888000Y-79255500I-237500J0D01*
G01*
X37413000Y-79255500D01*
G75*
G02*
X37175500Y-79018000I0J237500D01*
G01*
X37175500Y-78518000D01*
G75*
G02*
X37413000Y-78280500I237500J0D01*
G01*
G37*
G36*
G01*
X37413000Y-80105500D02*
X37888000Y-80105500D01*
G75*
G02*
X38125500Y-80343000I0J-237500D01*
G01*
X38125500Y-80843000D01*
G75*
G02*
X37888000Y-81080500I-237500J0D01*
G01*
X37413000Y-81080500D01*
G75*
G02*
X37175500Y-80843000I0J237500D01*
G01*
X37175500Y-80343000D01*
G75*
G02*
X37413000Y-80105500I237500J0D01*
G01*
G37*
G36*
G01*
X51650500Y-82493000D02*
X50400500Y-82493000D01*
G75*
G02*
X50150500Y-82243000I0J250000D01*
G01*
X50150500Y-81493000D01*
G75*
G02*
X50400500Y-81243000I250000J0D01*
G01*
X51650500Y-81243000D01*
G75*
G02*
X51900500Y-81493000I0J-250000D01*
G01*
X51900500Y-82243000D01*
G75*
G02*
X51650500Y-82493000I-250000J0D01*
G01*
G37*
G36*
G01*
X51650500Y-79693000D02*
X50400500Y-79693000D01*
G75*
G02*
X50150500Y-79443000I0J250000D01*
G01*
X50150500Y-78693000D01*
G75*
G02*
X50400500Y-78443000I250000J0D01*
G01*
X51650500Y-78443000D01*
G75*
G02*
X51900500Y-78693000I0J-250000D01*
G01*
X51900500Y-79443000D01*
G75*
G02*
X51650500Y-79693000I-250000J0D01*
G01*
G37*
D13*
X37002500Y-75843000D03*
D14*
X37002500Y-75843000D03*
X51002500Y-75843000D03*
D13*
X37002500Y-88343000D03*
D14*
X37002500Y-88343000D03*
X51002500Y-88343000D03*
D13*
X51002500Y-88343000D03*
G36*
G01*
X46200500Y-89468001D02*
X46200500Y-88167999D01*
G75*
G02*
X46450499Y-87918000I249999J0D01*
G01*
X47150501Y-87918000D01*
G75*
G02*
X47400500Y-88167999I0J-249999D01*
G01*
X47400500Y-89468001D01*
G75*
G02*
X47150501Y-89718000I-249999J0D01*
G01*
X46450499Y-89718000D01*
G75*
G02*
X46200500Y-89468001I0J249999D01*
G01*
G37*
G36*
G01*
X40600500Y-89468001D02*
X40600500Y-88167999D01*
G75*
G02*
X40850499Y-87918000I249999J0D01*
G01*
X41550501Y-87918000D01*
G75*
G02*
X41800500Y-88167999I0J-249999D01*
G01*
X41800500Y-89468001D01*
G75*
G02*
X41550501Y-89718000I-249999J0D01*
G01*
X40850499Y-89718000D01*
G75*
G02*
X40600500Y-89468001I0J249999D01*
G01*
G37*
G36*
G01*
X45200500Y-85568000D02*
X45200500Y-84318000D01*
G75*
G02*
X45350500Y-84168000I150000J0D01*
G01*
X45650500Y-84168000D01*
G75*
G02*
X45800500Y-84318000I0J-150000D01*
G01*
X45800500Y-85568000D01*
G75*
G02*
X45650500Y-85718000I-150000J0D01*
G01*
X45350500Y-85718000D01*
G75*
G02*
X45200500Y-85568000I0J150000D01*
G01*
G37*
G36*
G01*
X44200500Y-85568000D02*
X44200500Y-84318000D01*
G75*
G02*
X44350500Y-84168000I150000J0D01*
G01*
X44650500Y-84168000D01*
G75*
G02*
X44800500Y-84318000I0J-150000D01*
G01*
X44800500Y-85568000D01*
G75*
G02*
X44650500Y-85718000I-150000J0D01*
G01*
X44350500Y-85718000D01*
G75*
G02*
X44200500Y-85568000I0J150000D01*
G01*
G37*
G36*
G01*
X43200500Y-85568000D02*
X43200500Y-84318000D01*
G75*
G02*
X43350500Y-84168000I150000J0D01*
G01*
X43650500Y-84168000D01*
G75*
G02*
X43800500Y-84318000I0J-150000D01*
G01*
X43800500Y-85568000D01*
G75*
G02*
X43650500Y-85718000I-150000J0D01*
G01*
X43350500Y-85718000D01*
G75*
G02*
X43200500Y-85568000I0J150000D01*
G01*
G37*
G36*
G01*
X42200500Y-85568000D02*
X42200500Y-84318000D01*
G75*
G02*
X42350500Y-84168000I150000J0D01*
G01*
X42650500Y-84168000D01*
G75*
G02*
X42800500Y-84318000I0J-150000D01*
G01*
X42800500Y-85568000D01*
G75*
G02*
X42650500Y-85718000I-150000J0D01*
G01*
X42350500Y-85718000D01*
G75*
G02*
X42200500Y-85568000I0J150000D01*
G01*
G37*
D15*
X40745500Y-81538000D03*
X41545500Y-81538000D03*
X46445500Y-81538000D03*
X47245500Y-81538000D03*
X47245500Y-81538000D03*
X46445500Y-81538000D03*
X41545500Y-81538000D03*
X40745500Y-81538000D03*
D16*
X45745500Y-81538000D03*
X45245500Y-81538000D03*
X44745500Y-81538000D03*
X43745500Y-81538000D03*
X43245500Y-81538000D03*
X42745500Y-81538000D03*
X42245500Y-81538000D03*
X44245500Y-81538000D03*
D17*
X39675500Y-80623000D03*
X48315500Y-80623000D03*
D18*
X46885500Y-80093000D03*
D19*
X48315500Y-76443000D03*
D18*
X41105500Y-80093000D03*
D19*
X39675500Y-76443000D03*
G36*
G01*
X39596125Y-82470500D02*
X39596125Y-83720500D01*
G75*
G02*
X39346125Y-83970500I-250000J0D01*
G01*
X38596125Y-83970500D01*
G75*
G02*
X38346125Y-83720500I0J250000D01*
G01*
X38346125Y-82470500D01*
G75*
G02*
X38596125Y-82220500I250000J0D01*
G01*
X39346125Y-82220500D01*
G75*
G02*
X39596125Y-82470500I0J-250000D01*
G01*
G37*
G36*
G01*
X36796125Y-82470500D02*
X36796125Y-83720500D01*
G75*
G02*
X36546125Y-83970500I-250000J0D01*
G01*
X35796125Y-83970500D01*
G75*
G02*
X35546125Y-83720500I0J250000D01*
G01*
X35546125Y-82470500D01*
G75*
G02*
X35796125Y-82220500I250000J0D01*
G01*
X36546125Y-82220500D01*
G75*
G02*
X36796125Y-82470500I0J-250000D01*
G01*
G37*
G36*
G01*
X35863000Y-80105500D02*
X36338000Y-80105500D01*
G75*
G02*
X36575500Y-80343000I0J-237500D01*
G01*
X36575500Y-80843000D01*
G75*
G02*
X36338000Y-81080500I-237500J0D01*
G01*
X35863000Y-81080500D01*
G75*
G02*
X35625500Y-80843000I0J237500D01*
G01*
X35625500Y-80343000D01*
G75*
G02*
X35863000Y-80105500I237500J0D01*
G01*
G37*
G36*
G01*
X35863000Y-78280500D02*
X36338000Y-78280500D01*
G75*
G02*
X36575500Y-78518000I0J-237500D01*
G01*
X36575500Y-79018000D01*
G75*
G02*
X36338000Y-79255500I-237500J0D01*
G01*
X35863000Y-79255500D01*
G75*
G02*
X35625500Y-79018000I0J237500D01*
G01*
X35625500Y-78518000D01*
G75*
G02*
X35863000Y-78280500I237500J0D01*
G01*
G37*
D11*
X29000500Y-84568000D03*
X29000500Y-85518000D03*
X29000500Y-83618000D03*
X31700500Y-83618000D03*
X31700500Y-84568000D03*
X31700500Y-85518000D03*
D12*
X16100500Y-85476750D03*
X18900500Y-85476750D03*
G36*
G01*
X17413000Y-78280500D02*
X17888000Y-78280500D01*
G75*
G02*
X18125500Y-78518000I0J-237500D01*
G01*
X18125500Y-79018000D01*
G75*
G02*
X17888000Y-79255500I-237500J0D01*
G01*
X17413000Y-79255500D01*
G75*
G02*
X17175500Y-79018000I0J237500D01*
G01*
X17175500Y-78518000D01*
G75*
G02*
X17413000Y-78280500I237500J0D01*
G01*
G37*
G36*
G01*
X17413000Y-80105500D02*
X17888000Y-80105500D01*
G75*
G02*
X18125500Y-80343000I0J-237500D01*
G01*
X18125500Y-80843000D01*
G75*
G02*
X17888000Y-81080500I-237500J0D01*
G01*
X17413000Y-81080500D01*
G75*
G02*
X17175500Y-80843000I0J237500D01*
G01*
X17175500Y-80343000D01*
G75*
G02*
X17413000Y-80105500I237500J0D01*
G01*
G37*
G36*
G01*
X31650500Y-82493000D02*
X30400500Y-82493000D01*
G75*
G02*
X30150500Y-82243000I0J250000D01*
G01*
X30150500Y-81493000D01*
G75*
G02*
X30400500Y-81243000I250000J0D01*
G01*
X31650500Y-81243000D01*
G75*
G02*
X31900500Y-81493000I0J-250000D01*
G01*
X31900500Y-82243000D01*
G75*
G02*
X31650500Y-82493000I-250000J0D01*
G01*
G37*
G36*
G01*
X31650500Y-79693000D02*
X30400500Y-79693000D01*
G75*
G02*
X30150500Y-79443000I0J250000D01*
G01*
X30150500Y-78693000D01*
G75*
G02*
X30400500Y-78443000I250000J0D01*
G01*
X31650500Y-78443000D01*
G75*
G02*
X31900500Y-78693000I0J-250000D01*
G01*
X31900500Y-79443000D01*
G75*
G02*
X31650500Y-79693000I-250000J0D01*
G01*
G37*
D13*
X17002500Y-75843000D03*
D14*
X17002500Y-75843000D03*
X31002500Y-75843000D03*
D13*
X17002500Y-88343000D03*
D14*
X17002500Y-88343000D03*
X31002500Y-88343000D03*
D13*
X31002500Y-88343000D03*
G36*
G01*
X26200500Y-89468001D02*
X26200500Y-88167999D01*
G75*
G02*
X26450499Y-87918000I249999J0D01*
G01*
X27150501Y-87918000D01*
G75*
G02*
X27400500Y-88167999I0J-249999D01*
G01*
X27400500Y-89468001D01*
G75*
G02*
X27150501Y-89718000I-249999J0D01*
G01*
X26450499Y-89718000D01*
G75*
G02*
X26200500Y-89468001I0J249999D01*
G01*
G37*
G36*
G01*
X20600500Y-89468001D02*
X20600500Y-88167999D01*
G75*
G02*
X20850499Y-87918000I249999J0D01*
G01*
X21550501Y-87918000D01*
G75*
G02*
X21800500Y-88167999I0J-249999D01*
G01*
X21800500Y-89468001D01*
G75*
G02*
X21550501Y-89718000I-249999J0D01*
G01*
X20850499Y-89718000D01*
G75*
G02*
X20600500Y-89468001I0J249999D01*
G01*
G37*
G36*
G01*
X25200500Y-85568000D02*
X25200500Y-84318000D01*
G75*
G02*
X25350500Y-84168000I150000J0D01*
G01*
X25650500Y-84168000D01*
G75*
G02*
X25800500Y-84318000I0J-150000D01*
G01*
X25800500Y-85568000D01*
G75*
G02*
X25650500Y-85718000I-150000J0D01*
G01*
X25350500Y-85718000D01*
G75*
G02*
X25200500Y-85568000I0J150000D01*
G01*
G37*
G36*
G01*
X24200500Y-85568000D02*
X24200500Y-84318000D01*
G75*
G02*
X24350500Y-84168000I150000J0D01*
G01*
X24650500Y-84168000D01*
G75*
G02*
X24800500Y-84318000I0J-150000D01*
G01*
X24800500Y-85568000D01*
G75*
G02*
X24650500Y-85718000I-150000J0D01*
G01*
X24350500Y-85718000D01*
G75*
G02*
X24200500Y-85568000I0J150000D01*
G01*
G37*
G36*
G01*
X23200500Y-85568000D02*
X23200500Y-84318000D01*
G75*
G02*
X23350500Y-84168000I150000J0D01*
G01*
X23650500Y-84168000D01*
G75*
G02*
X23800500Y-84318000I0J-150000D01*
G01*
X23800500Y-85568000D01*
G75*
G02*
X23650500Y-85718000I-150000J0D01*
G01*
X23350500Y-85718000D01*
G75*
G02*
X23200500Y-85568000I0J150000D01*
G01*
G37*
G36*
G01*
X22200500Y-85568000D02*
X22200500Y-84318000D01*
G75*
G02*
X22350500Y-84168000I150000J0D01*
G01*
X22650500Y-84168000D01*
G75*
G02*
X22800500Y-84318000I0J-150000D01*
G01*
X22800500Y-85568000D01*
G75*
G02*
X22650500Y-85718000I-150000J0D01*
G01*
X22350500Y-85718000D01*
G75*
G02*
X22200500Y-85568000I0J150000D01*
G01*
G37*
D15*
X20745500Y-81538000D03*
X21545500Y-81538000D03*
X26445500Y-81538000D03*
X27245500Y-81538000D03*
X27245500Y-81538000D03*
X26445500Y-81538000D03*
X21545500Y-81538000D03*
X20745500Y-81538000D03*
D16*
X25745500Y-81538000D03*
X25245500Y-81538000D03*
X24745500Y-81538000D03*
X23745500Y-81538000D03*
X23245500Y-81538000D03*
X22745500Y-81538000D03*
X22245500Y-81538000D03*
X24245500Y-81538000D03*
D17*
X19675500Y-80623000D03*
X28315500Y-80623000D03*
D18*
X26885500Y-80093000D03*
D19*
X28315500Y-76443000D03*
D18*
X21105500Y-80093000D03*
D19*
X19675500Y-76443000D03*
G36*
G01*
X19596125Y-82470500D02*
X19596125Y-83720500D01*
G75*
G02*
X19346125Y-83970500I-250000J0D01*
G01*
X18596125Y-83970500D01*
G75*
G02*
X18346125Y-83720500I0J250000D01*
G01*
X18346125Y-82470500D01*
G75*
G02*
X18596125Y-82220500I250000J0D01*
G01*
X19346125Y-82220500D01*
G75*
G02*
X19596125Y-82470500I0J-250000D01*
G01*
G37*
G36*
G01*
X16796125Y-82470500D02*
X16796125Y-83720500D01*
G75*
G02*
X16546125Y-83970500I-250000J0D01*
G01*
X15796125Y-83970500D01*
G75*
G02*
X15546125Y-83720500I0J250000D01*
G01*
X15546125Y-82470500D01*
G75*
G02*
X15796125Y-82220500I250000J0D01*
G01*
X16546125Y-82220500D01*
G75*
G02*
X16796125Y-82470500I0J-250000D01*
G01*
G37*
G36*
G01*
X15863000Y-80105500D02*
X16338000Y-80105500D01*
G75*
G02*
X16575500Y-80343000I0J-237500D01*
G01*
X16575500Y-80843000D01*
G75*
G02*
X16338000Y-81080500I-237500J0D01*
G01*
X15863000Y-81080500D01*
G75*
G02*
X15625500Y-80843000I0J237500D01*
G01*
X15625500Y-80343000D01*
G75*
G02*
X15863000Y-80105500I237500J0D01*
G01*
G37*
G36*
G01*
X15863000Y-78280500D02*
X16338000Y-78280500D01*
G75*
G02*
X16575500Y-78518000I0J-237500D01*
G01*
X16575500Y-79018000D01*
G75*
G02*
X16338000Y-79255500I-237500J0D01*
G01*
X15863000Y-79255500D01*
G75*
G02*
X15625500Y-79018000I0J237500D01*
G01*
X15625500Y-78518000D01*
G75*
G02*
X15863000Y-78280500I237500J0D01*
G01*
G37*
D11*
X29000500Y-66068000D03*
X29000500Y-67018000D03*
X29000500Y-65118000D03*
X31700500Y-65118000D03*
X31700500Y-66068000D03*
X31700500Y-67018000D03*
D12*
X16100500Y-66976750D03*
X18900500Y-66976750D03*
G36*
G01*
X17413000Y-59780500D02*
X17888000Y-59780500D01*
G75*
G02*
X18125500Y-60018000I0J-237500D01*
G01*
X18125500Y-60518000D01*
G75*
G02*
X17888000Y-60755500I-237500J0D01*
G01*
X17413000Y-60755500D01*
G75*
G02*
X17175500Y-60518000I0J237500D01*
G01*
X17175500Y-60018000D01*
G75*
G02*
X17413000Y-59780500I237500J0D01*
G01*
G37*
G36*
G01*
X17413000Y-61605500D02*
X17888000Y-61605500D01*
G75*
G02*
X18125500Y-61843000I0J-237500D01*
G01*
X18125500Y-62343000D01*
G75*
G02*
X17888000Y-62580500I-237500J0D01*
G01*
X17413000Y-62580500D01*
G75*
G02*
X17175500Y-62343000I0J237500D01*
G01*
X17175500Y-61843000D01*
G75*
G02*
X17413000Y-61605500I237500J0D01*
G01*
G37*
G36*
G01*
X31650500Y-63993000D02*
X30400500Y-63993000D01*
G75*
G02*
X30150500Y-63743000I0J250000D01*
G01*
X30150500Y-62993000D01*
G75*
G02*
X30400500Y-62743000I250000J0D01*
G01*
X31650500Y-62743000D01*
G75*
G02*
X31900500Y-62993000I0J-250000D01*
G01*
X31900500Y-63743000D01*
G75*
G02*
X31650500Y-63993000I-250000J0D01*
G01*
G37*
G36*
G01*
X31650500Y-61193000D02*
X30400500Y-61193000D01*
G75*
G02*
X30150500Y-60943000I0J250000D01*
G01*
X30150500Y-60193000D01*
G75*
G02*
X30400500Y-59943000I250000J0D01*
G01*
X31650500Y-59943000D01*
G75*
G02*
X31900500Y-60193000I0J-250000D01*
G01*
X31900500Y-60943000D01*
G75*
G02*
X31650500Y-61193000I-250000J0D01*
G01*
G37*
D13*
X17002500Y-57343000D03*
D14*
X17002500Y-57343000D03*
X31002500Y-57343000D03*
D13*
X17002500Y-69843000D03*
D14*
X17002500Y-69843000D03*
X31002500Y-69843000D03*
D13*
X31002500Y-69843000D03*
G36*
G01*
X26200500Y-70968001D02*
X26200500Y-69667999D01*
G75*
G02*
X26450499Y-69418000I249999J0D01*
G01*
X27150501Y-69418000D01*
G75*
G02*
X27400500Y-69667999I0J-249999D01*
G01*
X27400500Y-70968001D01*
G75*
G02*
X27150501Y-71218000I-249999J0D01*
G01*
X26450499Y-71218000D01*
G75*
G02*
X26200500Y-70968001I0J249999D01*
G01*
G37*
G36*
G01*
X20600500Y-70968001D02*
X20600500Y-69667999D01*
G75*
G02*
X20850499Y-69418000I249999J0D01*
G01*
X21550501Y-69418000D01*
G75*
G02*
X21800500Y-69667999I0J-249999D01*
G01*
X21800500Y-70968001D01*
G75*
G02*
X21550501Y-71218000I-249999J0D01*
G01*
X20850499Y-71218000D01*
G75*
G02*
X20600500Y-70968001I0J249999D01*
G01*
G37*
G36*
G01*
X25200500Y-67068000D02*
X25200500Y-65818000D01*
G75*
G02*
X25350500Y-65668000I150000J0D01*
G01*
X25650500Y-65668000D01*
G75*
G02*
X25800500Y-65818000I0J-150000D01*
G01*
X25800500Y-67068000D01*
G75*
G02*
X25650500Y-67218000I-150000J0D01*
G01*
X25350500Y-67218000D01*
G75*
G02*
X25200500Y-67068000I0J150000D01*
G01*
G37*
G36*
G01*
X24200500Y-67068000D02*
X24200500Y-65818000D01*
G75*
G02*
X24350500Y-65668000I150000J0D01*
G01*
X24650500Y-65668000D01*
G75*
G02*
X24800500Y-65818000I0J-150000D01*
G01*
X24800500Y-67068000D01*
G75*
G02*
X24650500Y-67218000I-150000J0D01*
G01*
X24350500Y-67218000D01*
G75*
G02*
X24200500Y-67068000I0J150000D01*
G01*
G37*
G36*
G01*
X23200500Y-67068000D02*
X23200500Y-65818000D01*
G75*
G02*
X23350500Y-65668000I150000J0D01*
G01*
X23650500Y-65668000D01*
G75*
G02*
X23800500Y-65818000I0J-150000D01*
G01*
X23800500Y-67068000D01*
G75*
G02*
X23650500Y-67218000I-150000J0D01*
G01*
X23350500Y-67218000D01*
G75*
G02*
X23200500Y-67068000I0J150000D01*
G01*
G37*
G36*
G01*
X22200500Y-67068000D02*
X22200500Y-65818000D01*
G75*
G02*
X22350500Y-65668000I150000J0D01*
G01*
X22650500Y-65668000D01*
G75*
G02*
X22800500Y-65818000I0J-150000D01*
G01*
X22800500Y-67068000D01*
G75*
G02*
X22650500Y-67218000I-150000J0D01*
G01*
X22350500Y-67218000D01*
G75*
G02*
X22200500Y-67068000I0J150000D01*
G01*
G37*
D15*
X20745500Y-63038000D03*
X21545500Y-63038000D03*
X26445500Y-63038000D03*
X27245500Y-63038000D03*
X27245500Y-63038000D03*
X26445500Y-63038000D03*
X21545500Y-63038000D03*
X20745500Y-63038000D03*
D16*
X25745500Y-63038000D03*
X25245500Y-63038000D03*
X24745500Y-63038000D03*
X23745500Y-63038000D03*
X23245500Y-63038000D03*
X22745500Y-63038000D03*
X22245500Y-63038000D03*
X24245500Y-63038000D03*
D17*
X19675500Y-62123000D03*
X28315500Y-62123000D03*
D18*
X26885500Y-61593000D03*
D19*
X28315500Y-57943000D03*
D18*
X21105500Y-61593000D03*
D19*
X19675500Y-57943000D03*
G36*
G01*
X19596125Y-63970500D02*
X19596125Y-65220500D01*
G75*
G02*
X19346125Y-65470500I-250000J0D01*
G01*
X18596125Y-65470500D01*
G75*
G02*
X18346125Y-65220500I0J250000D01*
G01*
X18346125Y-63970500D01*
G75*
G02*
X18596125Y-63720500I250000J0D01*
G01*
X19346125Y-63720500D01*
G75*
G02*
X19596125Y-63970500I0J-250000D01*
G01*
G37*
G36*
G01*
X16796125Y-63970500D02*
X16796125Y-65220500D01*
G75*
G02*
X16546125Y-65470500I-250000J0D01*
G01*
X15796125Y-65470500D01*
G75*
G02*
X15546125Y-65220500I0J250000D01*
G01*
X15546125Y-63970500D01*
G75*
G02*
X15796125Y-63720500I250000J0D01*
G01*
X16546125Y-63720500D01*
G75*
G02*
X16796125Y-63970500I0J-250000D01*
G01*
G37*
G36*
G01*
X15863000Y-61605500D02*
X16338000Y-61605500D01*
G75*
G02*
X16575500Y-61843000I0J-237500D01*
G01*
X16575500Y-62343000D01*
G75*
G02*
X16338000Y-62580500I-237500J0D01*
G01*
X15863000Y-62580500D01*
G75*
G02*
X15625500Y-62343000I0J237500D01*
G01*
X15625500Y-61843000D01*
G75*
G02*
X15863000Y-61605500I237500J0D01*
G01*
G37*
G36*
G01*
X15863000Y-59780500D02*
X16338000Y-59780500D01*
G75*
G02*
X16575500Y-60018000I0J-237500D01*
G01*
X16575500Y-60518000D01*
G75*
G02*
X16338000Y-60755500I-237500J0D01*
G01*
X15863000Y-60755500D01*
G75*
G02*
X15625500Y-60518000I0J237500D01*
G01*
X15625500Y-60018000D01*
G75*
G02*
X15863000Y-59780500I237500J0D01*
G01*
G37*
D11*
X49000500Y-66068000D03*
X49000500Y-67018000D03*
X49000500Y-65118000D03*
X51700500Y-65118000D03*
X51700500Y-66068000D03*
X51700500Y-67018000D03*
D12*
X36100500Y-66976750D03*
X38900500Y-66976750D03*
G36*
G01*
X37413000Y-59780500D02*
X37888000Y-59780500D01*
G75*
G02*
X38125500Y-60018000I0J-237500D01*
G01*
X38125500Y-60518000D01*
G75*
G02*
X37888000Y-60755500I-237500J0D01*
G01*
X37413000Y-60755500D01*
G75*
G02*
X37175500Y-60518000I0J237500D01*
G01*
X37175500Y-60018000D01*
G75*
G02*
X37413000Y-59780500I237500J0D01*
G01*
G37*
G36*
G01*
X37413000Y-61605500D02*
X37888000Y-61605500D01*
G75*
G02*
X38125500Y-61843000I0J-237500D01*
G01*
X38125500Y-62343000D01*
G75*
G02*
X37888000Y-62580500I-237500J0D01*
G01*
X37413000Y-62580500D01*
G75*
G02*
X37175500Y-62343000I0J237500D01*
G01*
X37175500Y-61843000D01*
G75*
G02*
X37413000Y-61605500I237500J0D01*
G01*
G37*
G36*
G01*
X51650500Y-63993000D02*
X50400500Y-63993000D01*
G75*
G02*
X50150500Y-63743000I0J250000D01*
G01*
X50150500Y-62993000D01*
G75*
G02*
X50400500Y-62743000I250000J0D01*
G01*
X51650500Y-62743000D01*
G75*
G02*
X51900500Y-62993000I0J-250000D01*
G01*
X51900500Y-63743000D01*
G75*
G02*
X51650500Y-63993000I-250000J0D01*
G01*
G37*
G36*
G01*
X51650500Y-61193000D02*
X50400500Y-61193000D01*
G75*
G02*
X50150500Y-60943000I0J250000D01*
G01*
X50150500Y-60193000D01*
G75*
G02*
X50400500Y-59943000I250000J0D01*
G01*
X51650500Y-59943000D01*
G75*
G02*
X51900500Y-60193000I0J-250000D01*
G01*
X51900500Y-60943000D01*
G75*
G02*
X51650500Y-61193000I-250000J0D01*
G01*
G37*
D13*
X37002500Y-57343000D03*
D14*
X37002500Y-57343000D03*
X51002500Y-57343000D03*
D13*
X37002500Y-69843000D03*
D14*
X37002500Y-69843000D03*
X51002500Y-69843000D03*
D13*
X51002500Y-69843000D03*
G36*
G01*
X46200500Y-70968001D02*
X46200500Y-69667999D01*
G75*
G02*
X46450499Y-69418000I249999J0D01*
G01*
X47150501Y-69418000D01*
G75*
G02*
X47400500Y-69667999I0J-249999D01*
G01*
X47400500Y-70968001D01*
G75*
G02*
X47150501Y-71218000I-249999J0D01*
G01*
X46450499Y-71218000D01*
G75*
G02*
X46200500Y-70968001I0J249999D01*
G01*
G37*
G36*
G01*
X40600500Y-70968001D02*
X40600500Y-69667999D01*
G75*
G02*
X40850499Y-69418000I249999J0D01*
G01*
X41550501Y-69418000D01*
G75*
G02*
X41800500Y-69667999I0J-249999D01*
G01*
X41800500Y-70968001D01*
G75*
G02*
X41550501Y-71218000I-249999J0D01*
G01*
X40850499Y-71218000D01*
G75*
G02*
X40600500Y-70968001I0J249999D01*
G01*
G37*
G36*
G01*
X45200500Y-67068000D02*
X45200500Y-65818000D01*
G75*
G02*
X45350500Y-65668000I150000J0D01*
G01*
X45650500Y-65668000D01*
G75*
G02*
X45800500Y-65818000I0J-150000D01*
G01*
X45800500Y-67068000D01*
G75*
G02*
X45650500Y-67218000I-150000J0D01*
G01*
X45350500Y-67218000D01*
G75*
G02*
X45200500Y-67068000I0J150000D01*
G01*
G37*
G36*
G01*
X44200500Y-67068000D02*
X44200500Y-65818000D01*
G75*
G02*
X44350500Y-65668000I150000J0D01*
G01*
X44650500Y-65668000D01*
G75*
G02*
X44800500Y-65818000I0J-150000D01*
G01*
X44800500Y-67068000D01*
G75*
G02*
X44650500Y-67218000I-150000J0D01*
G01*
X44350500Y-67218000D01*
G75*
G02*
X44200500Y-67068000I0J150000D01*
G01*
G37*
G36*
G01*
X43200500Y-67068000D02*
X43200500Y-65818000D01*
G75*
G02*
X43350500Y-65668000I150000J0D01*
G01*
X43650500Y-65668000D01*
G75*
G02*
X43800500Y-65818000I0J-150000D01*
G01*
X43800500Y-67068000D01*
G75*
G02*
X43650500Y-67218000I-150000J0D01*
G01*
X43350500Y-67218000D01*
G75*
G02*
X43200500Y-67068000I0J150000D01*
G01*
G37*
G36*
G01*
X42200500Y-67068000D02*
X42200500Y-65818000D01*
G75*
G02*
X42350500Y-65668000I150000J0D01*
G01*
X42650500Y-65668000D01*
G75*
G02*
X42800500Y-65818000I0J-150000D01*
G01*
X42800500Y-67068000D01*
G75*
G02*
X42650500Y-67218000I-150000J0D01*
G01*
X42350500Y-67218000D01*
G75*
G02*
X42200500Y-67068000I0J150000D01*
G01*
G37*
D15*
X40745500Y-63038000D03*
X41545500Y-63038000D03*
X46445500Y-63038000D03*
X47245500Y-63038000D03*
X47245500Y-63038000D03*
X46445500Y-63038000D03*
X41545500Y-63038000D03*
X40745500Y-63038000D03*
D16*
X45745500Y-63038000D03*
X45245500Y-63038000D03*
X44745500Y-63038000D03*
X43745500Y-63038000D03*
X43245500Y-63038000D03*
X42745500Y-63038000D03*
X42245500Y-63038000D03*
X44245500Y-63038000D03*
D17*
X39675500Y-62123000D03*
X48315500Y-62123000D03*
D18*
X46885500Y-61593000D03*
D19*
X48315500Y-57943000D03*
D18*
X41105500Y-61593000D03*
D19*
X39675500Y-57943000D03*
G36*
G01*
X39596125Y-63970500D02*
X39596125Y-65220500D01*
G75*
G02*
X39346125Y-65470500I-250000J0D01*
G01*
X38596125Y-65470500D01*
G75*
G02*
X38346125Y-65220500I0J250000D01*
G01*
X38346125Y-63970500D01*
G75*
G02*
X38596125Y-63720500I250000J0D01*
G01*
X39346125Y-63720500D01*
G75*
G02*
X39596125Y-63970500I0J-250000D01*
G01*
G37*
G36*
G01*
X36796125Y-63970500D02*
X36796125Y-65220500D01*
G75*
G02*
X36546125Y-65470500I-250000J0D01*
G01*
X35796125Y-65470500D01*
G75*
G02*
X35546125Y-65220500I0J250000D01*
G01*
X35546125Y-63970500D01*
G75*
G02*
X35796125Y-63720500I250000J0D01*
G01*
X36546125Y-63720500D01*
G75*
G02*
X36796125Y-63970500I0J-250000D01*
G01*
G37*
G36*
G01*
X35863000Y-61605500D02*
X36338000Y-61605500D01*
G75*
G02*
X36575500Y-61843000I0J-237500D01*
G01*
X36575500Y-62343000D01*
G75*
G02*
X36338000Y-62580500I-237500J0D01*
G01*
X35863000Y-62580500D01*
G75*
G02*
X35625500Y-62343000I0J237500D01*
G01*
X35625500Y-61843000D01*
G75*
G02*
X35863000Y-61605500I237500J0D01*
G01*
G37*
G36*
G01*
X35863000Y-59780500D02*
X36338000Y-59780500D01*
G75*
G02*
X36575500Y-60018000I0J-237500D01*
G01*
X36575500Y-60518000D01*
G75*
G02*
X36338000Y-60755500I-237500J0D01*
G01*
X35863000Y-60755500D01*
G75*
G02*
X35625500Y-60518000I0J237500D01*
G01*
X35625500Y-60018000D01*
G75*
G02*
X35863000Y-59780500I237500J0D01*
G01*
G37*
D11*
X69000500Y-66068000D03*
X69000500Y-67018000D03*
X69000500Y-65118000D03*
X71700500Y-65118000D03*
X71700500Y-66068000D03*
X71700500Y-67018000D03*
D12*
X56100500Y-66976750D03*
X58900500Y-66976750D03*
G36*
G01*
X57413000Y-59780500D02*
X57888000Y-59780500D01*
G75*
G02*
X58125500Y-60018000I0J-237500D01*
G01*
X58125500Y-60518000D01*
G75*
G02*
X57888000Y-60755500I-237500J0D01*
G01*
X57413000Y-60755500D01*
G75*
G02*
X57175500Y-60518000I0J237500D01*
G01*
X57175500Y-60018000D01*
G75*
G02*
X57413000Y-59780500I237500J0D01*
G01*
G37*
G36*
G01*
X57413000Y-61605500D02*
X57888000Y-61605500D01*
G75*
G02*
X58125500Y-61843000I0J-237500D01*
G01*
X58125500Y-62343000D01*
G75*
G02*
X57888000Y-62580500I-237500J0D01*
G01*
X57413000Y-62580500D01*
G75*
G02*
X57175500Y-62343000I0J237500D01*
G01*
X57175500Y-61843000D01*
G75*
G02*
X57413000Y-61605500I237500J0D01*
G01*
G37*
G36*
G01*
X71650500Y-63993000D02*
X70400500Y-63993000D01*
G75*
G02*
X70150500Y-63743000I0J250000D01*
G01*
X70150500Y-62993000D01*
G75*
G02*
X70400500Y-62743000I250000J0D01*
G01*
X71650500Y-62743000D01*
G75*
G02*
X71900500Y-62993000I0J-250000D01*
G01*
X71900500Y-63743000D01*
G75*
G02*
X71650500Y-63993000I-250000J0D01*
G01*
G37*
G36*
G01*
X71650500Y-61193000D02*
X70400500Y-61193000D01*
G75*
G02*
X70150500Y-60943000I0J250000D01*
G01*
X70150500Y-60193000D01*
G75*
G02*
X70400500Y-59943000I250000J0D01*
G01*
X71650500Y-59943000D01*
G75*
G02*
X71900500Y-60193000I0J-250000D01*
G01*
X71900500Y-60943000D01*
G75*
G02*
X71650500Y-61193000I-250000J0D01*
G01*
G37*
D13*
X57002500Y-57343000D03*
D14*
X57002500Y-57343000D03*
X71002500Y-57343000D03*
D13*
X57002500Y-69843000D03*
D14*
X57002500Y-69843000D03*
X71002500Y-69843000D03*
D13*
X71002500Y-69843000D03*
G36*
G01*
X66200500Y-70968001D02*
X66200500Y-69667999D01*
G75*
G02*
X66450499Y-69418000I249999J0D01*
G01*
X67150501Y-69418000D01*
G75*
G02*
X67400500Y-69667999I0J-249999D01*
G01*
X67400500Y-70968001D01*
G75*
G02*
X67150501Y-71218000I-249999J0D01*
G01*
X66450499Y-71218000D01*
G75*
G02*
X66200500Y-70968001I0J249999D01*
G01*
G37*
G36*
G01*
X60600500Y-70968001D02*
X60600500Y-69667999D01*
G75*
G02*
X60850499Y-69418000I249999J0D01*
G01*
X61550501Y-69418000D01*
G75*
G02*
X61800500Y-69667999I0J-249999D01*
G01*
X61800500Y-70968001D01*
G75*
G02*
X61550501Y-71218000I-249999J0D01*
G01*
X60850499Y-71218000D01*
G75*
G02*
X60600500Y-70968001I0J249999D01*
G01*
G37*
G36*
G01*
X65200500Y-67068000D02*
X65200500Y-65818000D01*
G75*
G02*
X65350500Y-65668000I150000J0D01*
G01*
X65650500Y-65668000D01*
G75*
G02*
X65800500Y-65818000I0J-150000D01*
G01*
X65800500Y-67068000D01*
G75*
G02*
X65650500Y-67218000I-150000J0D01*
G01*
X65350500Y-67218000D01*
G75*
G02*
X65200500Y-67068000I0J150000D01*
G01*
G37*
G36*
G01*
X64200500Y-67068000D02*
X64200500Y-65818000D01*
G75*
G02*
X64350500Y-65668000I150000J0D01*
G01*
X64650500Y-65668000D01*
G75*
G02*
X64800500Y-65818000I0J-150000D01*
G01*
X64800500Y-67068000D01*
G75*
G02*
X64650500Y-67218000I-150000J0D01*
G01*
X64350500Y-67218000D01*
G75*
G02*
X64200500Y-67068000I0J150000D01*
G01*
G37*
G36*
G01*
X63200500Y-67068000D02*
X63200500Y-65818000D01*
G75*
G02*
X63350500Y-65668000I150000J0D01*
G01*
X63650500Y-65668000D01*
G75*
G02*
X63800500Y-65818000I0J-150000D01*
G01*
X63800500Y-67068000D01*
G75*
G02*
X63650500Y-67218000I-150000J0D01*
G01*
X63350500Y-67218000D01*
G75*
G02*
X63200500Y-67068000I0J150000D01*
G01*
G37*
G36*
G01*
X62200500Y-67068000D02*
X62200500Y-65818000D01*
G75*
G02*
X62350500Y-65668000I150000J0D01*
G01*
X62650500Y-65668000D01*
G75*
G02*
X62800500Y-65818000I0J-150000D01*
G01*
X62800500Y-67068000D01*
G75*
G02*
X62650500Y-67218000I-150000J0D01*
G01*
X62350500Y-67218000D01*
G75*
G02*
X62200500Y-67068000I0J150000D01*
G01*
G37*
D15*
X60745500Y-63038000D03*
X61545500Y-63038000D03*
X66445500Y-63038000D03*
X67245500Y-63038000D03*
X67245500Y-63038000D03*
X66445500Y-63038000D03*
X61545500Y-63038000D03*
X60745500Y-63038000D03*
D16*
X65745500Y-63038000D03*
X65245500Y-63038000D03*
X64745500Y-63038000D03*
X63745500Y-63038000D03*
X63245500Y-63038000D03*
X62745500Y-63038000D03*
X62245500Y-63038000D03*
X64245500Y-63038000D03*
D17*
X59675500Y-62123000D03*
X68315500Y-62123000D03*
D18*
X66885500Y-61593000D03*
D19*
X68315500Y-57943000D03*
D18*
X61105500Y-61593000D03*
D19*
X59675500Y-57943000D03*
G36*
G01*
X59596125Y-63970500D02*
X59596125Y-65220500D01*
G75*
G02*
X59346125Y-65470500I-250000J0D01*
G01*
X58596125Y-65470500D01*
G75*
G02*
X58346125Y-65220500I0J250000D01*
G01*
X58346125Y-63970500D01*
G75*
G02*
X58596125Y-63720500I250000J0D01*
G01*
X59346125Y-63720500D01*
G75*
G02*
X59596125Y-63970500I0J-250000D01*
G01*
G37*
G36*
G01*
X56796125Y-63970500D02*
X56796125Y-65220500D01*
G75*
G02*
X56546125Y-65470500I-250000J0D01*
G01*
X55796125Y-65470500D01*
G75*
G02*
X55546125Y-65220500I0J250000D01*
G01*
X55546125Y-63970500D01*
G75*
G02*
X55796125Y-63720500I250000J0D01*
G01*
X56546125Y-63720500D01*
G75*
G02*
X56796125Y-63970500I0J-250000D01*
G01*
G37*
G36*
G01*
X55863000Y-61605500D02*
X56338000Y-61605500D01*
G75*
G02*
X56575500Y-61843000I0J-237500D01*
G01*
X56575500Y-62343000D01*
G75*
G02*
X56338000Y-62580500I-237500J0D01*
G01*
X55863000Y-62580500D01*
G75*
G02*
X55625500Y-62343000I0J237500D01*
G01*
X55625500Y-61843000D01*
G75*
G02*
X55863000Y-61605500I237500J0D01*
G01*
G37*
G36*
G01*
X55863000Y-59780500D02*
X56338000Y-59780500D01*
G75*
G02*
X56575500Y-60018000I0J-237500D01*
G01*
X56575500Y-60518000D01*
G75*
G02*
X56338000Y-60755500I-237500J0D01*
G01*
X55863000Y-60755500D01*
G75*
G02*
X55625500Y-60518000I0J237500D01*
G01*
X55625500Y-60018000D01*
G75*
G02*
X55863000Y-59780500I237500J0D01*
G01*
G37*
D11*
X89000500Y-66068000D03*
X89000500Y-67018000D03*
X89000500Y-65118000D03*
X91700500Y-65118000D03*
X91700500Y-66068000D03*
X91700500Y-67018000D03*
D12*
X76100500Y-66976750D03*
X78900500Y-66976750D03*
G36*
G01*
X77413000Y-59780500D02*
X77888000Y-59780500D01*
G75*
G02*
X78125500Y-60018000I0J-237500D01*
G01*
X78125500Y-60518000D01*
G75*
G02*
X77888000Y-60755500I-237500J0D01*
G01*
X77413000Y-60755500D01*
G75*
G02*
X77175500Y-60518000I0J237500D01*
G01*
X77175500Y-60018000D01*
G75*
G02*
X77413000Y-59780500I237500J0D01*
G01*
G37*
G36*
G01*
X77413000Y-61605500D02*
X77888000Y-61605500D01*
G75*
G02*
X78125500Y-61843000I0J-237500D01*
G01*
X78125500Y-62343000D01*
G75*
G02*
X77888000Y-62580500I-237500J0D01*
G01*
X77413000Y-62580500D01*
G75*
G02*
X77175500Y-62343000I0J237500D01*
G01*
X77175500Y-61843000D01*
G75*
G02*
X77413000Y-61605500I237500J0D01*
G01*
G37*
G36*
G01*
X91650500Y-63993000D02*
X90400500Y-63993000D01*
G75*
G02*
X90150500Y-63743000I0J250000D01*
G01*
X90150500Y-62993000D01*
G75*
G02*
X90400500Y-62743000I250000J0D01*
G01*
X91650500Y-62743000D01*
G75*
G02*
X91900500Y-62993000I0J-250000D01*
G01*
X91900500Y-63743000D01*
G75*
G02*
X91650500Y-63993000I-250000J0D01*
G01*
G37*
G36*
G01*
X91650500Y-61193000D02*
X90400500Y-61193000D01*
G75*
G02*
X90150500Y-60943000I0J250000D01*
G01*
X90150500Y-60193000D01*
G75*
G02*
X90400500Y-59943000I250000J0D01*
G01*
X91650500Y-59943000D01*
G75*
G02*
X91900500Y-60193000I0J-250000D01*
G01*
X91900500Y-60943000D01*
G75*
G02*
X91650500Y-61193000I-250000J0D01*
G01*
G37*
D13*
X77002500Y-57343000D03*
D14*
X77002500Y-57343000D03*
X91002500Y-57343000D03*
D13*
X77002500Y-69843000D03*
D14*
X77002500Y-69843000D03*
X91002500Y-69843000D03*
D13*
X91002500Y-69843000D03*
G36*
G01*
X86200500Y-70968001D02*
X86200500Y-69667999D01*
G75*
G02*
X86450499Y-69418000I249999J0D01*
G01*
X87150501Y-69418000D01*
G75*
G02*
X87400500Y-69667999I0J-249999D01*
G01*
X87400500Y-70968001D01*
G75*
G02*
X87150501Y-71218000I-249999J0D01*
G01*
X86450499Y-71218000D01*
G75*
G02*
X86200500Y-70968001I0J249999D01*
G01*
G37*
G36*
G01*
X80600500Y-70968001D02*
X80600500Y-69667999D01*
G75*
G02*
X80850499Y-69418000I249999J0D01*
G01*
X81550501Y-69418000D01*
G75*
G02*
X81800500Y-69667999I0J-249999D01*
G01*
X81800500Y-70968001D01*
G75*
G02*
X81550501Y-71218000I-249999J0D01*
G01*
X80850499Y-71218000D01*
G75*
G02*
X80600500Y-70968001I0J249999D01*
G01*
G37*
G36*
G01*
X85200500Y-67068000D02*
X85200500Y-65818000D01*
G75*
G02*
X85350500Y-65668000I150000J0D01*
G01*
X85650500Y-65668000D01*
G75*
G02*
X85800500Y-65818000I0J-150000D01*
G01*
X85800500Y-67068000D01*
G75*
G02*
X85650500Y-67218000I-150000J0D01*
G01*
X85350500Y-67218000D01*
G75*
G02*
X85200500Y-67068000I0J150000D01*
G01*
G37*
G36*
G01*
X84200500Y-67068000D02*
X84200500Y-65818000D01*
G75*
G02*
X84350500Y-65668000I150000J0D01*
G01*
X84650500Y-65668000D01*
G75*
G02*
X84800500Y-65818000I0J-150000D01*
G01*
X84800500Y-67068000D01*
G75*
G02*
X84650500Y-67218000I-150000J0D01*
G01*
X84350500Y-67218000D01*
G75*
G02*
X84200500Y-67068000I0J150000D01*
G01*
G37*
G36*
G01*
X83200500Y-67068000D02*
X83200500Y-65818000D01*
G75*
G02*
X83350500Y-65668000I150000J0D01*
G01*
X83650500Y-65668000D01*
G75*
G02*
X83800500Y-65818000I0J-150000D01*
G01*
X83800500Y-67068000D01*
G75*
G02*
X83650500Y-67218000I-150000J0D01*
G01*
X83350500Y-67218000D01*
G75*
G02*
X83200500Y-67068000I0J150000D01*
G01*
G37*
G36*
G01*
X82200500Y-67068000D02*
X82200500Y-65818000D01*
G75*
G02*
X82350500Y-65668000I150000J0D01*
G01*
X82650500Y-65668000D01*
G75*
G02*
X82800500Y-65818000I0J-150000D01*
G01*
X82800500Y-67068000D01*
G75*
G02*
X82650500Y-67218000I-150000J0D01*
G01*
X82350500Y-67218000D01*
G75*
G02*
X82200500Y-67068000I0J150000D01*
G01*
G37*
D15*
X80745500Y-63038000D03*
X81545500Y-63038000D03*
X86445500Y-63038000D03*
X87245500Y-63038000D03*
X87245500Y-63038000D03*
X86445500Y-63038000D03*
X81545500Y-63038000D03*
X80745500Y-63038000D03*
D16*
X85745500Y-63038000D03*
X85245500Y-63038000D03*
X84745500Y-63038000D03*
X83745500Y-63038000D03*
X83245500Y-63038000D03*
X82745500Y-63038000D03*
X82245500Y-63038000D03*
X84245500Y-63038000D03*
D17*
X79675500Y-62123000D03*
X88315500Y-62123000D03*
D18*
X86885500Y-61593000D03*
D19*
X88315500Y-57943000D03*
D18*
X81105500Y-61593000D03*
D19*
X79675500Y-57943000D03*
G36*
G01*
X79596125Y-63970500D02*
X79596125Y-65220500D01*
G75*
G02*
X79346125Y-65470500I-250000J0D01*
G01*
X78596125Y-65470500D01*
G75*
G02*
X78346125Y-65220500I0J250000D01*
G01*
X78346125Y-63970500D01*
G75*
G02*
X78596125Y-63720500I250000J0D01*
G01*
X79346125Y-63720500D01*
G75*
G02*
X79596125Y-63970500I0J-250000D01*
G01*
G37*
G36*
G01*
X76796125Y-63970500D02*
X76796125Y-65220500D01*
G75*
G02*
X76546125Y-65470500I-250000J0D01*
G01*
X75796125Y-65470500D01*
G75*
G02*
X75546125Y-65220500I0J250000D01*
G01*
X75546125Y-63970500D01*
G75*
G02*
X75796125Y-63720500I250000J0D01*
G01*
X76546125Y-63720500D01*
G75*
G02*
X76796125Y-63970500I0J-250000D01*
G01*
G37*
G36*
G01*
X75863000Y-61605500D02*
X76338000Y-61605500D01*
G75*
G02*
X76575500Y-61843000I0J-237500D01*
G01*
X76575500Y-62343000D01*
G75*
G02*
X76338000Y-62580500I-237500J0D01*
G01*
X75863000Y-62580500D01*
G75*
G02*
X75625500Y-62343000I0J237500D01*
G01*
X75625500Y-61843000D01*
G75*
G02*
X75863000Y-61605500I237500J0D01*
G01*
G37*
G36*
G01*
X75863000Y-59780500D02*
X76338000Y-59780500D01*
G75*
G02*
X76575500Y-60018000I0J-237500D01*
G01*
X76575500Y-60518000D01*
G75*
G02*
X76338000Y-60755500I-237500J0D01*
G01*
X75863000Y-60755500D01*
G75*
G02*
X75625500Y-60518000I0J237500D01*
G01*
X75625500Y-60018000D01*
G75*
G02*
X75863000Y-59780500I237500J0D01*
G01*
G37*
D11*
X109000500Y-66068000D03*
X109000500Y-67018000D03*
X109000500Y-65118000D03*
X111700500Y-65118000D03*
X111700500Y-66068000D03*
X111700500Y-67018000D03*
D12*
X96100500Y-66976750D03*
X98900500Y-66976750D03*
G36*
G01*
X97413000Y-59780500D02*
X97888000Y-59780500D01*
G75*
G02*
X98125500Y-60018000I0J-237500D01*
G01*
X98125500Y-60518000D01*
G75*
G02*
X97888000Y-60755500I-237500J0D01*
G01*
X97413000Y-60755500D01*
G75*
G02*
X97175500Y-60518000I0J237500D01*
G01*
X97175500Y-60018000D01*
G75*
G02*
X97413000Y-59780500I237500J0D01*
G01*
G37*
G36*
G01*
X97413000Y-61605500D02*
X97888000Y-61605500D01*
G75*
G02*
X98125500Y-61843000I0J-237500D01*
G01*
X98125500Y-62343000D01*
G75*
G02*
X97888000Y-62580500I-237500J0D01*
G01*
X97413000Y-62580500D01*
G75*
G02*
X97175500Y-62343000I0J237500D01*
G01*
X97175500Y-61843000D01*
G75*
G02*
X97413000Y-61605500I237500J0D01*
G01*
G37*
G36*
G01*
X111650500Y-63993000D02*
X110400500Y-63993000D01*
G75*
G02*
X110150500Y-63743000I0J250000D01*
G01*
X110150500Y-62993000D01*
G75*
G02*
X110400500Y-62743000I250000J0D01*
G01*
X111650500Y-62743000D01*
G75*
G02*
X111900500Y-62993000I0J-250000D01*
G01*
X111900500Y-63743000D01*
G75*
G02*
X111650500Y-63993000I-250000J0D01*
G01*
G37*
G36*
G01*
X111650500Y-61193000D02*
X110400500Y-61193000D01*
G75*
G02*
X110150500Y-60943000I0J250000D01*
G01*
X110150500Y-60193000D01*
G75*
G02*
X110400500Y-59943000I250000J0D01*
G01*
X111650500Y-59943000D01*
G75*
G02*
X111900500Y-60193000I0J-250000D01*
G01*
X111900500Y-60943000D01*
G75*
G02*
X111650500Y-61193000I-250000J0D01*
G01*
G37*
D13*
X97002500Y-57343000D03*
D14*
X97002500Y-57343000D03*
X111002500Y-57343000D03*
D13*
X97002500Y-69843000D03*
D14*
X97002500Y-69843000D03*
X111002500Y-69843000D03*
D13*
X111002500Y-69843000D03*
G36*
G01*
X106200500Y-70968001D02*
X106200500Y-69667999D01*
G75*
G02*
X106450499Y-69418000I249999J0D01*
G01*
X107150501Y-69418000D01*
G75*
G02*
X107400500Y-69667999I0J-249999D01*
G01*
X107400500Y-70968001D01*
G75*
G02*
X107150501Y-71218000I-249999J0D01*
G01*
X106450499Y-71218000D01*
G75*
G02*
X106200500Y-70968001I0J249999D01*
G01*
G37*
G36*
G01*
X100600500Y-70968001D02*
X100600500Y-69667999D01*
G75*
G02*
X100850499Y-69418000I249999J0D01*
G01*
X101550501Y-69418000D01*
G75*
G02*
X101800500Y-69667999I0J-249999D01*
G01*
X101800500Y-70968001D01*
G75*
G02*
X101550501Y-71218000I-249999J0D01*
G01*
X100850499Y-71218000D01*
G75*
G02*
X100600500Y-70968001I0J249999D01*
G01*
G37*
G36*
G01*
X105200500Y-67068000D02*
X105200500Y-65818000D01*
G75*
G02*
X105350500Y-65668000I150000J0D01*
G01*
X105650500Y-65668000D01*
G75*
G02*
X105800500Y-65818000I0J-150000D01*
G01*
X105800500Y-67068000D01*
G75*
G02*
X105650500Y-67218000I-150000J0D01*
G01*
X105350500Y-67218000D01*
G75*
G02*
X105200500Y-67068000I0J150000D01*
G01*
G37*
G36*
G01*
X104200500Y-67068000D02*
X104200500Y-65818000D01*
G75*
G02*
X104350500Y-65668000I150000J0D01*
G01*
X104650500Y-65668000D01*
G75*
G02*
X104800500Y-65818000I0J-150000D01*
G01*
X104800500Y-67068000D01*
G75*
G02*
X104650500Y-67218000I-150000J0D01*
G01*
X104350500Y-67218000D01*
G75*
G02*
X104200500Y-67068000I0J150000D01*
G01*
G37*
G36*
G01*
X103200500Y-67068000D02*
X103200500Y-65818000D01*
G75*
G02*
X103350500Y-65668000I150000J0D01*
G01*
X103650500Y-65668000D01*
G75*
G02*
X103800500Y-65818000I0J-150000D01*
G01*
X103800500Y-67068000D01*
G75*
G02*
X103650500Y-67218000I-150000J0D01*
G01*
X103350500Y-67218000D01*
G75*
G02*
X103200500Y-67068000I0J150000D01*
G01*
G37*
G36*
G01*
X102200500Y-67068000D02*
X102200500Y-65818000D01*
G75*
G02*
X102350500Y-65668000I150000J0D01*
G01*
X102650500Y-65668000D01*
G75*
G02*
X102800500Y-65818000I0J-150000D01*
G01*
X102800500Y-67068000D01*
G75*
G02*
X102650500Y-67218000I-150000J0D01*
G01*
X102350500Y-67218000D01*
G75*
G02*
X102200500Y-67068000I0J150000D01*
G01*
G37*
D15*
X100745500Y-63038000D03*
X101545500Y-63038000D03*
X106445500Y-63038000D03*
X107245500Y-63038000D03*
X107245500Y-63038000D03*
X106445500Y-63038000D03*
X101545500Y-63038000D03*
X100745500Y-63038000D03*
D16*
X105745500Y-63038000D03*
X105245500Y-63038000D03*
X104745500Y-63038000D03*
X103745500Y-63038000D03*
X103245500Y-63038000D03*
X102745500Y-63038000D03*
X102245500Y-63038000D03*
X104245500Y-63038000D03*
D17*
X99675500Y-62123000D03*
X108315500Y-62123000D03*
D18*
X106885500Y-61593000D03*
D19*
X108315500Y-57943000D03*
D18*
X101105500Y-61593000D03*
D19*
X99675500Y-57943000D03*
G36*
G01*
X99596125Y-63970500D02*
X99596125Y-65220500D01*
G75*
G02*
X99346125Y-65470500I-250000J0D01*
G01*
X98596125Y-65470500D01*
G75*
G02*
X98346125Y-65220500I0J250000D01*
G01*
X98346125Y-63970500D01*
G75*
G02*
X98596125Y-63720500I250000J0D01*
G01*
X99346125Y-63720500D01*
G75*
G02*
X99596125Y-63970500I0J-250000D01*
G01*
G37*
G36*
G01*
X96796125Y-63970500D02*
X96796125Y-65220500D01*
G75*
G02*
X96546125Y-65470500I-250000J0D01*
G01*
X95796125Y-65470500D01*
G75*
G02*
X95546125Y-65220500I0J250000D01*
G01*
X95546125Y-63970500D01*
G75*
G02*
X95796125Y-63720500I250000J0D01*
G01*
X96546125Y-63720500D01*
G75*
G02*
X96796125Y-63970500I0J-250000D01*
G01*
G37*
G36*
G01*
X95863000Y-61605500D02*
X96338000Y-61605500D01*
G75*
G02*
X96575500Y-61843000I0J-237500D01*
G01*
X96575500Y-62343000D01*
G75*
G02*
X96338000Y-62580500I-237500J0D01*
G01*
X95863000Y-62580500D01*
G75*
G02*
X95625500Y-62343000I0J237500D01*
G01*
X95625500Y-61843000D01*
G75*
G02*
X95863000Y-61605500I237500J0D01*
G01*
G37*
G36*
G01*
X95863000Y-59780500D02*
X96338000Y-59780500D01*
G75*
G02*
X96575500Y-60018000I0J-237500D01*
G01*
X96575500Y-60518000D01*
G75*
G02*
X96338000Y-60755500I-237500J0D01*
G01*
X95863000Y-60755500D01*
G75*
G02*
X95625500Y-60518000I0J237500D01*
G01*
X95625500Y-60018000D01*
G75*
G02*
X95863000Y-59780500I237500J0D01*
G01*
G37*
D11*
X109000500Y-47568000D03*
X109000500Y-48518000D03*
X109000500Y-46618000D03*
X111700500Y-46618000D03*
X111700500Y-47568000D03*
X111700500Y-48518000D03*
D12*
X96100500Y-48476750D03*
X98900500Y-48476750D03*
G36*
G01*
X97413000Y-41280500D02*
X97888000Y-41280500D01*
G75*
G02*
X98125500Y-41518000I0J-237500D01*
G01*
X98125500Y-42018000D01*
G75*
G02*
X97888000Y-42255500I-237500J0D01*
G01*
X97413000Y-42255500D01*
G75*
G02*
X97175500Y-42018000I0J237500D01*
G01*
X97175500Y-41518000D01*
G75*
G02*
X97413000Y-41280500I237500J0D01*
G01*
G37*
G36*
G01*
X97413000Y-43105500D02*
X97888000Y-43105500D01*
G75*
G02*
X98125500Y-43343000I0J-237500D01*
G01*
X98125500Y-43843000D01*
G75*
G02*
X97888000Y-44080500I-237500J0D01*
G01*
X97413000Y-44080500D01*
G75*
G02*
X97175500Y-43843000I0J237500D01*
G01*
X97175500Y-43343000D01*
G75*
G02*
X97413000Y-43105500I237500J0D01*
G01*
G37*
G36*
G01*
X111650500Y-45493000D02*
X110400500Y-45493000D01*
G75*
G02*
X110150500Y-45243000I0J250000D01*
G01*
X110150500Y-44493000D01*
G75*
G02*
X110400500Y-44243000I250000J0D01*
G01*
X111650500Y-44243000D01*
G75*
G02*
X111900500Y-44493000I0J-250000D01*
G01*
X111900500Y-45243000D01*
G75*
G02*
X111650500Y-45493000I-250000J0D01*
G01*
G37*
G36*
G01*
X111650500Y-42693000D02*
X110400500Y-42693000D01*
G75*
G02*
X110150500Y-42443000I0J250000D01*
G01*
X110150500Y-41693000D01*
G75*
G02*
X110400500Y-41443000I250000J0D01*
G01*
X111650500Y-41443000D01*
G75*
G02*
X111900500Y-41693000I0J-250000D01*
G01*
X111900500Y-42443000D01*
G75*
G02*
X111650500Y-42693000I-250000J0D01*
G01*
G37*
D13*
X97002500Y-38843000D03*
D14*
X97002500Y-38843000D03*
X111002500Y-38843000D03*
D13*
X97002500Y-51343000D03*
D14*
X97002500Y-51343000D03*
X111002500Y-51343000D03*
D13*
X111002500Y-51343000D03*
G36*
G01*
X106200500Y-52468001D02*
X106200500Y-51167999D01*
G75*
G02*
X106450499Y-50918000I249999J0D01*
G01*
X107150501Y-50918000D01*
G75*
G02*
X107400500Y-51167999I0J-249999D01*
G01*
X107400500Y-52468001D01*
G75*
G02*
X107150501Y-52718000I-249999J0D01*
G01*
X106450499Y-52718000D01*
G75*
G02*
X106200500Y-52468001I0J249999D01*
G01*
G37*
G36*
G01*
X100600500Y-52468001D02*
X100600500Y-51167999D01*
G75*
G02*
X100850499Y-50918000I249999J0D01*
G01*
X101550501Y-50918000D01*
G75*
G02*
X101800500Y-51167999I0J-249999D01*
G01*
X101800500Y-52468001D01*
G75*
G02*
X101550501Y-52718000I-249999J0D01*
G01*
X100850499Y-52718000D01*
G75*
G02*
X100600500Y-52468001I0J249999D01*
G01*
G37*
G36*
G01*
X105200500Y-48568000D02*
X105200500Y-47318000D01*
G75*
G02*
X105350500Y-47168000I150000J0D01*
G01*
X105650500Y-47168000D01*
G75*
G02*
X105800500Y-47318000I0J-150000D01*
G01*
X105800500Y-48568000D01*
G75*
G02*
X105650500Y-48718000I-150000J0D01*
G01*
X105350500Y-48718000D01*
G75*
G02*
X105200500Y-48568000I0J150000D01*
G01*
G37*
G36*
G01*
X104200500Y-48568000D02*
X104200500Y-47318000D01*
G75*
G02*
X104350500Y-47168000I150000J0D01*
G01*
X104650500Y-47168000D01*
G75*
G02*
X104800500Y-47318000I0J-150000D01*
G01*
X104800500Y-48568000D01*
G75*
G02*
X104650500Y-48718000I-150000J0D01*
G01*
X104350500Y-48718000D01*
G75*
G02*
X104200500Y-48568000I0J150000D01*
G01*
G37*
G36*
G01*
X103200500Y-48568000D02*
X103200500Y-47318000D01*
G75*
G02*
X103350500Y-47168000I150000J0D01*
G01*
X103650500Y-47168000D01*
G75*
G02*
X103800500Y-47318000I0J-150000D01*
G01*
X103800500Y-48568000D01*
G75*
G02*
X103650500Y-48718000I-150000J0D01*
G01*
X103350500Y-48718000D01*
G75*
G02*
X103200500Y-48568000I0J150000D01*
G01*
G37*
G36*
G01*
X102200500Y-48568000D02*
X102200500Y-47318000D01*
G75*
G02*
X102350500Y-47168000I150000J0D01*
G01*
X102650500Y-47168000D01*
G75*
G02*
X102800500Y-47318000I0J-150000D01*
G01*
X102800500Y-48568000D01*
G75*
G02*
X102650500Y-48718000I-150000J0D01*
G01*
X102350500Y-48718000D01*
G75*
G02*
X102200500Y-48568000I0J150000D01*
G01*
G37*
D15*
X100745500Y-44538000D03*
X101545500Y-44538000D03*
X106445500Y-44538000D03*
X107245500Y-44538000D03*
X107245500Y-44538000D03*
X106445500Y-44538000D03*
X101545500Y-44538000D03*
X100745500Y-44538000D03*
D16*
X105745500Y-44538000D03*
X105245500Y-44538000D03*
X104745500Y-44538000D03*
X103745500Y-44538000D03*
X103245500Y-44538000D03*
X102745500Y-44538000D03*
X102245500Y-44538000D03*
X104245500Y-44538000D03*
D17*
X99675500Y-43623000D03*
X108315500Y-43623000D03*
D18*
X106885500Y-43093000D03*
D19*
X108315500Y-39443000D03*
D18*
X101105500Y-43093000D03*
D19*
X99675500Y-39443000D03*
G36*
G01*
X99596125Y-45470500D02*
X99596125Y-46720500D01*
G75*
G02*
X99346125Y-46970500I-250000J0D01*
G01*
X98596125Y-46970500D01*
G75*
G02*
X98346125Y-46720500I0J250000D01*
G01*
X98346125Y-45470500D01*
G75*
G02*
X98596125Y-45220500I250000J0D01*
G01*
X99346125Y-45220500D01*
G75*
G02*
X99596125Y-45470500I0J-250000D01*
G01*
G37*
G36*
G01*
X96796125Y-45470500D02*
X96796125Y-46720500D01*
G75*
G02*
X96546125Y-46970500I-250000J0D01*
G01*
X95796125Y-46970500D01*
G75*
G02*
X95546125Y-46720500I0J250000D01*
G01*
X95546125Y-45470500D01*
G75*
G02*
X95796125Y-45220500I250000J0D01*
G01*
X96546125Y-45220500D01*
G75*
G02*
X96796125Y-45470500I0J-250000D01*
G01*
G37*
G36*
G01*
X95863000Y-43105500D02*
X96338000Y-43105500D01*
G75*
G02*
X96575500Y-43343000I0J-237500D01*
G01*
X96575500Y-43843000D01*
G75*
G02*
X96338000Y-44080500I-237500J0D01*
G01*
X95863000Y-44080500D01*
G75*
G02*
X95625500Y-43843000I0J237500D01*
G01*
X95625500Y-43343000D01*
G75*
G02*
X95863000Y-43105500I237500J0D01*
G01*
G37*
G36*
G01*
X95863000Y-41280500D02*
X96338000Y-41280500D01*
G75*
G02*
X96575500Y-41518000I0J-237500D01*
G01*
X96575500Y-42018000D01*
G75*
G02*
X96338000Y-42255500I-237500J0D01*
G01*
X95863000Y-42255500D01*
G75*
G02*
X95625500Y-42018000I0J237500D01*
G01*
X95625500Y-41518000D01*
G75*
G02*
X95863000Y-41280500I237500J0D01*
G01*
G37*
D11*
X88750500Y-47568000D03*
X88750500Y-48518000D03*
X88750500Y-46618000D03*
X91450500Y-46618000D03*
X91450500Y-47568000D03*
X91450500Y-48518000D03*
D12*
X75850500Y-48476750D03*
X78650500Y-48476750D03*
G36*
G01*
X77163000Y-41280500D02*
X77638000Y-41280500D01*
G75*
G02*
X77875500Y-41518000I0J-237500D01*
G01*
X77875500Y-42018000D01*
G75*
G02*
X77638000Y-42255500I-237500J0D01*
G01*
X77163000Y-42255500D01*
G75*
G02*
X76925500Y-42018000I0J237500D01*
G01*
X76925500Y-41518000D01*
G75*
G02*
X77163000Y-41280500I237500J0D01*
G01*
G37*
G36*
G01*
X77163000Y-43105500D02*
X77638000Y-43105500D01*
G75*
G02*
X77875500Y-43343000I0J-237500D01*
G01*
X77875500Y-43843000D01*
G75*
G02*
X77638000Y-44080500I-237500J0D01*
G01*
X77163000Y-44080500D01*
G75*
G02*
X76925500Y-43843000I0J237500D01*
G01*
X76925500Y-43343000D01*
G75*
G02*
X77163000Y-43105500I237500J0D01*
G01*
G37*
G36*
G01*
X91400500Y-45493000D02*
X90150500Y-45493000D01*
G75*
G02*
X89900500Y-45243000I0J250000D01*
G01*
X89900500Y-44493000D01*
G75*
G02*
X90150500Y-44243000I250000J0D01*
G01*
X91400500Y-44243000D01*
G75*
G02*
X91650500Y-44493000I0J-250000D01*
G01*
X91650500Y-45243000D01*
G75*
G02*
X91400500Y-45493000I-250000J0D01*
G01*
G37*
G36*
G01*
X91400500Y-42693000D02*
X90150500Y-42693000D01*
G75*
G02*
X89900500Y-42443000I0J250000D01*
G01*
X89900500Y-41693000D01*
G75*
G02*
X90150500Y-41443000I250000J0D01*
G01*
X91400500Y-41443000D01*
G75*
G02*
X91650500Y-41693000I0J-250000D01*
G01*
X91650500Y-42443000D01*
G75*
G02*
X91400500Y-42693000I-250000J0D01*
G01*
G37*
D13*
X76752500Y-38843000D03*
D14*
X76752500Y-38843000D03*
X90752500Y-38843000D03*
D13*
X76752500Y-51343000D03*
D14*
X76752500Y-51343000D03*
X90752500Y-51343000D03*
D13*
X90752500Y-51343000D03*
G36*
G01*
X85950500Y-52468001D02*
X85950500Y-51167999D01*
G75*
G02*
X86200499Y-50918000I249999J0D01*
G01*
X86900501Y-50918000D01*
G75*
G02*
X87150500Y-51167999I0J-249999D01*
G01*
X87150500Y-52468001D01*
G75*
G02*
X86900501Y-52718000I-249999J0D01*
G01*
X86200499Y-52718000D01*
G75*
G02*
X85950500Y-52468001I0J249999D01*
G01*
G37*
G36*
G01*
X80350500Y-52468001D02*
X80350500Y-51167999D01*
G75*
G02*
X80600499Y-50918000I249999J0D01*
G01*
X81300501Y-50918000D01*
G75*
G02*
X81550500Y-51167999I0J-249999D01*
G01*
X81550500Y-52468001D01*
G75*
G02*
X81300501Y-52718000I-249999J0D01*
G01*
X80600499Y-52718000D01*
G75*
G02*
X80350500Y-52468001I0J249999D01*
G01*
G37*
G36*
G01*
X84950500Y-48568000D02*
X84950500Y-47318000D01*
G75*
G02*
X85100500Y-47168000I150000J0D01*
G01*
X85400500Y-47168000D01*
G75*
G02*
X85550500Y-47318000I0J-150000D01*
G01*
X85550500Y-48568000D01*
G75*
G02*
X85400500Y-48718000I-150000J0D01*
G01*
X85100500Y-48718000D01*
G75*
G02*
X84950500Y-48568000I0J150000D01*
G01*
G37*
G36*
G01*
X83950500Y-48568000D02*
X83950500Y-47318000D01*
G75*
G02*
X84100500Y-47168000I150000J0D01*
G01*
X84400500Y-47168000D01*
G75*
G02*
X84550500Y-47318000I0J-150000D01*
G01*
X84550500Y-48568000D01*
G75*
G02*
X84400500Y-48718000I-150000J0D01*
G01*
X84100500Y-48718000D01*
G75*
G02*
X83950500Y-48568000I0J150000D01*
G01*
G37*
G36*
G01*
X82950500Y-48568000D02*
X82950500Y-47318000D01*
G75*
G02*
X83100500Y-47168000I150000J0D01*
G01*
X83400500Y-47168000D01*
G75*
G02*
X83550500Y-47318000I0J-150000D01*
G01*
X83550500Y-48568000D01*
G75*
G02*
X83400500Y-48718000I-150000J0D01*
G01*
X83100500Y-48718000D01*
G75*
G02*
X82950500Y-48568000I0J150000D01*
G01*
G37*
G36*
G01*
X81950500Y-48568000D02*
X81950500Y-47318000D01*
G75*
G02*
X82100500Y-47168000I150000J0D01*
G01*
X82400500Y-47168000D01*
G75*
G02*
X82550500Y-47318000I0J-150000D01*
G01*
X82550500Y-48568000D01*
G75*
G02*
X82400500Y-48718000I-150000J0D01*
G01*
X82100500Y-48718000D01*
G75*
G02*
X81950500Y-48568000I0J150000D01*
G01*
G37*
D15*
X80495500Y-44538000D03*
X81295500Y-44538000D03*
X86195500Y-44538000D03*
X86995500Y-44538000D03*
X86995500Y-44538000D03*
X86195500Y-44538000D03*
X81295500Y-44538000D03*
X80495500Y-44538000D03*
D16*
X85495500Y-44538000D03*
X84995500Y-44538000D03*
X84495500Y-44538000D03*
X83495500Y-44538000D03*
X82995500Y-44538000D03*
X82495500Y-44538000D03*
X81995500Y-44538000D03*
X83995500Y-44538000D03*
D17*
X79425500Y-43623000D03*
X88065500Y-43623000D03*
D18*
X86635500Y-43093000D03*
D19*
X88065500Y-39443000D03*
D18*
X80855500Y-43093000D03*
D19*
X79425500Y-39443000D03*
G36*
G01*
X79346125Y-45470500D02*
X79346125Y-46720500D01*
G75*
G02*
X79096125Y-46970500I-250000J0D01*
G01*
X78346125Y-46970500D01*
G75*
G02*
X78096125Y-46720500I0J250000D01*
G01*
X78096125Y-45470500D01*
G75*
G02*
X78346125Y-45220500I250000J0D01*
G01*
X79096125Y-45220500D01*
G75*
G02*
X79346125Y-45470500I0J-250000D01*
G01*
G37*
G36*
G01*
X76546125Y-45470500D02*
X76546125Y-46720500D01*
G75*
G02*
X76296125Y-46970500I-250000J0D01*
G01*
X75546125Y-46970500D01*
G75*
G02*
X75296125Y-46720500I0J250000D01*
G01*
X75296125Y-45470500D01*
G75*
G02*
X75546125Y-45220500I250000J0D01*
G01*
X76296125Y-45220500D01*
G75*
G02*
X76546125Y-45470500I0J-250000D01*
G01*
G37*
G36*
G01*
X75613000Y-43105500D02*
X76088000Y-43105500D01*
G75*
G02*
X76325500Y-43343000I0J-237500D01*
G01*
X76325500Y-43843000D01*
G75*
G02*
X76088000Y-44080500I-237500J0D01*
G01*
X75613000Y-44080500D01*
G75*
G02*
X75375500Y-43843000I0J237500D01*
G01*
X75375500Y-43343000D01*
G75*
G02*
X75613000Y-43105500I237500J0D01*
G01*
G37*
G36*
G01*
X75613000Y-41280500D02*
X76088000Y-41280500D01*
G75*
G02*
X76325500Y-41518000I0J-237500D01*
G01*
X76325500Y-42018000D01*
G75*
G02*
X76088000Y-42255500I-237500J0D01*
G01*
X75613000Y-42255500D01*
G75*
G02*
X75375500Y-42018000I0J237500D01*
G01*
X75375500Y-41518000D01*
G75*
G02*
X75613000Y-41280500I237500J0D01*
G01*
G37*
D11*
X69000500Y-47568000D03*
X69000500Y-48518000D03*
X69000500Y-46618000D03*
X71700500Y-46618000D03*
X71700500Y-47568000D03*
X71700500Y-48518000D03*
D12*
X56100500Y-48476750D03*
X58900500Y-48476750D03*
G36*
G01*
X57413000Y-41280500D02*
X57888000Y-41280500D01*
G75*
G02*
X58125500Y-41518000I0J-237500D01*
G01*
X58125500Y-42018000D01*
G75*
G02*
X57888000Y-42255500I-237500J0D01*
G01*
X57413000Y-42255500D01*
G75*
G02*
X57175500Y-42018000I0J237500D01*
G01*
X57175500Y-41518000D01*
G75*
G02*
X57413000Y-41280500I237500J0D01*
G01*
G37*
G36*
G01*
X57413000Y-43105500D02*
X57888000Y-43105500D01*
G75*
G02*
X58125500Y-43343000I0J-237500D01*
G01*
X58125500Y-43843000D01*
G75*
G02*
X57888000Y-44080500I-237500J0D01*
G01*
X57413000Y-44080500D01*
G75*
G02*
X57175500Y-43843000I0J237500D01*
G01*
X57175500Y-43343000D01*
G75*
G02*
X57413000Y-43105500I237500J0D01*
G01*
G37*
G36*
G01*
X71650500Y-45493000D02*
X70400500Y-45493000D01*
G75*
G02*
X70150500Y-45243000I0J250000D01*
G01*
X70150500Y-44493000D01*
G75*
G02*
X70400500Y-44243000I250000J0D01*
G01*
X71650500Y-44243000D01*
G75*
G02*
X71900500Y-44493000I0J-250000D01*
G01*
X71900500Y-45243000D01*
G75*
G02*
X71650500Y-45493000I-250000J0D01*
G01*
G37*
G36*
G01*
X71650500Y-42693000D02*
X70400500Y-42693000D01*
G75*
G02*
X70150500Y-42443000I0J250000D01*
G01*
X70150500Y-41693000D01*
G75*
G02*
X70400500Y-41443000I250000J0D01*
G01*
X71650500Y-41443000D01*
G75*
G02*
X71900500Y-41693000I0J-250000D01*
G01*
X71900500Y-42443000D01*
G75*
G02*
X71650500Y-42693000I-250000J0D01*
G01*
G37*
D13*
X57002500Y-38843000D03*
D14*
X57002500Y-38843000D03*
X71002500Y-38843000D03*
D13*
X57002500Y-51343000D03*
D14*
X57002500Y-51343000D03*
X71002500Y-51343000D03*
D13*
X71002500Y-51343000D03*
G36*
G01*
X66200500Y-52468001D02*
X66200500Y-51167999D01*
G75*
G02*
X66450499Y-50918000I249999J0D01*
G01*
X67150501Y-50918000D01*
G75*
G02*
X67400500Y-51167999I0J-249999D01*
G01*
X67400500Y-52468001D01*
G75*
G02*
X67150501Y-52718000I-249999J0D01*
G01*
X66450499Y-52718000D01*
G75*
G02*
X66200500Y-52468001I0J249999D01*
G01*
G37*
G36*
G01*
X60600500Y-52468001D02*
X60600500Y-51167999D01*
G75*
G02*
X60850499Y-50918000I249999J0D01*
G01*
X61550501Y-50918000D01*
G75*
G02*
X61800500Y-51167999I0J-249999D01*
G01*
X61800500Y-52468001D01*
G75*
G02*
X61550501Y-52718000I-249999J0D01*
G01*
X60850499Y-52718000D01*
G75*
G02*
X60600500Y-52468001I0J249999D01*
G01*
G37*
G36*
G01*
X65200500Y-48568000D02*
X65200500Y-47318000D01*
G75*
G02*
X65350500Y-47168000I150000J0D01*
G01*
X65650500Y-47168000D01*
G75*
G02*
X65800500Y-47318000I0J-150000D01*
G01*
X65800500Y-48568000D01*
G75*
G02*
X65650500Y-48718000I-150000J0D01*
G01*
X65350500Y-48718000D01*
G75*
G02*
X65200500Y-48568000I0J150000D01*
G01*
G37*
G36*
G01*
X64200500Y-48568000D02*
X64200500Y-47318000D01*
G75*
G02*
X64350500Y-47168000I150000J0D01*
G01*
X64650500Y-47168000D01*
G75*
G02*
X64800500Y-47318000I0J-150000D01*
G01*
X64800500Y-48568000D01*
G75*
G02*
X64650500Y-48718000I-150000J0D01*
G01*
X64350500Y-48718000D01*
G75*
G02*
X64200500Y-48568000I0J150000D01*
G01*
G37*
G36*
G01*
X63200500Y-48568000D02*
X63200500Y-47318000D01*
G75*
G02*
X63350500Y-47168000I150000J0D01*
G01*
X63650500Y-47168000D01*
G75*
G02*
X63800500Y-47318000I0J-150000D01*
G01*
X63800500Y-48568000D01*
G75*
G02*
X63650500Y-48718000I-150000J0D01*
G01*
X63350500Y-48718000D01*
G75*
G02*
X63200500Y-48568000I0J150000D01*
G01*
G37*
G36*
G01*
X62200500Y-48568000D02*
X62200500Y-47318000D01*
G75*
G02*
X62350500Y-47168000I150000J0D01*
G01*
X62650500Y-47168000D01*
G75*
G02*
X62800500Y-47318000I0J-150000D01*
G01*
X62800500Y-48568000D01*
G75*
G02*
X62650500Y-48718000I-150000J0D01*
G01*
X62350500Y-48718000D01*
G75*
G02*
X62200500Y-48568000I0J150000D01*
G01*
G37*
D15*
X60745500Y-44538000D03*
X61545500Y-44538000D03*
X66445500Y-44538000D03*
X67245500Y-44538000D03*
X67245500Y-44538000D03*
X66445500Y-44538000D03*
X61545500Y-44538000D03*
X60745500Y-44538000D03*
D16*
X65745500Y-44538000D03*
X65245500Y-44538000D03*
X64745500Y-44538000D03*
X63745500Y-44538000D03*
X63245500Y-44538000D03*
X62745500Y-44538000D03*
X62245500Y-44538000D03*
X64245500Y-44538000D03*
D17*
X59675500Y-43623000D03*
X68315500Y-43623000D03*
D18*
X66885500Y-43093000D03*
D19*
X68315500Y-39443000D03*
D18*
X61105500Y-43093000D03*
D19*
X59675500Y-39443000D03*
G36*
G01*
X59596125Y-45470500D02*
X59596125Y-46720500D01*
G75*
G02*
X59346125Y-46970500I-250000J0D01*
G01*
X58596125Y-46970500D01*
G75*
G02*
X58346125Y-46720500I0J250000D01*
G01*
X58346125Y-45470500D01*
G75*
G02*
X58596125Y-45220500I250000J0D01*
G01*
X59346125Y-45220500D01*
G75*
G02*
X59596125Y-45470500I0J-250000D01*
G01*
G37*
G36*
G01*
X56796125Y-45470500D02*
X56796125Y-46720500D01*
G75*
G02*
X56546125Y-46970500I-250000J0D01*
G01*
X55796125Y-46970500D01*
G75*
G02*
X55546125Y-46720500I0J250000D01*
G01*
X55546125Y-45470500D01*
G75*
G02*
X55796125Y-45220500I250000J0D01*
G01*
X56546125Y-45220500D01*
G75*
G02*
X56796125Y-45470500I0J-250000D01*
G01*
G37*
G36*
G01*
X55863000Y-43105500D02*
X56338000Y-43105500D01*
G75*
G02*
X56575500Y-43343000I0J-237500D01*
G01*
X56575500Y-43843000D01*
G75*
G02*
X56338000Y-44080500I-237500J0D01*
G01*
X55863000Y-44080500D01*
G75*
G02*
X55625500Y-43843000I0J237500D01*
G01*
X55625500Y-43343000D01*
G75*
G02*
X55863000Y-43105500I237500J0D01*
G01*
G37*
G36*
G01*
X55863000Y-41280500D02*
X56338000Y-41280500D01*
G75*
G02*
X56575500Y-41518000I0J-237500D01*
G01*
X56575500Y-42018000D01*
G75*
G02*
X56338000Y-42255500I-237500J0D01*
G01*
X55863000Y-42255500D01*
G75*
G02*
X55625500Y-42018000I0J237500D01*
G01*
X55625500Y-41518000D01*
G75*
G02*
X55863000Y-41280500I237500J0D01*
G01*
G37*
D11*
X49000500Y-47568000D03*
X49000500Y-48518000D03*
X49000500Y-46618000D03*
X51700500Y-46618000D03*
X51700500Y-47568000D03*
X51700500Y-48518000D03*
D12*
X36100500Y-48476750D03*
X38900500Y-48476750D03*
G36*
G01*
X37413000Y-41280500D02*
X37888000Y-41280500D01*
G75*
G02*
X38125500Y-41518000I0J-237500D01*
G01*
X38125500Y-42018000D01*
G75*
G02*
X37888000Y-42255500I-237500J0D01*
G01*
X37413000Y-42255500D01*
G75*
G02*
X37175500Y-42018000I0J237500D01*
G01*
X37175500Y-41518000D01*
G75*
G02*
X37413000Y-41280500I237500J0D01*
G01*
G37*
G36*
G01*
X37413000Y-43105500D02*
X37888000Y-43105500D01*
G75*
G02*
X38125500Y-43343000I0J-237500D01*
G01*
X38125500Y-43843000D01*
G75*
G02*
X37888000Y-44080500I-237500J0D01*
G01*
X37413000Y-44080500D01*
G75*
G02*
X37175500Y-43843000I0J237500D01*
G01*
X37175500Y-43343000D01*
G75*
G02*
X37413000Y-43105500I237500J0D01*
G01*
G37*
G36*
G01*
X51650500Y-45493000D02*
X50400500Y-45493000D01*
G75*
G02*
X50150500Y-45243000I0J250000D01*
G01*
X50150500Y-44493000D01*
G75*
G02*
X50400500Y-44243000I250000J0D01*
G01*
X51650500Y-44243000D01*
G75*
G02*
X51900500Y-44493000I0J-250000D01*
G01*
X51900500Y-45243000D01*
G75*
G02*
X51650500Y-45493000I-250000J0D01*
G01*
G37*
G36*
G01*
X51650500Y-42693000D02*
X50400500Y-42693000D01*
G75*
G02*
X50150500Y-42443000I0J250000D01*
G01*
X50150500Y-41693000D01*
G75*
G02*
X50400500Y-41443000I250000J0D01*
G01*
X51650500Y-41443000D01*
G75*
G02*
X51900500Y-41693000I0J-250000D01*
G01*
X51900500Y-42443000D01*
G75*
G02*
X51650500Y-42693000I-250000J0D01*
G01*
G37*
D13*
X37002500Y-38843000D03*
D14*
X37002500Y-38843000D03*
X51002500Y-38843000D03*
D13*
X37002500Y-51343000D03*
D14*
X37002500Y-51343000D03*
X51002500Y-51343000D03*
D13*
X51002500Y-51343000D03*
G36*
G01*
X46200500Y-52468001D02*
X46200500Y-51167999D01*
G75*
G02*
X46450499Y-50918000I249999J0D01*
G01*
X47150501Y-50918000D01*
G75*
G02*
X47400500Y-51167999I0J-249999D01*
G01*
X47400500Y-52468001D01*
G75*
G02*
X47150501Y-52718000I-249999J0D01*
G01*
X46450499Y-52718000D01*
G75*
G02*
X46200500Y-52468001I0J249999D01*
G01*
G37*
G36*
G01*
X40600500Y-52468001D02*
X40600500Y-51167999D01*
G75*
G02*
X40850499Y-50918000I249999J0D01*
G01*
X41550501Y-50918000D01*
G75*
G02*
X41800500Y-51167999I0J-249999D01*
G01*
X41800500Y-52468001D01*
G75*
G02*
X41550501Y-52718000I-249999J0D01*
G01*
X40850499Y-52718000D01*
G75*
G02*
X40600500Y-52468001I0J249999D01*
G01*
G37*
G36*
G01*
X45200500Y-48568000D02*
X45200500Y-47318000D01*
G75*
G02*
X45350500Y-47168000I150000J0D01*
G01*
X45650500Y-47168000D01*
G75*
G02*
X45800500Y-47318000I0J-150000D01*
G01*
X45800500Y-48568000D01*
G75*
G02*
X45650500Y-48718000I-150000J0D01*
G01*
X45350500Y-48718000D01*
G75*
G02*
X45200500Y-48568000I0J150000D01*
G01*
G37*
G36*
G01*
X44200500Y-48568000D02*
X44200500Y-47318000D01*
G75*
G02*
X44350500Y-47168000I150000J0D01*
G01*
X44650500Y-47168000D01*
G75*
G02*
X44800500Y-47318000I0J-150000D01*
G01*
X44800500Y-48568000D01*
G75*
G02*
X44650500Y-48718000I-150000J0D01*
G01*
X44350500Y-48718000D01*
G75*
G02*
X44200500Y-48568000I0J150000D01*
G01*
G37*
G36*
G01*
X43200500Y-48568000D02*
X43200500Y-47318000D01*
G75*
G02*
X43350500Y-47168000I150000J0D01*
G01*
X43650500Y-47168000D01*
G75*
G02*
X43800500Y-47318000I0J-150000D01*
G01*
X43800500Y-48568000D01*
G75*
G02*
X43650500Y-48718000I-150000J0D01*
G01*
X43350500Y-48718000D01*
G75*
G02*
X43200500Y-48568000I0J150000D01*
G01*
G37*
G36*
G01*
X42200500Y-48568000D02*
X42200500Y-47318000D01*
G75*
G02*
X42350500Y-47168000I150000J0D01*
G01*
X42650500Y-47168000D01*
G75*
G02*
X42800500Y-47318000I0J-150000D01*
G01*
X42800500Y-48568000D01*
G75*
G02*
X42650500Y-48718000I-150000J0D01*
G01*
X42350500Y-48718000D01*
G75*
G02*
X42200500Y-48568000I0J150000D01*
G01*
G37*
D15*
X40745500Y-44538000D03*
X41545500Y-44538000D03*
X46445500Y-44538000D03*
X47245500Y-44538000D03*
X47245500Y-44538000D03*
X46445500Y-44538000D03*
X41545500Y-44538000D03*
X40745500Y-44538000D03*
D16*
X45745500Y-44538000D03*
X45245500Y-44538000D03*
X44745500Y-44538000D03*
X43745500Y-44538000D03*
X43245500Y-44538000D03*
X42745500Y-44538000D03*
X42245500Y-44538000D03*
X44245500Y-44538000D03*
D17*
X39675500Y-43623000D03*
X48315500Y-43623000D03*
D18*
X46885500Y-43093000D03*
D19*
X48315500Y-39443000D03*
D18*
X41105500Y-43093000D03*
D19*
X39675500Y-39443000D03*
G36*
G01*
X39596125Y-45470500D02*
X39596125Y-46720500D01*
G75*
G02*
X39346125Y-46970500I-250000J0D01*
G01*
X38596125Y-46970500D01*
G75*
G02*
X38346125Y-46720500I0J250000D01*
G01*
X38346125Y-45470500D01*
G75*
G02*
X38596125Y-45220500I250000J0D01*
G01*
X39346125Y-45220500D01*
G75*
G02*
X39596125Y-45470500I0J-250000D01*
G01*
G37*
G36*
G01*
X36796125Y-45470500D02*
X36796125Y-46720500D01*
G75*
G02*
X36546125Y-46970500I-250000J0D01*
G01*
X35796125Y-46970500D01*
G75*
G02*
X35546125Y-46720500I0J250000D01*
G01*
X35546125Y-45470500D01*
G75*
G02*
X35796125Y-45220500I250000J0D01*
G01*
X36546125Y-45220500D01*
G75*
G02*
X36796125Y-45470500I0J-250000D01*
G01*
G37*
G36*
G01*
X35863000Y-43105500D02*
X36338000Y-43105500D01*
G75*
G02*
X36575500Y-43343000I0J-237500D01*
G01*
X36575500Y-43843000D01*
G75*
G02*
X36338000Y-44080500I-237500J0D01*
G01*
X35863000Y-44080500D01*
G75*
G02*
X35625500Y-43843000I0J237500D01*
G01*
X35625500Y-43343000D01*
G75*
G02*
X35863000Y-43105500I237500J0D01*
G01*
G37*
G36*
G01*
X35863000Y-41280500D02*
X36338000Y-41280500D01*
G75*
G02*
X36575500Y-41518000I0J-237500D01*
G01*
X36575500Y-42018000D01*
G75*
G02*
X36338000Y-42255500I-237500J0D01*
G01*
X35863000Y-42255500D01*
G75*
G02*
X35625500Y-42018000I0J237500D01*
G01*
X35625500Y-41518000D01*
G75*
G02*
X35863000Y-41280500I237500J0D01*
G01*
G37*
D11*
X29000500Y-47568000D03*
X29000500Y-48518000D03*
X29000500Y-46618000D03*
X31700500Y-46618000D03*
X31700500Y-47568000D03*
X31700500Y-48518000D03*
D12*
X16100500Y-48476750D03*
X18900500Y-48476750D03*
G36*
G01*
X17413000Y-41280500D02*
X17888000Y-41280500D01*
G75*
G02*
X18125500Y-41518000I0J-237500D01*
G01*
X18125500Y-42018000D01*
G75*
G02*
X17888000Y-42255500I-237500J0D01*
G01*
X17413000Y-42255500D01*
G75*
G02*
X17175500Y-42018000I0J237500D01*
G01*
X17175500Y-41518000D01*
G75*
G02*
X17413000Y-41280500I237500J0D01*
G01*
G37*
G36*
G01*
X17413000Y-43105500D02*
X17888000Y-43105500D01*
G75*
G02*
X18125500Y-43343000I0J-237500D01*
G01*
X18125500Y-43843000D01*
G75*
G02*
X17888000Y-44080500I-237500J0D01*
G01*
X17413000Y-44080500D01*
G75*
G02*
X17175500Y-43843000I0J237500D01*
G01*
X17175500Y-43343000D01*
G75*
G02*
X17413000Y-43105500I237500J0D01*
G01*
G37*
G36*
G01*
X31650500Y-45493000D02*
X30400500Y-45493000D01*
G75*
G02*
X30150500Y-45243000I0J250000D01*
G01*
X30150500Y-44493000D01*
G75*
G02*
X30400500Y-44243000I250000J0D01*
G01*
X31650500Y-44243000D01*
G75*
G02*
X31900500Y-44493000I0J-250000D01*
G01*
X31900500Y-45243000D01*
G75*
G02*
X31650500Y-45493000I-250000J0D01*
G01*
G37*
G36*
G01*
X31650500Y-42693000D02*
X30400500Y-42693000D01*
G75*
G02*
X30150500Y-42443000I0J250000D01*
G01*
X30150500Y-41693000D01*
G75*
G02*
X30400500Y-41443000I250000J0D01*
G01*
X31650500Y-41443000D01*
G75*
G02*
X31900500Y-41693000I0J-250000D01*
G01*
X31900500Y-42443000D01*
G75*
G02*
X31650500Y-42693000I-250000J0D01*
G01*
G37*
D13*
X17002500Y-38843000D03*
D14*
X17002500Y-38843000D03*
X31002500Y-38843000D03*
D13*
X17002500Y-51343000D03*
D14*
X17002500Y-51343000D03*
X31002500Y-51343000D03*
D13*
X31002500Y-51343000D03*
G36*
G01*
X26200500Y-52468001D02*
X26200500Y-51167999D01*
G75*
G02*
X26450499Y-50918000I249999J0D01*
G01*
X27150501Y-50918000D01*
G75*
G02*
X27400500Y-51167999I0J-249999D01*
G01*
X27400500Y-52468001D01*
G75*
G02*
X27150501Y-52718000I-249999J0D01*
G01*
X26450499Y-52718000D01*
G75*
G02*
X26200500Y-52468001I0J249999D01*
G01*
G37*
G36*
G01*
X20600500Y-52468001D02*
X20600500Y-51167999D01*
G75*
G02*
X20850499Y-50918000I249999J0D01*
G01*
X21550501Y-50918000D01*
G75*
G02*
X21800500Y-51167999I0J-249999D01*
G01*
X21800500Y-52468001D01*
G75*
G02*
X21550501Y-52718000I-249999J0D01*
G01*
X20850499Y-52718000D01*
G75*
G02*
X20600500Y-52468001I0J249999D01*
G01*
G37*
G36*
G01*
X25200500Y-48568000D02*
X25200500Y-47318000D01*
G75*
G02*
X25350500Y-47168000I150000J0D01*
G01*
X25650500Y-47168000D01*
G75*
G02*
X25800500Y-47318000I0J-150000D01*
G01*
X25800500Y-48568000D01*
G75*
G02*
X25650500Y-48718000I-150000J0D01*
G01*
X25350500Y-48718000D01*
G75*
G02*
X25200500Y-48568000I0J150000D01*
G01*
G37*
G36*
G01*
X24200500Y-48568000D02*
X24200500Y-47318000D01*
G75*
G02*
X24350500Y-47168000I150000J0D01*
G01*
X24650500Y-47168000D01*
G75*
G02*
X24800500Y-47318000I0J-150000D01*
G01*
X24800500Y-48568000D01*
G75*
G02*
X24650500Y-48718000I-150000J0D01*
G01*
X24350500Y-48718000D01*
G75*
G02*
X24200500Y-48568000I0J150000D01*
G01*
G37*
G36*
G01*
X23200500Y-48568000D02*
X23200500Y-47318000D01*
G75*
G02*
X23350500Y-47168000I150000J0D01*
G01*
X23650500Y-47168000D01*
G75*
G02*
X23800500Y-47318000I0J-150000D01*
G01*
X23800500Y-48568000D01*
G75*
G02*
X23650500Y-48718000I-150000J0D01*
G01*
X23350500Y-48718000D01*
G75*
G02*
X23200500Y-48568000I0J150000D01*
G01*
G37*
G36*
G01*
X22200500Y-48568000D02*
X22200500Y-47318000D01*
G75*
G02*
X22350500Y-47168000I150000J0D01*
G01*
X22650500Y-47168000D01*
G75*
G02*
X22800500Y-47318000I0J-150000D01*
G01*
X22800500Y-48568000D01*
G75*
G02*
X22650500Y-48718000I-150000J0D01*
G01*
X22350500Y-48718000D01*
G75*
G02*
X22200500Y-48568000I0J150000D01*
G01*
G37*
D15*
X20745500Y-44538000D03*
X21545500Y-44538000D03*
X26445500Y-44538000D03*
X27245500Y-44538000D03*
X27245500Y-44538000D03*
X26445500Y-44538000D03*
X21545500Y-44538000D03*
X20745500Y-44538000D03*
D16*
X25745500Y-44538000D03*
X25245500Y-44538000D03*
X24745500Y-44538000D03*
X23745500Y-44538000D03*
X23245500Y-44538000D03*
X22745500Y-44538000D03*
X22245500Y-44538000D03*
X24245500Y-44538000D03*
D17*
X19675500Y-43623000D03*
X28315500Y-43623000D03*
D18*
X26885500Y-43093000D03*
D19*
X28315500Y-39443000D03*
D18*
X21105500Y-43093000D03*
D19*
X19675500Y-39443000D03*
G36*
G01*
X19596125Y-45470500D02*
X19596125Y-46720500D01*
G75*
G02*
X19346125Y-46970500I-250000J0D01*
G01*
X18596125Y-46970500D01*
G75*
G02*
X18346125Y-46720500I0J250000D01*
G01*
X18346125Y-45470500D01*
G75*
G02*
X18596125Y-45220500I250000J0D01*
G01*
X19346125Y-45220500D01*
G75*
G02*
X19596125Y-45470500I0J-250000D01*
G01*
G37*
G36*
G01*
X16796125Y-45470500D02*
X16796125Y-46720500D01*
G75*
G02*
X16546125Y-46970500I-250000J0D01*
G01*
X15796125Y-46970500D01*
G75*
G02*
X15546125Y-46720500I0J250000D01*
G01*
X15546125Y-45470500D01*
G75*
G02*
X15796125Y-45220500I250000J0D01*
G01*
X16546125Y-45220500D01*
G75*
G02*
X16796125Y-45470500I0J-250000D01*
G01*
G37*
G36*
G01*
X15863000Y-43105500D02*
X16338000Y-43105500D01*
G75*
G02*
X16575500Y-43343000I0J-237500D01*
G01*
X16575500Y-43843000D01*
G75*
G02*
X16338000Y-44080500I-237500J0D01*
G01*
X15863000Y-44080500D01*
G75*
G02*
X15625500Y-43843000I0J237500D01*
G01*
X15625500Y-43343000D01*
G75*
G02*
X15863000Y-43105500I237500J0D01*
G01*
G37*
G36*
G01*
X15863000Y-41280500D02*
X16338000Y-41280500D01*
G75*
G02*
X16575500Y-41518000I0J-237500D01*
G01*
X16575500Y-42018000D01*
G75*
G02*
X16338000Y-42255500I-237500J0D01*
G01*
X15863000Y-42255500D01*
G75*
G02*
X15625500Y-42018000I0J237500D01*
G01*
X15625500Y-41518000D01*
G75*
G02*
X15863000Y-41280500I237500J0D01*
G01*
G37*
D11*
X109000500Y-29068000D03*
X109000500Y-30018000D03*
X109000500Y-28118000D03*
X111700500Y-28118000D03*
X111700500Y-29068000D03*
X111700500Y-30018000D03*
D12*
X96100500Y-29976750D03*
X98900500Y-29976750D03*
G36*
G01*
X97413000Y-22780500D02*
X97888000Y-22780500D01*
G75*
G02*
X98125500Y-23018000I0J-237500D01*
G01*
X98125500Y-23518000D01*
G75*
G02*
X97888000Y-23755500I-237500J0D01*
G01*
X97413000Y-23755500D01*
G75*
G02*
X97175500Y-23518000I0J237500D01*
G01*
X97175500Y-23018000D01*
G75*
G02*
X97413000Y-22780500I237500J0D01*
G01*
G37*
G36*
G01*
X97413000Y-24605500D02*
X97888000Y-24605500D01*
G75*
G02*
X98125500Y-24843000I0J-237500D01*
G01*
X98125500Y-25343000D01*
G75*
G02*
X97888000Y-25580500I-237500J0D01*
G01*
X97413000Y-25580500D01*
G75*
G02*
X97175500Y-25343000I0J237500D01*
G01*
X97175500Y-24843000D01*
G75*
G02*
X97413000Y-24605500I237500J0D01*
G01*
G37*
G36*
G01*
X111650500Y-26993000D02*
X110400500Y-26993000D01*
G75*
G02*
X110150500Y-26743000I0J250000D01*
G01*
X110150500Y-25993000D01*
G75*
G02*
X110400500Y-25743000I250000J0D01*
G01*
X111650500Y-25743000D01*
G75*
G02*
X111900500Y-25993000I0J-250000D01*
G01*
X111900500Y-26743000D01*
G75*
G02*
X111650500Y-26993000I-250000J0D01*
G01*
G37*
G36*
G01*
X111650500Y-24193000D02*
X110400500Y-24193000D01*
G75*
G02*
X110150500Y-23943000I0J250000D01*
G01*
X110150500Y-23193000D01*
G75*
G02*
X110400500Y-22943000I250000J0D01*
G01*
X111650500Y-22943000D01*
G75*
G02*
X111900500Y-23193000I0J-250000D01*
G01*
X111900500Y-23943000D01*
G75*
G02*
X111650500Y-24193000I-250000J0D01*
G01*
G37*
D13*
X97002500Y-20343000D03*
D14*
X97002500Y-20343000D03*
X111002500Y-20343000D03*
D13*
X97002500Y-32843000D03*
D14*
X97002500Y-32843000D03*
X111002500Y-32843000D03*
D13*
X111002500Y-32843000D03*
G36*
G01*
X106200500Y-33968001D02*
X106200500Y-32667999D01*
G75*
G02*
X106450499Y-32418000I249999J0D01*
G01*
X107150501Y-32418000D01*
G75*
G02*
X107400500Y-32667999I0J-249999D01*
G01*
X107400500Y-33968001D01*
G75*
G02*
X107150501Y-34218000I-249999J0D01*
G01*
X106450499Y-34218000D01*
G75*
G02*
X106200500Y-33968001I0J249999D01*
G01*
G37*
G36*
G01*
X100600500Y-33968001D02*
X100600500Y-32667999D01*
G75*
G02*
X100850499Y-32418000I249999J0D01*
G01*
X101550501Y-32418000D01*
G75*
G02*
X101800500Y-32667999I0J-249999D01*
G01*
X101800500Y-33968001D01*
G75*
G02*
X101550501Y-34218000I-249999J0D01*
G01*
X100850499Y-34218000D01*
G75*
G02*
X100600500Y-33968001I0J249999D01*
G01*
G37*
G36*
G01*
X105200500Y-30068000D02*
X105200500Y-28818000D01*
G75*
G02*
X105350500Y-28668000I150000J0D01*
G01*
X105650500Y-28668000D01*
G75*
G02*
X105800500Y-28818000I0J-150000D01*
G01*
X105800500Y-30068000D01*
G75*
G02*
X105650500Y-30218000I-150000J0D01*
G01*
X105350500Y-30218000D01*
G75*
G02*
X105200500Y-30068000I0J150000D01*
G01*
G37*
G36*
G01*
X104200500Y-30068000D02*
X104200500Y-28818000D01*
G75*
G02*
X104350500Y-28668000I150000J0D01*
G01*
X104650500Y-28668000D01*
G75*
G02*
X104800500Y-28818000I0J-150000D01*
G01*
X104800500Y-30068000D01*
G75*
G02*
X104650500Y-30218000I-150000J0D01*
G01*
X104350500Y-30218000D01*
G75*
G02*
X104200500Y-30068000I0J150000D01*
G01*
G37*
G36*
G01*
X103200500Y-30068000D02*
X103200500Y-28818000D01*
G75*
G02*
X103350500Y-28668000I150000J0D01*
G01*
X103650500Y-28668000D01*
G75*
G02*
X103800500Y-28818000I0J-150000D01*
G01*
X103800500Y-30068000D01*
G75*
G02*
X103650500Y-30218000I-150000J0D01*
G01*
X103350500Y-30218000D01*
G75*
G02*
X103200500Y-30068000I0J150000D01*
G01*
G37*
G36*
G01*
X102200500Y-30068000D02*
X102200500Y-28818000D01*
G75*
G02*
X102350500Y-28668000I150000J0D01*
G01*
X102650500Y-28668000D01*
G75*
G02*
X102800500Y-28818000I0J-150000D01*
G01*
X102800500Y-30068000D01*
G75*
G02*
X102650500Y-30218000I-150000J0D01*
G01*
X102350500Y-30218000D01*
G75*
G02*
X102200500Y-30068000I0J150000D01*
G01*
G37*
D15*
X100745500Y-26038000D03*
X101545500Y-26038000D03*
X106445500Y-26038000D03*
X107245500Y-26038000D03*
X107245500Y-26038000D03*
X106445500Y-26038000D03*
X101545500Y-26038000D03*
X100745500Y-26038000D03*
D16*
X105745500Y-26038000D03*
X105245500Y-26038000D03*
X104745500Y-26038000D03*
X103745500Y-26038000D03*
X103245500Y-26038000D03*
X102745500Y-26038000D03*
X102245500Y-26038000D03*
X104245500Y-26038000D03*
D17*
X99675500Y-25123000D03*
X108315500Y-25123000D03*
D18*
X106885500Y-24593000D03*
D19*
X108315500Y-20943000D03*
D18*
X101105500Y-24593000D03*
D19*
X99675500Y-20943000D03*
G36*
G01*
X99596125Y-26970500D02*
X99596125Y-28220500D01*
G75*
G02*
X99346125Y-28470500I-250000J0D01*
G01*
X98596125Y-28470500D01*
G75*
G02*
X98346125Y-28220500I0J250000D01*
G01*
X98346125Y-26970500D01*
G75*
G02*
X98596125Y-26720500I250000J0D01*
G01*
X99346125Y-26720500D01*
G75*
G02*
X99596125Y-26970500I0J-250000D01*
G01*
G37*
G36*
G01*
X96796125Y-26970500D02*
X96796125Y-28220500D01*
G75*
G02*
X96546125Y-28470500I-250000J0D01*
G01*
X95796125Y-28470500D01*
G75*
G02*
X95546125Y-28220500I0J250000D01*
G01*
X95546125Y-26970500D01*
G75*
G02*
X95796125Y-26720500I250000J0D01*
G01*
X96546125Y-26720500D01*
G75*
G02*
X96796125Y-26970500I0J-250000D01*
G01*
G37*
G36*
G01*
X95863000Y-24605500D02*
X96338000Y-24605500D01*
G75*
G02*
X96575500Y-24843000I0J-237500D01*
G01*
X96575500Y-25343000D01*
G75*
G02*
X96338000Y-25580500I-237500J0D01*
G01*
X95863000Y-25580500D01*
G75*
G02*
X95625500Y-25343000I0J237500D01*
G01*
X95625500Y-24843000D01*
G75*
G02*
X95863000Y-24605500I237500J0D01*
G01*
G37*
G36*
G01*
X95863000Y-22780500D02*
X96338000Y-22780500D01*
G75*
G02*
X96575500Y-23018000I0J-237500D01*
G01*
X96575500Y-23518000D01*
G75*
G02*
X96338000Y-23755500I-237500J0D01*
G01*
X95863000Y-23755500D01*
G75*
G02*
X95625500Y-23518000I0J237500D01*
G01*
X95625500Y-23018000D01*
G75*
G02*
X95863000Y-22780500I237500J0D01*
G01*
G37*
D11*
X89000500Y-29068000D03*
X89000500Y-30018000D03*
X89000500Y-28118000D03*
X91700500Y-28118000D03*
X91700500Y-29068000D03*
X91700500Y-30018000D03*
D12*
X76100500Y-29976750D03*
X78900500Y-29976750D03*
G36*
G01*
X77413000Y-22780500D02*
X77888000Y-22780500D01*
G75*
G02*
X78125500Y-23018000I0J-237500D01*
G01*
X78125500Y-23518000D01*
G75*
G02*
X77888000Y-23755500I-237500J0D01*
G01*
X77413000Y-23755500D01*
G75*
G02*
X77175500Y-23518000I0J237500D01*
G01*
X77175500Y-23018000D01*
G75*
G02*
X77413000Y-22780500I237500J0D01*
G01*
G37*
G36*
G01*
X77413000Y-24605500D02*
X77888000Y-24605500D01*
G75*
G02*
X78125500Y-24843000I0J-237500D01*
G01*
X78125500Y-25343000D01*
G75*
G02*
X77888000Y-25580500I-237500J0D01*
G01*
X77413000Y-25580500D01*
G75*
G02*
X77175500Y-25343000I0J237500D01*
G01*
X77175500Y-24843000D01*
G75*
G02*
X77413000Y-24605500I237500J0D01*
G01*
G37*
G36*
G01*
X91650500Y-26993000D02*
X90400500Y-26993000D01*
G75*
G02*
X90150500Y-26743000I0J250000D01*
G01*
X90150500Y-25993000D01*
G75*
G02*
X90400500Y-25743000I250000J0D01*
G01*
X91650500Y-25743000D01*
G75*
G02*
X91900500Y-25993000I0J-250000D01*
G01*
X91900500Y-26743000D01*
G75*
G02*
X91650500Y-26993000I-250000J0D01*
G01*
G37*
G36*
G01*
X91650500Y-24193000D02*
X90400500Y-24193000D01*
G75*
G02*
X90150500Y-23943000I0J250000D01*
G01*
X90150500Y-23193000D01*
G75*
G02*
X90400500Y-22943000I250000J0D01*
G01*
X91650500Y-22943000D01*
G75*
G02*
X91900500Y-23193000I0J-250000D01*
G01*
X91900500Y-23943000D01*
G75*
G02*
X91650500Y-24193000I-250000J0D01*
G01*
G37*
D13*
X77002500Y-20343000D03*
D14*
X77002500Y-20343000D03*
X91002500Y-20343000D03*
D13*
X77002500Y-32843000D03*
D14*
X77002500Y-32843000D03*
X91002500Y-32843000D03*
D13*
X91002500Y-32843000D03*
G36*
G01*
X86200500Y-33968001D02*
X86200500Y-32667999D01*
G75*
G02*
X86450499Y-32418000I249999J0D01*
G01*
X87150501Y-32418000D01*
G75*
G02*
X87400500Y-32667999I0J-249999D01*
G01*
X87400500Y-33968001D01*
G75*
G02*
X87150501Y-34218000I-249999J0D01*
G01*
X86450499Y-34218000D01*
G75*
G02*
X86200500Y-33968001I0J249999D01*
G01*
G37*
G36*
G01*
X80600500Y-33968001D02*
X80600500Y-32667999D01*
G75*
G02*
X80850499Y-32418000I249999J0D01*
G01*
X81550501Y-32418000D01*
G75*
G02*
X81800500Y-32667999I0J-249999D01*
G01*
X81800500Y-33968001D01*
G75*
G02*
X81550501Y-34218000I-249999J0D01*
G01*
X80850499Y-34218000D01*
G75*
G02*
X80600500Y-33968001I0J249999D01*
G01*
G37*
G36*
G01*
X85200500Y-30068000D02*
X85200500Y-28818000D01*
G75*
G02*
X85350500Y-28668000I150000J0D01*
G01*
X85650500Y-28668000D01*
G75*
G02*
X85800500Y-28818000I0J-150000D01*
G01*
X85800500Y-30068000D01*
G75*
G02*
X85650500Y-30218000I-150000J0D01*
G01*
X85350500Y-30218000D01*
G75*
G02*
X85200500Y-30068000I0J150000D01*
G01*
G37*
G36*
G01*
X84200500Y-30068000D02*
X84200500Y-28818000D01*
G75*
G02*
X84350500Y-28668000I150000J0D01*
G01*
X84650500Y-28668000D01*
G75*
G02*
X84800500Y-28818000I0J-150000D01*
G01*
X84800500Y-30068000D01*
G75*
G02*
X84650500Y-30218000I-150000J0D01*
G01*
X84350500Y-30218000D01*
G75*
G02*
X84200500Y-30068000I0J150000D01*
G01*
G37*
G36*
G01*
X83200500Y-30068000D02*
X83200500Y-28818000D01*
G75*
G02*
X83350500Y-28668000I150000J0D01*
G01*
X83650500Y-28668000D01*
G75*
G02*
X83800500Y-28818000I0J-150000D01*
G01*
X83800500Y-30068000D01*
G75*
G02*
X83650500Y-30218000I-150000J0D01*
G01*
X83350500Y-30218000D01*
G75*
G02*
X83200500Y-30068000I0J150000D01*
G01*
G37*
G36*
G01*
X82200500Y-30068000D02*
X82200500Y-28818000D01*
G75*
G02*
X82350500Y-28668000I150000J0D01*
G01*
X82650500Y-28668000D01*
G75*
G02*
X82800500Y-28818000I0J-150000D01*
G01*
X82800500Y-30068000D01*
G75*
G02*
X82650500Y-30218000I-150000J0D01*
G01*
X82350500Y-30218000D01*
G75*
G02*
X82200500Y-30068000I0J150000D01*
G01*
G37*
D15*
X80745500Y-26038000D03*
X81545500Y-26038000D03*
X86445500Y-26038000D03*
X87245500Y-26038000D03*
X87245500Y-26038000D03*
X86445500Y-26038000D03*
X81545500Y-26038000D03*
X80745500Y-26038000D03*
D16*
X85745500Y-26038000D03*
X85245500Y-26038000D03*
X84745500Y-26038000D03*
X83745500Y-26038000D03*
X83245500Y-26038000D03*
X82745500Y-26038000D03*
X82245500Y-26038000D03*
X84245500Y-26038000D03*
D17*
X79675500Y-25123000D03*
X88315500Y-25123000D03*
D18*
X86885500Y-24593000D03*
D19*
X88315500Y-20943000D03*
D18*
X81105500Y-24593000D03*
D19*
X79675500Y-20943000D03*
G36*
G01*
X79596125Y-26970500D02*
X79596125Y-28220500D01*
G75*
G02*
X79346125Y-28470500I-250000J0D01*
G01*
X78596125Y-28470500D01*
G75*
G02*
X78346125Y-28220500I0J250000D01*
G01*
X78346125Y-26970500D01*
G75*
G02*
X78596125Y-26720500I250000J0D01*
G01*
X79346125Y-26720500D01*
G75*
G02*
X79596125Y-26970500I0J-250000D01*
G01*
G37*
G36*
G01*
X76796125Y-26970500D02*
X76796125Y-28220500D01*
G75*
G02*
X76546125Y-28470500I-250000J0D01*
G01*
X75796125Y-28470500D01*
G75*
G02*
X75546125Y-28220500I0J250000D01*
G01*
X75546125Y-26970500D01*
G75*
G02*
X75796125Y-26720500I250000J0D01*
G01*
X76546125Y-26720500D01*
G75*
G02*
X76796125Y-26970500I0J-250000D01*
G01*
G37*
G36*
G01*
X75863000Y-24605500D02*
X76338000Y-24605500D01*
G75*
G02*
X76575500Y-24843000I0J-237500D01*
G01*
X76575500Y-25343000D01*
G75*
G02*
X76338000Y-25580500I-237500J0D01*
G01*
X75863000Y-25580500D01*
G75*
G02*
X75625500Y-25343000I0J237500D01*
G01*
X75625500Y-24843000D01*
G75*
G02*
X75863000Y-24605500I237500J0D01*
G01*
G37*
G36*
G01*
X75863000Y-22780500D02*
X76338000Y-22780500D01*
G75*
G02*
X76575500Y-23018000I0J-237500D01*
G01*
X76575500Y-23518000D01*
G75*
G02*
X76338000Y-23755500I-237500J0D01*
G01*
X75863000Y-23755500D01*
G75*
G02*
X75625500Y-23518000I0J237500D01*
G01*
X75625500Y-23018000D01*
G75*
G02*
X75863000Y-22780500I237500J0D01*
G01*
G37*
D11*
X69000500Y-29068000D03*
X69000500Y-30018000D03*
X69000500Y-28118000D03*
X71700500Y-28118000D03*
X71700500Y-29068000D03*
X71700500Y-30018000D03*
D12*
X56100500Y-29976750D03*
X58900500Y-29976750D03*
G36*
G01*
X57413000Y-22780500D02*
X57888000Y-22780500D01*
G75*
G02*
X58125500Y-23018000I0J-237500D01*
G01*
X58125500Y-23518000D01*
G75*
G02*
X57888000Y-23755500I-237500J0D01*
G01*
X57413000Y-23755500D01*
G75*
G02*
X57175500Y-23518000I0J237500D01*
G01*
X57175500Y-23018000D01*
G75*
G02*
X57413000Y-22780500I237500J0D01*
G01*
G37*
G36*
G01*
X57413000Y-24605500D02*
X57888000Y-24605500D01*
G75*
G02*
X58125500Y-24843000I0J-237500D01*
G01*
X58125500Y-25343000D01*
G75*
G02*
X57888000Y-25580500I-237500J0D01*
G01*
X57413000Y-25580500D01*
G75*
G02*
X57175500Y-25343000I0J237500D01*
G01*
X57175500Y-24843000D01*
G75*
G02*
X57413000Y-24605500I237500J0D01*
G01*
G37*
G36*
G01*
X71650500Y-26993000D02*
X70400500Y-26993000D01*
G75*
G02*
X70150500Y-26743000I0J250000D01*
G01*
X70150500Y-25993000D01*
G75*
G02*
X70400500Y-25743000I250000J0D01*
G01*
X71650500Y-25743000D01*
G75*
G02*
X71900500Y-25993000I0J-250000D01*
G01*
X71900500Y-26743000D01*
G75*
G02*
X71650500Y-26993000I-250000J0D01*
G01*
G37*
G36*
G01*
X71650500Y-24193000D02*
X70400500Y-24193000D01*
G75*
G02*
X70150500Y-23943000I0J250000D01*
G01*
X70150500Y-23193000D01*
G75*
G02*
X70400500Y-22943000I250000J0D01*
G01*
X71650500Y-22943000D01*
G75*
G02*
X71900500Y-23193000I0J-250000D01*
G01*
X71900500Y-23943000D01*
G75*
G02*
X71650500Y-24193000I-250000J0D01*
G01*
G37*
D13*
X57002500Y-20343000D03*
D14*
X57002500Y-20343000D03*
X71002500Y-20343000D03*
D13*
X57002500Y-32843000D03*
D14*
X57002500Y-32843000D03*
X71002500Y-32843000D03*
D13*
X71002500Y-32843000D03*
G36*
G01*
X66200500Y-33968001D02*
X66200500Y-32667999D01*
G75*
G02*
X66450499Y-32418000I249999J0D01*
G01*
X67150501Y-32418000D01*
G75*
G02*
X67400500Y-32667999I0J-249999D01*
G01*
X67400500Y-33968001D01*
G75*
G02*
X67150501Y-34218000I-249999J0D01*
G01*
X66450499Y-34218000D01*
G75*
G02*
X66200500Y-33968001I0J249999D01*
G01*
G37*
G36*
G01*
X60600500Y-33968001D02*
X60600500Y-32667999D01*
G75*
G02*
X60850499Y-32418000I249999J0D01*
G01*
X61550501Y-32418000D01*
G75*
G02*
X61800500Y-32667999I0J-249999D01*
G01*
X61800500Y-33968001D01*
G75*
G02*
X61550501Y-34218000I-249999J0D01*
G01*
X60850499Y-34218000D01*
G75*
G02*
X60600500Y-33968001I0J249999D01*
G01*
G37*
G36*
G01*
X65200500Y-30068000D02*
X65200500Y-28818000D01*
G75*
G02*
X65350500Y-28668000I150000J0D01*
G01*
X65650500Y-28668000D01*
G75*
G02*
X65800500Y-28818000I0J-150000D01*
G01*
X65800500Y-30068000D01*
G75*
G02*
X65650500Y-30218000I-150000J0D01*
G01*
X65350500Y-30218000D01*
G75*
G02*
X65200500Y-30068000I0J150000D01*
G01*
G37*
G36*
G01*
X64200500Y-30068000D02*
X64200500Y-28818000D01*
G75*
G02*
X64350500Y-28668000I150000J0D01*
G01*
X64650500Y-28668000D01*
G75*
G02*
X64800500Y-28818000I0J-150000D01*
G01*
X64800500Y-30068000D01*
G75*
G02*
X64650500Y-30218000I-150000J0D01*
G01*
X64350500Y-30218000D01*
G75*
G02*
X64200500Y-30068000I0J150000D01*
G01*
G37*
G36*
G01*
X63200500Y-30068000D02*
X63200500Y-28818000D01*
G75*
G02*
X63350500Y-28668000I150000J0D01*
G01*
X63650500Y-28668000D01*
G75*
G02*
X63800500Y-28818000I0J-150000D01*
G01*
X63800500Y-30068000D01*
G75*
G02*
X63650500Y-30218000I-150000J0D01*
G01*
X63350500Y-30218000D01*
G75*
G02*
X63200500Y-30068000I0J150000D01*
G01*
G37*
G36*
G01*
X62200500Y-30068000D02*
X62200500Y-28818000D01*
G75*
G02*
X62350500Y-28668000I150000J0D01*
G01*
X62650500Y-28668000D01*
G75*
G02*
X62800500Y-28818000I0J-150000D01*
G01*
X62800500Y-30068000D01*
G75*
G02*
X62650500Y-30218000I-150000J0D01*
G01*
X62350500Y-30218000D01*
G75*
G02*
X62200500Y-30068000I0J150000D01*
G01*
G37*
D15*
X60745500Y-26038000D03*
X61545500Y-26038000D03*
X66445500Y-26038000D03*
X67245500Y-26038000D03*
X67245500Y-26038000D03*
X66445500Y-26038000D03*
X61545500Y-26038000D03*
X60745500Y-26038000D03*
D16*
X65745500Y-26038000D03*
X65245500Y-26038000D03*
X64745500Y-26038000D03*
X63745500Y-26038000D03*
X63245500Y-26038000D03*
X62745500Y-26038000D03*
X62245500Y-26038000D03*
X64245500Y-26038000D03*
D17*
X59675500Y-25123000D03*
X68315500Y-25123000D03*
D18*
X66885500Y-24593000D03*
D19*
X68315500Y-20943000D03*
D18*
X61105500Y-24593000D03*
D19*
X59675500Y-20943000D03*
G36*
G01*
X59596125Y-26970500D02*
X59596125Y-28220500D01*
G75*
G02*
X59346125Y-28470500I-250000J0D01*
G01*
X58596125Y-28470500D01*
G75*
G02*
X58346125Y-28220500I0J250000D01*
G01*
X58346125Y-26970500D01*
G75*
G02*
X58596125Y-26720500I250000J0D01*
G01*
X59346125Y-26720500D01*
G75*
G02*
X59596125Y-26970500I0J-250000D01*
G01*
G37*
G36*
G01*
X56796125Y-26970500D02*
X56796125Y-28220500D01*
G75*
G02*
X56546125Y-28470500I-250000J0D01*
G01*
X55796125Y-28470500D01*
G75*
G02*
X55546125Y-28220500I0J250000D01*
G01*
X55546125Y-26970500D01*
G75*
G02*
X55796125Y-26720500I250000J0D01*
G01*
X56546125Y-26720500D01*
G75*
G02*
X56796125Y-26970500I0J-250000D01*
G01*
G37*
G36*
G01*
X55863000Y-24605500D02*
X56338000Y-24605500D01*
G75*
G02*
X56575500Y-24843000I0J-237500D01*
G01*
X56575500Y-25343000D01*
G75*
G02*
X56338000Y-25580500I-237500J0D01*
G01*
X55863000Y-25580500D01*
G75*
G02*
X55625500Y-25343000I0J237500D01*
G01*
X55625500Y-24843000D01*
G75*
G02*
X55863000Y-24605500I237500J0D01*
G01*
G37*
G36*
G01*
X55863000Y-22780500D02*
X56338000Y-22780500D01*
G75*
G02*
X56575500Y-23018000I0J-237500D01*
G01*
X56575500Y-23518000D01*
G75*
G02*
X56338000Y-23755500I-237500J0D01*
G01*
X55863000Y-23755500D01*
G75*
G02*
X55625500Y-23518000I0J237500D01*
G01*
X55625500Y-23018000D01*
G75*
G02*
X55863000Y-22780500I237500J0D01*
G01*
G37*
D11*
X49000500Y-29068000D03*
X49000500Y-30018000D03*
X49000500Y-28118000D03*
X51700500Y-28118000D03*
X51700500Y-29068000D03*
X51700500Y-30018000D03*
D12*
X36100500Y-29976750D03*
X38900500Y-29976750D03*
G36*
G01*
X37413000Y-22780500D02*
X37888000Y-22780500D01*
G75*
G02*
X38125500Y-23018000I0J-237500D01*
G01*
X38125500Y-23518000D01*
G75*
G02*
X37888000Y-23755500I-237500J0D01*
G01*
X37413000Y-23755500D01*
G75*
G02*
X37175500Y-23518000I0J237500D01*
G01*
X37175500Y-23018000D01*
G75*
G02*
X37413000Y-22780500I237500J0D01*
G01*
G37*
G36*
G01*
X37413000Y-24605500D02*
X37888000Y-24605500D01*
G75*
G02*
X38125500Y-24843000I0J-237500D01*
G01*
X38125500Y-25343000D01*
G75*
G02*
X37888000Y-25580500I-237500J0D01*
G01*
X37413000Y-25580500D01*
G75*
G02*
X37175500Y-25343000I0J237500D01*
G01*
X37175500Y-24843000D01*
G75*
G02*
X37413000Y-24605500I237500J0D01*
G01*
G37*
G36*
G01*
X51650500Y-26993000D02*
X50400500Y-26993000D01*
G75*
G02*
X50150500Y-26743000I0J250000D01*
G01*
X50150500Y-25993000D01*
G75*
G02*
X50400500Y-25743000I250000J0D01*
G01*
X51650500Y-25743000D01*
G75*
G02*
X51900500Y-25993000I0J-250000D01*
G01*
X51900500Y-26743000D01*
G75*
G02*
X51650500Y-26993000I-250000J0D01*
G01*
G37*
G36*
G01*
X51650500Y-24193000D02*
X50400500Y-24193000D01*
G75*
G02*
X50150500Y-23943000I0J250000D01*
G01*
X50150500Y-23193000D01*
G75*
G02*
X50400500Y-22943000I250000J0D01*
G01*
X51650500Y-22943000D01*
G75*
G02*
X51900500Y-23193000I0J-250000D01*
G01*
X51900500Y-23943000D01*
G75*
G02*
X51650500Y-24193000I-250000J0D01*
G01*
G37*
D13*
X37002500Y-20343000D03*
D14*
X37002500Y-20343000D03*
X51002500Y-20343000D03*
D13*
X37002500Y-32843000D03*
D14*
X37002500Y-32843000D03*
X51002500Y-32843000D03*
D13*
X51002500Y-32843000D03*
G36*
G01*
X46200500Y-33968001D02*
X46200500Y-32667999D01*
G75*
G02*
X46450499Y-32418000I249999J0D01*
G01*
X47150501Y-32418000D01*
G75*
G02*
X47400500Y-32667999I0J-249999D01*
G01*
X47400500Y-33968001D01*
G75*
G02*
X47150501Y-34218000I-249999J0D01*
G01*
X46450499Y-34218000D01*
G75*
G02*
X46200500Y-33968001I0J249999D01*
G01*
G37*
G36*
G01*
X40600500Y-33968001D02*
X40600500Y-32667999D01*
G75*
G02*
X40850499Y-32418000I249999J0D01*
G01*
X41550501Y-32418000D01*
G75*
G02*
X41800500Y-32667999I0J-249999D01*
G01*
X41800500Y-33968001D01*
G75*
G02*
X41550501Y-34218000I-249999J0D01*
G01*
X40850499Y-34218000D01*
G75*
G02*
X40600500Y-33968001I0J249999D01*
G01*
G37*
G36*
G01*
X45200500Y-30068000D02*
X45200500Y-28818000D01*
G75*
G02*
X45350500Y-28668000I150000J0D01*
G01*
X45650500Y-28668000D01*
G75*
G02*
X45800500Y-28818000I0J-150000D01*
G01*
X45800500Y-30068000D01*
G75*
G02*
X45650500Y-30218000I-150000J0D01*
G01*
X45350500Y-30218000D01*
G75*
G02*
X45200500Y-30068000I0J150000D01*
G01*
G37*
G36*
G01*
X44200500Y-30068000D02*
X44200500Y-28818000D01*
G75*
G02*
X44350500Y-28668000I150000J0D01*
G01*
X44650500Y-28668000D01*
G75*
G02*
X44800500Y-28818000I0J-150000D01*
G01*
X44800500Y-30068000D01*
G75*
G02*
X44650500Y-30218000I-150000J0D01*
G01*
X44350500Y-30218000D01*
G75*
G02*
X44200500Y-30068000I0J150000D01*
G01*
G37*
G36*
G01*
X43200500Y-30068000D02*
X43200500Y-28818000D01*
G75*
G02*
X43350500Y-28668000I150000J0D01*
G01*
X43650500Y-28668000D01*
G75*
G02*
X43800500Y-28818000I0J-150000D01*
G01*
X43800500Y-30068000D01*
G75*
G02*
X43650500Y-30218000I-150000J0D01*
G01*
X43350500Y-30218000D01*
G75*
G02*
X43200500Y-30068000I0J150000D01*
G01*
G37*
G36*
G01*
X42200500Y-30068000D02*
X42200500Y-28818000D01*
G75*
G02*
X42350500Y-28668000I150000J0D01*
G01*
X42650500Y-28668000D01*
G75*
G02*
X42800500Y-28818000I0J-150000D01*
G01*
X42800500Y-30068000D01*
G75*
G02*
X42650500Y-30218000I-150000J0D01*
G01*
X42350500Y-30218000D01*
G75*
G02*
X42200500Y-30068000I0J150000D01*
G01*
G37*
D15*
X40745500Y-26038000D03*
X41545500Y-26038000D03*
X46445500Y-26038000D03*
X47245500Y-26038000D03*
X47245500Y-26038000D03*
X46445500Y-26038000D03*
X41545500Y-26038000D03*
X40745500Y-26038000D03*
D16*
X45745500Y-26038000D03*
X45245500Y-26038000D03*
X44745500Y-26038000D03*
X43745500Y-26038000D03*
X43245500Y-26038000D03*
X42745500Y-26038000D03*
X42245500Y-26038000D03*
X44245500Y-26038000D03*
D17*
X39675500Y-25123000D03*
X48315500Y-25123000D03*
D18*
X46885500Y-24593000D03*
D19*
X48315500Y-20943000D03*
D18*
X41105500Y-24593000D03*
D19*
X39675500Y-20943000D03*
G36*
G01*
X39596125Y-26970500D02*
X39596125Y-28220500D01*
G75*
G02*
X39346125Y-28470500I-250000J0D01*
G01*
X38596125Y-28470500D01*
G75*
G02*
X38346125Y-28220500I0J250000D01*
G01*
X38346125Y-26970500D01*
G75*
G02*
X38596125Y-26720500I250000J0D01*
G01*
X39346125Y-26720500D01*
G75*
G02*
X39596125Y-26970500I0J-250000D01*
G01*
G37*
G36*
G01*
X36796125Y-26970500D02*
X36796125Y-28220500D01*
G75*
G02*
X36546125Y-28470500I-250000J0D01*
G01*
X35796125Y-28470500D01*
G75*
G02*
X35546125Y-28220500I0J250000D01*
G01*
X35546125Y-26970500D01*
G75*
G02*
X35796125Y-26720500I250000J0D01*
G01*
X36546125Y-26720500D01*
G75*
G02*
X36796125Y-26970500I0J-250000D01*
G01*
G37*
G36*
G01*
X35863000Y-24605500D02*
X36338000Y-24605500D01*
G75*
G02*
X36575500Y-24843000I0J-237500D01*
G01*
X36575500Y-25343000D01*
G75*
G02*
X36338000Y-25580500I-237500J0D01*
G01*
X35863000Y-25580500D01*
G75*
G02*
X35625500Y-25343000I0J237500D01*
G01*
X35625500Y-24843000D01*
G75*
G02*
X35863000Y-24605500I237500J0D01*
G01*
G37*
G36*
G01*
X35863000Y-22780500D02*
X36338000Y-22780500D01*
G75*
G02*
X36575500Y-23018000I0J-237500D01*
G01*
X36575500Y-23518000D01*
G75*
G02*
X36338000Y-23755500I-237500J0D01*
G01*
X35863000Y-23755500D01*
G75*
G02*
X35625500Y-23518000I0J237500D01*
G01*
X35625500Y-23018000D01*
G75*
G02*
X35863000Y-22780500I237500J0D01*
G01*
G37*
D11*
X29000500Y-29068000D03*
X29000500Y-30018000D03*
X29000500Y-28118000D03*
X31700500Y-28118000D03*
X31700500Y-29068000D03*
X31700500Y-30018000D03*
D12*
X16100500Y-29976750D03*
X18900500Y-29976750D03*
G36*
G01*
X17413000Y-22780500D02*
X17888000Y-22780500D01*
G75*
G02*
X18125500Y-23018000I0J-237500D01*
G01*
X18125500Y-23518000D01*
G75*
G02*
X17888000Y-23755500I-237500J0D01*
G01*
X17413000Y-23755500D01*
G75*
G02*
X17175500Y-23518000I0J237500D01*
G01*
X17175500Y-23018000D01*
G75*
G02*
X17413000Y-22780500I237500J0D01*
G01*
G37*
G36*
G01*
X17413000Y-24605500D02*
X17888000Y-24605500D01*
G75*
G02*
X18125500Y-24843000I0J-237500D01*
G01*
X18125500Y-25343000D01*
G75*
G02*
X17888000Y-25580500I-237500J0D01*
G01*
X17413000Y-25580500D01*
G75*
G02*
X17175500Y-25343000I0J237500D01*
G01*
X17175500Y-24843000D01*
G75*
G02*
X17413000Y-24605500I237500J0D01*
G01*
G37*
G36*
G01*
X31650500Y-26993000D02*
X30400500Y-26993000D01*
G75*
G02*
X30150500Y-26743000I0J250000D01*
G01*
X30150500Y-25993000D01*
G75*
G02*
X30400500Y-25743000I250000J0D01*
G01*
X31650500Y-25743000D01*
G75*
G02*
X31900500Y-25993000I0J-250000D01*
G01*
X31900500Y-26743000D01*
G75*
G02*
X31650500Y-26993000I-250000J0D01*
G01*
G37*
G36*
G01*
X31650500Y-24193000D02*
X30400500Y-24193000D01*
G75*
G02*
X30150500Y-23943000I0J250000D01*
G01*
X30150500Y-23193000D01*
G75*
G02*
X30400500Y-22943000I250000J0D01*
G01*
X31650500Y-22943000D01*
G75*
G02*
X31900500Y-23193000I0J-250000D01*
G01*
X31900500Y-23943000D01*
G75*
G02*
X31650500Y-24193000I-250000J0D01*
G01*
G37*
D13*
X17002500Y-20343000D03*
D14*
X17002500Y-20343000D03*
X31002500Y-20343000D03*
D13*
X17002500Y-32843000D03*
D14*
X17002500Y-32843000D03*
X31002500Y-32843000D03*
D13*
X31002500Y-32843000D03*
G36*
G01*
X26200500Y-33968001D02*
X26200500Y-32667999D01*
G75*
G02*
X26450499Y-32418000I249999J0D01*
G01*
X27150501Y-32418000D01*
G75*
G02*
X27400500Y-32667999I0J-249999D01*
G01*
X27400500Y-33968001D01*
G75*
G02*
X27150501Y-34218000I-249999J0D01*
G01*
X26450499Y-34218000D01*
G75*
G02*
X26200500Y-33968001I0J249999D01*
G01*
G37*
G36*
G01*
X20600500Y-33968001D02*
X20600500Y-32667999D01*
G75*
G02*
X20850499Y-32418000I249999J0D01*
G01*
X21550501Y-32418000D01*
G75*
G02*
X21800500Y-32667999I0J-249999D01*
G01*
X21800500Y-33968001D01*
G75*
G02*
X21550501Y-34218000I-249999J0D01*
G01*
X20850499Y-34218000D01*
G75*
G02*
X20600500Y-33968001I0J249999D01*
G01*
G37*
G36*
G01*
X25200500Y-30068000D02*
X25200500Y-28818000D01*
G75*
G02*
X25350500Y-28668000I150000J0D01*
G01*
X25650500Y-28668000D01*
G75*
G02*
X25800500Y-28818000I0J-150000D01*
G01*
X25800500Y-30068000D01*
G75*
G02*
X25650500Y-30218000I-150000J0D01*
G01*
X25350500Y-30218000D01*
G75*
G02*
X25200500Y-30068000I0J150000D01*
G01*
G37*
G36*
G01*
X24200500Y-30068000D02*
X24200500Y-28818000D01*
G75*
G02*
X24350500Y-28668000I150000J0D01*
G01*
X24650500Y-28668000D01*
G75*
G02*
X24800500Y-28818000I0J-150000D01*
G01*
X24800500Y-30068000D01*
G75*
G02*
X24650500Y-30218000I-150000J0D01*
G01*
X24350500Y-30218000D01*
G75*
G02*
X24200500Y-30068000I0J150000D01*
G01*
G37*
G36*
G01*
X23200500Y-30068000D02*
X23200500Y-28818000D01*
G75*
G02*
X23350500Y-28668000I150000J0D01*
G01*
X23650500Y-28668000D01*
G75*
G02*
X23800500Y-28818000I0J-150000D01*
G01*
X23800500Y-30068000D01*
G75*
G02*
X23650500Y-30218000I-150000J0D01*
G01*
X23350500Y-30218000D01*
G75*
G02*
X23200500Y-30068000I0J150000D01*
G01*
G37*
G36*
G01*
X22200500Y-30068000D02*
X22200500Y-28818000D01*
G75*
G02*
X22350500Y-28668000I150000J0D01*
G01*
X22650500Y-28668000D01*
G75*
G02*
X22800500Y-28818000I0J-150000D01*
G01*
X22800500Y-30068000D01*
G75*
G02*
X22650500Y-30218000I-150000J0D01*
G01*
X22350500Y-30218000D01*
G75*
G02*
X22200500Y-30068000I0J150000D01*
G01*
G37*
D15*
X20745500Y-26038000D03*
X21545500Y-26038000D03*
X26445500Y-26038000D03*
X27245500Y-26038000D03*
X27245500Y-26038000D03*
X26445500Y-26038000D03*
X21545500Y-26038000D03*
X20745500Y-26038000D03*
D16*
X25745500Y-26038000D03*
X25245500Y-26038000D03*
X24745500Y-26038000D03*
X23745500Y-26038000D03*
X23245500Y-26038000D03*
X22745500Y-26038000D03*
X22245500Y-26038000D03*
X24245500Y-26038000D03*
D17*
X19675500Y-25123000D03*
X28315500Y-25123000D03*
D18*
X26885500Y-24593000D03*
D19*
X28315500Y-20943000D03*
D18*
X21105500Y-24593000D03*
D19*
X19675500Y-20943000D03*
G36*
G01*
X19596125Y-26970500D02*
X19596125Y-28220500D01*
G75*
G02*
X19346125Y-28470500I-250000J0D01*
G01*
X18596125Y-28470500D01*
G75*
G02*
X18346125Y-28220500I0J250000D01*
G01*
X18346125Y-26970500D01*
G75*
G02*
X18596125Y-26720500I250000J0D01*
G01*
X19346125Y-26720500D01*
G75*
G02*
X19596125Y-26970500I0J-250000D01*
G01*
G37*
G36*
G01*
X16796125Y-26970500D02*
X16796125Y-28220500D01*
G75*
G02*
X16546125Y-28470500I-250000J0D01*
G01*
X15796125Y-28470500D01*
G75*
G02*
X15546125Y-28220500I0J250000D01*
G01*
X15546125Y-26970500D01*
G75*
G02*
X15796125Y-26720500I250000J0D01*
G01*
X16546125Y-26720500D01*
G75*
G02*
X16796125Y-26970500I0J-250000D01*
G01*
G37*
G36*
G01*
X15863000Y-24605500D02*
X16338000Y-24605500D01*
G75*
G02*
X16575500Y-24843000I0J-237500D01*
G01*
X16575500Y-25343000D01*
G75*
G02*
X16338000Y-25580500I-237500J0D01*
G01*
X15863000Y-25580500D01*
G75*
G02*
X15625500Y-25343000I0J237500D01*
G01*
X15625500Y-24843000D01*
G75*
G02*
X15863000Y-24605500I237500J0D01*
G01*
G37*
G36*
G01*
X15863000Y-22780500D02*
X16338000Y-22780500D01*
G75*
G02*
X16575500Y-23018000I0J-237500D01*
G01*
X16575500Y-23518000D01*
G75*
G02*
X16338000Y-23755500I-237500J0D01*
G01*
X15863000Y-23755500D01*
G75*
G02*
X15625500Y-23518000I0J237500D01*
G01*
X15625500Y-23018000D01*
G75*
G02*
X15863000Y-22780500I237500J0D01*
G01*
G37*
D20*
X16752500Y-112593000D03*
X111252500Y-112593000D03*
M02*
