G04 #@! TF.GenerationSoftware,KiCad,Pcbnew,(5.1.10-1-10_14)*
G04 #@! TF.CreationDate,2021-12-04T11:47:49+01:00*
G04 #@! TF.ProjectId,panel,70616e65-6c2e-46b6-9963-61645f706362,C3*
G04 #@! TF.SameCoordinates,Original*
G04 #@! TF.FileFunction,Soldermask,Bot*
G04 #@! TF.FilePolarity,Negative*
%FSLAX46Y46*%
G04 Gerber Fmt 4.6, Leading zero omitted, Abs format (unit mm)*
G04 Created by KiCad (PCBNEW (5.1.10-1-10_14)) date 2021-12-04 11:47:49*
%MOMM*%
%LPD*%
G01*
G04 APERTURE LIST*
%ADD10C,0.500000*%
%ADD11C,2.600000*%
%ADD12C,3.500000*%
%ADD13O,1.000000X2.100000*%
%ADD14C,0.650000*%
%ADD15O,1.000000X1.600000*%
%ADD16C,2.100000*%
G04 APERTURE END LIST*
D10*
X104402500Y-110593000D03*
X102002500Y-109093000D03*
X102802500Y-109093000D03*
X102002500Y-110593000D03*
X106002500Y-109093000D03*
X106002500Y-110593000D03*
X103602500Y-110593000D03*
X104402500Y-109093000D03*
X102802500Y-110593000D03*
X105202500Y-110593000D03*
X105202500Y-109093000D03*
X103602500Y-109093000D03*
X33252500Y-26993000D03*
X34752500Y-24593000D03*
X34752500Y-25393000D03*
X33252500Y-24593000D03*
X34752500Y-28593000D03*
X33252500Y-28593000D03*
X33252500Y-26193000D03*
X34752500Y-26993000D03*
X33252500Y-25393000D03*
X33252500Y-27793000D03*
X34752500Y-27793000D03*
X34752500Y-26193000D03*
X24402500Y-110593000D03*
X22002500Y-109093000D03*
X22802500Y-109093000D03*
X22002500Y-110593000D03*
X26002500Y-109093000D03*
X26002500Y-110593000D03*
X23602500Y-110593000D03*
X24402500Y-109093000D03*
X22802500Y-110593000D03*
X25202500Y-110593000D03*
X25202500Y-109093000D03*
X23602500Y-109093000D03*
X24402500Y-92093000D03*
X22002500Y-90593000D03*
X22802500Y-90593000D03*
X22002500Y-92093000D03*
X26002500Y-90593000D03*
X26002500Y-92093000D03*
X23602500Y-92093000D03*
X24402500Y-90593000D03*
X22802500Y-92093000D03*
X25202500Y-92093000D03*
X25202500Y-90593000D03*
X23602500Y-90593000D03*
X24402500Y-73593000D03*
X22002500Y-72093000D03*
X22802500Y-72093000D03*
X22002500Y-73593000D03*
X26002500Y-72093000D03*
X26002500Y-73593000D03*
X23602500Y-73593000D03*
X24402500Y-72093000D03*
X22802500Y-73593000D03*
X25202500Y-73593000D03*
X25202500Y-72093000D03*
X23602500Y-72093000D03*
X24402500Y-55093000D03*
X22002500Y-53593000D03*
X22802500Y-53593000D03*
X22002500Y-55093000D03*
X26002500Y-53593000D03*
X26002500Y-55093000D03*
X23602500Y-55093000D03*
X24402500Y-53593000D03*
X22802500Y-55093000D03*
X25202500Y-55093000D03*
X25202500Y-53593000D03*
X23602500Y-53593000D03*
X24402500Y-36593000D03*
X22002500Y-35093000D03*
X22802500Y-35093000D03*
X22002500Y-36593000D03*
X26002500Y-35093000D03*
X26002500Y-36593000D03*
X23602500Y-36593000D03*
X24402500Y-35093000D03*
X22802500Y-36593000D03*
X25202500Y-36593000D03*
X25202500Y-35093000D03*
X23602500Y-35093000D03*
X53252500Y-100993000D03*
X54752500Y-98593000D03*
X54752500Y-99393000D03*
X53252500Y-98593000D03*
X54752500Y-102593000D03*
X53252500Y-102593000D03*
X53252500Y-100193000D03*
X54752500Y-100993000D03*
X53252500Y-99393000D03*
X53252500Y-101793000D03*
X54752500Y-101793000D03*
X54752500Y-100193000D03*
X93252500Y-100993000D03*
X94752500Y-98593000D03*
X94752500Y-99393000D03*
X93252500Y-98593000D03*
X94752500Y-102593000D03*
X93252500Y-102593000D03*
X93252500Y-100193000D03*
X94752500Y-100993000D03*
X93252500Y-99393000D03*
X93252500Y-101793000D03*
X94752500Y-101793000D03*
X94752500Y-100193000D03*
X33252500Y-100993000D03*
X34752500Y-98593000D03*
X34752500Y-99393000D03*
X33252500Y-98593000D03*
X34752500Y-102593000D03*
X33252500Y-102593000D03*
X33252500Y-100193000D03*
X34752500Y-100993000D03*
X33252500Y-99393000D03*
X33252500Y-101793000D03*
X34752500Y-101793000D03*
X34752500Y-100193000D03*
X73252500Y-100993000D03*
X74752500Y-98593000D03*
X74752500Y-99393000D03*
X73252500Y-98593000D03*
X74752500Y-102593000D03*
X73252500Y-102593000D03*
X73252500Y-100193000D03*
X74752500Y-100993000D03*
X73252500Y-99393000D03*
X73252500Y-101793000D03*
X74752500Y-101793000D03*
X74752500Y-100193000D03*
X53252500Y-82493000D03*
X54752500Y-80093000D03*
X54752500Y-80893000D03*
X53252500Y-80093000D03*
X54752500Y-84093000D03*
X53252500Y-84093000D03*
X53252500Y-81693000D03*
X54752500Y-82493000D03*
X53252500Y-80893000D03*
X53252500Y-83293000D03*
X54752500Y-83293000D03*
X54752500Y-81693000D03*
X73252500Y-82493000D03*
X74752500Y-80093000D03*
X74752500Y-80893000D03*
X73252500Y-80093000D03*
X74752500Y-84093000D03*
X73252500Y-84093000D03*
X73252500Y-81693000D03*
X74752500Y-82493000D03*
X73252500Y-80893000D03*
X73252500Y-83293000D03*
X74752500Y-83293000D03*
X74752500Y-81693000D03*
X33252500Y-82493000D03*
X34752500Y-80093000D03*
X34752500Y-80893000D03*
X33252500Y-80093000D03*
X34752500Y-84093000D03*
X33252500Y-84093000D03*
X33252500Y-81693000D03*
X34752500Y-82493000D03*
X33252500Y-80893000D03*
X33252500Y-83293000D03*
X34752500Y-83293000D03*
X34752500Y-81693000D03*
X93252500Y-82493000D03*
X94752500Y-80093000D03*
X94752500Y-80893000D03*
X93252500Y-80093000D03*
X94752500Y-84093000D03*
X93252500Y-84093000D03*
X93252500Y-81693000D03*
X94752500Y-82493000D03*
X93252500Y-80893000D03*
X93252500Y-83293000D03*
X94752500Y-83293000D03*
X94752500Y-81693000D03*
X53252500Y-63993000D03*
X54752500Y-61593000D03*
X54752500Y-62393000D03*
X53252500Y-61593000D03*
X54752500Y-65593000D03*
X53252500Y-65593000D03*
X53252500Y-63193000D03*
X54752500Y-63993000D03*
X53252500Y-62393000D03*
X53252500Y-64793000D03*
X54752500Y-64793000D03*
X54752500Y-63193000D03*
X73252500Y-63993000D03*
X74752500Y-61593000D03*
X74752500Y-62393000D03*
X73252500Y-61593000D03*
X74752500Y-65593000D03*
X73252500Y-65593000D03*
X73252500Y-63193000D03*
X74752500Y-63993000D03*
X73252500Y-62393000D03*
X73252500Y-64793000D03*
X74752500Y-64793000D03*
X74752500Y-63193000D03*
X33252500Y-63993000D03*
X34752500Y-61593000D03*
X34752500Y-62393000D03*
X33252500Y-61593000D03*
X34752500Y-65593000D03*
X33252500Y-65593000D03*
X33252500Y-63193000D03*
X34752500Y-63993000D03*
X33252500Y-62393000D03*
X33252500Y-64793000D03*
X34752500Y-64793000D03*
X34752500Y-63193000D03*
X93252500Y-63993000D03*
X94752500Y-61593000D03*
X94752500Y-62393000D03*
X93252500Y-61593000D03*
X94752500Y-65593000D03*
X93252500Y-65593000D03*
X93252500Y-63193000D03*
X94752500Y-63993000D03*
X93252500Y-62393000D03*
X93252500Y-64793000D03*
X94752500Y-64793000D03*
X94752500Y-63193000D03*
X93252500Y-45493000D03*
X94752500Y-43093000D03*
X94752500Y-43893000D03*
X93252500Y-43093000D03*
X94752500Y-47093000D03*
X93252500Y-47093000D03*
X93252500Y-44693000D03*
X94752500Y-45493000D03*
X93252500Y-43893000D03*
X93252500Y-46293000D03*
X94752500Y-46293000D03*
X94752500Y-44693000D03*
X33252500Y-45493000D03*
X34752500Y-43093000D03*
X34752500Y-43893000D03*
X33252500Y-43093000D03*
X34752500Y-47093000D03*
X33252500Y-47093000D03*
X33252500Y-44693000D03*
X34752500Y-45493000D03*
X33252500Y-43893000D03*
X33252500Y-46293000D03*
X34752500Y-46293000D03*
X34752500Y-44693000D03*
X53252500Y-45493000D03*
X54752500Y-43093000D03*
X54752500Y-43893000D03*
X53252500Y-43093000D03*
X54752500Y-47093000D03*
X53252500Y-47093000D03*
X53252500Y-44693000D03*
X54752500Y-45493000D03*
X53252500Y-43893000D03*
X53252500Y-46293000D03*
X54752500Y-46293000D03*
X54752500Y-44693000D03*
X73252500Y-45493000D03*
X74752500Y-43093000D03*
X74752500Y-43893000D03*
X73252500Y-43093000D03*
X74752500Y-47093000D03*
X73252500Y-47093000D03*
X73252500Y-44693000D03*
X74752500Y-45493000D03*
X73252500Y-43893000D03*
X73252500Y-46293000D03*
X74752500Y-46293000D03*
X74752500Y-44693000D03*
X104402500Y-92093000D03*
X102002500Y-90593000D03*
X102802500Y-90593000D03*
X102002500Y-92093000D03*
X106002500Y-90593000D03*
X106002500Y-92093000D03*
X103602500Y-92093000D03*
X104402500Y-90593000D03*
X102802500Y-92093000D03*
X105202500Y-92093000D03*
X105202500Y-90593000D03*
X103602500Y-90593000D03*
X104402500Y-73593000D03*
X102002500Y-72093000D03*
X102802500Y-72093000D03*
X102002500Y-73593000D03*
X106002500Y-72093000D03*
X106002500Y-73593000D03*
X103602500Y-73593000D03*
X104402500Y-72093000D03*
X102802500Y-73593000D03*
X105202500Y-73593000D03*
X105202500Y-72093000D03*
X103602500Y-72093000D03*
X104402500Y-55093000D03*
X102002500Y-53593000D03*
X102802500Y-53593000D03*
X102002500Y-55093000D03*
X106002500Y-53593000D03*
X106002500Y-55093000D03*
X103602500Y-55093000D03*
X104402500Y-53593000D03*
X102802500Y-55093000D03*
X105202500Y-55093000D03*
X105202500Y-53593000D03*
X103602500Y-53593000D03*
X104402500Y-36593000D03*
X102002500Y-35093000D03*
X102802500Y-35093000D03*
X102002500Y-36593000D03*
X106002500Y-35093000D03*
X106002500Y-36593000D03*
X103602500Y-36593000D03*
X104402500Y-35093000D03*
X102802500Y-36593000D03*
X105202500Y-36593000D03*
X105202500Y-35093000D03*
X103602500Y-35093000D03*
X93252500Y-26993000D03*
X94752500Y-24593000D03*
X94752500Y-25393000D03*
X93252500Y-24593000D03*
X94752500Y-28593000D03*
X93252500Y-28593000D03*
X93252500Y-26193000D03*
X94752500Y-26993000D03*
X93252500Y-25393000D03*
X93252500Y-27793000D03*
X94752500Y-27793000D03*
X94752500Y-26193000D03*
X73252500Y-26993000D03*
X74752500Y-24593000D03*
X74752500Y-25393000D03*
X73252500Y-24593000D03*
X74752500Y-28593000D03*
X73252500Y-28593000D03*
X73252500Y-26193000D03*
X74752500Y-26993000D03*
X73252500Y-25393000D03*
X73252500Y-27793000D03*
X74752500Y-27793000D03*
X74752500Y-26193000D03*
X53252500Y-26993000D03*
X54752500Y-24593000D03*
X54752500Y-25393000D03*
X53252500Y-24593000D03*
X54752500Y-28593000D03*
X53252500Y-28593000D03*
X53252500Y-26193000D03*
X54752500Y-26993000D03*
X53252500Y-25393000D03*
X53252500Y-27793000D03*
X54752500Y-27793000D03*
X54752500Y-26193000D03*
D11*
X17002500Y-94343000D03*
D12*
X31002500Y-94343000D03*
D11*
X17002500Y-106843000D03*
X31002500Y-106843000D03*
D13*
X19675500Y-99123000D03*
X28315500Y-99123000D03*
D14*
X26885500Y-98593000D03*
D15*
X28315500Y-94943000D03*
D14*
X21105500Y-98593000D03*
D15*
X19675500Y-94943000D03*
D11*
X36752500Y-94343000D03*
D12*
X50752500Y-94343000D03*
D11*
X36752500Y-106843000D03*
X50752500Y-106843000D03*
D13*
X39425500Y-99123000D03*
X48065500Y-99123000D03*
D14*
X46635500Y-98593000D03*
D15*
X48065500Y-94943000D03*
D14*
X40855500Y-98593000D03*
D15*
X39425500Y-94943000D03*
D11*
X57002500Y-94343000D03*
D12*
X71002500Y-94343000D03*
D11*
X57002500Y-106843000D03*
X71002500Y-106843000D03*
D13*
X59675500Y-99123000D03*
X68315500Y-99123000D03*
D14*
X66885500Y-98593000D03*
D15*
X68315500Y-94943000D03*
D14*
X61105500Y-98593000D03*
D15*
X59675500Y-94943000D03*
D11*
X77002500Y-94343000D03*
D12*
X91002500Y-94343000D03*
D11*
X77002500Y-106843000D03*
X91002500Y-106843000D03*
D13*
X79675500Y-99123000D03*
X88315500Y-99123000D03*
D14*
X86885500Y-98593000D03*
D15*
X88315500Y-94943000D03*
D14*
X81105500Y-98593000D03*
D15*
X79675500Y-94943000D03*
D11*
X97002500Y-94343000D03*
D12*
X111002500Y-94343000D03*
D11*
X97002500Y-106843000D03*
X111002500Y-106843000D03*
D13*
X99675500Y-99123000D03*
X108315500Y-99123000D03*
D14*
X106885500Y-98593000D03*
D15*
X108315500Y-94943000D03*
D14*
X101105500Y-98593000D03*
D15*
X99675500Y-94943000D03*
D11*
X97002500Y-75843000D03*
D12*
X111002500Y-75843000D03*
D11*
X97002500Y-88343000D03*
X111002500Y-88343000D03*
D13*
X99675500Y-80623000D03*
X108315500Y-80623000D03*
D14*
X106885500Y-80093000D03*
D15*
X108315500Y-76443000D03*
D14*
X101105500Y-80093000D03*
D15*
X99675500Y-76443000D03*
D11*
X77002500Y-75843000D03*
D12*
X91002500Y-75843000D03*
D11*
X77002500Y-88343000D03*
X91002500Y-88343000D03*
D13*
X79675500Y-80623000D03*
X88315500Y-80623000D03*
D14*
X86885500Y-80093000D03*
D15*
X88315500Y-76443000D03*
D14*
X81105500Y-80093000D03*
D15*
X79675500Y-76443000D03*
D11*
X57002500Y-75843000D03*
D12*
X71002500Y-75843000D03*
D11*
X57002500Y-88343000D03*
X71002500Y-88343000D03*
D13*
X59675500Y-80623000D03*
X68315500Y-80623000D03*
D14*
X66885500Y-80093000D03*
D15*
X68315500Y-76443000D03*
D14*
X61105500Y-80093000D03*
D15*
X59675500Y-76443000D03*
D11*
X37002500Y-75843000D03*
D12*
X51002500Y-75843000D03*
D11*
X37002500Y-88343000D03*
X51002500Y-88343000D03*
D13*
X39675500Y-80623000D03*
X48315500Y-80623000D03*
D14*
X46885500Y-80093000D03*
D15*
X48315500Y-76443000D03*
D14*
X41105500Y-80093000D03*
D15*
X39675500Y-76443000D03*
D11*
X17002500Y-75843000D03*
D12*
X31002500Y-75843000D03*
D11*
X17002500Y-88343000D03*
X31002500Y-88343000D03*
D13*
X19675500Y-80623000D03*
X28315500Y-80623000D03*
D14*
X26885500Y-80093000D03*
D15*
X28315500Y-76443000D03*
D14*
X21105500Y-80093000D03*
D15*
X19675500Y-76443000D03*
D11*
X17002500Y-57343000D03*
D12*
X31002500Y-57343000D03*
D11*
X17002500Y-69843000D03*
X31002500Y-69843000D03*
D13*
X19675500Y-62123000D03*
X28315500Y-62123000D03*
D14*
X26885500Y-61593000D03*
D15*
X28315500Y-57943000D03*
D14*
X21105500Y-61593000D03*
D15*
X19675500Y-57943000D03*
D11*
X37002500Y-57343000D03*
D12*
X51002500Y-57343000D03*
D11*
X37002500Y-69843000D03*
X51002500Y-69843000D03*
D13*
X39675500Y-62123000D03*
X48315500Y-62123000D03*
D14*
X46885500Y-61593000D03*
D15*
X48315500Y-57943000D03*
D14*
X41105500Y-61593000D03*
D15*
X39675500Y-57943000D03*
D11*
X57002500Y-57343000D03*
D12*
X71002500Y-57343000D03*
D11*
X57002500Y-69843000D03*
X71002500Y-69843000D03*
D13*
X59675500Y-62123000D03*
X68315500Y-62123000D03*
D14*
X66885500Y-61593000D03*
D15*
X68315500Y-57943000D03*
D14*
X61105500Y-61593000D03*
D15*
X59675500Y-57943000D03*
D11*
X77002500Y-57343000D03*
D12*
X91002500Y-57343000D03*
D11*
X77002500Y-69843000D03*
X91002500Y-69843000D03*
D13*
X79675500Y-62123000D03*
X88315500Y-62123000D03*
D14*
X86885500Y-61593000D03*
D15*
X88315500Y-57943000D03*
D14*
X81105500Y-61593000D03*
D15*
X79675500Y-57943000D03*
D11*
X97002500Y-57343000D03*
D12*
X111002500Y-57343000D03*
D11*
X97002500Y-69843000D03*
X111002500Y-69843000D03*
D13*
X99675500Y-62123000D03*
X108315500Y-62123000D03*
D14*
X106885500Y-61593000D03*
D15*
X108315500Y-57943000D03*
D14*
X101105500Y-61593000D03*
D15*
X99675500Y-57943000D03*
D11*
X97002500Y-38843000D03*
D12*
X111002500Y-38843000D03*
D11*
X97002500Y-51343000D03*
X111002500Y-51343000D03*
D13*
X99675500Y-43623000D03*
X108315500Y-43623000D03*
D14*
X106885500Y-43093000D03*
D15*
X108315500Y-39443000D03*
D14*
X101105500Y-43093000D03*
D15*
X99675500Y-39443000D03*
D11*
X76752500Y-38843000D03*
D12*
X90752500Y-38843000D03*
D11*
X76752500Y-51343000D03*
X90752500Y-51343000D03*
D13*
X79425500Y-43623000D03*
X88065500Y-43623000D03*
D14*
X86635500Y-43093000D03*
D15*
X88065500Y-39443000D03*
D14*
X80855500Y-43093000D03*
D15*
X79425500Y-39443000D03*
D11*
X57002500Y-38843000D03*
D12*
X71002500Y-38843000D03*
D11*
X57002500Y-51343000D03*
X71002500Y-51343000D03*
D13*
X59675500Y-43623000D03*
X68315500Y-43623000D03*
D14*
X66885500Y-43093000D03*
D15*
X68315500Y-39443000D03*
D14*
X61105500Y-43093000D03*
D15*
X59675500Y-39443000D03*
D11*
X37002500Y-38843000D03*
D12*
X51002500Y-38843000D03*
D11*
X37002500Y-51343000D03*
X51002500Y-51343000D03*
D13*
X39675500Y-43623000D03*
X48315500Y-43623000D03*
D14*
X46885500Y-43093000D03*
D15*
X48315500Y-39443000D03*
D14*
X41105500Y-43093000D03*
D15*
X39675500Y-39443000D03*
D11*
X17002500Y-38843000D03*
D12*
X31002500Y-38843000D03*
D11*
X17002500Y-51343000D03*
X31002500Y-51343000D03*
D13*
X19675500Y-43623000D03*
X28315500Y-43623000D03*
D14*
X26885500Y-43093000D03*
D15*
X28315500Y-39443000D03*
D14*
X21105500Y-43093000D03*
D15*
X19675500Y-39443000D03*
D11*
X97002500Y-20343000D03*
D12*
X111002500Y-20343000D03*
D11*
X97002500Y-32843000D03*
X111002500Y-32843000D03*
D13*
X99675500Y-25123000D03*
X108315500Y-25123000D03*
D14*
X106885500Y-24593000D03*
D15*
X108315500Y-20943000D03*
D14*
X101105500Y-24593000D03*
D15*
X99675500Y-20943000D03*
D11*
X77002500Y-20343000D03*
D12*
X91002500Y-20343000D03*
D11*
X77002500Y-32843000D03*
X91002500Y-32843000D03*
D13*
X79675500Y-25123000D03*
X88315500Y-25123000D03*
D14*
X86885500Y-24593000D03*
D15*
X88315500Y-20943000D03*
D14*
X81105500Y-24593000D03*
D15*
X79675500Y-20943000D03*
D11*
X57002500Y-20343000D03*
D12*
X71002500Y-20343000D03*
D11*
X57002500Y-32843000D03*
X71002500Y-32843000D03*
D13*
X59675500Y-25123000D03*
X68315500Y-25123000D03*
D14*
X66885500Y-24593000D03*
D15*
X68315500Y-20943000D03*
D14*
X61105500Y-24593000D03*
D15*
X59675500Y-20943000D03*
D11*
X37002500Y-20343000D03*
D12*
X51002500Y-20343000D03*
D11*
X37002500Y-32843000D03*
X51002500Y-32843000D03*
D13*
X39675500Y-25123000D03*
X48315500Y-25123000D03*
D14*
X46885500Y-24593000D03*
D15*
X48315500Y-20943000D03*
D14*
X41105500Y-24593000D03*
D15*
X39675500Y-20943000D03*
D11*
X17002500Y-20343000D03*
D12*
X31002500Y-20343000D03*
D11*
X17002500Y-32843000D03*
X31002500Y-32843000D03*
D13*
X19675500Y-25123000D03*
X28315500Y-25123000D03*
D14*
X26885500Y-24593000D03*
D15*
X28315500Y-20943000D03*
D14*
X21105500Y-24593000D03*
D15*
X19675500Y-20943000D03*
D16*
X16752500Y-112593000D03*
X111252500Y-112593000D03*
M02*
