G04 #@! TF.GenerationSoftware,KiCad,Pcbnew,(5.1.10-1-10_14)*
G04 #@! TF.CreationDate,2021-10-31T15:09:39+01:00*
G04 #@! TF.ProjectId,panel,70616e65-6c2e-46b6-9963-61645f706362,C3*
G04 #@! TF.SameCoordinates,Original*
G04 #@! TF.FileFunction,Profile,NP*
%FSLAX46Y46*%
G04 Gerber Fmt 4.6, Leading zero omitted, Abs format (unit mm)*
G04 Created by KiCad (PCBNEW (5.1.10-1-10_14)) date 2021-10-31 15:09:39*
%MOMM*%
%LPD*%
G01*
G04 APERTURE LIST*
G04 #@! TA.AperFunction,Profile*
%ADD10C,0.150000*%
G04 #@! TD*
G04 APERTURE END LIST*
D10*
X93004500Y-54343000D02*
X98502500Y-54343000D01*
X107004500Y-88343000D02*
X101502500Y-88343000D01*
X93004500Y-88343000D02*
X98502500Y-88343000D01*
X101502500Y-53343000D02*
X101502500Y-54343000D01*
X107004500Y-54343000D02*
X101502500Y-54343000D01*
X98502500Y-53343000D02*
X98502500Y-54343000D01*
X93004500Y-53343000D02*
X98502500Y-53343000D01*
X98502500Y-88343000D02*
X98502500Y-89343000D01*
X93004500Y-89343000D02*
X98502500Y-89343000D01*
X107004500Y-89343000D02*
X101502500Y-89343000D01*
X93004500Y-71843000D02*
X98502500Y-71843000D01*
X107004500Y-71843000D02*
X101502500Y-71843000D01*
X101502500Y-70843000D02*
X101502500Y-71843000D01*
X93004500Y-70843000D02*
X98502500Y-70843000D01*
X98502500Y-70843000D02*
X98502500Y-71843000D01*
X107004500Y-70843000D02*
X101502500Y-70843000D01*
X107004500Y-53343000D02*
X101502500Y-53343000D01*
X101502500Y-88343000D02*
X101502500Y-89343000D01*
X107004500Y-35843000D02*
X101502500Y-35843000D01*
X93004500Y-35843000D02*
X98502500Y-35843000D01*
X98502500Y-35843000D02*
X98502500Y-36843000D01*
X101502500Y-35843000D02*
X101502500Y-36843000D01*
X107004500Y-36843000D02*
X101502500Y-36843000D01*
X93004500Y-36843000D02*
X98502500Y-36843000D01*
X93004500Y-105843000D02*
X98502500Y-105843000D01*
X107004500Y-105843000D02*
X101502500Y-105843000D01*
X101502500Y-105843000D02*
X101502500Y-106843000D01*
X98502500Y-105843000D02*
X98502500Y-106843000D01*
X74002500Y-54343000D02*
X79500500Y-54343000D01*
X88002500Y-88343000D02*
X82500500Y-88343000D01*
X74002500Y-88343000D02*
X79500500Y-88343000D01*
X82500500Y-53343000D02*
X82500500Y-54343000D01*
X88002500Y-54343000D02*
X82500500Y-54343000D01*
X79500500Y-53343000D02*
X79500500Y-54343000D01*
X74002500Y-53343000D02*
X79500500Y-53343000D01*
X79500500Y-88343000D02*
X79500500Y-89343000D01*
X74002500Y-89343000D02*
X79500500Y-89343000D01*
X88002500Y-89343000D02*
X82500500Y-89343000D01*
X74002500Y-71843000D02*
X79500500Y-71843000D01*
X88002500Y-71843000D02*
X82500500Y-71843000D01*
X82500500Y-70843000D02*
X82500500Y-71843000D01*
X74002500Y-70843000D02*
X79500500Y-70843000D01*
X79500500Y-70843000D02*
X79500500Y-71843000D01*
X88002500Y-70843000D02*
X82500500Y-70843000D01*
X88002500Y-53343000D02*
X82500500Y-53343000D01*
X82500500Y-88343000D02*
X82500500Y-89343000D01*
X88002500Y-35843000D02*
X82500500Y-35843000D01*
X74002500Y-35843000D02*
X79500500Y-35843000D01*
X79500500Y-35843000D02*
X79500500Y-36843000D01*
X82500500Y-35843000D02*
X82500500Y-36843000D01*
X88002500Y-36843000D02*
X82500500Y-36843000D01*
X74002500Y-36843000D02*
X79500500Y-36843000D01*
X74002500Y-105843000D02*
X79500500Y-105843000D01*
X88002500Y-105843000D02*
X82500500Y-105843000D01*
X82500500Y-105843000D02*
X82500500Y-106843000D01*
X79500500Y-105843000D02*
X79500500Y-106843000D01*
X55002500Y-54343000D02*
X60500500Y-54343000D01*
X69002500Y-88343000D02*
X63500500Y-88343000D01*
X55002500Y-88343000D02*
X60500500Y-88343000D01*
X63500500Y-53343000D02*
X63500500Y-54343000D01*
X69002500Y-54343000D02*
X63500500Y-54343000D01*
X60500500Y-53343000D02*
X60500500Y-54343000D01*
X55002500Y-53343000D02*
X60500500Y-53343000D01*
X60500500Y-88343000D02*
X60500500Y-89343000D01*
X55002500Y-89343000D02*
X60500500Y-89343000D01*
X69002500Y-89343000D02*
X63500500Y-89343000D01*
X55002500Y-71843000D02*
X60500500Y-71843000D01*
X69002500Y-71843000D02*
X63500500Y-71843000D01*
X63500500Y-70843000D02*
X63500500Y-71843000D01*
X55002500Y-70843000D02*
X60500500Y-70843000D01*
X60500500Y-70843000D02*
X60500500Y-71843000D01*
X69002500Y-70843000D02*
X63500500Y-70843000D01*
X69002500Y-53343000D02*
X63500500Y-53343000D01*
X63500500Y-88343000D02*
X63500500Y-89343000D01*
X69002500Y-35843000D02*
X63500500Y-35843000D01*
X55002500Y-35843000D02*
X60500500Y-35843000D01*
X60500500Y-35843000D02*
X60500500Y-36843000D01*
X63500500Y-35843000D02*
X63500500Y-36843000D01*
X69002500Y-36843000D02*
X63500500Y-36843000D01*
X55002500Y-36843000D02*
X60500500Y-36843000D01*
X55002500Y-105843000D02*
X60500500Y-105843000D01*
X69002500Y-105843000D02*
X63500500Y-105843000D01*
X63500500Y-105843000D02*
X63500500Y-106843000D01*
X60500500Y-105843000D02*
X60500500Y-106843000D01*
X36004500Y-54343000D02*
X41502500Y-54343000D01*
X50004500Y-88343000D02*
X44502500Y-88343000D01*
X36004500Y-88343000D02*
X41502500Y-88343000D01*
X44502500Y-53343000D02*
X44502500Y-54343000D01*
X50004500Y-54343000D02*
X44502500Y-54343000D01*
X41502500Y-53343000D02*
X41502500Y-54343000D01*
X36004500Y-53343000D02*
X41502500Y-53343000D01*
X41502500Y-88343000D02*
X41502500Y-89343000D01*
X36004500Y-89343000D02*
X41502500Y-89343000D01*
X50004500Y-89343000D02*
X44502500Y-89343000D01*
X36004500Y-71843000D02*
X41502500Y-71843000D01*
X50004500Y-71843000D02*
X44502500Y-71843000D01*
X44502500Y-70843000D02*
X44502500Y-71843000D01*
X36004500Y-70843000D02*
X41502500Y-70843000D01*
X41502500Y-70843000D02*
X41502500Y-71843000D01*
X50004500Y-70843000D02*
X44502500Y-70843000D01*
X50004500Y-53343000D02*
X44502500Y-53343000D01*
X44502500Y-88343000D02*
X44502500Y-89343000D01*
X50004500Y-35843000D02*
X44502500Y-35843000D01*
X36004500Y-35843000D02*
X41502500Y-35843000D01*
X41502500Y-35843000D02*
X41502500Y-36843000D01*
X44502500Y-35843000D02*
X44502500Y-36843000D01*
X50004500Y-36843000D02*
X44502500Y-36843000D01*
X36004500Y-36843000D02*
X41502500Y-36843000D01*
X36004500Y-105843000D02*
X41502500Y-105843000D01*
X50004500Y-105843000D02*
X44502500Y-105843000D01*
X44502500Y-105843000D02*
X44502500Y-106843000D01*
X41502500Y-105843000D02*
X41502500Y-106843000D01*
X31004500Y-88343000D02*
X25502500Y-88343000D01*
X17004500Y-88343000D02*
X22502500Y-88343000D01*
X22502500Y-88343000D02*
X22502500Y-89343000D01*
X25502500Y-88343000D02*
X25502500Y-89343000D01*
X31004500Y-89343000D02*
X25502500Y-89343000D01*
X17004500Y-89343000D02*
X22502500Y-89343000D01*
X31004500Y-70843000D02*
X25502500Y-70843000D01*
X17004500Y-70843000D02*
X22502500Y-70843000D01*
X22502500Y-70843000D02*
X22502500Y-71843000D01*
X25502500Y-70843000D02*
X25502500Y-71843000D01*
X31004500Y-71843000D02*
X25502500Y-71843000D01*
X17004500Y-71843000D02*
X22502500Y-71843000D01*
X31004500Y-53343000D02*
X25502500Y-53343000D01*
X17004500Y-53343000D02*
X22502500Y-53343000D01*
X22502500Y-53343000D02*
X22502500Y-54343000D01*
X25502500Y-53343000D02*
X25502500Y-54343000D01*
X31004500Y-54343000D02*
X25502500Y-54343000D01*
X17004500Y-54343000D02*
X22502500Y-54343000D01*
X25502500Y-35843000D02*
X25502500Y-36843000D01*
X22502500Y-35843000D02*
X22502500Y-36843000D01*
X52006500Y-91343000D02*
X52006500Y-103843000D01*
X53006500Y-91343000D02*
X53006500Y-103843000D01*
X71004500Y-91343000D02*
X71004500Y-103843000D01*
X90006500Y-91343000D02*
X90006500Y-103843000D01*
X72004500Y-91343000D02*
X72004500Y-103843000D01*
X33004500Y-91343000D02*
X33004500Y-103843000D01*
X34004500Y-91343000D02*
X34004500Y-103843000D01*
X91006500Y-91343000D02*
X91006500Y-103843000D01*
X52006500Y-73843000D02*
X52006500Y-86343000D01*
X53006500Y-73843000D02*
X53006500Y-86343000D01*
X71004500Y-73843000D02*
X71004500Y-86343000D01*
X90006500Y-73843000D02*
X90006500Y-86343000D01*
X72004500Y-73843000D02*
X72004500Y-86343000D01*
X33004500Y-73843000D02*
X33004500Y-86343000D01*
X34004500Y-73843000D02*
X34004500Y-86343000D01*
X91006500Y-73843000D02*
X91006500Y-86343000D01*
X52006500Y-56343000D02*
X52006500Y-68843000D01*
X53006500Y-56343000D02*
X53006500Y-68843000D01*
X71004500Y-56343000D02*
X71004500Y-68843000D01*
X90006500Y-56343000D02*
X90006500Y-68843000D01*
X72004500Y-56343000D02*
X72004500Y-68843000D01*
X33004500Y-56343000D02*
X33004500Y-68843000D01*
X34004500Y-56343000D02*
X34004500Y-68843000D01*
X91006500Y-56343000D02*
X91006500Y-68843000D01*
X52006500Y-38843000D02*
X52006500Y-51343000D01*
X53006500Y-38843000D02*
X53006500Y-51343000D01*
X71004500Y-38843000D02*
X71004500Y-51343000D01*
X90006500Y-38843000D02*
X90006500Y-51343000D01*
X72004500Y-38843000D02*
X72004500Y-51343000D01*
X33004500Y-38843000D02*
X33004500Y-51343000D01*
X34004500Y-38843000D02*
X34004500Y-51343000D01*
X91006500Y-38843000D02*
X91006500Y-51343000D01*
X90006500Y-21343000D02*
X90006500Y-33843000D01*
X91006500Y-21343000D02*
X91006500Y-33843000D01*
X71004500Y-21343000D02*
X71004500Y-33843000D01*
X72004500Y-21343000D02*
X72004500Y-33843000D01*
X52006500Y-21343000D02*
X52006500Y-33843000D01*
X53006500Y-21343000D02*
X53006500Y-33843000D01*
X109002500Y-106843000D02*
X109002500Y-110343000D01*
X15002500Y-110343000D02*
X109002500Y-110343000D01*
X15002500Y-110343000D02*
X15002500Y-106843000D01*
X63502500Y-106843000D02*
X79502500Y-106843000D01*
X44502500Y-106843000D02*
X60502500Y-106843000D01*
X25502500Y-106843000D02*
X41502500Y-106843000D01*
X15002500Y-106843000D02*
X22502500Y-106843000D01*
X101502500Y-106843000D02*
X109002500Y-106843000D01*
X82502500Y-106843000D02*
X98502500Y-106843000D01*
X31004500Y-89343000D02*
G75*
G02*
X33004500Y-91343000I0J-2000000D01*
G01*
X15004500Y-91343000D02*
G75*
G02*
X17004500Y-89343000I2000000J0D01*
G01*
X15004500Y-103843000D02*
X15004500Y-91343000D01*
X17004500Y-105843000D02*
G75*
G02*
X15004500Y-103843000I0J2000000D01*
G01*
X33004500Y-103843000D02*
G75*
G02*
X31004500Y-105843000I-2000000J0D01*
G01*
X52004500Y-103843000D02*
G75*
G02*
X50004500Y-105843000I-2000000J0D01*
G01*
X36004500Y-105843000D02*
G75*
G02*
X34004500Y-103843000I0J2000000D01*
G01*
X50004500Y-89343000D02*
G75*
G02*
X52004500Y-91343000I0J-2000000D01*
G01*
X34004500Y-91343000D02*
G75*
G02*
X36004500Y-89343000I2000000J0D01*
G01*
X69004500Y-89343000D02*
G75*
G02*
X71004500Y-91343000I0J-2000000D01*
G01*
X53004500Y-91343000D02*
G75*
G02*
X55004500Y-89343000I2000000J0D01*
G01*
X71004500Y-103843000D02*
G75*
G02*
X69004500Y-105843000I-2000000J0D01*
G01*
X55002500Y-105843000D02*
G75*
G02*
X53002500Y-103843000I0J2000000D01*
G01*
X72004500Y-91343000D02*
G75*
G02*
X74004500Y-89343000I2000000J0D01*
G01*
X74004500Y-105843000D02*
G75*
G02*
X72004500Y-103843000I0J2000000D01*
G01*
X107002500Y-89343000D02*
G75*
G02*
X109002500Y-91343000I0J-2000000D01*
G01*
X109002500Y-91343000D02*
X109002500Y-103843000D01*
X109002500Y-103843000D02*
G75*
G02*
X107002500Y-105843000I-2000000J0D01*
G01*
X90004500Y-103843000D02*
G75*
G02*
X88004500Y-105843000I-2000000J0D01*
G01*
X22502500Y-105843000D02*
X22502500Y-106843000D01*
X25502500Y-105843000D02*
X25502500Y-106843000D01*
X31004500Y-105843000D02*
X25502500Y-105843000D01*
X17004500Y-105843000D02*
X22502500Y-105843000D01*
X91004500Y-91343000D02*
G75*
G02*
X93004500Y-89343000I2000000J0D01*
G01*
X88004500Y-89343000D02*
G75*
G02*
X90004500Y-91343000I0J-2000000D01*
G01*
X93004500Y-105843000D02*
G75*
G02*
X91004500Y-103843000I0J2000000D01*
G01*
X31004500Y-71843000D02*
G75*
G02*
X33004500Y-73843000I0J-2000000D01*
G01*
X15004500Y-73843000D02*
G75*
G02*
X17004500Y-71843000I2000000J0D01*
G01*
X15004500Y-86343000D02*
X15004500Y-73843000D01*
X17004500Y-88343000D02*
G75*
G02*
X15004500Y-86343000I0J2000000D01*
G01*
X33004500Y-86343000D02*
G75*
G02*
X31004500Y-88343000I-2000000J0D01*
G01*
X52004500Y-86343000D02*
G75*
G02*
X50004500Y-88343000I-2000000J0D01*
G01*
X36004500Y-88343000D02*
G75*
G02*
X34004500Y-86343000I0J2000000D01*
G01*
X50004500Y-71843000D02*
G75*
G02*
X52004500Y-73843000I0J-2000000D01*
G01*
X34004500Y-73843000D02*
G75*
G02*
X36004500Y-71843000I2000000J0D01*
G01*
X69004500Y-71843000D02*
G75*
G02*
X71004500Y-73843000I0J-2000000D01*
G01*
X53004500Y-73843000D02*
G75*
G02*
X55004500Y-71843000I2000000J0D01*
G01*
X71004500Y-86343000D02*
G75*
G02*
X69004500Y-88343000I-2000000J0D01*
G01*
X55002500Y-88343000D02*
G75*
G02*
X53002500Y-86343000I0J2000000D01*
G01*
X72004500Y-73843000D02*
G75*
G02*
X74004500Y-71843000I2000000J0D01*
G01*
X74004500Y-88343000D02*
G75*
G02*
X72004500Y-86343000I0J2000000D01*
G01*
X107002500Y-71843000D02*
G75*
G02*
X109002500Y-73843000I0J-2000000D01*
G01*
X109002500Y-73843000D02*
X109002500Y-86343000D01*
X109002500Y-86343000D02*
G75*
G02*
X107002500Y-88343000I-2000000J0D01*
G01*
X90004500Y-86343000D02*
G75*
G02*
X88004500Y-88343000I-2000000J0D01*
G01*
X91004500Y-73843000D02*
G75*
G02*
X93004500Y-71843000I2000000J0D01*
G01*
X88004500Y-71843000D02*
G75*
G02*
X90004500Y-73843000I0J-2000000D01*
G01*
X93004500Y-88343000D02*
G75*
G02*
X91004500Y-86343000I0J2000000D01*
G01*
X31004500Y-54343000D02*
G75*
G02*
X33004500Y-56343000I0J-2000000D01*
G01*
X15004500Y-56343000D02*
G75*
G02*
X17004500Y-54343000I2000000J0D01*
G01*
X15004500Y-68843000D02*
X15004500Y-56343000D01*
X17004500Y-70843000D02*
G75*
G02*
X15004500Y-68843000I0J2000000D01*
G01*
X33004500Y-68843000D02*
G75*
G02*
X31004500Y-70843000I-2000000J0D01*
G01*
X52004500Y-68843000D02*
G75*
G02*
X50004500Y-70843000I-2000000J0D01*
G01*
X36004500Y-70843000D02*
G75*
G02*
X34004500Y-68843000I0J2000000D01*
G01*
X50004500Y-54343000D02*
G75*
G02*
X52004500Y-56343000I0J-2000000D01*
G01*
X34004500Y-56343000D02*
G75*
G02*
X36004500Y-54343000I2000000J0D01*
G01*
X69004500Y-54343000D02*
G75*
G02*
X71004500Y-56343000I0J-2000000D01*
G01*
X53004500Y-56343000D02*
G75*
G02*
X55004500Y-54343000I2000000J0D01*
G01*
X71004500Y-68843000D02*
G75*
G02*
X69004500Y-70843000I-2000000J0D01*
G01*
X55002500Y-70843000D02*
G75*
G02*
X53002500Y-68843000I0J2000000D01*
G01*
X72004500Y-56343000D02*
G75*
G02*
X74004500Y-54343000I2000000J0D01*
G01*
X74004500Y-70843000D02*
G75*
G02*
X72004500Y-68843000I0J2000000D01*
G01*
X107002500Y-54343000D02*
G75*
G02*
X109002500Y-56343000I0J-2000000D01*
G01*
X109002500Y-56343000D02*
X109002500Y-68843000D01*
X109002500Y-68843000D02*
G75*
G02*
X107002500Y-70843000I-2000000J0D01*
G01*
X90004500Y-68843000D02*
G75*
G02*
X88004500Y-70843000I-2000000J0D01*
G01*
X91004500Y-56343000D02*
G75*
G02*
X93004500Y-54343000I2000000J0D01*
G01*
X88004500Y-54343000D02*
G75*
G02*
X90004500Y-56343000I0J-2000000D01*
G01*
X93004500Y-70843000D02*
G75*
G02*
X91004500Y-68843000I0J2000000D01*
G01*
X31004500Y-36843000D02*
G75*
G02*
X33004500Y-38843000I0J-2000000D01*
G01*
X15004500Y-38843000D02*
G75*
G02*
X17004500Y-36843000I2000000J0D01*
G01*
X15004500Y-51343000D02*
X15004500Y-38843000D01*
X17004500Y-53343000D02*
G75*
G02*
X15004500Y-51343000I0J2000000D01*
G01*
X33004500Y-51343000D02*
G75*
G02*
X31004500Y-53343000I-2000000J0D01*
G01*
X52004500Y-51343000D02*
G75*
G02*
X50004500Y-53343000I-2000000J0D01*
G01*
X36004500Y-53343000D02*
G75*
G02*
X34004500Y-51343000I0J2000000D01*
G01*
X50004500Y-36843000D02*
G75*
G02*
X52004500Y-38843000I0J-2000000D01*
G01*
X34004500Y-38843000D02*
G75*
G02*
X36004500Y-36843000I2000000J0D01*
G01*
X69004500Y-36843000D02*
G75*
G02*
X71004500Y-38843000I0J-2000000D01*
G01*
X53004500Y-38843000D02*
G75*
G02*
X55004500Y-36843000I2000000J0D01*
G01*
X71004500Y-51343000D02*
G75*
G02*
X69004500Y-53343000I-2000000J0D01*
G01*
X55002500Y-53343000D02*
G75*
G02*
X53002500Y-51343000I0J2000000D01*
G01*
X72004500Y-38843000D02*
G75*
G02*
X74004500Y-36843000I2000000J0D01*
G01*
X74004500Y-53343000D02*
G75*
G02*
X72004500Y-51343000I0J2000000D01*
G01*
X107002500Y-36843000D02*
G75*
G02*
X109002500Y-38843000I0J-2000000D01*
G01*
X109002500Y-38843000D02*
X109002500Y-51343000D01*
X109002500Y-51343000D02*
G75*
G02*
X107002500Y-53343000I-2000000J0D01*
G01*
X17004500Y-36843000D02*
X22502500Y-36843000D01*
X90004500Y-51343000D02*
G75*
G02*
X88004500Y-53343000I-2000000J0D01*
G01*
X31004500Y-36843000D02*
X25502500Y-36843000D01*
X91004500Y-38843000D02*
G75*
G02*
X93004500Y-36843000I2000000J0D01*
G01*
X88004500Y-36843000D02*
G75*
G02*
X90004500Y-38843000I0J-2000000D01*
G01*
X93004500Y-53343000D02*
G75*
G02*
X91004500Y-51343000I0J2000000D01*
G01*
X88004500Y-19343000D02*
G75*
G02*
X90004500Y-21343000I0J-2000000D01*
G01*
X90004500Y-33843000D02*
G75*
G02*
X88004500Y-35843000I-2000000J0D01*
G01*
X91004500Y-21343000D02*
G75*
G02*
X93004500Y-19343000I2000000J0D01*
G01*
X93004500Y-35843000D02*
G75*
G02*
X91004500Y-33843000I0J2000000D01*
G01*
X82502500Y-18343000D02*
X98502500Y-18343000D01*
X93002500Y-19343000D02*
X98502500Y-19343000D01*
X88002500Y-19343000D02*
X82502500Y-19343000D01*
X82502500Y-19343000D02*
X82502500Y-18343000D01*
X60502500Y-19343000D02*
X60502500Y-18343000D01*
X79502500Y-19343000D02*
X79502500Y-18343000D01*
X63502500Y-19343000D02*
X63502500Y-18343000D01*
X55004500Y-19343000D02*
X60502500Y-19343000D01*
X50004500Y-19343000D02*
X44502500Y-19343000D01*
X44502500Y-18343000D02*
X60502500Y-18343000D01*
X69002500Y-19343000D02*
X63502500Y-19343000D01*
X98502500Y-19343000D02*
X98502500Y-18343000D01*
X74002500Y-19343000D02*
X79502500Y-19343000D01*
X44502500Y-19343000D02*
X44502500Y-18343000D01*
X63502500Y-18343000D02*
X79502500Y-18343000D01*
X74004500Y-35843000D02*
G75*
G02*
X72004500Y-33843000I0J2000000D01*
G01*
X72004500Y-21343000D02*
G75*
G02*
X74004500Y-19343000I2000000J0D01*
G01*
X55002500Y-35843000D02*
G75*
G02*
X53002500Y-33843000I0J2000000D01*
G01*
X71004500Y-33843000D02*
G75*
G02*
X69004500Y-35843000I-2000000J0D01*
G01*
X53004500Y-21343000D02*
G75*
G02*
X55004500Y-19343000I2000000J0D01*
G01*
X69004500Y-19343000D02*
G75*
G02*
X71004500Y-21343000I0J-2000000D01*
G01*
X50004500Y-19343000D02*
G75*
G02*
X52004500Y-21343000I0J-2000000D01*
G01*
X52004500Y-33843000D02*
G75*
G02*
X50004500Y-35843000I-2000000J0D01*
G01*
X36004500Y-19343000D02*
X41502500Y-19343000D01*
X34004500Y-21343000D02*
X34004500Y-33843000D01*
X107002500Y-19343000D02*
X101502500Y-19343000D01*
X109002500Y-33843000D02*
G75*
G02*
X107002500Y-35843000I-2000000J0D01*
G01*
X109002500Y-21343000D02*
X109002500Y-33843000D01*
X107002500Y-19343000D02*
G75*
G02*
X109002500Y-21343000I0J-2000000D01*
G01*
X34004500Y-21343000D02*
G75*
G02*
X36004500Y-19343000I2000000J0D01*
G01*
X36004500Y-35843000D02*
G75*
G02*
X34004500Y-33843000I0J2000000D01*
G01*
X25502500Y-18343000D02*
X41502500Y-18343000D01*
X101502500Y-19343000D02*
X101502500Y-18343000D01*
X41502500Y-19343000D02*
X41502500Y-18343000D01*
X109002500Y-14843000D02*
X109002500Y-18343000D01*
X25502500Y-19343000D02*
X25502500Y-18343000D01*
X15002500Y-14843000D02*
X15002500Y-18343000D01*
X22502500Y-19343000D02*
X22502500Y-18343000D01*
X33004500Y-21343000D02*
X33004500Y-33843000D01*
X17004500Y-35843000D02*
X22502500Y-35843000D01*
X31004500Y-35843000D02*
X25502500Y-35843000D01*
X101502500Y-18343000D02*
X109002500Y-18343000D01*
X31004500Y-19343000D02*
X25502500Y-19343000D01*
X17004500Y-19343000D02*
X22502500Y-19343000D01*
X15002500Y-18343000D02*
X22502500Y-18343000D01*
X109002500Y-14843000D02*
X15002500Y-14843000D01*
X33004500Y-33843000D02*
G75*
G02*
X31004500Y-35843000I-2000000J0D01*
G01*
X17004500Y-35843000D02*
G75*
G02*
X15004500Y-33843000I0J2000000D01*
G01*
X15004500Y-33843000D02*
X15004500Y-21343000D01*
X15004500Y-21343000D02*
G75*
G02*
X17004500Y-19343000I2000000J0D01*
G01*
X31004500Y-19343000D02*
G75*
G02*
X33004500Y-21343000I0J-2000000D01*
G01*
M02*
