M48
; DRILL file {KiCad (5.1.10-1-10_14)} date Sunday, October 31, 2021 at 03:09:41 PM
; FORMAT={-:-/ absolute / metric / decimal}
; #@! TF.CreationDate,2021-10-31T15:09:41+01:00
; #@! TF.GenerationSoftware,Kicad,Pcbnew,(5.1.10-1-10_14)
; #@! TF.FileFunction,Plated,1,2,PTH
FMAT,2
METRIC
T1C0.400
T2C0.600
T3C2.200
%
G90
G05
T1
X21.549Y-45.818
X21.549Y-63.318
X21.549Y-80.818
X21.549Y-98.318
X21.55Y-28.318
X23.073Y-46.599
X23.073Y-64.099
X23.073Y-81.599
X23.073Y-99.099
X23.075Y-29.099
X26.443Y-45.854
X26.443Y-63.354
X26.443Y-80.854
X26.443Y-98.354
X26.445Y-28.354
X26.448Y-47.582
X26.448Y-65.082
X26.448Y-82.582
X26.448Y-100.082
X26.45Y-30.082
X27.523Y-48.389
X27.523Y-65.889
X27.523Y-83.389
X27.523Y-100.889
X27.525Y-30.889
X29.173Y-45.268
X29.173Y-62.768
X29.173Y-80.268
X29.173Y-97.768
X29.175Y-27.768
X30.306Y-47.568
X30.306Y-65.068
X30.306Y-82.568
X30.306Y-100.068
X30.308Y-30.068
X30.348Y-48.518
X30.348Y-66.018
X30.348Y-83.518
X30.348Y-101.018
X30.351Y-31.018
X40.548Y-45.818
X40.548Y-63.318
X40.548Y-80.818
X40.548Y-98.318
X40.55Y-28.318
X42.073Y-46.599
X42.073Y-64.099
X42.073Y-81.599
X42.073Y-99.099
X42.075Y-29.099
X45.443Y-45.854
X45.443Y-63.354
X45.443Y-80.854
X45.443Y-98.354
X45.445Y-28.354
X45.448Y-47.582
X45.448Y-65.082
X45.448Y-82.582
X45.448Y-100.082
X45.45Y-30.082
X46.523Y-48.389
X46.523Y-65.889
X46.523Y-83.389
X46.523Y-100.889
X46.525Y-30.889
X48.173Y-45.268
X48.173Y-62.768
X48.173Y-80.268
X48.173Y-97.768
X48.175Y-27.768
X49.306Y-47.568
X49.306Y-65.068
X49.306Y-82.568
X49.306Y-100.068
X49.308Y-30.068
X49.348Y-48.518
X49.348Y-66.018
X49.348Y-83.518
X49.348Y-101.018
X49.35Y-31.018
X59.548Y-45.818
X59.548Y-63.318
X59.548Y-80.818
X59.548Y-98.318
X59.55Y-28.318
X61.073Y-46.599
X61.073Y-64.099
X61.073Y-81.599
X61.073Y-99.099
X61.075Y-29.099
X64.443Y-45.854
X64.443Y-63.354
X64.443Y-80.854
X64.443Y-98.354
X64.445Y-28.354
X64.448Y-47.582
X64.448Y-65.082
X64.448Y-82.582
X64.448Y-100.082
X64.45Y-30.082
X65.523Y-48.389
X65.523Y-65.889
X65.523Y-83.389
X65.523Y-100.889
X65.525Y-30.889
X67.173Y-45.268
X67.173Y-62.768
X67.173Y-80.268
X67.173Y-97.768
X67.175Y-27.768
X68.306Y-47.568
X68.306Y-65.068
X68.306Y-82.568
X68.306Y-100.068
X68.308Y-30.068
X68.349Y-48.518
X68.349Y-66.018
X68.349Y-83.518
X68.349Y-101.018
X68.35Y-31.018
X78.548Y-45.818
X78.548Y-63.318
X78.548Y-80.818
X78.548Y-98.318
X78.55Y-28.318
X80.073Y-46.599
X80.073Y-64.099
X80.073Y-81.599
X80.073Y-99.099
X80.075Y-29.099
X83.443Y-45.854
X83.443Y-63.354
X83.443Y-80.854
X83.443Y-98.354
X83.445Y-28.354
X83.448Y-47.582
X83.448Y-65.082
X83.448Y-82.582
X83.448Y-100.082
X83.45Y-30.082
X84.523Y-48.389
X84.523Y-65.889
X84.523Y-83.389
X84.523Y-100.889
X84.525Y-30.889
X86.173Y-45.268
X86.173Y-62.768
X86.173Y-80.268
X86.173Y-97.768
X86.175Y-27.768
X87.306Y-47.568
X87.306Y-65.068
X87.306Y-82.568
X87.306Y-100.068
X87.308Y-30.068
X87.349Y-48.518
X87.349Y-66.018
X87.349Y-83.518
X87.349Y-101.018
X87.35Y-31.018
X97.548Y-45.818
X97.548Y-63.318
X97.548Y-80.818
X97.548Y-98.318
X97.55Y-28.318
X99.073Y-46.599
X99.073Y-64.099
X99.073Y-81.599
X99.073Y-99.099
X99.075Y-29.099
X102.443Y-45.854
X102.443Y-63.354
X102.443Y-80.854
X102.443Y-98.354
X102.445Y-28.354
X102.448Y-47.582
X102.448Y-65.082
X102.448Y-82.582
X102.448Y-100.082
X102.45Y-30.082
X103.523Y-48.389
X103.523Y-65.889
X103.523Y-83.389
X103.523Y-100.889
X103.525Y-30.889
X105.173Y-45.268
X105.173Y-62.768
X105.173Y-80.268
X105.173Y-97.768
X105.175Y-27.768
X106.306Y-47.568
X106.306Y-65.068
X106.306Y-82.568
X106.306Y-100.068
X106.308Y-30.068
X106.349Y-48.518
X106.349Y-66.018
X106.349Y-83.518
X106.349Y-101.018
X106.35Y-31.018
T3
X17.0Y-38.843
X17.0Y-51.343
X17.0Y-56.343
X17.0Y-68.843
X17.0Y-73.843
X17.0Y-86.343
X17.0Y-91.343
X17.0Y-103.843
X17.002Y-21.343
X17.002Y-33.843
X31.0Y-38.843
X31.0Y-51.343
X31.0Y-56.343
X31.0Y-68.843
X31.0Y-73.843
X31.0Y-86.343
X31.0Y-91.343
X31.0Y-103.843
X31.002Y-21.343
X31.002Y-33.843
X36.0Y-38.843
X36.0Y-51.343
X36.0Y-56.343
X36.0Y-68.843
X36.0Y-73.843
X36.0Y-86.343
X36.0Y-91.343
X36.0Y-103.843
X36.002Y-21.343
X36.002Y-33.843
X50.0Y-38.843
X50.0Y-51.343
X50.0Y-56.343
X50.0Y-68.843
X50.0Y-73.843
X50.0Y-86.343
X50.0Y-91.343
X50.0Y-103.843
X50.002Y-21.343
X50.002Y-33.843
X55.0Y-38.843
X55.0Y-51.343
X55.0Y-56.343
X55.0Y-68.843
X55.0Y-73.843
X55.0Y-86.343
X55.0Y-91.343
X55.0Y-103.843
X55.002Y-21.343
X55.002Y-33.843
X69.001Y-38.843
X69.001Y-51.343
X69.001Y-56.343
X69.001Y-68.843
X69.001Y-73.843
X69.001Y-86.343
X69.001Y-91.343
X69.001Y-103.843
X69.002Y-21.343
X69.002Y-33.843
X74.001Y-38.843
X74.001Y-51.343
X74.001Y-56.343
X74.001Y-68.843
X74.001Y-73.843
X74.001Y-86.343
X74.001Y-91.343
X74.001Y-103.843
X74.002Y-21.343
X74.002Y-33.843
X88.001Y-38.843
X88.001Y-51.343
X88.001Y-56.343
X88.001Y-68.843
X88.001Y-73.843
X88.001Y-86.343
X88.001Y-91.343
X88.001Y-103.843
X88.002Y-21.343
X88.002Y-33.843
X93.001Y-38.843
X93.001Y-51.343
X93.001Y-56.343
X93.001Y-68.843
X93.001Y-73.843
X93.001Y-86.343
X93.001Y-91.343
X93.001Y-103.843
X93.002Y-21.343
X93.002Y-33.843
X107.0Y-38.843
X107.0Y-51.343
X107.0Y-56.343
X107.0Y-68.843
X107.0Y-73.843
X107.0Y-86.343
X107.0Y-91.343
X107.0Y-103.843
X107.002Y-21.343
X107.002Y-33.843
T2
G00X19.674Y-39.743
M15
G01X19.674Y-39.143
M16
G05
G00X19.674Y-44.173
M15
G01X19.674Y-43.073
M16
G05
G00X19.674Y-57.243
M15
G01X19.674Y-56.643
M16
G05
G00X19.674Y-61.673
M15
G01X19.674Y-60.573
M16
G05
G00X19.674Y-74.743
M15
G01X19.674Y-74.143
M16
G05
G00X19.674Y-79.173
M15
G01X19.674Y-78.073
M16
G05
G00X19.674Y-92.243
M15
G01X19.674Y-91.643
M16
G05
G00X19.674Y-96.673
M15
G01X19.674Y-95.573
M16
G05
G00X19.675Y-22.243
M15
G01X19.675Y-21.643
M16
G05
G00X19.675Y-26.673
M15
G01X19.675Y-25.573
M16
G05
G00X28.313Y-39.743
M15
G01X28.313Y-39.143
M16
G05
G00X28.313Y-44.173
M15
G01X28.313Y-43.073
M16
G05
G00X28.313Y-57.243
M15
G01X28.313Y-56.643
M16
G05
G00X28.313Y-61.673
M15
G01X28.313Y-60.573
M16
G05
G00X28.313Y-74.743
M15
G01X28.313Y-74.143
M16
G05
G00X28.313Y-79.173
M15
G01X28.313Y-78.073
M16
G05
G00X28.313Y-92.243
M15
G01X28.313Y-91.643
M16
G05
G00X28.313Y-96.673
M15
G01X28.313Y-95.573
M16
G05
G00X28.316Y-22.243
M15
G01X28.316Y-21.643
M16
G05
G00X28.316Y-26.673
M15
G01X28.316Y-25.573
M16
G05
G00X38.673Y-39.743
M15
G01X38.673Y-39.143
M16
G05
G00X38.673Y-44.173
M15
G01X38.673Y-43.073
M16
G05
G00X38.673Y-57.243
M15
G01X38.673Y-56.643
M16
G05
G00X38.673Y-61.673
M15
G01X38.673Y-60.573
M16
G05
G00X38.673Y-74.743
M15
G01X38.673Y-74.143
M16
G05
G00X38.673Y-79.173
M15
G01X38.673Y-78.073
M16
G05
G00X38.673Y-92.243
M15
G01X38.673Y-91.643
M16
G05
G00X38.673Y-96.673
M15
G01X38.673Y-95.573
M16
G05
G00X38.675Y-22.243
M15
G01X38.675Y-21.643
M16
G05
G00X38.675Y-26.673
M15
G01X38.675Y-25.573
M16
G05
G00X47.313Y-39.743
M15
G01X47.313Y-39.143
M16
G05
G00X47.313Y-44.173
M15
G01X47.313Y-43.073
M16
G05
G00X47.313Y-57.243
M15
G01X47.313Y-56.643
M16
G05
G00X47.313Y-61.673
M15
G01X47.313Y-60.573
M16
G05
G00X47.313Y-74.743
M15
G01X47.313Y-74.143
M16
G05
G00X47.313Y-79.173
M15
G01X47.313Y-78.073
M16
G05
G00X47.313Y-92.243
M15
G01X47.313Y-91.643
M16
G05
G00X47.313Y-96.673
M15
G01X47.313Y-95.573
M16
G05
G00X47.316Y-22.243
M15
G01X47.316Y-21.643
M16
G05
G00X47.316Y-26.673
M15
G01X47.316Y-25.573
M16
G05
G00X57.673Y-39.743
M15
G01X57.673Y-39.143
M16
G05
G00X57.673Y-44.173
M15
G01X57.673Y-43.073
M16
G05
G00X57.673Y-57.243
M15
G01X57.673Y-56.643
M16
G05
G00X57.673Y-61.673
M15
G01X57.673Y-60.573
M16
G05
G00X57.673Y-74.743
M15
G01X57.673Y-74.143
M16
G05
G00X57.673Y-79.173
M15
G01X57.673Y-78.073
M16
G05
G00X57.673Y-92.243
M15
G01X57.673Y-91.643
M16
G05
G00X57.673Y-96.673
M15
G01X57.673Y-95.573
M16
G05
G00X57.675Y-22.243
M15
G01X57.675Y-21.643
M16
G05
G00X57.675Y-26.673
M15
G01X57.675Y-25.573
M16
G05
G00X66.313Y-39.743
M15
G01X66.313Y-39.143
M16
G05
G00X66.313Y-44.173
M15
G01X66.313Y-43.073
M16
G05
G00X66.313Y-57.243
M15
G01X66.313Y-56.643
M16
G05
G00X66.313Y-61.673
M15
G01X66.313Y-60.573
M16
G05
G00X66.313Y-74.743
M15
G01X66.313Y-74.143
M16
G05
G00X66.313Y-79.173
M15
G01X66.313Y-78.073
M16
G05
G00X66.313Y-92.243
M15
G01X66.313Y-91.643
M16
G05
G00X66.313Y-96.673
M15
G01X66.313Y-95.573
M16
G05
G00X66.316Y-22.243
M15
G01X66.316Y-21.643
M16
G05
G00X66.316Y-26.673
M15
G01X66.316Y-25.573
M16
G05
G00X76.673Y-39.743
M15
G01X76.673Y-39.143
M16
G05
G00X76.673Y-44.173
M15
G01X76.673Y-43.073
M16
G05
G00X76.673Y-57.243
M15
G01X76.673Y-56.643
M16
G05
G00X76.673Y-61.673
M15
G01X76.673Y-60.573
M16
G05
G00X76.673Y-74.743
M15
G01X76.673Y-74.143
M16
G05
G00X76.673Y-79.173
M15
G01X76.673Y-78.073
M16
G05
G00X76.673Y-92.243
M15
G01X76.673Y-91.643
M16
G05
G00X76.673Y-96.673
M15
G01X76.673Y-95.573
M16
G05
G00X76.675Y-22.243
M15
G01X76.675Y-21.643
M16
G05
G00X76.675Y-26.673
M15
G01X76.675Y-25.573
M16
G05
G00X85.313Y-39.743
M15
G01X85.313Y-39.143
M16
G05
G00X85.313Y-44.173
M15
G01X85.313Y-43.073
M16
G05
G00X85.313Y-57.243
M15
G01X85.313Y-56.643
M16
G05
G00X85.313Y-61.673
M15
G01X85.313Y-60.573
M16
G05
G00X85.313Y-74.743
M15
G01X85.313Y-74.143
M16
G05
G00X85.313Y-79.173
M15
G01X85.313Y-78.073
M16
G05
G00X85.313Y-92.243
M15
G01X85.313Y-91.643
M16
G05
G00X85.313Y-96.673
M15
G01X85.313Y-95.573
M16
G05
G00X85.316Y-22.243
M15
G01X85.316Y-21.643
M16
G05
G00X85.316Y-26.673
M15
G01X85.316Y-25.573
M16
G05
G00X95.673Y-39.743
M15
G01X95.673Y-39.143
M16
G05
G00X95.673Y-44.173
M15
G01X95.673Y-43.073
M16
G05
G00X95.673Y-57.243
M15
G01X95.673Y-56.643
M16
G05
G00X95.673Y-61.673
M15
G01X95.673Y-60.573
M16
G05
G00X95.673Y-74.743
M15
G01X95.673Y-74.143
M16
G05
G00X95.673Y-79.173
M15
G01X95.673Y-78.073
M16
G05
G00X95.673Y-92.243
M15
G01X95.673Y-91.643
M16
G05
G00X95.673Y-96.673
M15
G01X95.673Y-95.573
M16
G05
G00X95.675Y-22.243
M15
G01X95.675Y-21.643
M16
G05
G00X95.675Y-26.673
M15
G01X95.675Y-25.573
M16
G05
G00X104.313Y-39.743
M15
G01X104.313Y-39.143
M16
G05
G00X104.313Y-44.173
M15
G01X104.313Y-43.073
M16
G05
G00X104.313Y-57.243
M15
G01X104.313Y-56.643
M16
G05
G00X104.313Y-61.673
M15
G01X104.313Y-60.573
M16
G05
G00X104.313Y-74.743
M15
G01X104.313Y-74.143
M16
G05
G00X104.313Y-79.173
M15
G01X104.313Y-78.073
M16
G05
G00X104.313Y-92.243
M15
G01X104.313Y-91.643
M16
G05
G00X104.313Y-96.673
M15
G01X104.313Y-95.573
M16
G05
G00X104.316Y-22.243
M15
G01X104.316Y-21.643
M16
G05
G00X104.316Y-26.673
M15
G01X104.316Y-25.573
M16
G05
T0
M30
