G04 #@! TF.GenerationSoftware,KiCad,Pcbnew,(5.1.10-1-10_14)*
G04 #@! TF.CreationDate,2021-11-29T20:50:22+01:00*
G04 #@! TF.ProjectId,Unified-Daughterboard,556e6966-6965-4642-9d44-617567687465,C3*
G04 #@! TF.SameCoordinates,Original*
G04 #@! TF.FileFunction,Soldermask,Top*
G04 #@! TF.FilePolarity,Negative*
%FSLAX46Y46*%
G04 Gerber Fmt 4.6, Leading zero omitted, Abs format (unit mm)*
G04 Created by KiCad (PCBNEW (5.1.10-1-10_14)) date 2021-11-29 20:50:22*
%MOMM*%
%LPD*%
G01*
G04 APERTURE LIST*
%ADD10C,2.600000*%
%ADD11C,3.500000*%
%ADD12O,1.000000X1.600000*%
%ADD13C,0.650000*%
%ADD14O,1.000000X2.100000*%
%ADD15R,0.300000X1.450000*%
%ADD16R,0.600000X1.450000*%
%ADD17R,1.560000X0.650000*%
%ADD18R,1.100000X1.100000*%
G04 APERTURE END LIST*
G36*
G01*
X73202500Y-68268000D02*
X73202500Y-67018000D01*
G75*
G02*
X73352500Y-66868000I150000J0D01*
G01*
X73652500Y-66868000D01*
G75*
G02*
X73802500Y-67018000I0J-150000D01*
G01*
X73802500Y-68268000D01*
G75*
G02*
X73652500Y-68418000I-150000J0D01*
G01*
X73352500Y-68418000D01*
G75*
G02*
X73202500Y-68268000I0J150000D01*
G01*
G37*
G36*
G01*
X74202500Y-68268000D02*
X74202500Y-67018000D01*
G75*
G02*
X74352500Y-66868000I150000J0D01*
G01*
X74652500Y-66868000D01*
G75*
G02*
X74802500Y-67018000I0J-150000D01*
G01*
X74802500Y-68268000D01*
G75*
G02*
X74652500Y-68418000I-150000J0D01*
G01*
X74352500Y-68418000D01*
G75*
G02*
X74202500Y-68268000I0J150000D01*
G01*
G37*
G36*
G01*
X75202500Y-68268000D02*
X75202500Y-67018000D01*
G75*
G02*
X75352500Y-66868000I150000J0D01*
G01*
X75652500Y-66868000D01*
G75*
G02*
X75802500Y-67018000I0J-150000D01*
G01*
X75802500Y-68268000D01*
G75*
G02*
X75652500Y-68418000I-150000J0D01*
G01*
X75352500Y-68418000D01*
G75*
G02*
X75202500Y-68268000I0J150000D01*
G01*
G37*
G36*
G01*
X76202500Y-68268000D02*
X76202500Y-67018000D01*
G75*
G02*
X76352500Y-66868000I150000J0D01*
G01*
X76652500Y-66868000D01*
G75*
G02*
X76802500Y-67018000I0J-150000D01*
G01*
X76802500Y-68268000D01*
G75*
G02*
X76652500Y-68418000I-150000J0D01*
G01*
X76352500Y-68418000D01*
G75*
G02*
X76202500Y-68268000I0J150000D01*
G01*
G37*
G36*
G01*
X71602500Y-72168001D02*
X71602500Y-70867999D01*
G75*
G02*
X71852499Y-70618000I249999J0D01*
G01*
X72552501Y-70618000D01*
G75*
G02*
X72802500Y-70867999I0J-249999D01*
G01*
X72802500Y-72168001D01*
G75*
G02*
X72552501Y-72418000I-249999J0D01*
G01*
X71852499Y-72418000D01*
G75*
G02*
X71602500Y-72168001I0J249999D01*
G01*
G37*
G36*
G01*
X77202500Y-72168001D02*
X77202500Y-70867999D01*
G75*
G02*
X77452499Y-70618000I249999J0D01*
G01*
X78152501Y-70618000D01*
G75*
G02*
X78402500Y-70867999I0J-249999D01*
G01*
X78402500Y-72168001D01*
G75*
G02*
X78152501Y-72418000I-249999J0D01*
G01*
X77452499Y-72418000D01*
G75*
G02*
X77202500Y-72168001I0J249999D01*
G01*
G37*
D10*
X82004500Y-71043000D03*
D11*
X82004500Y-71043000D03*
X68004500Y-71043000D03*
D10*
X68004500Y-71043000D03*
D11*
X82004500Y-58543000D03*
X68004500Y-58543000D03*
D10*
X68004500Y-58543000D03*
G36*
G01*
X82652500Y-62393000D02*
X81402500Y-62393000D01*
G75*
G02*
X81152500Y-62143000I0J250000D01*
G01*
X81152500Y-61393000D01*
G75*
G02*
X81402500Y-61143000I250000J0D01*
G01*
X82652500Y-61143000D01*
G75*
G02*
X82902500Y-61393000I0J-250000D01*
G01*
X82902500Y-62143000D01*
G75*
G02*
X82652500Y-62393000I-250000J0D01*
G01*
G37*
G36*
G01*
X82652500Y-65193000D02*
X81402500Y-65193000D01*
G75*
G02*
X81152500Y-64943000I0J250000D01*
G01*
X81152500Y-64193000D01*
G75*
G02*
X81402500Y-63943000I250000J0D01*
G01*
X82652500Y-63943000D01*
G75*
G02*
X82902500Y-64193000I0J-250000D01*
G01*
X82902500Y-64943000D01*
G75*
G02*
X82652500Y-65193000I-250000J0D01*
G01*
G37*
G36*
G01*
X67798125Y-65170500D02*
X67798125Y-66420500D01*
G75*
G02*
X67548125Y-66670500I-250000J0D01*
G01*
X66798125Y-66670500D01*
G75*
G02*
X66548125Y-66420500I0J250000D01*
G01*
X66548125Y-65170500D01*
G75*
G02*
X66798125Y-64920500I250000J0D01*
G01*
X67548125Y-64920500D01*
G75*
G02*
X67798125Y-65170500I0J-250000D01*
G01*
G37*
G36*
G01*
X70598125Y-65170500D02*
X70598125Y-66420500D01*
G75*
G02*
X70348125Y-66670500I-250000J0D01*
G01*
X69598125Y-66670500D01*
G75*
G02*
X69348125Y-66420500I0J250000D01*
G01*
X69348125Y-65170500D01*
G75*
G02*
X69598125Y-64920500I250000J0D01*
G01*
X70348125Y-64920500D01*
G75*
G02*
X70598125Y-65170500I0J-250000D01*
G01*
G37*
D12*
X70677500Y-59143000D03*
D13*
X72107500Y-62793000D03*
D12*
X79317500Y-59143000D03*
D13*
X77887500Y-62793000D03*
D14*
X79317500Y-63323000D03*
X70677500Y-63323000D03*
D15*
X75247500Y-64238000D03*
X73247500Y-64238000D03*
X73747500Y-64238000D03*
X74247500Y-64238000D03*
X74747500Y-64238000D03*
X75747500Y-64238000D03*
X76247500Y-64238000D03*
X76747500Y-64238000D03*
D16*
X71747500Y-64238000D03*
X72547500Y-64238000D03*
X77447500Y-64238000D03*
X78247500Y-64238000D03*
X78247500Y-64238000D03*
X77447500Y-64238000D03*
X72547500Y-64238000D03*
X71747500Y-64238000D03*
D17*
X82702500Y-68218000D03*
X82702500Y-67268000D03*
X82702500Y-66318000D03*
X80002500Y-66318000D03*
X80002500Y-68218000D03*
X80002500Y-67268000D03*
G36*
G01*
X66865000Y-60980500D02*
X67340000Y-60980500D01*
G75*
G02*
X67577500Y-61218000I0J-237500D01*
G01*
X67577500Y-61718000D01*
G75*
G02*
X67340000Y-61955500I-237500J0D01*
G01*
X66865000Y-61955500D01*
G75*
G02*
X66627500Y-61718000I0J237500D01*
G01*
X66627500Y-61218000D01*
G75*
G02*
X66865000Y-60980500I237500J0D01*
G01*
G37*
G36*
G01*
X66865000Y-62805500D02*
X67340000Y-62805500D01*
G75*
G02*
X67577500Y-63043000I0J-237500D01*
G01*
X67577500Y-63543000D01*
G75*
G02*
X67340000Y-63780500I-237500J0D01*
G01*
X66865000Y-63780500D01*
G75*
G02*
X66627500Y-63543000I0J237500D01*
G01*
X66627500Y-63043000D01*
G75*
G02*
X66865000Y-62805500I237500J0D01*
G01*
G37*
G36*
G01*
X68415000Y-62805500D02*
X68890000Y-62805500D01*
G75*
G02*
X69127500Y-63043000I0J-237500D01*
G01*
X69127500Y-63543000D01*
G75*
G02*
X68890000Y-63780500I-237500J0D01*
G01*
X68415000Y-63780500D01*
G75*
G02*
X68177500Y-63543000I0J237500D01*
G01*
X68177500Y-63043000D01*
G75*
G02*
X68415000Y-62805500I237500J0D01*
G01*
G37*
G36*
G01*
X68415000Y-60980500D02*
X68890000Y-60980500D01*
G75*
G02*
X69127500Y-61218000I0J-237500D01*
G01*
X69127500Y-61718000D01*
G75*
G02*
X68890000Y-61955500I-237500J0D01*
G01*
X68415000Y-61955500D01*
G75*
G02*
X68177500Y-61718000I0J237500D01*
G01*
X68177500Y-61218000D01*
G75*
G02*
X68415000Y-60980500I237500J0D01*
G01*
G37*
D18*
X69902500Y-68176750D03*
X67102500Y-68176750D03*
M02*
