G04 #@! TF.GenerationSoftware,KiCad,Pcbnew,(5.1.10-1-10_14)*
G04 #@! TF.CreationDate,2021-11-29T20:50:22+01:00*
G04 #@! TF.ProjectId,Unified-Daughterboard,556e6966-6965-4642-9d44-617567687465,C3*
G04 #@! TF.SameCoordinates,Original*
G04 #@! TF.FileFunction,Soldermask,Bot*
G04 #@! TF.FilePolarity,Negative*
%FSLAX46Y46*%
G04 Gerber Fmt 4.6, Leading zero omitted, Abs format (unit mm)*
G04 Created by KiCad (PCBNEW (5.1.10-1-10_14)) date 2021-11-29 20:50:22*
%MOMM*%
%LPD*%
G01*
G04 APERTURE LIST*
%ADD10C,2.600000*%
%ADD11C,3.500000*%
%ADD12O,1.000000X1.600000*%
%ADD13C,0.650000*%
%ADD14O,1.000000X2.100000*%
%ADD15C,0.100000*%
G04 APERTURE END LIST*
D10*
X82004500Y-71043000D03*
X68004500Y-71043000D03*
D11*
X82004500Y-58543000D03*
D10*
X68004500Y-58543000D03*
D12*
X70677500Y-59143000D03*
D13*
X72107500Y-62793000D03*
D12*
X79317500Y-59143000D03*
D13*
X77887500Y-62793000D03*
D14*
X79317500Y-63323000D03*
X70677500Y-63323000D03*
D15*
G36*
X81252500Y-62943000D02*
G01*
X81252500Y-62443000D01*
X81253102Y-62443000D01*
X81253102Y-62418466D01*
X81257912Y-62369635D01*
X81267484Y-62321510D01*
X81281728Y-62274555D01*
X81300505Y-62229222D01*
X81323636Y-62185949D01*
X81350896Y-62145150D01*
X81382024Y-62107221D01*
X81416721Y-62072524D01*
X81454650Y-62041396D01*
X81495449Y-62014136D01*
X81538722Y-61991005D01*
X81584055Y-61972228D01*
X81631010Y-61957984D01*
X81679135Y-61948412D01*
X81727966Y-61943602D01*
X81752500Y-61943602D01*
X81752500Y-61943000D01*
X82252500Y-61943000D01*
X82252500Y-61943602D01*
X82277034Y-61943602D01*
X82325865Y-61948412D01*
X82373990Y-61957984D01*
X82420945Y-61972228D01*
X82466278Y-61991005D01*
X82509551Y-62014136D01*
X82550350Y-62041396D01*
X82588279Y-62072524D01*
X82622976Y-62107221D01*
X82654104Y-62145150D01*
X82681364Y-62185949D01*
X82704495Y-62229222D01*
X82723272Y-62274555D01*
X82737516Y-62321510D01*
X82747088Y-62369635D01*
X82751898Y-62418466D01*
X82751898Y-62443000D01*
X82752500Y-62443000D01*
X82752500Y-62943000D01*
X81252500Y-62943000D01*
G37*
G36*
X82751898Y-63743000D02*
G01*
X82751898Y-63767534D01*
X82747088Y-63816365D01*
X82737516Y-63864490D01*
X82723272Y-63911445D01*
X82704495Y-63956778D01*
X82681364Y-64000051D01*
X82654104Y-64040850D01*
X82622976Y-64078779D01*
X82588279Y-64113476D01*
X82550350Y-64144604D01*
X82509551Y-64171864D01*
X82466278Y-64194995D01*
X82420945Y-64213772D01*
X82373990Y-64228016D01*
X82325865Y-64237588D01*
X82277034Y-64242398D01*
X82252500Y-64242398D01*
X82252500Y-64243000D01*
X81752500Y-64243000D01*
X81752500Y-64242398D01*
X81727966Y-64242398D01*
X81679135Y-64237588D01*
X81631010Y-64228016D01*
X81584055Y-64213772D01*
X81538722Y-64194995D01*
X81495449Y-64171864D01*
X81454650Y-64144604D01*
X81416721Y-64113476D01*
X81382024Y-64078779D01*
X81350896Y-64040850D01*
X81323636Y-64000051D01*
X81300505Y-63956778D01*
X81281728Y-63911445D01*
X81267484Y-63864490D01*
X81257912Y-63816365D01*
X81253102Y-63767534D01*
X81253102Y-63743000D01*
X81252500Y-63743000D01*
X81252500Y-63243000D01*
X82752500Y-63243000D01*
X82752500Y-63743000D01*
X82751898Y-63743000D01*
G37*
G36*
X67253102Y-66193000D02*
G01*
X67253102Y-66168466D01*
X67257912Y-66119635D01*
X67267484Y-66071510D01*
X67281728Y-66024555D01*
X67300505Y-65979222D01*
X67323636Y-65935949D01*
X67350896Y-65895150D01*
X67382024Y-65857221D01*
X67416721Y-65822524D01*
X67454650Y-65791396D01*
X67495449Y-65764136D01*
X67538722Y-65741005D01*
X67584055Y-65722228D01*
X67631010Y-65707984D01*
X67679135Y-65698412D01*
X67727966Y-65693602D01*
X67752500Y-65693602D01*
X67752500Y-65693000D01*
X68252500Y-65693000D01*
X68252500Y-65693602D01*
X68277034Y-65693602D01*
X68325865Y-65698412D01*
X68373990Y-65707984D01*
X68420945Y-65722228D01*
X68466278Y-65741005D01*
X68509551Y-65764136D01*
X68550350Y-65791396D01*
X68588279Y-65822524D01*
X68622976Y-65857221D01*
X68654104Y-65895150D01*
X68681364Y-65935949D01*
X68704495Y-65979222D01*
X68723272Y-66024555D01*
X68737516Y-66071510D01*
X68747088Y-66119635D01*
X68751898Y-66168466D01*
X68751898Y-66193000D01*
X68752500Y-66193000D01*
X68752500Y-66693000D01*
X67252500Y-66693000D01*
X67252500Y-66193000D01*
X67253102Y-66193000D01*
G37*
G36*
X68752500Y-66993000D02*
G01*
X68752500Y-67493000D01*
X68751898Y-67493000D01*
X68751898Y-67517534D01*
X68747088Y-67566365D01*
X68737516Y-67614490D01*
X68723272Y-67661445D01*
X68704495Y-67706778D01*
X68681364Y-67750051D01*
X68654104Y-67790850D01*
X68622976Y-67828779D01*
X68588279Y-67863476D01*
X68550350Y-67894604D01*
X68509551Y-67921864D01*
X68466278Y-67944995D01*
X68420945Y-67963772D01*
X68373990Y-67978016D01*
X68325865Y-67987588D01*
X68277034Y-67992398D01*
X68252500Y-67992398D01*
X68252500Y-67993000D01*
X67752500Y-67993000D01*
X67752500Y-67992398D01*
X67727966Y-67992398D01*
X67679135Y-67987588D01*
X67631010Y-67978016D01*
X67584055Y-67963772D01*
X67538722Y-67944995D01*
X67495449Y-67921864D01*
X67454650Y-67894604D01*
X67416721Y-67863476D01*
X67382024Y-67828779D01*
X67350896Y-67790850D01*
X67323636Y-67750051D01*
X67300505Y-67706778D01*
X67281728Y-67661445D01*
X67267484Y-67614490D01*
X67257912Y-67566365D01*
X67253102Y-67517534D01*
X67253102Y-67493000D01*
X67252500Y-67493000D01*
X67252500Y-66993000D01*
X68752500Y-66993000D01*
G37*
G36*
X68752500Y-63243000D02*
G01*
X68752500Y-63743000D01*
X68751898Y-63743000D01*
X68751898Y-63767534D01*
X68747088Y-63816365D01*
X68737516Y-63864490D01*
X68723272Y-63911445D01*
X68704495Y-63956778D01*
X68681364Y-64000051D01*
X68654104Y-64040850D01*
X68622976Y-64078779D01*
X68588279Y-64113476D01*
X68550350Y-64144604D01*
X68509551Y-64171864D01*
X68466278Y-64194995D01*
X68420945Y-64213772D01*
X68373990Y-64228016D01*
X68325865Y-64237588D01*
X68277034Y-64242398D01*
X68252500Y-64242398D01*
X68252500Y-64243000D01*
X67752500Y-64243000D01*
X67752500Y-64242398D01*
X67727966Y-64242398D01*
X67679135Y-64237588D01*
X67631010Y-64228016D01*
X67584055Y-64213772D01*
X67538722Y-64194995D01*
X67495449Y-64171864D01*
X67454650Y-64144604D01*
X67416721Y-64113476D01*
X67382024Y-64078779D01*
X67350896Y-64040850D01*
X67323636Y-64000051D01*
X67300505Y-63956778D01*
X67281728Y-63911445D01*
X67267484Y-63864490D01*
X67257912Y-63816365D01*
X67253102Y-63767534D01*
X67253102Y-63743000D01*
X67252500Y-63743000D01*
X67252500Y-63243000D01*
X68752500Y-63243000D01*
G37*
G36*
X67253102Y-62443000D02*
G01*
X67253102Y-62418466D01*
X67257912Y-62369635D01*
X67267484Y-62321510D01*
X67281728Y-62274555D01*
X67300505Y-62229222D01*
X67323636Y-62185949D01*
X67350896Y-62145150D01*
X67382024Y-62107221D01*
X67416721Y-62072524D01*
X67454650Y-62041396D01*
X67495449Y-62014136D01*
X67538722Y-61991005D01*
X67584055Y-61972228D01*
X67631010Y-61957984D01*
X67679135Y-61948412D01*
X67727966Y-61943602D01*
X67752500Y-61943602D01*
X67752500Y-61943000D01*
X68252500Y-61943000D01*
X68252500Y-61943602D01*
X68277034Y-61943602D01*
X68325865Y-61948412D01*
X68373990Y-61957984D01*
X68420945Y-61972228D01*
X68466278Y-61991005D01*
X68509551Y-62014136D01*
X68550350Y-62041396D01*
X68588279Y-62072524D01*
X68622976Y-62107221D01*
X68654104Y-62145150D01*
X68681364Y-62185949D01*
X68704495Y-62229222D01*
X68723272Y-62274555D01*
X68737516Y-62321510D01*
X68747088Y-62369635D01*
X68751898Y-62418466D01*
X68751898Y-62443000D01*
X68752500Y-62443000D01*
X68752500Y-62943000D01*
X67252500Y-62943000D01*
X67252500Y-62443000D01*
X67253102Y-62443000D01*
G37*
G36*
X81253102Y-66193000D02*
G01*
X81253102Y-66168466D01*
X81257912Y-66119635D01*
X81267484Y-66071510D01*
X81281728Y-66024555D01*
X81300505Y-65979222D01*
X81323636Y-65935949D01*
X81350896Y-65895150D01*
X81382024Y-65857221D01*
X81416721Y-65822524D01*
X81454650Y-65791396D01*
X81495449Y-65764136D01*
X81538722Y-65741005D01*
X81584055Y-65722228D01*
X81631010Y-65707984D01*
X81679135Y-65698412D01*
X81727966Y-65693602D01*
X81752500Y-65693602D01*
X81752500Y-65693000D01*
X82252500Y-65693000D01*
X82252500Y-65693602D01*
X82277034Y-65693602D01*
X82325865Y-65698412D01*
X82373990Y-65707984D01*
X82420945Y-65722228D01*
X82466278Y-65741005D01*
X82509551Y-65764136D01*
X82550350Y-65791396D01*
X82588279Y-65822524D01*
X82622976Y-65857221D01*
X82654104Y-65895150D01*
X82681364Y-65935949D01*
X82704495Y-65979222D01*
X82723272Y-66024555D01*
X82737516Y-66071510D01*
X82747088Y-66119635D01*
X82751898Y-66168466D01*
X82751898Y-66193000D01*
X82752500Y-66193000D01*
X82752500Y-66693000D01*
X81252500Y-66693000D01*
X81252500Y-66193000D01*
X81253102Y-66193000D01*
G37*
G36*
X82752500Y-66993000D02*
G01*
X82752500Y-67493000D01*
X82751898Y-67493000D01*
X82751898Y-67517534D01*
X82747088Y-67566365D01*
X82737516Y-67614490D01*
X82723272Y-67661445D01*
X82704495Y-67706778D01*
X82681364Y-67750051D01*
X82654104Y-67790850D01*
X82622976Y-67828779D01*
X82588279Y-67863476D01*
X82550350Y-67894604D01*
X82509551Y-67921864D01*
X82466278Y-67944995D01*
X82420945Y-67963772D01*
X82373990Y-67978016D01*
X82325865Y-67987588D01*
X82277034Y-67992398D01*
X82252500Y-67992398D01*
X82252500Y-67993000D01*
X81752500Y-67993000D01*
X81752500Y-67992398D01*
X81727966Y-67992398D01*
X81679135Y-67987588D01*
X81631010Y-67978016D01*
X81584055Y-67963772D01*
X81538722Y-67944995D01*
X81495449Y-67921864D01*
X81454650Y-67894604D01*
X81416721Y-67863476D01*
X81382024Y-67828779D01*
X81350896Y-67790850D01*
X81323636Y-67750051D01*
X81300505Y-67706778D01*
X81281728Y-67661445D01*
X81267484Y-67614490D01*
X81257912Y-67566365D01*
X81253102Y-67517534D01*
X81253102Y-67493000D01*
X81252500Y-67493000D01*
X81252500Y-66993000D01*
X82752500Y-66993000D01*
G37*
M02*
