G04 #@! TF.GenerationSoftware,KiCad,Pcbnew,(5.1.10-1-10_14)*
G04 #@! TF.CreationDate,2021-11-29T20:50:22+01:00*
G04 #@! TF.ProjectId,Unified-Daughterboard,556e6966-6965-4642-9d44-617567687465,C3*
G04 #@! TF.SameCoordinates,Original*
G04 #@! TF.FileFunction,Legend,Top*
G04 #@! TF.FilePolarity,Positive*
%FSLAX46Y46*%
G04 Gerber Fmt 4.6, Leading zero omitted, Abs format (unit mm)*
G04 Created by KiCad (PCBNEW (5.1.10-1-10_14)) date 2021-11-29 20:50:22*
%MOMM*%
%LPD*%
G01*
G04 APERTURE LIST*
%ADD10C,0.120000*%
%ADD11C,0.150000*%
%ADD12C,0.127000*%
%ADD13C,0.100000*%
%ADD14C,2.600000*%
%ADD15C,3.500000*%
%ADD16O,1.000000X1.600000*%
%ADD17C,0.650000*%
%ADD18O,1.000000X2.100000*%
%ADD19R,0.300000X1.450000*%
%ADD20R,0.600000X1.450000*%
%ADD21R,1.560000X0.650000*%
%ADD22R,1.100000X1.100000*%
G04 APERTURE END LIST*
D10*
X73062500Y-72328000D02*
X76942500Y-72328000D01*
X78112500Y-67858000D02*
X77062500Y-67858000D01*
X78112500Y-70358000D02*
X78112500Y-67858000D01*
X72942500Y-67858000D02*
X72942500Y-66868000D01*
X71892500Y-67858000D02*
X72942500Y-67858000D01*
X71892500Y-70358000D02*
X71892500Y-67858000D01*
X81117500Y-63770064D02*
X81117500Y-62565936D01*
X82937500Y-63770064D02*
X82937500Y-62565936D01*
X69175189Y-66705500D02*
X67971061Y-66705500D01*
X69175189Y-64885500D02*
X67971061Y-64885500D01*
X79697500Y-56293000D02*
X70297500Y-56293000D01*
X70297500Y-62093000D02*
X70297500Y-60093000D01*
X70297500Y-58193000D02*
X70297500Y-56293000D01*
X79697500Y-62093000D02*
X79697500Y-60093000D01*
X79697500Y-58193000D02*
X79697500Y-56293000D01*
X80452500Y-68878000D02*
X83402500Y-68878000D01*
X82252500Y-65658000D02*
X80452500Y-65658000D01*
X66580000Y-62125776D02*
X66580000Y-62635224D01*
X67625000Y-62125776D02*
X67625000Y-62635224D01*
X69175000Y-62125776D02*
X69175000Y-62635224D01*
X68130000Y-62125776D02*
X68130000Y-62635224D01*
X70702500Y-69176750D02*
X66852500Y-69176750D01*
X70702500Y-67176750D02*
X66852500Y-67176750D01*
X70702500Y-69176750D02*
X70702500Y-67176750D01*
D11*
X74669166Y-69595380D02*
X74669166Y-70309666D01*
X74621547Y-70452523D01*
X74526309Y-70547761D01*
X74383452Y-70595380D01*
X74288214Y-70595380D01*
X75097738Y-69690619D02*
X75145357Y-69643000D01*
X75240595Y-69595380D01*
X75478690Y-69595380D01*
X75573928Y-69643000D01*
X75621547Y-69690619D01*
X75669166Y-69785857D01*
X75669166Y-69881095D01*
X75621547Y-70023952D01*
X75050119Y-70595380D01*
X75669166Y-70595380D01*
D12*
X81921666Y-63480261D02*
X81619285Y-63480261D01*
X81619285Y-62845261D01*
X82465952Y-63480261D02*
X82103095Y-63480261D01*
X82284523Y-63480261D02*
X82284523Y-62845261D01*
X82224047Y-62935976D01*
X82163571Y-62996452D01*
X82103095Y-63026690D01*
X68361458Y-65750142D02*
X68149791Y-65750142D01*
X68149791Y-66082761D02*
X68149791Y-65447761D01*
X68452172Y-65447761D01*
X69026696Y-66082761D02*
X68663839Y-66082761D01*
X68845267Y-66082761D02*
X68845267Y-65447761D01*
X68784791Y-65538476D01*
X68724315Y-65598952D01*
X68663839Y-65629190D01*
D11*
X74669166Y-58645380D02*
X74669166Y-59359666D01*
X74621547Y-59502523D01*
X74526309Y-59597761D01*
X74383452Y-59645380D01*
X74288214Y-59645380D01*
X75669166Y-59645380D02*
X75097738Y-59645380D01*
X75383452Y-59645380D02*
X75383452Y-58645380D01*
X75288214Y-58788238D01*
X75192976Y-58883476D01*
X75097738Y-58931095D01*
D13*
X80971547Y-66069190D02*
X80971547Y-66473952D01*
X80995357Y-66521571D01*
X81019166Y-66545380D01*
X81066785Y-66569190D01*
X81162023Y-66569190D01*
X81209642Y-66545380D01*
X81233452Y-66521571D01*
X81257261Y-66473952D01*
X81257261Y-66069190D01*
X81757261Y-66569190D02*
X81471547Y-66569190D01*
X81614404Y-66569190D02*
X81614404Y-66069190D01*
X81566785Y-66140619D01*
X81519166Y-66188238D01*
X81471547Y-66212047D01*
X67035833Y-62573952D02*
X66902500Y-62383476D01*
X66807261Y-62573952D02*
X66807261Y-62173952D01*
X66959642Y-62173952D01*
X66997738Y-62193000D01*
X67016785Y-62212047D01*
X67035833Y-62250142D01*
X67035833Y-62307285D01*
X67016785Y-62345380D01*
X66997738Y-62364428D01*
X66959642Y-62383476D01*
X66807261Y-62383476D01*
X67416785Y-62573952D02*
X67188214Y-62573952D01*
X67302500Y-62573952D02*
X67302500Y-62173952D01*
X67264404Y-62231095D01*
X67226309Y-62269190D01*
X67188214Y-62288238D01*
X68610833Y-62598952D02*
X68477500Y-62408476D01*
X68382261Y-62598952D02*
X68382261Y-62198952D01*
X68534642Y-62198952D01*
X68572738Y-62218000D01*
X68591785Y-62237047D01*
X68610833Y-62275142D01*
X68610833Y-62332285D01*
X68591785Y-62370380D01*
X68572738Y-62389428D01*
X68534642Y-62408476D01*
X68382261Y-62408476D01*
X68763214Y-62237047D02*
X68782261Y-62218000D01*
X68820357Y-62198952D01*
X68915595Y-62198952D01*
X68953690Y-62218000D01*
X68972738Y-62237047D01*
X68991785Y-62275142D01*
X68991785Y-62313238D01*
X68972738Y-62370380D01*
X68744166Y-62598952D01*
X68991785Y-62598952D01*
D11*
X68035833Y-68468416D02*
X68035833Y-67768416D01*
X68202500Y-67768416D01*
X68302500Y-67801750D01*
X68369166Y-67868416D01*
X68402500Y-67935083D01*
X68435833Y-68068416D01*
X68435833Y-68168416D01*
X68402500Y-68301750D01*
X68369166Y-68368416D01*
X68302500Y-68435083D01*
X68202500Y-68468416D01*
X68035833Y-68468416D01*
X69102500Y-68468416D02*
X68702500Y-68468416D01*
X68902500Y-68468416D02*
X68902500Y-67768416D01*
X68835833Y-67868416D01*
X68769166Y-67935083D01*
X68702500Y-67968416D01*
%LPC*%
G36*
G01*
X73202500Y-68268000D02*
X73202500Y-67018000D01*
G75*
G02*
X73352500Y-66868000I150000J0D01*
G01*
X73652500Y-66868000D01*
G75*
G02*
X73802500Y-67018000I0J-150000D01*
G01*
X73802500Y-68268000D01*
G75*
G02*
X73652500Y-68418000I-150000J0D01*
G01*
X73352500Y-68418000D01*
G75*
G02*
X73202500Y-68268000I0J150000D01*
G01*
G37*
G36*
G01*
X74202500Y-68268000D02*
X74202500Y-67018000D01*
G75*
G02*
X74352500Y-66868000I150000J0D01*
G01*
X74652500Y-66868000D01*
G75*
G02*
X74802500Y-67018000I0J-150000D01*
G01*
X74802500Y-68268000D01*
G75*
G02*
X74652500Y-68418000I-150000J0D01*
G01*
X74352500Y-68418000D01*
G75*
G02*
X74202500Y-68268000I0J150000D01*
G01*
G37*
G36*
G01*
X75202500Y-68268000D02*
X75202500Y-67018000D01*
G75*
G02*
X75352500Y-66868000I150000J0D01*
G01*
X75652500Y-66868000D01*
G75*
G02*
X75802500Y-67018000I0J-150000D01*
G01*
X75802500Y-68268000D01*
G75*
G02*
X75652500Y-68418000I-150000J0D01*
G01*
X75352500Y-68418000D01*
G75*
G02*
X75202500Y-68268000I0J150000D01*
G01*
G37*
G36*
G01*
X76202500Y-68268000D02*
X76202500Y-67018000D01*
G75*
G02*
X76352500Y-66868000I150000J0D01*
G01*
X76652500Y-66868000D01*
G75*
G02*
X76802500Y-67018000I0J-150000D01*
G01*
X76802500Y-68268000D01*
G75*
G02*
X76652500Y-68418000I-150000J0D01*
G01*
X76352500Y-68418000D01*
G75*
G02*
X76202500Y-68268000I0J150000D01*
G01*
G37*
G36*
G01*
X71602500Y-72168001D02*
X71602500Y-70867999D01*
G75*
G02*
X71852499Y-70618000I249999J0D01*
G01*
X72552501Y-70618000D01*
G75*
G02*
X72802500Y-70867999I0J-249999D01*
G01*
X72802500Y-72168001D01*
G75*
G02*
X72552501Y-72418000I-249999J0D01*
G01*
X71852499Y-72418000D01*
G75*
G02*
X71602500Y-72168001I0J249999D01*
G01*
G37*
G36*
G01*
X77202500Y-72168001D02*
X77202500Y-70867999D01*
G75*
G02*
X77452499Y-70618000I249999J0D01*
G01*
X78152501Y-70618000D01*
G75*
G02*
X78402500Y-70867999I0J-249999D01*
G01*
X78402500Y-72168001D01*
G75*
G02*
X78152501Y-72418000I-249999J0D01*
G01*
X77452499Y-72418000D01*
G75*
G02*
X77202500Y-72168001I0J249999D01*
G01*
G37*
D14*
X82004500Y-71043000D03*
D15*
X82004500Y-71043000D03*
X68004500Y-71043000D03*
D14*
X68004500Y-71043000D03*
D15*
X82004500Y-58543000D03*
X68004500Y-58543000D03*
D14*
X68004500Y-58543000D03*
G36*
G01*
X82652500Y-62393000D02*
X81402500Y-62393000D01*
G75*
G02*
X81152500Y-62143000I0J250000D01*
G01*
X81152500Y-61393000D01*
G75*
G02*
X81402500Y-61143000I250000J0D01*
G01*
X82652500Y-61143000D01*
G75*
G02*
X82902500Y-61393000I0J-250000D01*
G01*
X82902500Y-62143000D01*
G75*
G02*
X82652500Y-62393000I-250000J0D01*
G01*
G37*
G36*
G01*
X82652500Y-65193000D02*
X81402500Y-65193000D01*
G75*
G02*
X81152500Y-64943000I0J250000D01*
G01*
X81152500Y-64193000D01*
G75*
G02*
X81402500Y-63943000I250000J0D01*
G01*
X82652500Y-63943000D01*
G75*
G02*
X82902500Y-64193000I0J-250000D01*
G01*
X82902500Y-64943000D01*
G75*
G02*
X82652500Y-65193000I-250000J0D01*
G01*
G37*
G36*
G01*
X67798125Y-65170500D02*
X67798125Y-66420500D01*
G75*
G02*
X67548125Y-66670500I-250000J0D01*
G01*
X66798125Y-66670500D01*
G75*
G02*
X66548125Y-66420500I0J250000D01*
G01*
X66548125Y-65170500D01*
G75*
G02*
X66798125Y-64920500I250000J0D01*
G01*
X67548125Y-64920500D01*
G75*
G02*
X67798125Y-65170500I0J-250000D01*
G01*
G37*
G36*
G01*
X70598125Y-65170500D02*
X70598125Y-66420500D01*
G75*
G02*
X70348125Y-66670500I-250000J0D01*
G01*
X69598125Y-66670500D01*
G75*
G02*
X69348125Y-66420500I0J250000D01*
G01*
X69348125Y-65170500D01*
G75*
G02*
X69598125Y-64920500I250000J0D01*
G01*
X70348125Y-64920500D01*
G75*
G02*
X70598125Y-65170500I0J-250000D01*
G01*
G37*
D16*
X70677500Y-59143000D03*
D17*
X72107500Y-62793000D03*
D16*
X79317500Y-59143000D03*
D17*
X77887500Y-62793000D03*
D18*
X79317500Y-63323000D03*
X70677500Y-63323000D03*
D19*
X75247500Y-64238000D03*
X73247500Y-64238000D03*
X73747500Y-64238000D03*
X74247500Y-64238000D03*
X74747500Y-64238000D03*
X75747500Y-64238000D03*
X76247500Y-64238000D03*
X76747500Y-64238000D03*
D20*
X71747500Y-64238000D03*
X72547500Y-64238000D03*
X77447500Y-64238000D03*
X78247500Y-64238000D03*
X78247500Y-64238000D03*
X77447500Y-64238000D03*
X72547500Y-64238000D03*
X71747500Y-64238000D03*
D21*
X82702500Y-68218000D03*
X82702500Y-67268000D03*
X82702500Y-66318000D03*
X80002500Y-66318000D03*
X80002500Y-68218000D03*
X80002500Y-67268000D03*
G36*
G01*
X66865000Y-60980500D02*
X67340000Y-60980500D01*
G75*
G02*
X67577500Y-61218000I0J-237500D01*
G01*
X67577500Y-61718000D01*
G75*
G02*
X67340000Y-61955500I-237500J0D01*
G01*
X66865000Y-61955500D01*
G75*
G02*
X66627500Y-61718000I0J237500D01*
G01*
X66627500Y-61218000D01*
G75*
G02*
X66865000Y-60980500I237500J0D01*
G01*
G37*
G36*
G01*
X66865000Y-62805500D02*
X67340000Y-62805500D01*
G75*
G02*
X67577500Y-63043000I0J-237500D01*
G01*
X67577500Y-63543000D01*
G75*
G02*
X67340000Y-63780500I-237500J0D01*
G01*
X66865000Y-63780500D01*
G75*
G02*
X66627500Y-63543000I0J237500D01*
G01*
X66627500Y-63043000D01*
G75*
G02*
X66865000Y-62805500I237500J0D01*
G01*
G37*
G36*
G01*
X68415000Y-62805500D02*
X68890000Y-62805500D01*
G75*
G02*
X69127500Y-63043000I0J-237500D01*
G01*
X69127500Y-63543000D01*
G75*
G02*
X68890000Y-63780500I-237500J0D01*
G01*
X68415000Y-63780500D01*
G75*
G02*
X68177500Y-63543000I0J237500D01*
G01*
X68177500Y-63043000D01*
G75*
G02*
X68415000Y-62805500I237500J0D01*
G01*
G37*
G36*
G01*
X68415000Y-60980500D02*
X68890000Y-60980500D01*
G75*
G02*
X69127500Y-61218000I0J-237500D01*
G01*
X69127500Y-61718000D01*
G75*
G02*
X68890000Y-61955500I-237500J0D01*
G01*
X68415000Y-61955500D01*
G75*
G02*
X68177500Y-61718000I0J237500D01*
G01*
X68177500Y-61218000D01*
G75*
G02*
X68415000Y-60980500I237500J0D01*
G01*
G37*
D22*
X69902500Y-68176750D03*
X67102500Y-68176750D03*
M02*
