M48
; DRILL file {KiCad (5.1.10-1-10_14)} date Monday, November 29, 2021 at 08:50:19 PM
; FORMAT={-:-/ absolute / metric / decimal}
; #@! TF.CreationDate,2021-11-29T20:50:19+01:00
; #@! TF.GenerationSoftware,Kicad,Pcbnew,(5.1.10-1-10_14)
; #@! TF.FileFunction,Plated,1,2,PTH
FMAT,2
METRIC
T1C0.400
T2C0.600
T3C2.200
%
G90
G05
T1
X69.502Y-64.343
X72.252Y-69.843
X72.552Y-65.518
X74.078Y-66.299
X75.503Y-69.093
X77.447Y-65.514
X77.453Y-67.203
X77.502Y-69.343
X78.512Y-68.01
X80.002Y-69.843
X80.502Y-63.843
X80.503Y-64.968
X81.31Y-67.268
T3
X68.004Y-58.543
X68.004Y-71.043
X82.004Y-58.543
X82.004Y-71.043
T2
G00X70.677Y-59.443
M15
G01X70.677Y-58.843
M16
G05
G00X70.677Y-63.873
M15
G01X70.677Y-62.773
M16
G05
G00X79.317Y-59.443
M15
G01X79.317Y-58.843
M16
G05
G00X79.317Y-63.873
M15
G01X79.317Y-62.773
M16
G05
T0
M30
