G04 #@! TF.GenerationSoftware,KiCad,Pcbnew,(5.1.10-1-10_14)*
G04 #@! TF.CreationDate,2021-11-29T20:50:22+01:00*
G04 #@! TF.ProjectId,Unified-Daughterboard,556e6966-6965-4642-9d44-617567687465,C3*
G04 #@! TF.SameCoordinates,Original*
G04 #@! TF.FileFunction,Legend,Bot*
G04 #@! TF.FilePolarity,Positive*
%FSLAX46Y46*%
G04 Gerber Fmt 4.6, Leading zero omitted, Abs format (unit mm)*
G04 Created by KiCad (PCBNEW (5.1.10-1-10_14)) date 2021-11-29 20:50:22*
%MOMM*%
%LPD*%
G01*
G04 APERTURE LIST*
%ADD10C,0.150000*%
%ADD11C,0.100000*%
%ADD12C,0.120000*%
%ADD13C,2.600000*%
%ADD14C,3.500000*%
%ADD15O,1.000000X1.600000*%
%ADD16C,0.650000*%
%ADD17O,1.000000X2.100000*%
G04 APERTURE END LIST*
D10*
X72240595Y-71795380D02*
X72240595Y-70795380D01*
X71859642Y-70795380D01*
X71764404Y-70843000D01*
X71716785Y-70890619D01*
X71669166Y-70985857D01*
X71669166Y-71128714D01*
X71716785Y-71223952D01*
X71764404Y-71271571D01*
X71859642Y-71319190D01*
X72240595Y-71319190D01*
X71335833Y-70795380D02*
X70716785Y-70795380D01*
X71050119Y-71176333D01*
X70907261Y-71176333D01*
X70812023Y-71223952D01*
X70764404Y-71271571D01*
X70716785Y-71366809D01*
X70716785Y-71604904D01*
X70764404Y-71700142D01*
X70812023Y-71747761D01*
X70907261Y-71795380D01*
X71192976Y-71795380D01*
X71288214Y-71747761D01*
X71335833Y-71700142D01*
X77110833Y-59229904D02*
X77110833Y-59877523D01*
X77072738Y-59953714D01*
X77034642Y-59991809D01*
X76958452Y-60029904D01*
X76806071Y-60029904D01*
X76729880Y-59991809D01*
X76691785Y-59953714D01*
X76653690Y-59877523D01*
X76653690Y-59229904D01*
X76272738Y-60029904D02*
X76272738Y-59229904D01*
X75815595Y-60029904D01*
X75815595Y-59229904D01*
X75434642Y-60029904D02*
X75434642Y-59229904D01*
X74787023Y-59610857D02*
X75053690Y-59610857D01*
X75053690Y-60029904D02*
X75053690Y-59229904D01*
X74672738Y-59229904D01*
X74367976Y-60029904D02*
X74367976Y-59229904D01*
X73987023Y-59610857D02*
X73720357Y-59610857D01*
X73606071Y-60029904D02*
X73987023Y-60029904D01*
X73987023Y-59229904D01*
X73606071Y-59229904D01*
X73263214Y-60029904D02*
X73263214Y-59229904D01*
X73072738Y-59229904D01*
X72958452Y-59268000D01*
X72882261Y-59344190D01*
X72844166Y-59420380D01*
X72806071Y-59572761D01*
X72806071Y-59687047D01*
X72844166Y-59839428D01*
X72882261Y-59915619D01*
X72958452Y-59991809D01*
X73072738Y-60029904D01*
X73263214Y-60029904D01*
X79796547Y-61379904D02*
X79796547Y-60579904D01*
X79606071Y-60579904D01*
X79491785Y-60618000D01*
X79415595Y-60694190D01*
X79377500Y-60770380D01*
X79339404Y-60922761D01*
X79339404Y-61037047D01*
X79377500Y-61189428D01*
X79415595Y-61265619D01*
X79491785Y-61341809D01*
X79606071Y-61379904D01*
X79796547Y-61379904D01*
X79034642Y-61151333D02*
X78653690Y-61151333D01*
X79110833Y-61379904D02*
X78844166Y-60579904D01*
X78577500Y-61379904D01*
X78310833Y-60579904D02*
X78310833Y-61227523D01*
X78272738Y-61303714D01*
X78234642Y-61341809D01*
X78158452Y-61379904D01*
X78006071Y-61379904D01*
X77929880Y-61341809D01*
X77891785Y-61303714D01*
X77853690Y-61227523D01*
X77853690Y-60579904D01*
X77053690Y-60618000D02*
X77129880Y-60579904D01*
X77244166Y-60579904D01*
X77358452Y-60618000D01*
X77434642Y-60694190D01*
X77472738Y-60770380D01*
X77510833Y-60922761D01*
X77510833Y-61037047D01*
X77472738Y-61189428D01*
X77434642Y-61265619D01*
X77358452Y-61341809D01*
X77244166Y-61379904D01*
X77167976Y-61379904D01*
X77053690Y-61341809D01*
X77015595Y-61303714D01*
X77015595Y-61037047D01*
X77167976Y-61037047D01*
X76672738Y-61379904D02*
X76672738Y-60579904D01*
X76672738Y-60960857D02*
X76215595Y-60960857D01*
X76215595Y-61379904D02*
X76215595Y-60579904D01*
X75948928Y-60579904D02*
X75491785Y-60579904D01*
X75720357Y-61379904D02*
X75720357Y-60579904D01*
X75225119Y-60960857D02*
X74958452Y-60960857D01*
X74844166Y-61379904D02*
X75225119Y-61379904D01*
X75225119Y-60579904D01*
X74844166Y-60579904D01*
X74044166Y-61379904D02*
X74310833Y-60998952D01*
X74501309Y-61379904D02*
X74501309Y-60579904D01*
X74196547Y-60579904D01*
X74120357Y-60618000D01*
X74082261Y-60656095D01*
X74044166Y-60732285D01*
X74044166Y-60846571D01*
X74082261Y-60922761D01*
X74120357Y-60960857D01*
X74196547Y-60998952D01*
X74501309Y-60998952D01*
X73434642Y-60960857D02*
X73320357Y-60998952D01*
X73282261Y-61037047D01*
X73244166Y-61113238D01*
X73244166Y-61227523D01*
X73282261Y-61303714D01*
X73320357Y-61341809D01*
X73396547Y-61379904D01*
X73701309Y-61379904D01*
X73701309Y-60579904D01*
X73434642Y-60579904D01*
X73358452Y-60618000D01*
X73320357Y-60656095D01*
X73282261Y-60732285D01*
X73282261Y-60808476D01*
X73320357Y-60884666D01*
X73358452Y-60922761D01*
X73434642Y-60960857D01*
X73701309Y-60960857D01*
X72748928Y-60579904D02*
X72596547Y-60579904D01*
X72520357Y-60618000D01*
X72444166Y-60694190D01*
X72406071Y-60846571D01*
X72406071Y-61113238D01*
X72444166Y-61265619D01*
X72520357Y-61341809D01*
X72596547Y-61379904D01*
X72748928Y-61379904D01*
X72825119Y-61341809D01*
X72901309Y-61265619D01*
X72939404Y-61113238D01*
X72939404Y-60846571D01*
X72901309Y-60694190D01*
X72825119Y-60618000D01*
X72748928Y-60579904D01*
X72101309Y-61151333D02*
X71720357Y-61151333D01*
X72177500Y-61379904D02*
X71910833Y-60579904D01*
X71644166Y-61379904D01*
X70920357Y-61379904D02*
X71187023Y-60998952D01*
X71377500Y-61379904D02*
X71377500Y-60579904D01*
X71072738Y-60579904D01*
X70996547Y-60618000D01*
X70958452Y-60656095D01*
X70920357Y-60732285D01*
X70920357Y-60846571D01*
X70958452Y-60922761D01*
X70996547Y-60960857D01*
X71072738Y-60998952D01*
X71377500Y-60998952D01*
X70577500Y-61379904D02*
X70577500Y-60579904D01*
X70387023Y-60579904D01*
X70272738Y-60618000D01*
X70196547Y-60694190D01*
X70158452Y-60770380D01*
X70120357Y-60922761D01*
X70120357Y-61037047D01*
X70158452Y-61189428D01*
X70196547Y-61265619D01*
X70272738Y-61341809D01*
X70387023Y-61379904D01*
X70577500Y-61379904D01*
D11*
G36*
X74997633Y-62138123D02*
G01*
X74995656Y-62142557D01*
X74992949Y-62149613D01*
X74989729Y-62158731D01*
X74986575Y-62168220D01*
X74984942Y-62173280D01*
X74982168Y-62181881D01*
X74978317Y-62193831D01*
X74973448Y-62208941D01*
X74967624Y-62227020D01*
X74960905Y-62247879D01*
X74953353Y-62271327D01*
X74945029Y-62297174D01*
X74935995Y-62325229D01*
X74926310Y-62355304D01*
X74916038Y-62387207D01*
X74905238Y-62420749D01*
X74893972Y-62455739D01*
X74882302Y-62491987D01*
X74870288Y-62529304D01*
X74857992Y-62567498D01*
X74847658Y-62599600D01*
X74719385Y-62998070D01*
X74265324Y-62996732D01*
X74223431Y-62996611D01*
X74182582Y-62996499D01*
X74142948Y-62996396D01*
X74104702Y-62996303D01*
X74068016Y-62996218D01*
X74033062Y-62996144D01*
X74000012Y-62996079D01*
X73969040Y-62996025D01*
X73940317Y-62995981D01*
X73914015Y-62995948D01*
X73890307Y-62995925D01*
X73869366Y-62995914D01*
X73851363Y-62995914D01*
X73836470Y-62995926D01*
X73824861Y-62995950D01*
X73816707Y-62995986D01*
X73812180Y-62996035D01*
X73811263Y-62996076D01*
X73812828Y-62997270D01*
X73817430Y-63000657D01*
X73824928Y-63006135D01*
X73835185Y-63013604D01*
X73848058Y-63022961D01*
X73863409Y-63034107D01*
X73881098Y-63046938D01*
X73900984Y-63061355D01*
X73922929Y-63077256D01*
X73946791Y-63094538D01*
X73972432Y-63113102D01*
X73999711Y-63132846D01*
X74028489Y-63153668D01*
X74058626Y-63175468D01*
X74089981Y-63198143D01*
X74122416Y-63221592D01*
X74155790Y-63245715D01*
X74178542Y-63262158D01*
X74212472Y-63286684D01*
X74245555Y-63310615D01*
X74277652Y-63333849D01*
X74308623Y-63356284D01*
X74338329Y-63377818D01*
X74366628Y-63398349D01*
X74393382Y-63417776D01*
X74418450Y-63435997D01*
X74441692Y-63452910D01*
X74462969Y-63468412D01*
X74482141Y-63482403D01*
X74499067Y-63494780D01*
X74513608Y-63505441D01*
X74525623Y-63514285D01*
X74534974Y-63521209D01*
X74541520Y-63526113D01*
X74545120Y-63528893D01*
X74545815Y-63529517D01*
X74545213Y-63531534D01*
X74543443Y-63537110D01*
X74540558Y-63546078D01*
X74536614Y-63558274D01*
X74531664Y-63573533D01*
X74525761Y-63591689D01*
X74518960Y-63612577D01*
X74511314Y-63636032D01*
X74502878Y-63661889D01*
X74493705Y-63689983D01*
X74483850Y-63720149D01*
X74473366Y-63752220D01*
X74462306Y-63786034D01*
X74450726Y-63821423D01*
X74438678Y-63858223D01*
X74426218Y-63896268D01*
X74413398Y-63935395D01*
X74405150Y-63960556D01*
X74392138Y-64000261D01*
X74379455Y-64038979D01*
X74367156Y-64076546D01*
X74355293Y-64112798D01*
X74343921Y-64147570D01*
X74333093Y-64180698D01*
X74322863Y-64212018D01*
X74313284Y-64241364D01*
X74304410Y-64268572D01*
X74296295Y-64293478D01*
X74288992Y-64315917D01*
X74282555Y-64335725D01*
X74277038Y-64352737D01*
X74272494Y-64366789D01*
X74268978Y-64377716D01*
X74266541Y-64385354D01*
X74265239Y-64389537D01*
X74265025Y-64390326D01*
X74266634Y-64389252D01*
X74271267Y-64385967D01*
X74278786Y-64380574D01*
X74289049Y-64373175D01*
X74301919Y-64363869D01*
X74317255Y-64352760D01*
X74334917Y-64339948D01*
X74354766Y-64325535D01*
X74376663Y-64309622D01*
X74400467Y-64292312D01*
X74426040Y-64273704D01*
X74453241Y-64253902D01*
X74481931Y-64233005D01*
X74511970Y-64211117D01*
X74543219Y-64188338D01*
X74575538Y-64164769D01*
X74608788Y-64140513D01*
X74631174Y-64124177D01*
X74664982Y-64099515D01*
X74697968Y-64075477D01*
X74729991Y-64052164D01*
X74760911Y-64029678D01*
X74790588Y-64008119D01*
X74818880Y-63987591D01*
X74845647Y-63968194D01*
X74870749Y-63950029D01*
X74894046Y-63933198D01*
X74915395Y-63917803D01*
X74934658Y-63903945D01*
X74951693Y-63891726D01*
X74966360Y-63881246D01*
X74978519Y-63872608D01*
X74988029Y-63865913D01*
X74994749Y-63861262D01*
X74998538Y-63858757D01*
X74999365Y-63858328D01*
X75001165Y-63859559D01*
X75005989Y-63862998D01*
X75013696Y-63868542D01*
X75024142Y-63876089D01*
X75037189Y-63885535D01*
X75052693Y-63896778D01*
X75070514Y-63909715D01*
X75090510Y-63924244D01*
X75112540Y-63940261D01*
X75136463Y-63957663D01*
X75162137Y-63976349D01*
X75189421Y-63996214D01*
X75218173Y-64017158D01*
X75248253Y-64039075D01*
X75279519Y-64061865D01*
X75311829Y-64085423D01*
X75345043Y-64109648D01*
X75364196Y-64123621D01*
X75397862Y-64148182D01*
X75430705Y-64172141D01*
X75462584Y-64195393D01*
X75493358Y-64217836D01*
X75522885Y-64239367D01*
X75551024Y-64259882D01*
X75577632Y-64279279D01*
X75602570Y-64297454D01*
X75625695Y-64314306D01*
X75646866Y-64329729D01*
X75665941Y-64343622D01*
X75682779Y-64355881D01*
X75697240Y-64366404D01*
X75709180Y-64375087D01*
X75718459Y-64381827D01*
X75724936Y-64386522D01*
X75728469Y-64389067D01*
X75729110Y-64389516D01*
X75730844Y-64389936D01*
X75730632Y-64387498D01*
X75730325Y-64386454D01*
X75729589Y-64384181D01*
X75727689Y-64378352D01*
X75724680Y-64369134D01*
X75720617Y-64356693D01*
X75715555Y-64341198D01*
X75709548Y-64322816D01*
X75702650Y-64301713D01*
X75694918Y-64278059D01*
X75686404Y-64252019D01*
X75677165Y-64223761D01*
X75667255Y-64193454D01*
X75656728Y-64161263D01*
X75645640Y-64127357D01*
X75634045Y-64091904D01*
X75621998Y-64055069D01*
X75609553Y-64017022D01*
X75596765Y-63977928D01*
X75589801Y-63956638D01*
X75576868Y-63917098D01*
X75564257Y-63878538D01*
X75552024Y-63841123D01*
X75540221Y-63805020D01*
X75528904Y-63770394D01*
X75518127Y-63737411D01*
X75507942Y-63706237D01*
X75498406Y-63677038D01*
X75489571Y-63649979D01*
X75481492Y-63625226D01*
X75474223Y-63602946D01*
X75467818Y-63583304D01*
X75462332Y-63566466D01*
X75457818Y-63552597D01*
X75454331Y-63541865D01*
X75451925Y-63534433D01*
X75450653Y-63530469D01*
X75450457Y-63529827D01*
X75451997Y-63528542D01*
X75456574Y-63525065D01*
X75464047Y-63519497D01*
X75474276Y-63511942D01*
X75487121Y-63502499D01*
X75502443Y-63491273D01*
X75520100Y-63478365D01*
X75539953Y-63463876D01*
X75561861Y-63447909D01*
X75585686Y-63430567D01*
X75611286Y-63411950D01*
X75638521Y-63392162D01*
X75667251Y-63371304D01*
X75697337Y-63349478D01*
X75728638Y-63326787D01*
X75761014Y-63303332D01*
X75794325Y-63279215D01*
X75815364Y-63263991D01*
X75849214Y-63239500D01*
X75882234Y-63215603D01*
X75914285Y-63192403D01*
X75945224Y-63170002D01*
X75974911Y-63148504D01*
X76003203Y-63128009D01*
X76029961Y-63108621D01*
X76055042Y-63090443D01*
X76078305Y-63073576D01*
X76099609Y-63058123D01*
X76118813Y-63044186D01*
X76135776Y-63031869D01*
X76150355Y-63021273D01*
X76162410Y-63012501D01*
X76171800Y-63005655D01*
X76178383Y-63000838D01*
X76182018Y-62998152D01*
X76182728Y-62997604D01*
X76181908Y-62997349D01*
X76178853Y-62997120D01*
X76173464Y-62996916D01*
X76165644Y-62996737D01*
X76155296Y-62996583D01*
X76142322Y-62996453D01*
X76126626Y-62996348D01*
X76108109Y-62996267D01*
X76086675Y-62996210D01*
X76062226Y-62996177D01*
X76034664Y-62996168D01*
X76003893Y-62996182D01*
X75969815Y-62996220D01*
X75932333Y-62996281D01*
X75891349Y-62996366D01*
X75846765Y-62996473D01*
X75798486Y-62996602D01*
X75746413Y-62996755D01*
X75731058Y-62996802D01*
X75277197Y-62998201D01*
X75270323Y-62976825D01*
X75256746Y-62934610D01*
X75243003Y-62891905D01*
X75229149Y-62848870D01*
X75215234Y-62805668D01*
X75201312Y-62762459D01*
X75187434Y-62719406D01*
X75173653Y-62676668D01*
X75160020Y-62634409D01*
X75146589Y-62592789D01*
X75133410Y-62551969D01*
X75120537Y-62512112D01*
X75108022Y-62473378D01*
X75095916Y-62435928D01*
X75084272Y-62399925D01*
X75073143Y-62365530D01*
X75062580Y-62332904D01*
X75052635Y-62302208D01*
X75043361Y-62273604D01*
X75034811Y-62247253D01*
X75027035Y-62223317D01*
X75020087Y-62201957D01*
X75014018Y-62183335D01*
X75008881Y-62167611D01*
X75004728Y-62154947D01*
X75001611Y-62145506D01*
X74999583Y-62139447D01*
X74998695Y-62136933D01*
X74998664Y-62136871D01*
X74997633Y-62138123D01*
G37*
G36*
X77487817Y-63036941D02*
G01*
X77487756Y-63037128D01*
X77487701Y-63037222D01*
X77487038Y-63039128D01*
X77485231Y-63044588D01*
X77482337Y-63053424D01*
X77478412Y-63065459D01*
X77473514Y-63080517D01*
X77467701Y-63098421D01*
X77461029Y-63118995D01*
X77453556Y-63142061D01*
X77445339Y-63167444D01*
X77436435Y-63194965D01*
X77426901Y-63224450D01*
X77416795Y-63255720D01*
X77406174Y-63288599D01*
X77395094Y-63322910D01*
X77383614Y-63358477D01*
X77371791Y-63395124D01*
X77366329Y-63412056D01*
X77354077Y-63450043D01*
X77341981Y-63487545D01*
X77330109Y-63524347D01*
X77318530Y-63560237D01*
X77307314Y-63595000D01*
X77296530Y-63628423D01*
X77286245Y-63660292D01*
X77276531Y-63690393D01*
X77267454Y-63718513D01*
X77259085Y-63744437D01*
X77251492Y-63767952D01*
X77244745Y-63788845D01*
X77238912Y-63806901D01*
X77234063Y-63821907D01*
X77230266Y-63833649D01*
X77227590Y-63841913D01*
X77227237Y-63843000D01*
X77208807Y-63899819D01*
X76754662Y-63899157D01*
X76300517Y-63898494D01*
X76308354Y-63904198D01*
X76310660Y-63905869D01*
X76315997Y-63909730D01*
X76324217Y-63915676D01*
X76335177Y-63923601D01*
X76348729Y-63933402D01*
X76364729Y-63944971D01*
X76383032Y-63958204D01*
X76403490Y-63972996D01*
X76425960Y-63989242D01*
X76450294Y-64006835D01*
X76476348Y-64025671D01*
X76503976Y-64045645D01*
X76533032Y-64066651D01*
X76563371Y-64088584D01*
X76594846Y-64111338D01*
X76627314Y-64134809D01*
X76660626Y-64158891D01*
X76674738Y-64169092D01*
X76708269Y-64193333D01*
X76740965Y-64216973D01*
X76772684Y-64239908D01*
X76803282Y-64262036D01*
X76832619Y-64283254D01*
X76860551Y-64303458D01*
X76886936Y-64322547D01*
X76911633Y-64340417D01*
X76934498Y-64356964D01*
X76955390Y-64372086D01*
X76974166Y-64385681D01*
X76990684Y-64397644D01*
X77004801Y-64407873D01*
X77016376Y-64416266D01*
X77025266Y-64422718D01*
X77031328Y-64427127D01*
X77034421Y-64429391D01*
X77034806Y-64429682D01*
X77034346Y-64431647D01*
X77032716Y-64437170D01*
X77029970Y-64446087D01*
X77026161Y-64458234D01*
X77021341Y-64473445D01*
X77015565Y-64491556D01*
X77008884Y-64512404D01*
X77001353Y-64535822D01*
X76993024Y-64561648D01*
X76983951Y-64589715D01*
X76974186Y-64619860D01*
X76963782Y-64651919D01*
X76952794Y-64685726D01*
X76941273Y-64721117D01*
X76929273Y-64757928D01*
X76916847Y-64795993D01*
X76904049Y-64835150D01*
X76895297Y-64861896D01*
X76882275Y-64901681D01*
X76869582Y-64940477D01*
X76857270Y-64978121D01*
X76845392Y-65014449D01*
X76834004Y-65049296D01*
X76823157Y-65082498D01*
X76812906Y-65113892D01*
X76803304Y-65143314D01*
X76794405Y-65170598D01*
X76786261Y-65195582D01*
X76778927Y-65218100D01*
X76772457Y-65237990D01*
X76766902Y-65255087D01*
X76762318Y-65269226D01*
X76758757Y-65280244D01*
X76756274Y-65287977D01*
X76754920Y-65292261D01*
X76754673Y-65293119D01*
X76756270Y-65292019D01*
X76760892Y-65288709D01*
X76768400Y-65283291D01*
X76778654Y-65275867D01*
X76791515Y-65266537D01*
X76806843Y-65255405D01*
X76824499Y-65242570D01*
X76844343Y-65228136D01*
X76866236Y-65212202D01*
X76890038Y-65194871D01*
X76915610Y-65176244D01*
X76942813Y-65156423D01*
X76971507Y-65135509D01*
X77001552Y-65113604D01*
X77032810Y-65090809D01*
X77065140Y-65067226D01*
X77098403Y-65042957D01*
X77121237Y-65026293D01*
X77155064Y-65001617D01*
X77188067Y-64977567D01*
X77220104Y-64954244D01*
X77251035Y-64931749D01*
X77280721Y-64910184D01*
X77309021Y-64889651D01*
X77335795Y-64870249D01*
X77360902Y-64852081D01*
X77384202Y-64835248D01*
X77405556Y-64819851D01*
X77424822Y-64805991D01*
X77441861Y-64793769D01*
X77456532Y-64783288D01*
X77468696Y-64774647D01*
X77478211Y-64767948D01*
X77484938Y-64763293D01*
X77488737Y-64760783D01*
X77489573Y-64760351D01*
X77491302Y-64761589D01*
X77496025Y-64765011D01*
X77503570Y-64770493D01*
X77513766Y-64777909D01*
X77526443Y-64787135D01*
X77541427Y-64798046D01*
X77558549Y-64810517D01*
X77577636Y-64824422D01*
X77598517Y-64839637D01*
X77621021Y-64856037D01*
X77644977Y-64873497D01*
X77670212Y-64891891D01*
X77696556Y-64911095D01*
X77723836Y-64930983D01*
X77751883Y-64951431D01*
X77780524Y-64972314D01*
X77809587Y-64993506D01*
X77838902Y-65014883D01*
X77868297Y-65036320D01*
X77897600Y-65057692D01*
X77926641Y-65078873D01*
X77955247Y-65099738D01*
X77983248Y-65120163D01*
X78010472Y-65140023D01*
X78036747Y-65159193D01*
X78061902Y-65177547D01*
X78085766Y-65194960D01*
X78108167Y-65211309D01*
X78128934Y-65226467D01*
X78147896Y-65240309D01*
X78164880Y-65252711D01*
X78179716Y-65263548D01*
X78192233Y-65272694D01*
X78202258Y-65280024D01*
X78209620Y-65285415D01*
X78214148Y-65288739D01*
X78215487Y-65289731D01*
X78222127Y-65294720D01*
X78220602Y-65289872D01*
X78219858Y-65287583D01*
X78217950Y-65281737D01*
X78214933Y-65272500D01*
X78210860Y-65260041D01*
X78205788Y-65244527D01*
X78199769Y-65226123D01*
X78192860Y-65204999D01*
X78185114Y-65181320D01*
X78176586Y-65155253D01*
X78167332Y-65126967D01*
X78157405Y-65096628D01*
X78146861Y-65064403D01*
X78135754Y-65030459D01*
X78124138Y-64994963D01*
X78112069Y-64958083D01*
X78099601Y-64919986D01*
X78086789Y-64880838D01*
X78079302Y-64857962D01*
X78066343Y-64818344D01*
X78053721Y-64779708D01*
X78041489Y-64742219D01*
X78029700Y-64706042D01*
X78018409Y-64671343D01*
X78007668Y-64638286D01*
X77997530Y-64607037D01*
X77988049Y-64577761D01*
X77979279Y-64550624D01*
X77971272Y-64525790D01*
X77964082Y-64503425D01*
X77957763Y-64483694D01*
X77952368Y-64466762D01*
X77947949Y-64452794D01*
X77944561Y-64441956D01*
X77942257Y-64434412D01*
X77941090Y-64430329D01*
X77940956Y-64429609D01*
X77942655Y-64428358D01*
X77947389Y-64424914D01*
X77955018Y-64419379D01*
X77965400Y-64411855D01*
X77978395Y-64402444D01*
X77993862Y-64391248D01*
X78011659Y-64378368D01*
X78031647Y-64363907D01*
X78053684Y-64347967D01*
X78077628Y-64330650D01*
X78103340Y-64312057D01*
X78130679Y-64292290D01*
X78159503Y-64271451D01*
X78189671Y-64249643D01*
X78221043Y-64226967D01*
X78253477Y-64203525D01*
X78286834Y-64179419D01*
X78307791Y-64164275D01*
X78341639Y-64139815D01*
X78374648Y-64115961D01*
X78406678Y-64092812D01*
X78437588Y-64070472D01*
X78467237Y-64049040D01*
X78495486Y-64028621D01*
X78522193Y-64009314D01*
X78547217Y-63991222D01*
X78542500Y-63988000D01*
X78542500Y-63928000D01*
X78542500Y-63899038D01*
X78542500Y-63898998D01*
X78542500Y-63898967D01*
X78542500Y-63898943D01*
X78537172Y-63898927D01*
X78507797Y-63898920D01*
X78476222Y-63898921D01*
X78442619Y-63898931D01*
X78407158Y-63898948D01*
X78370013Y-63898975D01*
X78331354Y-63899009D01*
X78291354Y-63899053D01*
X78250184Y-63899105D01*
X78221092Y-63899146D01*
X77767029Y-63899819D01*
X77761235Y-63882186D01*
X77760076Y-63878623D01*
X77757774Y-63871513D01*
X77754389Y-63861037D01*
X77749977Y-63847376D01*
X77744598Y-63830711D01*
X77738311Y-63811226D01*
X77731174Y-63789101D01*
X77723246Y-63764519D01*
X77714584Y-63737660D01*
X77705249Y-63708707D01*
X77695298Y-63677841D01*
X77684791Y-63645244D01*
X77673785Y-63611098D01*
X77662339Y-63575585D01*
X77650512Y-63538886D01*
X77638362Y-63501183D01*
X77627922Y-63468779D01*
X77612649Y-63421377D01*
X77598532Y-63377564D01*
X77585527Y-63337199D01*
X77573586Y-63300142D01*
X77562664Y-63266251D01*
X77552717Y-63235387D01*
X77543697Y-63207408D01*
X77535559Y-63182174D01*
X77528258Y-63159544D01*
X77521747Y-63139378D01*
X77515981Y-63121534D01*
X77510915Y-63105872D01*
X77506502Y-63092252D01*
X77502698Y-63080532D01*
X77499455Y-63070572D01*
X77496729Y-63062232D01*
X77494474Y-63055370D01*
X77492643Y-63049847D01*
X77491192Y-63045520D01*
X77490075Y-63042250D01*
X77489246Y-63039896D01*
X77488658Y-63038318D01*
X77488268Y-63037373D01*
X77488028Y-63036923D01*
X77487893Y-63036826D01*
X77487817Y-63036941D01*
G37*
G36*
X72509473Y-63047947D02*
G01*
X72507648Y-63053413D01*
X72504749Y-63062212D01*
X72500839Y-63074147D01*
X72495985Y-63089018D01*
X72490248Y-63106628D01*
X72483693Y-63126778D01*
X72476385Y-63149271D01*
X72468387Y-63173909D01*
X72459764Y-63200492D01*
X72450580Y-63228824D01*
X72440898Y-63258705D01*
X72430782Y-63289938D01*
X72420298Y-63322325D01*
X72409509Y-63355667D01*
X72398478Y-63389766D01*
X72387271Y-63424424D01*
X72375951Y-63459443D01*
X72364582Y-63494625D01*
X72353228Y-63529772D01*
X72341954Y-63564685D01*
X72330823Y-63599166D01*
X72319900Y-63633017D01*
X72309248Y-63666040D01*
X72298933Y-63698037D01*
X72289017Y-63728810D01*
X72279564Y-63758160D01*
X72270640Y-63785890D01*
X72262308Y-63811800D01*
X72254632Y-63835694D01*
X72247677Y-63857373D01*
X72241505Y-63876638D01*
X72237907Y-63887890D01*
X72231703Y-63907310D01*
X71777835Y-63905934D01*
X71728113Y-63905783D01*
X71682163Y-63905646D01*
X71639837Y-63905524D01*
X71600988Y-63905415D01*
X71565469Y-63905323D01*
X71533132Y-63905247D01*
X71503830Y-63905188D01*
X71477416Y-63905147D01*
X71453743Y-63905124D01*
X71452500Y-63928000D01*
X71452500Y-63978000D01*
X71452500Y-63968000D01*
X71452500Y-63958000D01*
X71452500Y-63938000D01*
X71452500Y-63928000D01*
X71452500Y-63958000D01*
X71452500Y-63918000D01*
X71452500Y-63928000D01*
X71452500Y-63948000D01*
X71452500Y-63978000D01*
X71452500Y-63968000D01*
X71452500Y-63958000D01*
X71452500Y-63918000D01*
X71452500Y-63928000D01*
X71452500Y-63948000D01*
X71452500Y-63928000D01*
X71452500Y-63908000D01*
X71452500Y-63918000D01*
X71452500Y-63998000D01*
X71466653Y-64009206D01*
X71492514Y-64027939D01*
X71519984Y-64047829D01*
X71548921Y-64068773D01*
X71579181Y-64090667D01*
X71610622Y-64113409D01*
X71643102Y-64136895D01*
X71676478Y-64161020D01*
X71695580Y-64174825D01*
X72059356Y-64437696D01*
X72048803Y-64469506D01*
X72044384Y-64482854D01*
X72039051Y-64499018D01*
X72032868Y-64517797D01*
X72025901Y-64538991D01*
X72018216Y-64562396D01*
X72009879Y-64587813D01*
X72000955Y-64615040D01*
X71991510Y-64643875D01*
X71981609Y-64674117D01*
X71971319Y-64705565D01*
X71960706Y-64738017D01*
X71949834Y-64771272D01*
X71938769Y-64805129D01*
X71927578Y-64839387D01*
X71916326Y-64873843D01*
X71905078Y-64908297D01*
X71893901Y-64942547D01*
X71882860Y-64976392D01*
X71872020Y-65009631D01*
X71861448Y-65042062D01*
X71851209Y-65073484D01*
X71841369Y-65103695D01*
X71831994Y-65132495D01*
X71823149Y-65159681D01*
X71814899Y-65185053D01*
X71807312Y-65208409D01*
X71800452Y-65229548D01*
X71794385Y-65248268D01*
X71789176Y-65264369D01*
X71784892Y-65277648D01*
X71781599Y-65287905D01*
X71779361Y-65294937D01*
X71778244Y-65298545D01*
X71778126Y-65299001D01*
X71779750Y-65297926D01*
X71784397Y-65294642D01*
X71791929Y-65289249D01*
X71802206Y-65281849D01*
X71815088Y-65272544D01*
X71830436Y-65261435D01*
X71848109Y-65248624D01*
X71867967Y-65234212D01*
X71889872Y-65218301D01*
X71913683Y-65200993D01*
X71939261Y-65182388D01*
X71966465Y-65162589D01*
X71995157Y-65141697D01*
X72025195Y-65119814D01*
X72056441Y-65097040D01*
X72088755Y-65073479D01*
X72121997Y-65049231D01*
X72143995Y-65033179D01*
X72177782Y-65008530D01*
X72210745Y-64984502D01*
X72242743Y-64961196D01*
X72273635Y-64938713D01*
X72303282Y-64917156D01*
X72331542Y-64896625D01*
X72358275Y-64877224D01*
X72383340Y-64859052D01*
X72406597Y-64842213D01*
X72427906Y-64826808D01*
X72447126Y-64812939D01*
X72464115Y-64800706D01*
X72478735Y-64790213D01*
X72490844Y-64781560D01*
X72500301Y-64774850D01*
X72506967Y-64770183D01*
X72510701Y-64767663D01*
X72511487Y-64767223D01*
X72513262Y-64768413D01*
X72518060Y-64771813D01*
X72525741Y-64777320D01*
X72536163Y-64784832D01*
X72549186Y-64794245D01*
X72564668Y-64805459D01*
X72582469Y-64818369D01*
X72602448Y-64832875D01*
X72624464Y-64848873D01*
X72648376Y-64866261D01*
X72674043Y-64884937D01*
X72701325Y-64904799D01*
X72730081Y-64925744D01*
X72760169Y-64947669D01*
X72791449Y-64970472D01*
X72823779Y-64994051D01*
X72857020Y-65018304D01*
X72877510Y-65033258D01*
X72911226Y-65057865D01*
X72944112Y-65081862D01*
X72976028Y-65105144D01*
X73006833Y-65127611D01*
X73036386Y-65149160D01*
X73064546Y-65169688D01*
X73091175Y-65189093D01*
X73116129Y-65207273D01*
X73139270Y-65224125D01*
X73160456Y-65239547D01*
X73179547Y-65253436D01*
X73196403Y-65265691D01*
X73210882Y-65276209D01*
X73222844Y-65284887D01*
X73232149Y-65291623D01*
X73238656Y-65296316D01*
X73242225Y-65298861D01*
X73242898Y-65299316D01*
X73242670Y-65297647D01*
X73241326Y-65292643D01*
X73238984Y-65284686D01*
X73235761Y-65274158D01*
X73231776Y-65261444D01*
X73227147Y-65246927D01*
X73221991Y-65230988D01*
X73219351Y-65222904D01*
X73196600Y-65153460D01*
X73175051Y-65087674D01*
X73154684Y-65025484D01*
X73135478Y-64966825D01*
X73117411Y-64911633D01*
X73100463Y-64859845D01*
X73084614Y-64811397D01*
X73069842Y-64766225D01*
X73056127Y-64724266D01*
X73043448Y-64685455D01*
X73031783Y-64649728D01*
X73021113Y-64617022D01*
X73011416Y-64587274D01*
X73002672Y-64560418D01*
X72994860Y-64536392D01*
X72987959Y-64515131D01*
X72981947Y-64496572D01*
X72976806Y-64480651D01*
X72972512Y-64467305D01*
X72969047Y-64456468D01*
X72966388Y-64448078D01*
X72964516Y-64442071D01*
X72963408Y-64438382D01*
X72963046Y-64436949D01*
X72963051Y-64436926D01*
X72964693Y-64435727D01*
X72969371Y-64432334D01*
X72976943Y-64426850D01*
X72987271Y-64419376D01*
X73000212Y-64410014D01*
X73015626Y-64398865D01*
X73033373Y-64386030D01*
X73053312Y-64371613D01*
X73075303Y-64355714D01*
X73099204Y-64338434D01*
X73124876Y-64319877D01*
X73152177Y-64300142D01*
X73180968Y-64279332D01*
X73211107Y-64257549D01*
X73242454Y-64234894D01*
X73274868Y-64211469D01*
X73308209Y-64187375D01*
X73329282Y-64172147D01*
X73363144Y-64147676D01*
X73396176Y-64123803D01*
X73428235Y-64100628D01*
X73459182Y-64078256D01*
X73488873Y-64056787D01*
X73517170Y-64036324D01*
X73543929Y-64016969D01*
X73569010Y-63998825D01*
X73592273Y-63981993D01*
X73613575Y-63966575D01*
X73632775Y-63952675D01*
X73649732Y-63940393D01*
X73664306Y-63929833D01*
X73676355Y-63921096D01*
X73685737Y-63914284D01*
X73692312Y-63909500D01*
X73695938Y-63906845D01*
X73696642Y-63906315D01*
X73694914Y-63906131D01*
X73689381Y-63905966D01*
X73680155Y-63905820D01*
X73667349Y-63905695D01*
X73651077Y-63905589D01*
X73631452Y-63905504D01*
X73608586Y-63905438D01*
X73582593Y-63905393D01*
X73553585Y-63905368D01*
X73521676Y-63905363D01*
X73486979Y-63905379D01*
X73449606Y-63905416D01*
X73409670Y-63905473D01*
X73367285Y-63905551D01*
X73322564Y-63905651D01*
X73275620Y-63905771D01*
X73244050Y-63905860D01*
X72789502Y-63907193D01*
X72650546Y-63475841D01*
X72637710Y-63436022D01*
X72625182Y-63397208D01*
X72613016Y-63359562D01*
X72601264Y-63323249D01*
X72589980Y-63288431D01*
X72579218Y-63255271D01*
X72569031Y-63223934D01*
X72559472Y-63194583D01*
X72550594Y-63167382D01*
X72542452Y-63142493D01*
X72535098Y-63120080D01*
X72528586Y-63100307D01*
X72522968Y-63083337D01*
X72518300Y-63069334D01*
X72514633Y-63058461D01*
X72512022Y-63050881D01*
X72510520Y-63046759D01*
X72510159Y-63046013D01*
X72509473Y-63047947D01*
G37*
G36*
X78814560Y-65330958D02*
G01*
X78812730Y-65336363D01*
X78809805Y-65345169D01*
X78805840Y-65357213D01*
X78800888Y-65372330D01*
X78795002Y-65390356D01*
X78788234Y-65411127D01*
X78780640Y-65434479D01*
X78772271Y-65460247D01*
X78763181Y-65488268D01*
X78753424Y-65518377D01*
X78743052Y-65550410D01*
X78732119Y-65584203D01*
X78720679Y-65619591D01*
X78708784Y-65656411D01*
X78696488Y-65694498D01*
X78683845Y-65733688D01*
X78675205Y-65760482D01*
X78536146Y-66191835D01*
X78081545Y-66190585D01*
X78029896Y-66190447D01*
X77982043Y-66190328D01*
X77937863Y-66190227D01*
X77897234Y-66190146D01*
X77860034Y-66190084D01*
X77826139Y-66190042D01*
X77795428Y-66190020D01*
X77767778Y-66190018D01*
X77743066Y-66190038D01*
X77721170Y-66190078D01*
X77701968Y-66190140D01*
X77685336Y-66190224D01*
X77671152Y-66190330D01*
X77659295Y-66190458D01*
X77649640Y-66190608D01*
X77642066Y-66190782D01*
X77636451Y-66190979D01*
X77632671Y-66191199D01*
X77630605Y-66191443D01*
X77630129Y-66191712D01*
X77630151Y-66191731D01*
X77632016Y-66193086D01*
X77636915Y-66196634D01*
X77644707Y-66202272D01*
X77655248Y-66209897D01*
X77668397Y-66219408D01*
X77684013Y-66230700D01*
X77701952Y-66243672D01*
X77722074Y-66258220D01*
X77744237Y-66274243D01*
X77768297Y-66291638D01*
X77794114Y-66310302D01*
X77821546Y-66330132D01*
X77850450Y-66351026D01*
X77880684Y-66372880D01*
X77912107Y-66395594D01*
X77944577Y-66419063D01*
X77977952Y-66443185D01*
X77997962Y-66457648D01*
X78031767Y-66482091D01*
X78064725Y-66505939D01*
X78096697Y-66529092D01*
X78127542Y-66551446D01*
X78157118Y-66572900D01*
X78185287Y-66593351D01*
X78211907Y-66612696D01*
X78236839Y-66630834D01*
X78259940Y-66647661D01*
X78281072Y-66663077D01*
X78300094Y-66676977D01*
X78316864Y-66689261D01*
X78331243Y-66699825D01*
X78343091Y-66708567D01*
X78352266Y-66715385D01*
X78358629Y-66720177D01*
X78362039Y-66722840D01*
X78362609Y-66723373D01*
X78362011Y-66725414D01*
X78360247Y-66731012D01*
X78357371Y-66740004D01*
X78353435Y-66752222D01*
X78348495Y-66767501D01*
X78342604Y-66785677D01*
X78335815Y-66806582D01*
X78328184Y-66830053D01*
X78319763Y-66855922D01*
X78310607Y-66884025D01*
X78300769Y-66914197D01*
X78290304Y-66946270D01*
X78279265Y-66980081D01*
X78267707Y-67015463D01*
X78255683Y-67052251D01*
X78243246Y-67090279D01*
X78230452Y-67129382D01*
X78222579Y-67153433D01*
X78209600Y-67193093D01*
X78196949Y-67231773D01*
X78184680Y-67269307D01*
X78172849Y-67305530D01*
X78161507Y-67340277D01*
X78150709Y-67373383D01*
X78140508Y-67404682D01*
X78130958Y-67434010D01*
X78122114Y-67461201D01*
X78114028Y-67486091D01*
X78106754Y-67508513D01*
X78100346Y-67528304D01*
X78094858Y-67545296D01*
X78090344Y-67559327D01*
X78086856Y-67570229D01*
X78084449Y-67577839D01*
X78083177Y-67581991D01*
X78082981Y-67582754D01*
X78084584Y-67581752D01*
X78089211Y-67578538D01*
X78096722Y-67573215D01*
X78106978Y-67565883D01*
X78119838Y-67556643D01*
X78135165Y-67545598D01*
X78152817Y-67532847D01*
X78172655Y-67518492D01*
X78194540Y-67502635D01*
X78218331Y-67485377D01*
X78243890Y-67466818D01*
X78271077Y-67447061D01*
X78299751Y-67426205D01*
X78329774Y-67404354D01*
X78361006Y-67381606D01*
X78393307Y-67358065D01*
X78426537Y-67333831D01*
X78448559Y-67317763D01*
X78482337Y-67293116D01*
X78515285Y-67269085D01*
X78547261Y-67245771D01*
X78578127Y-67223277D01*
X78607741Y-67201704D01*
X78635964Y-67181154D01*
X78662655Y-67161730D01*
X78687675Y-67143532D01*
X78710882Y-67126663D01*
X78732137Y-67111225D01*
X78751299Y-67097320D01*
X78768228Y-67085049D01*
X78782784Y-67074514D01*
X78794827Y-67065818D01*
X78804217Y-67059063D01*
X78810813Y-67054349D01*
X78814475Y-67051780D01*
X78815214Y-67051308D01*
X78816918Y-67052446D01*
X78821646Y-67055794D01*
X78829257Y-67061250D01*
X78839610Y-67068710D01*
X78852566Y-67078072D01*
X78867982Y-67089236D01*
X78885720Y-67102098D01*
X78905638Y-67116557D01*
X78927596Y-67132510D01*
X78951452Y-67149855D01*
X78977068Y-67168489D01*
X79004301Y-67188312D01*
X79033012Y-67209221D01*
X79063060Y-67231112D01*
X79094305Y-67253886D01*
X79126605Y-67277438D01*
X79159820Y-67301668D01*
X79180137Y-67316493D01*
X79213852Y-67341097D01*
X79246744Y-67365098D01*
X79278672Y-67388393D01*
X79309494Y-67410878D01*
X79339069Y-67432452D01*
X79367256Y-67453011D01*
X79393914Y-67472452D01*
X79418903Y-67490673D01*
X79442079Y-67507570D01*
X79463304Y-67523040D01*
X79482435Y-67536982D01*
X79499331Y-67549292D01*
X79513851Y-67559866D01*
X79525855Y-67568603D01*
X79535200Y-67575399D01*
X79541747Y-67580151D01*
X79545353Y-67582757D01*
X79546045Y-67583246D01*
X79547716Y-67583544D01*
X79547545Y-67580827D01*
X79547369Y-67580114D01*
X79546654Y-67577837D01*
X79544773Y-67572004D01*
X79541783Y-67562783D01*
X79537736Y-67550340D01*
X79532688Y-67534842D01*
X79526694Y-67516458D01*
X79519808Y-67495355D01*
X79512085Y-67471700D01*
X79503580Y-67445661D01*
X79494347Y-67417404D01*
X79484441Y-67387098D01*
X79473917Y-67354911D01*
X79462829Y-67321008D01*
X79451232Y-67285558D01*
X79439181Y-67248729D01*
X79426731Y-67210687D01*
X79413936Y-67171600D01*
X79406995Y-67150400D01*
X79394053Y-67110864D01*
X79381436Y-67072303D01*
X79369200Y-67034885D01*
X79357396Y-66998775D01*
X79346081Y-66964138D01*
X79335308Y-66931142D01*
X79325131Y-66899953D01*
X79315604Y-66870735D01*
X79306782Y-66843657D01*
X79298717Y-66818882D01*
X79291466Y-66796578D01*
X79285080Y-66776911D01*
X79279616Y-66760046D01*
X79275126Y-66746151D01*
X79271665Y-66735390D01*
X79269286Y-66727930D01*
X79268045Y-66723936D01*
X79267867Y-66723279D01*
X79269435Y-66721952D01*
X79274041Y-66718435D01*
X79281544Y-66712829D01*
X79291803Y-66705238D01*
X79304678Y-66695763D01*
X79320029Y-66684507D01*
X79337715Y-66671572D01*
X79357596Y-66657060D01*
X79379530Y-66641074D01*
X79403379Y-66623716D01*
X79429001Y-66605089D01*
X79456256Y-66585294D01*
X79485003Y-66564434D01*
X79515102Y-66542612D01*
X79546413Y-66519929D01*
X79578795Y-66496488D01*
X79612107Y-66472391D01*
X79632500Y-66457648D01*
X79666341Y-66433189D01*
X79699360Y-66409323D01*
X79731417Y-66386152D01*
X79762368Y-66363779D01*
X79792073Y-66342307D01*
X79820389Y-66321839D01*
X79847174Y-66302476D01*
X79872286Y-66284322D01*
X79895584Y-66267479D01*
X79916924Y-66252050D01*
X79936167Y-66238138D01*
X79953168Y-66225845D01*
X79967787Y-66215273D01*
X79979882Y-66206526D01*
X79989310Y-66199706D01*
X79995929Y-66194915D01*
X79999598Y-66192257D01*
X80000321Y-66191731D01*
X79999950Y-66191461D01*
X79997997Y-66191215D01*
X79994339Y-66190993D01*
X79988854Y-66190794D01*
X79981418Y-66190619D01*
X79971910Y-66190467D01*
X79960208Y-66190337D01*
X79946187Y-66190230D01*
X79929727Y-66190145D01*
X79910704Y-66190082D01*
X79888996Y-66190040D01*
X79864481Y-66190019D01*
X79837035Y-66190019D01*
X79806537Y-66190040D01*
X79772864Y-66190080D01*
X79735893Y-66190141D01*
X79695502Y-66190221D01*
X79651568Y-66190320D01*
X79603969Y-66190438D01*
X79552583Y-66190575D01*
X79548968Y-66190585D01*
X79094396Y-66191835D01*
X78955309Y-65760472D01*
X78942460Y-65720635D01*
X78929923Y-65681791D01*
X78917751Y-65644105D01*
X78905999Y-65607739D01*
X78894718Y-65572860D01*
X78883962Y-65539630D01*
X78873786Y-65508215D01*
X78864241Y-65478778D01*
X78855381Y-65451483D01*
X78847260Y-65426494D01*
X78839931Y-65403977D01*
X78833447Y-65384094D01*
X78827862Y-65367010D01*
X78823228Y-65352890D01*
X78819600Y-65341896D01*
X78817030Y-65334195D01*
X78815571Y-65329949D01*
X78815243Y-65329120D01*
X78814560Y-65330958D01*
G37*
G36*
X71189583Y-65341798D02*
G01*
X71187746Y-65347042D01*
X71184816Y-65355689D01*
X71180846Y-65367577D01*
X71175889Y-65382540D01*
X71170000Y-65400417D01*
X71163230Y-65421044D01*
X71155633Y-65444256D01*
X71147263Y-65469891D01*
X71138173Y-65497786D01*
X71128417Y-65527776D01*
X71118047Y-65559699D01*
X71107117Y-65593391D01*
X71095680Y-65628688D01*
X71083790Y-65665427D01*
X71071500Y-65703445D01*
X71058863Y-65742578D01*
X71050302Y-65769113D01*
X71037459Y-65808928D01*
X71024931Y-65847755D01*
X71012770Y-65885431D01*
X71001031Y-65921789D01*
X70989766Y-65956666D01*
X70979028Y-65989897D01*
X70968872Y-66021317D01*
X70959350Y-66050761D01*
X70950515Y-66078065D01*
X70942421Y-66103065D01*
X70935121Y-66125595D01*
X70928669Y-66145491D01*
X70923117Y-66162589D01*
X70918519Y-66176723D01*
X70914928Y-66187729D01*
X70912398Y-66195443D01*
X70910982Y-66199700D01*
X70910683Y-66200535D01*
X70908686Y-66200600D01*
X70902944Y-66200662D01*
X70893629Y-66200722D01*
X70880914Y-66200779D01*
X70864971Y-66200832D01*
X70845974Y-66200882D01*
X70824095Y-66200929D01*
X70799507Y-66200972D01*
X70772384Y-66201010D01*
X70742897Y-66201044D01*
X70711220Y-66201074D01*
X70677525Y-66201099D01*
X70641986Y-66201118D01*
X70604774Y-66201133D01*
X70566063Y-66201142D01*
X70526027Y-66201145D01*
X70484836Y-66201143D01*
X70456696Y-66201138D01*
X70406715Y-66201128D01*
X70360508Y-66201123D01*
X70317931Y-66201124D01*
X70278841Y-66201133D01*
X70243095Y-66201149D01*
X70210546Y-66201174D01*
X70181053Y-66201209D01*
X70154471Y-66201254D01*
X70130656Y-66201311D01*
X70109464Y-66201381D01*
X70090751Y-66201464D01*
X70074373Y-66201561D01*
X70060187Y-66201674D01*
X70048047Y-66201803D01*
X70037812Y-66201949D01*
X70029335Y-66202114D01*
X70022474Y-66202297D01*
X70017085Y-66202501D01*
X70013023Y-66202725D01*
X70010145Y-66202971D01*
X70008307Y-66203240D01*
X70007364Y-66203532D01*
X70007174Y-66203849D01*
X70007336Y-66204034D01*
X70009269Y-66205447D01*
X70014235Y-66209053D01*
X70022090Y-66214748D01*
X70032693Y-66222429D01*
X70045900Y-66231993D01*
X70061568Y-66243337D01*
X70079556Y-66256356D01*
X70099719Y-66270948D01*
X70121916Y-66287010D01*
X70146003Y-66304437D01*
X70171839Y-66323128D01*
X70199279Y-66342978D01*
X70228181Y-66363884D01*
X70258402Y-66385744D01*
X70289801Y-66408453D01*
X70322233Y-66431908D01*
X70355556Y-66456006D01*
X70373462Y-66468954D01*
X70407160Y-66493329D01*
X70440019Y-66517110D01*
X70471896Y-66540195D01*
X70502651Y-66562480D01*
X70532142Y-66583863D01*
X70560227Y-66604241D01*
X70586766Y-66623511D01*
X70611618Y-66641571D01*
X70634640Y-66658317D01*
X70655693Y-66673647D01*
X70674633Y-66687458D01*
X70691321Y-66699647D01*
X70705615Y-66710112D01*
X70717374Y-66718749D01*
X70726456Y-66725456D01*
X70732720Y-66730131D01*
X70736025Y-66732669D01*
X70736529Y-66733116D01*
X70736008Y-66735160D01*
X70734318Y-66740762D01*
X70731513Y-66749756D01*
X70727646Y-66761977D01*
X70722772Y-66777260D01*
X70716943Y-66795438D01*
X70710213Y-66816347D01*
X70702636Y-66839821D01*
X70694265Y-66865696D01*
X70685154Y-66893804D01*
X70675356Y-66923982D01*
X70664925Y-66956063D01*
X70653914Y-66989883D01*
X70642378Y-67025275D01*
X70630369Y-67062075D01*
X70617941Y-67100117D01*
X70605147Y-67139235D01*
X70597068Y-67163918D01*
X70584080Y-67203602D01*
X70571423Y-67242301D01*
X70559153Y-67279850D01*
X70547322Y-67316086D01*
X70535984Y-67350842D01*
X70525192Y-67383955D01*
X70514999Y-67415259D01*
X70505460Y-67444590D01*
X70496628Y-67471784D01*
X70488555Y-67496675D01*
X70481297Y-67519098D01*
X70474905Y-67538890D01*
X70469434Y-67555885D01*
X70464937Y-67569918D01*
X70461468Y-67580825D01*
X70459080Y-67588441D01*
X70457826Y-67592601D01*
X70457643Y-67593374D01*
X70459285Y-67592318D01*
X70463951Y-67589052D01*
X70471501Y-67583676D01*
X70481795Y-67576293D01*
X70494693Y-67567003D01*
X70510056Y-67555908D01*
X70527742Y-67543110D01*
X70547614Y-67528710D01*
X70569530Y-67512810D01*
X70593352Y-67495510D01*
X70618938Y-67476913D01*
X70646150Y-67457121D01*
X70674847Y-67436233D01*
X70704890Y-67414353D01*
X70736139Y-67391581D01*
X70768453Y-67368020D01*
X70801694Y-67343770D01*
X70823658Y-67327738D01*
X70857432Y-67303090D01*
X70890375Y-67279061D01*
X70922345Y-67255753D01*
X70953204Y-67233268D01*
X70982812Y-67211707D01*
X71011027Y-67191171D01*
X71037710Y-67171764D01*
X71062721Y-67153586D01*
X71085920Y-67136739D01*
X71107167Y-67121326D01*
X71126321Y-67107446D01*
X71143242Y-67095204D01*
X71157791Y-67084699D01*
X71169827Y-67076034D01*
X71179210Y-67069310D01*
X71185800Y-67064630D01*
X71189457Y-67062095D01*
X71190194Y-67061645D01*
X71191886Y-67062825D01*
X71196602Y-67066213D01*
X71204201Y-67071708D01*
X71214543Y-67079207D01*
X71227489Y-67088608D01*
X71242896Y-67099808D01*
X71260625Y-67112706D01*
X71280536Y-67127199D01*
X71302487Y-67143185D01*
X71326339Y-67160561D01*
X71351951Y-67179225D01*
X71379183Y-67199075D01*
X71407894Y-67220009D01*
X71437943Y-67241924D01*
X71469191Y-67264718D01*
X71501496Y-67288289D01*
X71534719Y-67312534D01*
X71555313Y-67327565D01*
X71589029Y-67352174D01*
X71621917Y-67376172D01*
X71653834Y-67399457D01*
X71684641Y-67421927D01*
X71714197Y-67443479D01*
X71742361Y-67464010D01*
X71768993Y-67483420D01*
X71793952Y-67501604D01*
X71817097Y-67518461D01*
X71838288Y-67533888D01*
X71857384Y-67547783D01*
X71874244Y-67560043D01*
X71888728Y-67570566D01*
X71900696Y-67579250D01*
X71910006Y-67585992D01*
X71916519Y-67590690D01*
X71920093Y-67593241D01*
X71920769Y-67593700D01*
X71922476Y-67593373D01*
X71922524Y-67593099D01*
X71921923Y-67591148D01*
X71920156Y-67585637D01*
X71917277Y-67576733D01*
X71913338Y-67564600D01*
X71908396Y-67549403D01*
X71902502Y-67531308D01*
X71895712Y-67510479D01*
X71888079Y-67487081D01*
X71879656Y-67461279D01*
X71870499Y-67433239D01*
X71860660Y-67403125D01*
X71850193Y-67371103D01*
X71839153Y-67337337D01*
X71827594Y-67301992D01*
X71815568Y-67265234D01*
X71803130Y-67227227D01*
X71790334Y-67188136D01*
X71782312Y-67163634D01*
X71769324Y-67123947D01*
X71756669Y-67085233D01*
X71744400Y-67047658D01*
X71732571Y-67011388D01*
X71721235Y-66976588D01*
X71710446Y-66943423D01*
X71700257Y-66912059D01*
X71690723Y-66882662D01*
X71681896Y-66855396D01*
X71673830Y-66830429D01*
X71666579Y-66807924D01*
X71660195Y-66788049D01*
X71654734Y-66770967D01*
X71650248Y-66756845D01*
X71646791Y-66745848D01*
X71644416Y-66738142D01*
X71643177Y-66733893D01*
X71643003Y-66733068D01*
X71644653Y-66731718D01*
X71649339Y-66728177D01*
X71656921Y-66722547D01*
X71667257Y-66714932D01*
X71680207Y-66705434D01*
X71695630Y-66694156D01*
X71713384Y-66681199D01*
X71733329Y-66666667D01*
X71755324Y-66650662D01*
X71779228Y-66633286D01*
X71804899Y-66614643D01*
X71832197Y-66594834D01*
X71860981Y-66573963D01*
X71891111Y-66552131D01*
X71922444Y-66529441D01*
X71954840Y-66505996D01*
X71988158Y-66481899D01*
X72008042Y-66467525D01*
X72041843Y-66443093D01*
X72074813Y-66419258D01*
X72106810Y-66396124D01*
X72137693Y-66373793D01*
X72167321Y-66352366D01*
X72195552Y-66331947D01*
X72222245Y-66312637D01*
X72247258Y-66294539D01*
X72270450Y-66277755D01*
X72291679Y-66262388D01*
X72310805Y-66248540D01*
X72327685Y-66236313D01*
X72342179Y-66225810D01*
X72354145Y-66217132D01*
X72363441Y-66210383D01*
X72369927Y-66205665D01*
X72373460Y-66203079D01*
X72374102Y-66202596D01*
X72372363Y-66202422D01*
X72366844Y-66202256D01*
X72357683Y-66202098D01*
X72345018Y-66201949D01*
X72328988Y-66201810D01*
X72309731Y-66201680D01*
X72287386Y-66201561D01*
X72262090Y-66201453D01*
X72233982Y-66201357D01*
X72203201Y-66201272D01*
X72169884Y-66201199D01*
X72134170Y-66201140D01*
X72096197Y-66201093D01*
X72056104Y-66201060D01*
X72014029Y-66201042D01*
X71970110Y-66201038D01*
X71924486Y-66201050D01*
X71922527Y-66201050D01*
X71872790Y-66201071D01*
X71826822Y-66201087D01*
X71784474Y-66201098D01*
X71745599Y-66201103D01*
X71710047Y-66201101D01*
X71677669Y-66201090D01*
X71648317Y-66201070D01*
X71621841Y-66201039D01*
X71598093Y-66200996D01*
X71576924Y-66200941D01*
X71558184Y-66200871D01*
X71541726Y-66200787D01*
X71527400Y-66200687D01*
X71515057Y-66200569D01*
X71504549Y-66200433D01*
X71495727Y-66200277D01*
X71488441Y-66200101D01*
X71482543Y-66199903D01*
X71477885Y-66199683D01*
X71474316Y-66199439D01*
X71471689Y-66199169D01*
X71469855Y-66198874D01*
X71468664Y-66198552D01*
X71467968Y-66198201D01*
X71467618Y-66197821D01*
X71467551Y-66197685D01*
X71466821Y-66195513D01*
X71464942Y-66189779D01*
X71461970Y-66180649D01*
X71457958Y-66168290D01*
X71452960Y-66152869D01*
X71447031Y-66134554D01*
X71440223Y-66113511D01*
X71432592Y-66089908D01*
X71424190Y-66063910D01*
X71415073Y-66035686D01*
X71405294Y-66005403D01*
X71394906Y-65973227D01*
X71383965Y-65939325D01*
X71372523Y-65903864D01*
X71360635Y-65867012D01*
X71348355Y-65828935D01*
X71335736Y-65789801D01*
X71328704Y-65767985D01*
X71315931Y-65728368D01*
X71303469Y-65689732D01*
X71291374Y-65652243D01*
X71279698Y-65616066D01*
X71268495Y-65581368D01*
X71257818Y-65548315D01*
X71247722Y-65517073D01*
X71238261Y-65487807D01*
X71229487Y-65460685D01*
X71221455Y-65435872D01*
X71214219Y-65413534D01*
X71207831Y-65393837D01*
X71202347Y-65376947D01*
X71197819Y-65363031D01*
X71194301Y-65352254D01*
X71191848Y-65344782D01*
X71190512Y-65340782D01*
X71190273Y-65340121D01*
X71189583Y-65341798D01*
G37*
G36*
X78357776Y-67940410D02*
G01*
X78355919Y-67945943D01*
X78352969Y-67954875D01*
X78348980Y-67967040D01*
X78344006Y-67982272D01*
X78338099Y-68000406D01*
X78331315Y-68021275D01*
X78323707Y-68044715D01*
X78315328Y-68070559D01*
X78306232Y-68098642D01*
X78296474Y-68128797D01*
X78286105Y-68160860D01*
X78275182Y-68194665D01*
X78263756Y-68230045D01*
X78251882Y-68266835D01*
X78239613Y-68304870D01*
X78227004Y-68343983D01*
X78219600Y-68366959D01*
X78206815Y-68406634D01*
X78194339Y-68445335D01*
X78182227Y-68482895D01*
X78170532Y-68519148D01*
X78159307Y-68553928D01*
X78148608Y-68587068D01*
X78138486Y-68618403D01*
X78128997Y-68647765D01*
X78120194Y-68674989D01*
X78112131Y-68699909D01*
X78104861Y-68722358D01*
X78098438Y-68742169D01*
X78092917Y-68759177D01*
X78088350Y-68773215D01*
X78084792Y-68784117D01*
X78082297Y-68791716D01*
X78080918Y-68795847D01*
X78080651Y-68796587D01*
X78079867Y-68796870D01*
X78077739Y-68797132D01*
X78074136Y-68797374D01*
X78068929Y-68797597D01*
X78061985Y-68797800D01*
X78053175Y-68797985D01*
X78042366Y-68798153D01*
X78029428Y-68798305D01*
X78014230Y-68798440D01*
X77996642Y-68798560D01*
X77976531Y-68798666D01*
X77953768Y-68798758D01*
X77928221Y-68798836D01*
X77899760Y-68798902D01*
X77868253Y-68798957D01*
X77833569Y-68799001D01*
X77795578Y-68799034D01*
X77754149Y-68799058D01*
X77709150Y-68799073D01*
X77660451Y-68799080D01*
X77625855Y-68799081D01*
X77574331Y-68799083D01*
X77526603Y-68799094D01*
X77482546Y-68799113D01*
X77442037Y-68799142D01*
X77404952Y-68799182D01*
X77371167Y-68799232D01*
X77340561Y-68799293D01*
X77313007Y-68799367D01*
X77288384Y-68799453D01*
X77266567Y-68799553D01*
X77247433Y-68799667D01*
X77230859Y-68799796D01*
X77216720Y-68799940D01*
X77204894Y-68800100D01*
X77195256Y-68800277D01*
X77187684Y-68800472D01*
X77182053Y-68800684D01*
X77178240Y-68800916D01*
X77176121Y-68801166D01*
X77175574Y-68801437D01*
X77175610Y-68801472D01*
X77177476Y-68802829D01*
X77182376Y-68806378D01*
X77190167Y-68812018D01*
X77200708Y-68819646D01*
X77213857Y-68829158D01*
X77229471Y-68840453D01*
X77247409Y-68853427D01*
X77267528Y-68867979D01*
X77289688Y-68884005D01*
X77313745Y-68901402D01*
X77339558Y-68920068D01*
X77366985Y-68939901D01*
X77395883Y-68960797D01*
X77426111Y-68982654D01*
X77457527Y-69005369D01*
X77489989Y-69028840D01*
X77523355Y-69052963D01*
X77543187Y-69067302D01*
X77907548Y-69330727D01*
X77900039Y-69353356D01*
X77895306Y-69367650D01*
X77889679Y-69384704D01*
X77883221Y-69404316D01*
X77875999Y-69426288D01*
X77868077Y-69450420D01*
X77859521Y-69476510D01*
X77850396Y-69504361D01*
X77840766Y-69533771D01*
X77830698Y-69564540D01*
X77820257Y-69596470D01*
X77809507Y-69629359D01*
X77798513Y-69663008D01*
X77787342Y-69697218D01*
X77776057Y-69731787D01*
X77764725Y-69766517D01*
X77753410Y-69801207D01*
X77742178Y-69835658D01*
X77731093Y-69869669D01*
X77720222Y-69903041D01*
X77709628Y-69935574D01*
X77699378Y-69967067D01*
X77689536Y-69997321D01*
X77680168Y-70026137D01*
X77671338Y-70053313D01*
X77663113Y-70078650D01*
X77655557Y-70101949D01*
X77648734Y-70123010D01*
X77642712Y-70141631D01*
X77637554Y-70157614D01*
X77633326Y-70170759D01*
X77630092Y-70180866D01*
X77627919Y-70187734D01*
X77626872Y-70191165D01*
X77626783Y-70191533D01*
X77628420Y-70190472D01*
X77633081Y-70187201D01*
X77640627Y-70181821D01*
X77650917Y-70174433D01*
X77663812Y-70165139D01*
X77679172Y-70154041D01*
X77696857Y-70141239D01*
X77716729Y-70126836D01*
X77738646Y-70110932D01*
X77762469Y-70093629D01*
X77788058Y-70075029D01*
X77815274Y-70055233D01*
X77843977Y-70034343D01*
X77874027Y-70012459D01*
X77905284Y-69989684D01*
X77937609Y-69966118D01*
X77970862Y-69941864D01*
X77993163Y-69925591D01*
X78358705Y-69658812D01*
X78365086Y-69663322D01*
X78367248Y-69664885D01*
X78372430Y-69668654D01*
X78380490Y-69674523D01*
X78391283Y-69682387D01*
X78404664Y-69692141D01*
X78420492Y-69703679D01*
X78438620Y-69716898D01*
X78458905Y-69731692D01*
X78481204Y-69747956D01*
X78505372Y-69765584D01*
X78531265Y-69784473D01*
X78558739Y-69804516D01*
X78587650Y-69825609D01*
X78617854Y-69847647D01*
X78649208Y-69870525D01*
X78681567Y-69894137D01*
X78714787Y-69918379D01*
X78730610Y-69929926D01*
X78764101Y-69954364D01*
X78796755Y-69978186D01*
X78828431Y-70001290D01*
X78858987Y-70023571D01*
X78888284Y-70044928D01*
X78916179Y-70065258D01*
X78942532Y-70084459D01*
X78967201Y-70102427D01*
X78990046Y-70119060D01*
X79010925Y-70134255D01*
X79029698Y-70147909D01*
X79046223Y-70159921D01*
X79060359Y-70170186D01*
X79071965Y-70178603D01*
X79080900Y-70185068D01*
X79087023Y-70189480D01*
X79090193Y-70191734D01*
X79090626Y-70192021D01*
X79091500Y-70190579D01*
X79091500Y-70190565D01*
X79090899Y-70188594D01*
X79089132Y-70183065D01*
X79086253Y-70174141D01*
X79082316Y-70161989D01*
X79077374Y-70146773D01*
X79071482Y-70128658D01*
X79064692Y-70107810D01*
X79057060Y-70084392D01*
X79048639Y-70058571D01*
X79039482Y-70030511D01*
X79029643Y-70000377D01*
X79019177Y-69968335D01*
X79008137Y-69934549D01*
X78996578Y-69899184D01*
X78984551Y-69862405D01*
X78972113Y-69824378D01*
X78959316Y-69785266D01*
X78951154Y-69760328D01*
X78935730Y-69713203D01*
X78921481Y-69669659D01*
X78908362Y-69629554D01*
X78896328Y-69592744D01*
X78885333Y-69559088D01*
X78875332Y-69528441D01*
X78866281Y-69500663D01*
X78858134Y-69475609D01*
X78850847Y-69453137D01*
X78844373Y-69433106D01*
X78838668Y-69415371D01*
X78833687Y-69399790D01*
X78829384Y-69386220D01*
X78825715Y-69374520D01*
X78822635Y-69364545D01*
X78820098Y-69356154D01*
X78818058Y-69349204D01*
X78816472Y-69343552D01*
X78815294Y-69339055D01*
X78814479Y-69335570D01*
X78813981Y-69332956D01*
X78813756Y-69331069D01*
X78813759Y-69329767D01*
X78813944Y-69328906D01*
X78814266Y-69328345D01*
X78814495Y-69328103D01*
X78816407Y-69326649D01*
X78821353Y-69323005D01*
X78829191Y-69317274D01*
X78839778Y-69309561D01*
X78852970Y-69299968D01*
X78868624Y-69288600D01*
X78886599Y-69275559D01*
X78906750Y-69260949D01*
X78928935Y-69244874D01*
X78953011Y-69227438D01*
X78978835Y-69208743D01*
X79006264Y-69188894D01*
X79035155Y-69167994D01*
X79065366Y-69146146D01*
X79096753Y-69123454D01*
X79129173Y-69100022D01*
X79162484Y-69075953D01*
X79179667Y-69063540D01*
X79213347Y-69039209D01*
X79246195Y-69015477D01*
X79278068Y-68992445D01*
X79308826Y-68970216D01*
X79338325Y-68948893D01*
X79366425Y-68928579D01*
X79392983Y-68909376D01*
X79417857Y-68891387D01*
X79440905Y-68874715D01*
X79461985Y-68859462D01*
X79480956Y-68845732D01*
X79497675Y-68833626D01*
X79512001Y-68823247D01*
X79523791Y-68814699D01*
X79532903Y-68808083D01*
X79539196Y-68803503D01*
X79542528Y-68801061D01*
X79543043Y-68800670D01*
X79541302Y-68800493D01*
X79535776Y-68800322D01*
X79526598Y-68800161D01*
X79513901Y-68800007D01*
X79497819Y-68799864D01*
X79478484Y-68799729D01*
X79456031Y-68799605D01*
X79430592Y-68799492D01*
X79402301Y-68799390D01*
X79371291Y-68799299D01*
X79337695Y-68799221D01*
X79301647Y-68799155D01*
X79263279Y-68799103D01*
X79222726Y-68799063D01*
X79180120Y-68799038D01*
X79135594Y-68799028D01*
X79091431Y-68799032D01*
X78637929Y-68799142D01*
X78498845Y-68368094D01*
X78485994Y-68328291D01*
X78473454Y-68289491D01*
X78461276Y-68251860D01*
X78449515Y-68215559D01*
X78438224Y-68180752D01*
X78427456Y-68147604D01*
X78417265Y-68116278D01*
X78407704Y-68086937D01*
X78398827Y-68059744D01*
X78390687Y-68034864D01*
X78383338Y-68012459D01*
X78376832Y-67992694D01*
X78371224Y-67975732D01*
X78366567Y-67961736D01*
X78362913Y-67950871D01*
X78360318Y-67943298D01*
X78358834Y-67939183D01*
X78358487Y-67938442D01*
X78357776Y-67940410D01*
G37*
G36*
X71652126Y-67949266D02*
G01*
X71650288Y-67954766D01*
X71647357Y-67963666D01*
X71643384Y-67975800D01*
X71638424Y-67991005D01*
X71632530Y-68009114D01*
X71625755Y-68029963D01*
X71618154Y-68053386D01*
X71609779Y-68079219D01*
X71600684Y-68107297D01*
X71590922Y-68137455D01*
X71580548Y-68169527D01*
X71569614Y-68203349D01*
X71558173Y-68238756D01*
X71546280Y-68275582D01*
X71533988Y-68313663D01*
X71521351Y-68352833D01*
X71513207Y-68378085D01*
X71374643Y-68807795D01*
X70920714Y-68807437D01*
X70878828Y-68807407D01*
X70837985Y-68807383D01*
X70798357Y-68807367D01*
X70760117Y-68807356D01*
X70723437Y-68807352D01*
X70688490Y-68807354D01*
X70655447Y-68807361D01*
X70624481Y-68807375D01*
X70595765Y-68807394D01*
X70569471Y-68807419D01*
X70545771Y-68807450D01*
X70524837Y-68807486D01*
X70506842Y-68807526D01*
X70491958Y-68807572D01*
X70480358Y-68807623D01*
X70472213Y-68807679D01*
X70467697Y-68807739D01*
X70466786Y-68807783D01*
X70468350Y-68808980D01*
X70472952Y-68812368D01*
X70480449Y-68817848D01*
X70490701Y-68825316D01*
X70503568Y-68834671D01*
X70518909Y-68845811D01*
X70536584Y-68858635D01*
X70556453Y-68873041D01*
X70578374Y-68888926D01*
X70602208Y-68906189D01*
X70627813Y-68924729D01*
X70655050Y-68944444D01*
X70683778Y-68965231D01*
X70713857Y-68986988D01*
X70745145Y-69009616D01*
X70777502Y-69033010D01*
X70810789Y-69057070D01*
X70830720Y-69071474D01*
X70864536Y-69095913D01*
X70897532Y-69119765D01*
X70929565Y-69142927D01*
X70960494Y-69165296D01*
X70990177Y-69186770D01*
X71018470Y-69207244D01*
X71045232Y-69226617D01*
X71070321Y-69244784D01*
X71093594Y-69261643D01*
X71114909Y-69277092D01*
X71134124Y-69291025D01*
X71151096Y-69303342D01*
X71165684Y-69313938D01*
X71177745Y-69322711D01*
X71187137Y-69329558D01*
X71193718Y-69334375D01*
X71197346Y-69337059D01*
X71198037Y-69337596D01*
X71198360Y-69338090D01*
X71198525Y-69338952D01*
X71198489Y-69340323D01*
X71198206Y-69342345D01*
X71197631Y-69345159D01*
X71196719Y-69348906D01*
X71195426Y-69353730D01*
X71193706Y-69359770D01*
X71191515Y-69367169D01*
X71188807Y-69376068D01*
X71185538Y-69386609D01*
X71181662Y-69398934D01*
X71177136Y-69413184D01*
X71171913Y-69429501D01*
X71165949Y-69448027D01*
X71159199Y-69468902D01*
X71151618Y-69492269D01*
X71143162Y-69518270D01*
X71133784Y-69547045D01*
X71123441Y-69578738D01*
X71112087Y-69613488D01*
X71099677Y-69651438D01*
X71086168Y-69692730D01*
X71071512Y-69737505D01*
X71060617Y-69770785D01*
X71047606Y-69810536D01*
X71034924Y-69849301D01*
X71022626Y-69886916D01*
X71010764Y-69923216D01*
X70999393Y-69958036D01*
X70988566Y-69991213D01*
X70978336Y-70022582D01*
X70968757Y-70051978D01*
X70959882Y-70079238D01*
X70951765Y-70104197D01*
X70944459Y-70126690D01*
X70938017Y-70146554D01*
X70932494Y-70163624D01*
X70927943Y-70177735D01*
X70924417Y-70188723D01*
X70921969Y-70196425D01*
X70920654Y-70200675D01*
X70920431Y-70201509D01*
X70922048Y-70200433D01*
X70926689Y-70197147D01*
X70934215Y-70191753D01*
X70944486Y-70184351D01*
X70957363Y-70175044D01*
X70972707Y-70163933D01*
X70990376Y-70151119D01*
X71010233Y-70136704D01*
X71032137Y-70120789D01*
X71055949Y-70103476D01*
X71081528Y-70084866D01*
X71108737Y-70065060D01*
X71137434Y-70044161D01*
X71167480Y-70022270D01*
X71198736Y-69999487D01*
X71231062Y-69975915D01*
X71264318Y-69951655D01*
X71286841Y-69935220D01*
X71327511Y-69905543D01*
X71365135Y-69878098D01*
X71399828Y-69852803D01*
X71431707Y-69829574D01*
X71460886Y-69808329D01*
X71487482Y-69788985D01*
X71511610Y-69771460D01*
X71533386Y-69755669D01*
X71552925Y-69741531D01*
X71570343Y-69728963D01*
X71585754Y-69717881D01*
X71599276Y-69708203D01*
X71611024Y-69699846D01*
X71621112Y-69692727D01*
X71629658Y-69686764D01*
X71636775Y-69681873D01*
X71642580Y-69677971D01*
X71647189Y-69674977D01*
X71650717Y-69672806D01*
X71653279Y-69671377D01*
X71654992Y-69670605D01*
X71655970Y-69670409D01*
X71656183Y-69670474D01*
X71658075Y-69671820D01*
X71662990Y-69675374D01*
X71670786Y-69681031D01*
X71681322Y-69688688D01*
X71694456Y-69698243D01*
X71710045Y-69709592D01*
X71727948Y-69722631D01*
X71748024Y-69737257D01*
X71770130Y-69753367D01*
X71794124Y-69770857D01*
X71819866Y-69789624D01*
X71847212Y-69809565D01*
X71876021Y-69830576D01*
X71906152Y-69852555D01*
X71937463Y-69875397D01*
X71969811Y-69898999D01*
X72003055Y-69923258D01*
X72022232Y-69937253D01*
X72055884Y-69961810D01*
X72088703Y-69985751D01*
X72120547Y-70008973D01*
X72151276Y-70031375D01*
X72180750Y-70052855D01*
X72208827Y-70073310D01*
X72235368Y-70092638D01*
X72260232Y-70110736D01*
X72283278Y-70127503D01*
X72304366Y-70142836D01*
X72323355Y-70156633D01*
X72340104Y-70168792D01*
X72354474Y-70179210D01*
X72366323Y-70187785D01*
X72375511Y-70194415D01*
X72381897Y-70198998D01*
X72385341Y-70201431D01*
X72385935Y-70201817D01*
X72386416Y-70200302D01*
X72385971Y-70198388D01*
X72385261Y-70196232D01*
X72383386Y-70190519D01*
X72380399Y-70181414D01*
X72376356Y-70169085D01*
X72371311Y-70153697D01*
X72365319Y-70135418D01*
X72358434Y-70114412D01*
X72350710Y-70090847D01*
X72342203Y-70064890D01*
X72332966Y-70036705D01*
X72323055Y-70006460D01*
X72312523Y-69974321D01*
X72301426Y-69940455D01*
X72289817Y-69905027D01*
X72277752Y-69868204D01*
X72265284Y-69830153D01*
X72252469Y-69791039D01*
X72244867Y-69767838D01*
X72228738Y-69718591D01*
X72213802Y-69672950D01*
X72200023Y-69630802D01*
X72187365Y-69592033D01*
X72175791Y-69556530D01*
X72165266Y-69524179D01*
X72155751Y-69494866D01*
X72147212Y-69468477D01*
X72139611Y-69444899D01*
X72132913Y-69424018D01*
X72127080Y-69405720D01*
X72122076Y-69389892D01*
X72117866Y-69376419D01*
X72114411Y-69365189D01*
X72111677Y-69356086D01*
X72109626Y-69348999D01*
X72108222Y-69343812D01*
X72107428Y-69340412D01*
X72107209Y-69338686D01*
X72107281Y-69338431D01*
X72109067Y-69337085D01*
X72113888Y-69333549D01*
X72121601Y-69327923D01*
X72132065Y-69320312D01*
X72145137Y-69310817D01*
X72160676Y-69299542D01*
X72178540Y-69286590D01*
X72198587Y-69272063D01*
X72220674Y-69256064D01*
X72244660Y-69238696D01*
X72270403Y-69220062D01*
X72297760Y-69200265D01*
X72326590Y-69179408D01*
X72356751Y-69157592D01*
X72388101Y-69134922D01*
X72420498Y-69111500D01*
X72453800Y-69087429D01*
X72472100Y-69074203D01*
X72505837Y-69049820D01*
X72538749Y-69026028D01*
X72570693Y-69002931D01*
X72601527Y-68980630D01*
X72631110Y-68959230D01*
X72659299Y-68938833D01*
X72685951Y-68919542D01*
X72710926Y-68901460D01*
X72734080Y-68884691D01*
X72755271Y-68869336D01*
X72774357Y-68855500D01*
X72791196Y-68843285D01*
X72805646Y-68832794D01*
X72817564Y-68824130D01*
X72826809Y-68817396D01*
X72833238Y-68812695D01*
X72836710Y-68810130D01*
X72837303Y-68809670D01*
X72837082Y-68809380D01*
X72835691Y-68809113D01*
X72832996Y-68808868D01*
X72828864Y-68808643D01*
X72823158Y-68808440D01*
X72815745Y-68808256D01*
X72806489Y-68808091D01*
X72795257Y-68807944D01*
X72781914Y-68807816D01*
X72766325Y-68807704D01*
X72748356Y-68807609D01*
X72727871Y-68807530D01*
X72704737Y-68807466D01*
X72678818Y-68807417D01*
X72649981Y-68807381D01*
X72618090Y-68807358D01*
X72583011Y-68807348D01*
X72544610Y-68807350D01*
X72502751Y-68807363D01*
X72457301Y-68807386D01*
X72408124Y-68807419D01*
X72385927Y-68807436D01*
X71931813Y-68807795D01*
X71806036Y-68417900D01*
X71793620Y-68379413D01*
X71781413Y-68341572D01*
X71769477Y-68304574D01*
X71757877Y-68268618D01*
X71746677Y-68233900D01*
X71735939Y-68200619D01*
X71725729Y-68168971D01*
X71716110Y-68139155D01*
X71707145Y-68111368D01*
X71698898Y-68085808D01*
X71691433Y-68062673D01*
X71684814Y-68042159D01*
X71679104Y-68024464D01*
X71674367Y-68009787D01*
X71670668Y-67998324D01*
X71668069Y-67990274D01*
X71667059Y-67987146D01*
X71663179Y-67975319D01*
X71659655Y-67964931D01*
X71656673Y-67956496D01*
X71654417Y-67950533D01*
X71653073Y-67947558D01*
X71652815Y-67947331D01*
X71652126Y-67949266D01*
G37*
G36*
X76332376Y-69644778D02*
G01*
X76330525Y-69650058D01*
X76327581Y-69658741D01*
X76323598Y-69670664D01*
X76318628Y-69685663D01*
X76312726Y-69703575D01*
X76305943Y-69724236D01*
X76298335Y-69747483D01*
X76289953Y-69773152D01*
X76280852Y-69801080D01*
X76271085Y-69831104D01*
X76260705Y-69863059D01*
X76249766Y-69896782D01*
X76238320Y-69932109D01*
X76226422Y-69968878D01*
X76214124Y-70006925D01*
X76201480Y-70046085D01*
X76192757Y-70073125D01*
X76053649Y-70504524D01*
X75600568Y-70503763D01*
X75558721Y-70503697D01*
X75517917Y-70503642D01*
X75478330Y-70503597D01*
X75440130Y-70503562D01*
X75403492Y-70503538D01*
X75368586Y-70503524D01*
X75335586Y-70503520D01*
X75304665Y-70503526D01*
X75275994Y-70503541D01*
X75249747Y-70503566D01*
X75226095Y-70503601D01*
X75205211Y-70503645D01*
X75187268Y-70503698D01*
X75172439Y-70503761D01*
X75160895Y-70503833D01*
X75152809Y-70503913D01*
X75148354Y-70504002D01*
X75147486Y-70504067D01*
X75149051Y-70505297D01*
X75153652Y-70508720D01*
X75161149Y-70514235D01*
X75171403Y-70521740D01*
X75184274Y-70531132D01*
X75199620Y-70542312D01*
X75217304Y-70555176D01*
X75237183Y-70569624D01*
X75259119Y-70585553D01*
X75282971Y-70602862D01*
X75308600Y-70621450D01*
X75335866Y-70641214D01*
X75364627Y-70662054D01*
X75394745Y-70683867D01*
X75426080Y-70706552D01*
X75458491Y-70730007D01*
X75491839Y-70754131D01*
X75513870Y-70770063D01*
X75547752Y-70794570D01*
X75580788Y-70818479D01*
X75612839Y-70841689D01*
X75643763Y-70864096D01*
X75673421Y-70885599D01*
X75701673Y-70906097D01*
X75728379Y-70925488D01*
X75753399Y-70943669D01*
X75776593Y-70960538D01*
X75797820Y-70975995D01*
X75816941Y-70989937D01*
X75833816Y-71002261D01*
X75848305Y-71012867D01*
X75860267Y-71021653D01*
X75869564Y-71028515D01*
X75876053Y-71033354D01*
X75879597Y-71036066D01*
X75880254Y-71036640D01*
X75879655Y-71038595D01*
X75877904Y-71044071D01*
X75875066Y-71052864D01*
X75871209Y-71064770D01*
X75866398Y-71079585D01*
X75860701Y-71097106D01*
X75854183Y-71117129D01*
X75846913Y-71139451D01*
X75838955Y-71163868D01*
X75830376Y-71190176D01*
X75821244Y-71218172D01*
X75811624Y-71247652D01*
X75801584Y-71278413D01*
X75791189Y-71310250D01*
X75780506Y-71342961D01*
X75769602Y-71376341D01*
X75758544Y-71410187D01*
X75747397Y-71444295D01*
X75736228Y-71478462D01*
X75725105Y-71512484D01*
X75714093Y-71546157D01*
X75703259Y-71579278D01*
X75692670Y-71611644D01*
X75682391Y-71643050D01*
X75672491Y-71673292D01*
X75663034Y-71702168D01*
X75654088Y-71729474D01*
X75645720Y-71755006D01*
X75637995Y-71778560D01*
X75630981Y-71799933D01*
X75624743Y-71818921D01*
X75619349Y-71835320D01*
X75614865Y-71848927D01*
X75611357Y-71859539D01*
X75610920Y-71860858D01*
X75607269Y-71872127D01*
X75604260Y-71881921D01*
X75602042Y-71889718D01*
X75600760Y-71894994D01*
X75600562Y-71897225D01*
X75600710Y-71897240D01*
X75602485Y-71895975D01*
X75607284Y-71892502D01*
X75614967Y-71886924D01*
X75625394Y-71879343D01*
X75638422Y-71869863D01*
X75653912Y-71858586D01*
X75671723Y-71845614D01*
X75691714Y-71831049D01*
X75713743Y-71814996D01*
X75737672Y-71797555D01*
X75763358Y-71778830D01*
X75790662Y-71758923D01*
X75819441Y-71737936D01*
X75849557Y-71715973D01*
X75880867Y-71693136D01*
X75913231Y-71669527D01*
X75946508Y-71645249D01*
X75967789Y-71629723D01*
X76332561Y-71363567D01*
X76678025Y-71615708D01*
X76711173Y-71639901D01*
X76743647Y-71663603D01*
X76775294Y-71686701D01*
X76805958Y-71709081D01*
X76835483Y-71730631D01*
X76863714Y-71751236D01*
X76890496Y-71770784D01*
X76915673Y-71789160D01*
X76939091Y-71806252D01*
X76960594Y-71821947D01*
X76980026Y-71836131D01*
X76997232Y-71848690D01*
X77012058Y-71859511D01*
X77024347Y-71868482D01*
X77033945Y-71875487D01*
X77040696Y-71880416D01*
X77044445Y-71883153D01*
X77044551Y-71883230D01*
X77052274Y-71888765D01*
X77058725Y-71893187D01*
X77063331Y-71896119D01*
X77065517Y-71897183D01*
X77065618Y-71897110D01*
X77065018Y-71895135D01*
X77063251Y-71889601D01*
X77060372Y-71880673D01*
X77056435Y-71868517D01*
X77051494Y-71853297D01*
X77045602Y-71835179D01*
X77038813Y-71814327D01*
X77031181Y-71790907D01*
X77022760Y-71765084D01*
X77013603Y-71737022D01*
X77003766Y-71706887D01*
X76993300Y-71674844D01*
X76982261Y-71641058D01*
X76970702Y-71605694D01*
X76958677Y-71568917D01*
X76946239Y-71530892D01*
X76933443Y-71491784D01*
X76925329Y-71466993D01*
X76912340Y-71427286D01*
X76899683Y-71388551D01*
X76887412Y-71350954D01*
X76875582Y-71314660D01*
X76864245Y-71279836D01*
X76853454Y-71246646D01*
X76843264Y-71215256D01*
X76833728Y-71185832D01*
X76824899Y-71158539D01*
X76816831Y-71133543D01*
X76809578Y-71111009D01*
X76803192Y-71091102D01*
X76797728Y-71073989D01*
X76793238Y-71059834D01*
X76789777Y-71048803D01*
X76787398Y-71041062D01*
X76786154Y-71036776D01*
X76785977Y-71035927D01*
X76787630Y-71034567D01*
X76792319Y-71031015D01*
X76799903Y-71025376D01*
X76810239Y-71017751D01*
X76823187Y-71008243D01*
X76838606Y-70996957D01*
X76856353Y-70983993D01*
X76876288Y-70969456D01*
X76898270Y-70953449D01*
X76922156Y-70936073D01*
X76947806Y-70917432D01*
X76975079Y-70897629D01*
X77003833Y-70876767D01*
X77033926Y-70854948D01*
X77065218Y-70832276D01*
X77097567Y-70808853D01*
X77130832Y-70784782D01*
X77149133Y-70771547D01*
X77182870Y-70747149D01*
X77215791Y-70723339D01*
X77247754Y-70700219D01*
X77278615Y-70677893D01*
X77308233Y-70656465D01*
X77336464Y-70636038D01*
X77363164Y-70616714D01*
X77388193Y-70598598D01*
X77411406Y-70581794D01*
X77432662Y-70566403D01*
X77451816Y-70552530D01*
X77468727Y-70540278D01*
X77483252Y-70529750D01*
X77495248Y-70521050D01*
X77504572Y-70514281D01*
X77511081Y-70509546D01*
X77514632Y-70506950D01*
X77515266Y-70506476D01*
X77515481Y-70506131D01*
X77515134Y-70505813D01*
X77514080Y-70505521D01*
X77512174Y-70505255D01*
X77509270Y-70505013D01*
X77505223Y-70504795D01*
X77499889Y-70504601D01*
X77493121Y-70504428D01*
X77484775Y-70504278D01*
X77474706Y-70504148D01*
X77462767Y-70504039D01*
X77448815Y-70503949D01*
X77432704Y-70503878D01*
X77414288Y-70503824D01*
X77393423Y-70503788D01*
X77369963Y-70503768D01*
X77343763Y-70503763D01*
X77314677Y-70503773D01*
X77282562Y-70503798D01*
X77247271Y-70503835D01*
X77208659Y-70503886D01*
X77166581Y-70503947D01*
X77120892Y-70504020D01*
X77071446Y-70504103D01*
X77065429Y-70504114D01*
X76611674Y-70504894D01*
X76472984Y-70074649D01*
X76460150Y-70034845D01*
X76447626Y-69996023D01*
X76435466Y-69958350D01*
X76423723Y-69921990D01*
X76412452Y-69887108D01*
X76401704Y-69853869D01*
X76391535Y-69822439D01*
X76381997Y-69792981D01*
X76373144Y-69765663D01*
X76365029Y-69740647D01*
X76357706Y-69718101D01*
X76351229Y-69698188D01*
X76345651Y-69681073D01*
X76341025Y-69666923D01*
X76337405Y-69655902D01*
X76334845Y-69648174D01*
X76333398Y-69643905D01*
X76333080Y-69643065D01*
X76332376Y-69644778D01*
G37*
G36*
X73683032Y-69648879D02*
G01*
X73681178Y-69654413D01*
X73678230Y-69663348D01*
X73674242Y-69675517D01*
X73669267Y-69690755D01*
X73663359Y-69708897D01*
X73656571Y-69729779D01*
X73648957Y-69753235D01*
X73640571Y-69779099D01*
X73631465Y-69807207D01*
X73621694Y-69837394D01*
X73611312Y-69869494D01*
X73600370Y-69903343D01*
X73588924Y-69938774D01*
X73577027Y-69975623D01*
X73564731Y-70013725D01*
X73552092Y-70052915D01*
X73543881Y-70078383D01*
X73405258Y-70508443D01*
X72951414Y-70507838D01*
X72904298Y-70507783D01*
X72859126Y-70507745D01*
X72816022Y-70507724D01*
X72775110Y-70507719D01*
X72736517Y-70507731D01*
X72700366Y-70507759D01*
X72666783Y-70507803D01*
X72635892Y-70507862D01*
X72607818Y-70507936D01*
X72582687Y-70508025D01*
X72560622Y-70508128D01*
X72541749Y-70508245D01*
X72526193Y-70508376D01*
X72514078Y-70508521D01*
X72505529Y-70508679D01*
X72500671Y-70508849D01*
X72499530Y-70508998D01*
X72501279Y-70510295D01*
X72506063Y-70513783D01*
X72513739Y-70519360D01*
X72524166Y-70526924D01*
X72537201Y-70536372D01*
X72552703Y-70547600D01*
X72570530Y-70560507D01*
X72590540Y-70574989D01*
X72612590Y-70590944D01*
X72636539Y-70608269D01*
X72662245Y-70626861D01*
X72689566Y-70646618D01*
X72718359Y-70667437D01*
X72748484Y-70689216D01*
X72779798Y-70711850D01*
X72812158Y-70735239D01*
X72845424Y-70759279D01*
X72862975Y-70771961D01*
X72896685Y-70796319D01*
X72929580Y-70820091D01*
X72961517Y-70843172D01*
X72992354Y-70865459D01*
X73021947Y-70886849D01*
X73050153Y-70907239D01*
X73076830Y-70926524D01*
X73101833Y-70944602D01*
X73125020Y-70961368D01*
X73146248Y-70976721D01*
X73165374Y-70990555D01*
X73182255Y-71002767D01*
X73196747Y-71013255D01*
X73208708Y-71021914D01*
X73217994Y-71028641D01*
X73224463Y-71033333D01*
X73227971Y-71035886D01*
X73228572Y-71036331D01*
X73229014Y-71036707D01*
X73229372Y-71037210D01*
X73229600Y-71037980D01*
X73229655Y-71039160D01*
X73229491Y-71040894D01*
X73229064Y-71043323D01*
X73228327Y-71046590D01*
X73227237Y-71050837D01*
X73225748Y-71056208D01*
X73223815Y-71062844D01*
X73221394Y-71070889D01*
X73218439Y-71080484D01*
X73214906Y-71091773D01*
X73210749Y-71104897D01*
X73205924Y-71119999D01*
X73200385Y-71137223D01*
X73194088Y-71156709D01*
X73186988Y-71178602D01*
X73179039Y-71203043D01*
X73170197Y-71230175D01*
X73160417Y-71260140D01*
X73149653Y-71293082D01*
X73137862Y-71329141D01*
X73124997Y-71368463D01*
X73111014Y-71411187D01*
X73095868Y-71457458D01*
X73091921Y-71469514D01*
X73078908Y-71509276D01*
X73066219Y-71548056D01*
X73053908Y-71585690D01*
X73042030Y-71622014D01*
X73030638Y-71656863D01*
X73019785Y-71690072D01*
X73009526Y-71721476D01*
X72999915Y-71750911D01*
X72991004Y-71778212D01*
X72982848Y-71803214D01*
X72975501Y-71825752D01*
X72969016Y-71845662D01*
X72963447Y-71862780D01*
X72958848Y-71876939D01*
X72955273Y-71887977D01*
X72952774Y-71895727D01*
X72951407Y-71900025D01*
X72951151Y-71900890D01*
X72952709Y-71899878D01*
X72957291Y-71896655D01*
X72964760Y-71891323D01*
X72974975Y-71883982D01*
X72987797Y-71874734D01*
X73003087Y-71863679D01*
X73020707Y-71850918D01*
X73040516Y-71836553D01*
X73062376Y-71820685D01*
X73086147Y-71803414D01*
X73111691Y-71784842D01*
X73138868Y-71765070D01*
X73167539Y-71744198D01*
X73197565Y-71722329D01*
X73228807Y-71699562D01*
X73261125Y-71675999D01*
X73294381Y-71651741D01*
X73317572Y-71634818D01*
X73684002Y-71367382D01*
X73690324Y-71371857D01*
X73692480Y-71373418D01*
X73697657Y-71377183D01*
X73705711Y-71383049D01*
X73716498Y-71390909D01*
X73729874Y-71400659D01*
X73745695Y-71412194D01*
X73763816Y-71425408D01*
X73784095Y-71440197D01*
X73806385Y-71456456D01*
X73830545Y-71474079D01*
X73856428Y-71492961D01*
X73883892Y-71512997D01*
X73912792Y-71534082D01*
X73942985Y-71556111D01*
X73974326Y-71578980D01*
X74006670Y-71602582D01*
X74039875Y-71626812D01*
X74055281Y-71638055D01*
X74088768Y-71662492D01*
X74121428Y-71686324D01*
X74153118Y-71709446D01*
X74183698Y-71731755D01*
X74213024Y-71753148D01*
X74240956Y-71773522D01*
X74267351Y-71792773D01*
X74292067Y-71810797D01*
X74314963Y-71827492D01*
X74335897Y-71842753D01*
X74354727Y-71856478D01*
X74371310Y-71868562D01*
X74385506Y-71878903D01*
X74397173Y-71887397D01*
X74406168Y-71893941D01*
X74412349Y-71898431D01*
X74415576Y-71900764D01*
X74416033Y-71901087D01*
X74416103Y-71899727D01*
X74415080Y-71895177D01*
X74413110Y-71887965D01*
X74410338Y-71878617D01*
X74406912Y-71867661D01*
X74405964Y-71864714D01*
X74404162Y-71859164D01*
X74401203Y-71850084D01*
X74397152Y-71837668D01*
X74392071Y-71822111D01*
X74386024Y-71803605D01*
X74379075Y-71782347D01*
X74371287Y-71758528D01*
X74362724Y-71732344D01*
X74353448Y-71703989D01*
X74343525Y-71673656D01*
X74333016Y-71641539D01*
X74321986Y-71607834D01*
X74310497Y-71572733D01*
X74298614Y-71536430D01*
X74286400Y-71499121D01*
X74273919Y-71460998D01*
X74264918Y-71433511D01*
X74249870Y-71387542D01*
X74236004Y-71345157D01*
X74223277Y-71306218D01*
X74211644Y-71270586D01*
X74201063Y-71238125D01*
X74191488Y-71208696D01*
X74182877Y-71182162D01*
X74175185Y-71158384D01*
X74168368Y-71137225D01*
X74162382Y-71118548D01*
X74157184Y-71102213D01*
X74152729Y-71088083D01*
X74148973Y-71076020D01*
X74145873Y-71065888D01*
X74143385Y-71057546D01*
X74141465Y-71050859D01*
X74140068Y-71045687D01*
X74139152Y-71041894D01*
X74138671Y-71039341D01*
X74138582Y-71037890D01*
X74138729Y-71037457D01*
X74140545Y-71036089D01*
X74145395Y-71032529D01*
X74153137Y-71026881D01*
X74163630Y-71019246D01*
X74176730Y-71009730D01*
X74192297Y-70998433D01*
X74210187Y-70985460D01*
X74230258Y-70970913D01*
X74252369Y-70954895D01*
X74276377Y-70937510D01*
X74302140Y-70918859D01*
X74329516Y-70899047D01*
X74358363Y-70878176D01*
X74388539Y-70856348D01*
X74419901Y-70833668D01*
X74452308Y-70810237D01*
X74485616Y-70786159D01*
X74503865Y-70772970D01*
X74537590Y-70748595D01*
X74570483Y-70724817D01*
X74602403Y-70701739D01*
X74633208Y-70679462D01*
X74662757Y-70658091D01*
X74690907Y-70637726D01*
X74717518Y-70618472D01*
X74742446Y-70600430D01*
X74765551Y-70583704D01*
X74786690Y-70568395D01*
X74805722Y-70554607D01*
X74822506Y-70542442D01*
X74836898Y-70532003D01*
X74848758Y-70523393D01*
X74857944Y-70516713D01*
X74864314Y-70512067D01*
X74867726Y-70509558D01*
X74868290Y-70509127D01*
X74866578Y-70508905D01*
X74860999Y-70508699D01*
X74851604Y-70508510D01*
X74838445Y-70508337D01*
X74821573Y-70508180D01*
X74801040Y-70508041D01*
X74776897Y-70507919D01*
X74749196Y-70507813D01*
X74717987Y-70507726D01*
X74683323Y-70507656D01*
X74645255Y-70507603D01*
X74603834Y-70507569D01*
X74559112Y-70507552D01*
X74511140Y-70507554D01*
X74459969Y-70507574D01*
X74416706Y-70507604D01*
X73963162Y-70507969D01*
X73824068Y-70076732D01*
X73811219Y-70036920D01*
X73798681Y-69998111D01*
X73786505Y-69960471D01*
X73774747Y-69924161D01*
X73763458Y-69889346D01*
X73752692Y-69856189D01*
X73742504Y-69824853D01*
X73732946Y-69795503D01*
X73724071Y-69768301D01*
X73715933Y-69743412D01*
X73708585Y-69720998D01*
X73702082Y-69701223D01*
X73696475Y-69684251D01*
X73691819Y-69670245D01*
X73688166Y-69659368D01*
X73685571Y-69651785D01*
X73684086Y-69647658D01*
X73683739Y-69646909D01*
X73683032Y-69648879D01*
G37*
D12*
X81002500Y-62393000D02*
X81002500Y-63793000D01*
X81702500Y-64493000D02*
X82302500Y-64493000D01*
X83002500Y-63793000D02*
X83002500Y-62393000D01*
X82302500Y-61693000D02*
X81702500Y-61693000D01*
X81002500Y-63793000D02*
G75*
G03*
X81702500Y-64493000I700000J0D01*
G01*
X82302500Y-64493000D02*
G75*
G03*
X83002500Y-63793000I0J700000D01*
G01*
X83002500Y-62393000D02*
G75*
G03*
X82302500Y-61693000I-700000J0D01*
G01*
X81702500Y-61693000D02*
G75*
G03*
X81002500Y-62393000I0J-700000D01*
G01*
X67702500Y-68243000D02*
X68302500Y-68243000D01*
X67002500Y-66143000D02*
X67002500Y-67543000D01*
X68302500Y-65443000D02*
X67702500Y-65443000D01*
X69002500Y-67543000D02*
X69002500Y-66143000D01*
X68302500Y-68243000D02*
G75*
G03*
X69002500Y-67543000I0J700000D01*
G01*
X67002500Y-67543000D02*
G75*
G03*
X67702500Y-68243000I700000J0D01*
G01*
X67702500Y-65443000D02*
G75*
G03*
X67002500Y-66143000I0J-700000D01*
G01*
X69002500Y-66143000D02*
G75*
G03*
X68302500Y-65443000I-700000J0D01*
G01*
X69002500Y-63793000D02*
X69002500Y-62393000D01*
X68302500Y-61693000D02*
X67702500Y-61693000D01*
X67002500Y-62393000D02*
X67002500Y-63793000D01*
X67702500Y-64493000D02*
X68302500Y-64493000D01*
X69002500Y-62393000D02*
G75*
G03*
X68302500Y-61693000I-700000J0D01*
G01*
X67702500Y-61693000D02*
G75*
G03*
X67002500Y-62393000I0J-700000D01*
G01*
X67002500Y-63793000D02*
G75*
G03*
X67702500Y-64493000I700000J0D01*
G01*
X68302500Y-64493000D02*
G75*
G03*
X69002500Y-63793000I0J700000D01*
G01*
X81702500Y-68243000D02*
X82302500Y-68243000D01*
X81002500Y-66143000D02*
X81002500Y-67543000D01*
X82302500Y-65443000D02*
X81702500Y-65443000D01*
X83002500Y-67543000D02*
X83002500Y-66143000D01*
X82302500Y-68243000D02*
G75*
G03*
X83002500Y-67543000I0J700000D01*
G01*
X81002500Y-67543000D02*
G75*
G03*
X81702500Y-68243000I700000J0D01*
G01*
X81702500Y-65443000D02*
G75*
G03*
X81002500Y-66143000I0J-700000D01*
G01*
X83002500Y-66143000D02*
G75*
G03*
X82302500Y-65443000I-700000J0D01*
G01*
D11*
X82531071Y-61414428D02*
X82531071Y-60814428D01*
X82388214Y-60814428D01*
X82302500Y-60843000D01*
X82245357Y-60900142D01*
X82216785Y-60957285D01*
X82188214Y-61071571D01*
X82188214Y-61157285D01*
X82216785Y-61271571D01*
X82245357Y-61328714D01*
X82302500Y-61385857D01*
X82388214Y-61414428D01*
X82531071Y-61414428D01*
X81931071Y-61185857D02*
X81473928Y-61185857D01*
X68431071Y-69114428D02*
X68431071Y-68514428D01*
X68288214Y-68514428D01*
X68202500Y-68543000D01*
X68145357Y-68600142D01*
X68116785Y-68657285D01*
X68088214Y-68771571D01*
X68088214Y-68857285D01*
X68116785Y-68971571D01*
X68145357Y-69028714D01*
X68202500Y-69085857D01*
X68288214Y-69114428D01*
X68431071Y-69114428D01*
X67831071Y-68885857D02*
X67373928Y-68885857D01*
X67602500Y-69114428D02*
X67602500Y-68657285D01*
X68802500Y-60814428D02*
X68602500Y-61414428D01*
X68402500Y-60814428D01*
X67859642Y-61357285D02*
X67888214Y-61385857D01*
X67973928Y-61414428D01*
X68031071Y-61414428D01*
X68116785Y-61385857D01*
X68173928Y-61328714D01*
X68202500Y-61271571D01*
X68231071Y-61157285D01*
X68231071Y-61071571D01*
X68202500Y-60957285D01*
X68173928Y-60900142D01*
X68116785Y-60843000D01*
X68031071Y-60814428D01*
X67973928Y-60814428D01*
X67888214Y-60843000D01*
X67859642Y-60871571D01*
X67259642Y-61357285D02*
X67288214Y-61385857D01*
X67373928Y-61414428D01*
X67431071Y-61414428D01*
X67516785Y-61385857D01*
X67573928Y-61328714D01*
X67602500Y-61271571D01*
X67631071Y-61157285D01*
X67631071Y-61071571D01*
X67602500Y-60957285D01*
X67573928Y-60900142D01*
X67516785Y-60843000D01*
X67431071Y-60814428D01*
X67373928Y-60814428D01*
X67288214Y-60843000D01*
X67259642Y-60871571D01*
X82459642Y-68493000D02*
X82516785Y-68464428D01*
X82602500Y-68464428D01*
X82688214Y-68493000D01*
X82745357Y-68550142D01*
X82773928Y-68607285D01*
X82802500Y-68721571D01*
X82802500Y-68807285D01*
X82773928Y-68921571D01*
X82745357Y-68978714D01*
X82688214Y-69035857D01*
X82602500Y-69064428D01*
X82545357Y-69064428D01*
X82459642Y-69035857D01*
X82431071Y-69007285D01*
X82431071Y-68807285D01*
X82545357Y-68807285D01*
X82173928Y-69064428D02*
X82173928Y-68464428D01*
X81831071Y-69064428D01*
X81831071Y-68464428D01*
X81545357Y-69064428D02*
X81545357Y-68464428D01*
X81402500Y-68464428D01*
X81316785Y-68493000D01*
X81259642Y-68550142D01*
X81231071Y-68607285D01*
X81202500Y-68721571D01*
X81202500Y-68807285D01*
X81231071Y-68921571D01*
X81259642Y-68978714D01*
X81316785Y-69035857D01*
X81402500Y-69064428D01*
X81545357Y-69064428D01*
%LPC*%
D13*
X82004500Y-71043000D03*
X68004500Y-71043000D03*
D14*
X82004500Y-58543000D03*
D13*
X68004500Y-58543000D03*
D15*
X70677500Y-59143000D03*
D16*
X72107500Y-62793000D03*
D15*
X79317500Y-59143000D03*
D16*
X77887500Y-62793000D03*
D17*
X79317500Y-63323000D03*
X70677500Y-63323000D03*
D11*
G36*
X81252500Y-62943000D02*
G01*
X81252500Y-62443000D01*
X81253102Y-62443000D01*
X81253102Y-62418466D01*
X81257912Y-62369635D01*
X81267484Y-62321510D01*
X81281728Y-62274555D01*
X81300505Y-62229222D01*
X81323636Y-62185949D01*
X81350896Y-62145150D01*
X81382024Y-62107221D01*
X81416721Y-62072524D01*
X81454650Y-62041396D01*
X81495449Y-62014136D01*
X81538722Y-61991005D01*
X81584055Y-61972228D01*
X81631010Y-61957984D01*
X81679135Y-61948412D01*
X81727966Y-61943602D01*
X81752500Y-61943602D01*
X81752500Y-61943000D01*
X82252500Y-61943000D01*
X82252500Y-61943602D01*
X82277034Y-61943602D01*
X82325865Y-61948412D01*
X82373990Y-61957984D01*
X82420945Y-61972228D01*
X82466278Y-61991005D01*
X82509551Y-62014136D01*
X82550350Y-62041396D01*
X82588279Y-62072524D01*
X82622976Y-62107221D01*
X82654104Y-62145150D01*
X82681364Y-62185949D01*
X82704495Y-62229222D01*
X82723272Y-62274555D01*
X82737516Y-62321510D01*
X82747088Y-62369635D01*
X82751898Y-62418466D01*
X82751898Y-62443000D01*
X82752500Y-62443000D01*
X82752500Y-62943000D01*
X81252500Y-62943000D01*
G37*
G36*
X82751898Y-63743000D02*
G01*
X82751898Y-63767534D01*
X82747088Y-63816365D01*
X82737516Y-63864490D01*
X82723272Y-63911445D01*
X82704495Y-63956778D01*
X82681364Y-64000051D01*
X82654104Y-64040850D01*
X82622976Y-64078779D01*
X82588279Y-64113476D01*
X82550350Y-64144604D01*
X82509551Y-64171864D01*
X82466278Y-64194995D01*
X82420945Y-64213772D01*
X82373990Y-64228016D01*
X82325865Y-64237588D01*
X82277034Y-64242398D01*
X82252500Y-64242398D01*
X82252500Y-64243000D01*
X81752500Y-64243000D01*
X81752500Y-64242398D01*
X81727966Y-64242398D01*
X81679135Y-64237588D01*
X81631010Y-64228016D01*
X81584055Y-64213772D01*
X81538722Y-64194995D01*
X81495449Y-64171864D01*
X81454650Y-64144604D01*
X81416721Y-64113476D01*
X81382024Y-64078779D01*
X81350896Y-64040850D01*
X81323636Y-64000051D01*
X81300505Y-63956778D01*
X81281728Y-63911445D01*
X81267484Y-63864490D01*
X81257912Y-63816365D01*
X81253102Y-63767534D01*
X81253102Y-63743000D01*
X81252500Y-63743000D01*
X81252500Y-63243000D01*
X82752500Y-63243000D01*
X82752500Y-63743000D01*
X82751898Y-63743000D01*
G37*
G36*
X67253102Y-66193000D02*
G01*
X67253102Y-66168466D01*
X67257912Y-66119635D01*
X67267484Y-66071510D01*
X67281728Y-66024555D01*
X67300505Y-65979222D01*
X67323636Y-65935949D01*
X67350896Y-65895150D01*
X67382024Y-65857221D01*
X67416721Y-65822524D01*
X67454650Y-65791396D01*
X67495449Y-65764136D01*
X67538722Y-65741005D01*
X67584055Y-65722228D01*
X67631010Y-65707984D01*
X67679135Y-65698412D01*
X67727966Y-65693602D01*
X67752500Y-65693602D01*
X67752500Y-65693000D01*
X68252500Y-65693000D01*
X68252500Y-65693602D01*
X68277034Y-65693602D01*
X68325865Y-65698412D01*
X68373990Y-65707984D01*
X68420945Y-65722228D01*
X68466278Y-65741005D01*
X68509551Y-65764136D01*
X68550350Y-65791396D01*
X68588279Y-65822524D01*
X68622976Y-65857221D01*
X68654104Y-65895150D01*
X68681364Y-65935949D01*
X68704495Y-65979222D01*
X68723272Y-66024555D01*
X68737516Y-66071510D01*
X68747088Y-66119635D01*
X68751898Y-66168466D01*
X68751898Y-66193000D01*
X68752500Y-66193000D01*
X68752500Y-66693000D01*
X67252500Y-66693000D01*
X67252500Y-66193000D01*
X67253102Y-66193000D01*
G37*
G36*
X68752500Y-66993000D02*
G01*
X68752500Y-67493000D01*
X68751898Y-67493000D01*
X68751898Y-67517534D01*
X68747088Y-67566365D01*
X68737516Y-67614490D01*
X68723272Y-67661445D01*
X68704495Y-67706778D01*
X68681364Y-67750051D01*
X68654104Y-67790850D01*
X68622976Y-67828779D01*
X68588279Y-67863476D01*
X68550350Y-67894604D01*
X68509551Y-67921864D01*
X68466278Y-67944995D01*
X68420945Y-67963772D01*
X68373990Y-67978016D01*
X68325865Y-67987588D01*
X68277034Y-67992398D01*
X68252500Y-67992398D01*
X68252500Y-67993000D01*
X67752500Y-67993000D01*
X67752500Y-67992398D01*
X67727966Y-67992398D01*
X67679135Y-67987588D01*
X67631010Y-67978016D01*
X67584055Y-67963772D01*
X67538722Y-67944995D01*
X67495449Y-67921864D01*
X67454650Y-67894604D01*
X67416721Y-67863476D01*
X67382024Y-67828779D01*
X67350896Y-67790850D01*
X67323636Y-67750051D01*
X67300505Y-67706778D01*
X67281728Y-67661445D01*
X67267484Y-67614490D01*
X67257912Y-67566365D01*
X67253102Y-67517534D01*
X67253102Y-67493000D01*
X67252500Y-67493000D01*
X67252500Y-66993000D01*
X68752500Y-66993000D01*
G37*
G36*
X68752500Y-63243000D02*
G01*
X68752500Y-63743000D01*
X68751898Y-63743000D01*
X68751898Y-63767534D01*
X68747088Y-63816365D01*
X68737516Y-63864490D01*
X68723272Y-63911445D01*
X68704495Y-63956778D01*
X68681364Y-64000051D01*
X68654104Y-64040850D01*
X68622976Y-64078779D01*
X68588279Y-64113476D01*
X68550350Y-64144604D01*
X68509551Y-64171864D01*
X68466278Y-64194995D01*
X68420945Y-64213772D01*
X68373990Y-64228016D01*
X68325865Y-64237588D01*
X68277034Y-64242398D01*
X68252500Y-64242398D01*
X68252500Y-64243000D01*
X67752500Y-64243000D01*
X67752500Y-64242398D01*
X67727966Y-64242398D01*
X67679135Y-64237588D01*
X67631010Y-64228016D01*
X67584055Y-64213772D01*
X67538722Y-64194995D01*
X67495449Y-64171864D01*
X67454650Y-64144604D01*
X67416721Y-64113476D01*
X67382024Y-64078779D01*
X67350896Y-64040850D01*
X67323636Y-64000051D01*
X67300505Y-63956778D01*
X67281728Y-63911445D01*
X67267484Y-63864490D01*
X67257912Y-63816365D01*
X67253102Y-63767534D01*
X67253102Y-63743000D01*
X67252500Y-63743000D01*
X67252500Y-63243000D01*
X68752500Y-63243000D01*
G37*
G36*
X67253102Y-62443000D02*
G01*
X67253102Y-62418466D01*
X67257912Y-62369635D01*
X67267484Y-62321510D01*
X67281728Y-62274555D01*
X67300505Y-62229222D01*
X67323636Y-62185949D01*
X67350896Y-62145150D01*
X67382024Y-62107221D01*
X67416721Y-62072524D01*
X67454650Y-62041396D01*
X67495449Y-62014136D01*
X67538722Y-61991005D01*
X67584055Y-61972228D01*
X67631010Y-61957984D01*
X67679135Y-61948412D01*
X67727966Y-61943602D01*
X67752500Y-61943602D01*
X67752500Y-61943000D01*
X68252500Y-61943000D01*
X68252500Y-61943602D01*
X68277034Y-61943602D01*
X68325865Y-61948412D01*
X68373990Y-61957984D01*
X68420945Y-61972228D01*
X68466278Y-61991005D01*
X68509551Y-62014136D01*
X68550350Y-62041396D01*
X68588279Y-62072524D01*
X68622976Y-62107221D01*
X68654104Y-62145150D01*
X68681364Y-62185949D01*
X68704495Y-62229222D01*
X68723272Y-62274555D01*
X68737516Y-62321510D01*
X68747088Y-62369635D01*
X68751898Y-62418466D01*
X68751898Y-62443000D01*
X68752500Y-62443000D01*
X68752500Y-62943000D01*
X67252500Y-62943000D01*
X67252500Y-62443000D01*
X67253102Y-62443000D01*
G37*
G36*
X81253102Y-66193000D02*
G01*
X81253102Y-66168466D01*
X81257912Y-66119635D01*
X81267484Y-66071510D01*
X81281728Y-66024555D01*
X81300505Y-65979222D01*
X81323636Y-65935949D01*
X81350896Y-65895150D01*
X81382024Y-65857221D01*
X81416721Y-65822524D01*
X81454650Y-65791396D01*
X81495449Y-65764136D01*
X81538722Y-65741005D01*
X81584055Y-65722228D01*
X81631010Y-65707984D01*
X81679135Y-65698412D01*
X81727966Y-65693602D01*
X81752500Y-65693602D01*
X81752500Y-65693000D01*
X82252500Y-65693000D01*
X82252500Y-65693602D01*
X82277034Y-65693602D01*
X82325865Y-65698412D01*
X82373990Y-65707984D01*
X82420945Y-65722228D01*
X82466278Y-65741005D01*
X82509551Y-65764136D01*
X82550350Y-65791396D01*
X82588279Y-65822524D01*
X82622976Y-65857221D01*
X82654104Y-65895150D01*
X82681364Y-65935949D01*
X82704495Y-65979222D01*
X82723272Y-66024555D01*
X82737516Y-66071510D01*
X82747088Y-66119635D01*
X82751898Y-66168466D01*
X82751898Y-66193000D01*
X82752500Y-66193000D01*
X82752500Y-66693000D01*
X81252500Y-66693000D01*
X81252500Y-66193000D01*
X81253102Y-66193000D01*
G37*
G36*
X82752500Y-66993000D02*
G01*
X82752500Y-67493000D01*
X82751898Y-67493000D01*
X82751898Y-67517534D01*
X82747088Y-67566365D01*
X82737516Y-67614490D01*
X82723272Y-67661445D01*
X82704495Y-67706778D01*
X82681364Y-67750051D01*
X82654104Y-67790850D01*
X82622976Y-67828779D01*
X82588279Y-67863476D01*
X82550350Y-67894604D01*
X82509551Y-67921864D01*
X82466278Y-67944995D01*
X82420945Y-67963772D01*
X82373990Y-67978016D01*
X82325865Y-67987588D01*
X82277034Y-67992398D01*
X82252500Y-67992398D01*
X82252500Y-67993000D01*
X81752500Y-67993000D01*
X81752500Y-67992398D01*
X81727966Y-67992398D01*
X81679135Y-67987588D01*
X81631010Y-67978016D01*
X81584055Y-67963772D01*
X81538722Y-67944995D01*
X81495449Y-67921864D01*
X81454650Y-67894604D01*
X81416721Y-67863476D01*
X81382024Y-67828779D01*
X81350896Y-67790850D01*
X81323636Y-67750051D01*
X81300505Y-67706778D01*
X81281728Y-67661445D01*
X81267484Y-67614490D01*
X81257912Y-67566365D01*
X81253102Y-67517534D01*
X81253102Y-67493000D01*
X81252500Y-67493000D01*
X81252500Y-66993000D01*
X82752500Y-66993000D01*
G37*
M02*
