G04 #@! TF.GenerationSoftware,KiCad,Pcbnew,(5.1.10-1-10_14)*
G04 #@! TF.CreationDate,2021-11-29T20:50:22+01:00*
G04 #@! TF.ProjectId,Unified-Daughterboard,556e6966-6965-4642-9d44-617567687465,C3*
G04 #@! TF.SameCoordinates,Original*
G04 #@! TF.FileFunction,Copper,L2,Bot*
G04 #@! TF.FilePolarity,Positive*
%FSLAX46Y46*%
G04 Gerber Fmt 4.6, Leading zero omitted, Abs format (unit mm)*
G04 Created by KiCad (PCBNEW (5.1.10-1-10_14)) date 2021-11-29 20:50:22*
%MOMM*%
%LPD*%
G01*
G04 APERTURE LIST*
G04 #@! TA.AperFunction,ComponentPad*
%ADD10C,2.600000*%
G04 #@! TD*
G04 #@! TA.AperFunction,ComponentPad*
%ADD11C,3.500000*%
G04 #@! TD*
G04 #@! TA.AperFunction,ComponentPad*
%ADD12O,1.000000X1.600000*%
G04 #@! TD*
G04 #@! TA.AperFunction,ComponentPad*
%ADD13O,1.000000X2.100000*%
G04 #@! TD*
G04 #@! TA.AperFunction,SMDPad,CuDef*
%ADD14C,0.100000*%
G04 #@! TD*
G04 #@! TA.AperFunction,ViaPad*
%ADD15C,0.800000*%
G04 #@! TD*
G04 #@! TA.AperFunction,Conductor*
%ADD16C,0.508000*%
G04 #@! TD*
G04 #@! TA.AperFunction,Conductor*
%ADD17C,0.254000*%
G04 #@! TD*
G04 #@! TA.AperFunction,Conductor*
%ADD18C,0.152400*%
G04 #@! TD*
G04 #@! TA.AperFunction,Conductor*
%ADD19C,0.100000*%
G04 #@! TD*
G04 APERTURE END LIST*
D10*
X82004500Y-71043000D03*
X68004500Y-71043000D03*
D11*
X82004500Y-58543000D03*
D10*
X68004500Y-58543000D03*
D12*
X70677500Y-59143000D03*
X79317500Y-59143000D03*
D13*
X79317500Y-63323000D03*
X70677500Y-63323000D03*
G04 #@! TA.AperFunction,SMDPad,CuDef*
D14*
G36*
X81252500Y-62943000D02*
G01*
X81252500Y-62443000D01*
X81253102Y-62443000D01*
X81253102Y-62418466D01*
X81257912Y-62369635D01*
X81267484Y-62321510D01*
X81281728Y-62274555D01*
X81300505Y-62229222D01*
X81323636Y-62185949D01*
X81350896Y-62145150D01*
X81382024Y-62107221D01*
X81416721Y-62072524D01*
X81454650Y-62041396D01*
X81495449Y-62014136D01*
X81538722Y-61991005D01*
X81584055Y-61972228D01*
X81631010Y-61957984D01*
X81679135Y-61948412D01*
X81727966Y-61943602D01*
X81752500Y-61943602D01*
X81752500Y-61943000D01*
X82252500Y-61943000D01*
X82252500Y-61943602D01*
X82277034Y-61943602D01*
X82325865Y-61948412D01*
X82373990Y-61957984D01*
X82420945Y-61972228D01*
X82466278Y-61991005D01*
X82509551Y-62014136D01*
X82550350Y-62041396D01*
X82588279Y-62072524D01*
X82622976Y-62107221D01*
X82654104Y-62145150D01*
X82681364Y-62185949D01*
X82704495Y-62229222D01*
X82723272Y-62274555D01*
X82737516Y-62321510D01*
X82747088Y-62369635D01*
X82751898Y-62418466D01*
X82751898Y-62443000D01*
X82752500Y-62443000D01*
X82752500Y-62943000D01*
X81252500Y-62943000D01*
G37*
G04 #@! TD.AperFunction*
G04 #@! TA.AperFunction,SMDPad,CuDef*
G36*
X82751898Y-63743000D02*
G01*
X82751898Y-63767534D01*
X82747088Y-63816365D01*
X82737516Y-63864490D01*
X82723272Y-63911445D01*
X82704495Y-63956778D01*
X82681364Y-64000051D01*
X82654104Y-64040850D01*
X82622976Y-64078779D01*
X82588279Y-64113476D01*
X82550350Y-64144604D01*
X82509551Y-64171864D01*
X82466278Y-64194995D01*
X82420945Y-64213772D01*
X82373990Y-64228016D01*
X82325865Y-64237588D01*
X82277034Y-64242398D01*
X82252500Y-64242398D01*
X82252500Y-64243000D01*
X81752500Y-64243000D01*
X81752500Y-64242398D01*
X81727966Y-64242398D01*
X81679135Y-64237588D01*
X81631010Y-64228016D01*
X81584055Y-64213772D01*
X81538722Y-64194995D01*
X81495449Y-64171864D01*
X81454650Y-64144604D01*
X81416721Y-64113476D01*
X81382024Y-64078779D01*
X81350896Y-64040850D01*
X81323636Y-64000051D01*
X81300505Y-63956778D01*
X81281728Y-63911445D01*
X81267484Y-63864490D01*
X81257912Y-63816365D01*
X81253102Y-63767534D01*
X81253102Y-63743000D01*
X81252500Y-63743000D01*
X81252500Y-63243000D01*
X82752500Y-63243000D01*
X82752500Y-63743000D01*
X82751898Y-63743000D01*
G37*
G04 #@! TD.AperFunction*
G04 #@! TA.AperFunction,SMDPad,CuDef*
G36*
X67253102Y-66193000D02*
G01*
X67253102Y-66168466D01*
X67257912Y-66119635D01*
X67267484Y-66071510D01*
X67281728Y-66024555D01*
X67300505Y-65979222D01*
X67323636Y-65935949D01*
X67350896Y-65895150D01*
X67382024Y-65857221D01*
X67416721Y-65822524D01*
X67454650Y-65791396D01*
X67495449Y-65764136D01*
X67538722Y-65741005D01*
X67584055Y-65722228D01*
X67631010Y-65707984D01*
X67679135Y-65698412D01*
X67727966Y-65693602D01*
X67752500Y-65693602D01*
X67752500Y-65693000D01*
X68252500Y-65693000D01*
X68252500Y-65693602D01*
X68277034Y-65693602D01*
X68325865Y-65698412D01*
X68373990Y-65707984D01*
X68420945Y-65722228D01*
X68466278Y-65741005D01*
X68509551Y-65764136D01*
X68550350Y-65791396D01*
X68588279Y-65822524D01*
X68622976Y-65857221D01*
X68654104Y-65895150D01*
X68681364Y-65935949D01*
X68704495Y-65979222D01*
X68723272Y-66024555D01*
X68737516Y-66071510D01*
X68747088Y-66119635D01*
X68751898Y-66168466D01*
X68751898Y-66193000D01*
X68752500Y-66193000D01*
X68752500Y-66693000D01*
X67252500Y-66693000D01*
X67252500Y-66193000D01*
X67253102Y-66193000D01*
G37*
G04 #@! TD.AperFunction*
G04 #@! TA.AperFunction,SMDPad,CuDef*
G36*
X68752500Y-66993000D02*
G01*
X68752500Y-67493000D01*
X68751898Y-67493000D01*
X68751898Y-67517534D01*
X68747088Y-67566365D01*
X68737516Y-67614490D01*
X68723272Y-67661445D01*
X68704495Y-67706778D01*
X68681364Y-67750051D01*
X68654104Y-67790850D01*
X68622976Y-67828779D01*
X68588279Y-67863476D01*
X68550350Y-67894604D01*
X68509551Y-67921864D01*
X68466278Y-67944995D01*
X68420945Y-67963772D01*
X68373990Y-67978016D01*
X68325865Y-67987588D01*
X68277034Y-67992398D01*
X68252500Y-67992398D01*
X68252500Y-67993000D01*
X67752500Y-67993000D01*
X67752500Y-67992398D01*
X67727966Y-67992398D01*
X67679135Y-67987588D01*
X67631010Y-67978016D01*
X67584055Y-67963772D01*
X67538722Y-67944995D01*
X67495449Y-67921864D01*
X67454650Y-67894604D01*
X67416721Y-67863476D01*
X67382024Y-67828779D01*
X67350896Y-67790850D01*
X67323636Y-67750051D01*
X67300505Y-67706778D01*
X67281728Y-67661445D01*
X67267484Y-67614490D01*
X67257912Y-67566365D01*
X67253102Y-67517534D01*
X67253102Y-67493000D01*
X67252500Y-67493000D01*
X67252500Y-66993000D01*
X68752500Y-66993000D01*
G37*
G04 #@! TD.AperFunction*
G04 #@! TA.AperFunction,SMDPad,CuDef*
G36*
X68752500Y-63243000D02*
G01*
X68752500Y-63743000D01*
X68751898Y-63743000D01*
X68751898Y-63767534D01*
X68747088Y-63816365D01*
X68737516Y-63864490D01*
X68723272Y-63911445D01*
X68704495Y-63956778D01*
X68681364Y-64000051D01*
X68654104Y-64040850D01*
X68622976Y-64078779D01*
X68588279Y-64113476D01*
X68550350Y-64144604D01*
X68509551Y-64171864D01*
X68466278Y-64194995D01*
X68420945Y-64213772D01*
X68373990Y-64228016D01*
X68325865Y-64237588D01*
X68277034Y-64242398D01*
X68252500Y-64242398D01*
X68252500Y-64243000D01*
X67752500Y-64243000D01*
X67752500Y-64242398D01*
X67727966Y-64242398D01*
X67679135Y-64237588D01*
X67631010Y-64228016D01*
X67584055Y-64213772D01*
X67538722Y-64194995D01*
X67495449Y-64171864D01*
X67454650Y-64144604D01*
X67416721Y-64113476D01*
X67382024Y-64078779D01*
X67350896Y-64040850D01*
X67323636Y-64000051D01*
X67300505Y-63956778D01*
X67281728Y-63911445D01*
X67267484Y-63864490D01*
X67257912Y-63816365D01*
X67253102Y-63767534D01*
X67253102Y-63743000D01*
X67252500Y-63743000D01*
X67252500Y-63243000D01*
X68752500Y-63243000D01*
G37*
G04 #@! TD.AperFunction*
G04 #@! TA.AperFunction,SMDPad,CuDef*
G36*
X67253102Y-62443000D02*
G01*
X67253102Y-62418466D01*
X67257912Y-62369635D01*
X67267484Y-62321510D01*
X67281728Y-62274555D01*
X67300505Y-62229222D01*
X67323636Y-62185949D01*
X67350896Y-62145150D01*
X67382024Y-62107221D01*
X67416721Y-62072524D01*
X67454650Y-62041396D01*
X67495449Y-62014136D01*
X67538722Y-61991005D01*
X67584055Y-61972228D01*
X67631010Y-61957984D01*
X67679135Y-61948412D01*
X67727966Y-61943602D01*
X67752500Y-61943602D01*
X67752500Y-61943000D01*
X68252500Y-61943000D01*
X68252500Y-61943602D01*
X68277034Y-61943602D01*
X68325865Y-61948412D01*
X68373990Y-61957984D01*
X68420945Y-61972228D01*
X68466278Y-61991005D01*
X68509551Y-62014136D01*
X68550350Y-62041396D01*
X68588279Y-62072524D01*
X68622976Y-62107221D01*
X68654104Y-62145150D01*
X68681364Y-62185949D01*
X68704495Y-62229222D01*
X68723272Y-62274555D01*
X68737516Y-62321510D01*
X68747088Y-62369635D01*
X68751898Y-62418466D01*
X68751898Y-62443000D01*
X68752500Y-62443000D01*
X68752500Y-62943000D01*
X67252500Y-62943000D01*
X67252500Y-62443000D01*
X67253102Y-62443000D01*
G37*
G04 #@! TD.AperFunction*
G04 #@! TA.AperFunction,SMDPad,CuDef*
G36*
X81253102Y-66193000D02*
G01*
X81253102Y-66168466D01*
X81257912Y-66119635D01*
X81267484Y-66071510D01*
X81281728Y-66024555D01*
X81300505Y-65979222D01*
X81323636Y-65935949D01*
X81350896Y-65895150D01*
X81382024Y-65857221D01*
X81416721Y-65822524D01*
X81454650Y-65791396D01*
X81495449Y-65764136D01*
X81538722Y-65741005D01*
X81584055Y-65722228D01*
X81631010Y-65707984D01*
X81679135Y-65698412D01*
X81727966Y-65693602D01*
X81752500Y-65693602D01*
X81752500Y-65693000D01*
X82252500Y-65693000D01*
X82252500Y-65693602D01*
X82277034Y-65693602D01*
X82325865Y-65698412D01*
X82373990Y-65707984D01*
X82420945Y-65722228D01*
X82466278Y-65741005D01*
X82509551Y-65764136D01*
X82550350Y-65791396D01*
X82588279Y-65822524D01*
X82622976Y-65857221D01*
X82654104Y-65895150D01*
X82681364Y-65935949D01*
X82704495Y-65979222D01*
X82723272Y-66024555D01*
X82737516Y-66071510D01*
X82747088Y-66119635D01*
X82751898Y-66168466D01*
X82751898Y-66193000D01*
X82752500Y-66193000D01*
X82752500Y-66693000D01*
X81252500Y-66693000D01*
X81252500Y-66193000D01*
X81253102Y-66193000D01*
G37*
G04 #@! TD.AperFunction*
G04 #@! TA.AperFunction,SMDPad,CuDef*
G36*
X82752500Y-66993000D02*
G01*
X82752500Y-67493000D01*
X82751898Y-67493000D01*
X82751898Y-67517534D01*
X82747088Y-67566365D01*
X82737516Y-67614490D01*
X82723272Y-67661445D01*
X82704495Y-67706778D01*
X82681364Y-67750051D01*
X82654104Y-67790850D01*
X82622976Y-67828779D01*
X82588279Y-67863476D01*
X82550350Y-67894604D01*
X82509551Y-67921864D01*
X82466278Y-67944995D01*
X82420945Y-67963772D01*
X82373990Y-67978016D01*
X82325865Y-67987588D01*
X82277034Y-67992398D01*
X82252500Y-67992398D01*
X82252500Y-67993000D01*
X81752500Y-67993000D01*
X81752500Y-67992398D01*
X81727966Y-67992398D01*
X81679135Y-67987588D01*
X81631010Y-67978016D01*
X81584055Y-67963772D01*
X81538722Y-67944995D01*
X81495449Y-67921864D01*
X81454650Y-67894604D01*
X81416721Y-67863476D01*
X81382024Y-67828779D01*
X81350896Y-67790850D01*
X81323636Y-67750051D01*
X81300505Y-67706778D01*
X81281728Y-67661445D01*
X81267484Y-67614490D01*
X81257912Y-67566365D01*
X81253102Y-67517534D01*
X81253102Y-67493000D01*
X81252500Y-67493000D01*
X81252500Y-66993000D01*
X82752500Y-66993000D01*
G37*
G04 #@! TD.AperFunction*
D15*
X80502504Y-64967998D03*
X78511604Y-68009588D03*
X69502500Y-64343000D03*
X81309534Y-67268000D03*
X72252500Y-69843000D03*
X72552500Y-65518000D03*
X77447445Y-65514155D03*
X77452500Y-67203178D03*
X74077500Y-66299000D03*
X77502500Y-69343000D03*
X80502500Y-63843000D03*
X80002500Y-69843000D03*
X75502504Y-69092996D03*
D16*
X80777498Y-64967998D02*
X80502504Y-64967998D01*
X82002500Y-66193000D02*
X80777498Y-64967998D01*
X80502504Y-64967998D02*
X78511604Y-66958898D01*
X78511604Y-66958898D02*
X78511604Y-68009588D01*
X68002500Y-62443000D02*
X68750092Y-62443000D01*
X68750092Y-62443000D02*
X69502500Y-63195408D01*
X69502500Y-63195408D02*
X69502500Y-64343000D01*
X79317500Y-62678000D02*
X79322500Y-62673000D01*
X79317500Y-63323000D02*
X79317500Y-62678000D01*
D17*
X81534534Y-67493000D02*
X81309534Y-67268000D01*
X82002500Y-67493000D02*
X81534534Y-67493000D01*
D16*
X68002500Y-64343000D02*
X68002500Y-63743000D01*
X69177500Y-65518000D02*
X68002500Y-64343000D01*
X72552500Y-65518000D02*
X69177500Y-65518000D01*
X77452500Y-67203178D02*
X77452500Y-65519210D01*
X77452500Y-65519210D02*
X77447445Y-65514155D01*
X77443600Y-65518000D02*
X77447445Y-65514155D01*
X72552500Y-65518000D02*
X77443600Y-65518000D01*
D17*
X68108500Y-66299000D02*
X68002500Y-66193000D01*
X74077500Y-66299000D02*
X68108500Y-66299000D01*
X77121500Y-69343000D02*
X77502500Y-69343000D01*
X74077500Y-66299000D02*
X77121500Y-69343000D01*
X81902500Y-63843000D02*
X82002500Y-63743000D01*
X80502500Y-63843000D02*
X81902500Y-63843000D01*
X83031910Y-62724818D02*
X83031910Y-67776518D01*
X82002500Y-62443000D02*
X82750092Y-62443000D01*
X82750092Y-62443000D02*
X83031910Y-62724818D01*
X83031910Y-67776518D02*
X80965428Y-69843000D01*
X80965428Y-69843000D02*
X80002500Y-69843000D01*
X69502500Y-69093000D02*
X75502500Y-69093000D01*
X68002500Y-67593000D02*
X69502500Y-69093000D01*
X75502500Y-69093000D02*
X75502504Y-69092996D01*
X68002500Y-67493000D02*
X68002500Y-67593000D01*
D18*
X80580072Y-56867124D02*
X82004500Y-58291553D01*
X83064929Y-57231123D01*
X83198814Y-57340317D01*
X83316443Y-57482505D01*
X82255947Y-58543000D01*
X83680376Y-59967428D01*
X83700900Y-59955039D01*
X83700901Y-71028142D01*
X83667164Y-71372219D01*
X83571554Y-71688893D01*
X83416253Y-71980969D01*
X83207183Y-72237314D01*
X82952298Y-72448174D01*
X82661318Y-72605506D01*
X82345315Y-72703325D01*
X82002084Y-72739400D01*
X68019348Y-72739400D01*
X67675281Y-72705664D01*
X67358607Y-72610054D01*
X67066531Y-72454753D01*
X66810186Y-72245683D01*
X66599326Y-71990798D01*
X66441994Y-71699818D01*
X66344175Y-71383815D01*
X66308100Y-71040584D01*
X66308100Y-70892446D01*
X66475900Y-70892446D01*
X66475900Y-71193554D01*
X66534643Y-71488876D01*
X66649872Y-71767064D01*
X66817159Y-72017426D01*
X67030074Y-72230341D01*
X67280436Y-72397628D01*
X67558624Y-72512857D01*
X67853946Y-72571600D01*
X68155054Y-72571600D01*
X68450376Y-72512857D01*
X68728564Y-72397628D01*
X68978926Y-72230341D01*
X69191841Y-72017426D01*
X69359128Y-71767064D01*
X69474357Y-71488876D01*
X69533100Y-71193554D01*
X69533100Y-70892446D01*
X69474357Y-70597124D01*
X69359128Y-70318936D01*
X69191841Y-70068574D01*
X68978926Y-69855659D01*
X68728564Y-69688372D01*
X68450376Y-69573143D01*
X68155054Y-69514400D01*
X67853946Y-69514400D01*
X67558624Y-69573143D01*
X67280436Y-69688372D01*
X67030074Y-69855659D01*
X66817159Y-70068574D01*
X66649872Y-70318936D01*
X66534643Y-70597124D01*
X66475900Y-70892446D01*
X66308100Y-70892446D01*
X66308100Y-62443000D01*
X67022794Y-62443000D01*
X67022794Y-62943000D01*
X67027208Y-62987813D01*
X67040279Y-63030905D01*
X67061506Y-63070618D01*
X67079874Y-63093000D01*
X67061506Y-63115382D01*
X67040279Y-63155095D01*
X67027208Y-63198187D01*
X67022794Y-63243000D01*
X67022794Y-63743000D01*
X67025202Y-63767447D01*
X67025202Y-63792009D01*
X67029616Y-63836822D01*
X67048738Y-63932955D01*
X67061809Y-63976046D01*
X67099318Y-64066602D01*
X67120546Y-64106316D01*
X67175002Y-64187815D01*
X67203568Y-64222624D01*
X67272876Y-64291932D01*
X67307685Y-64320498D01*
X67389184Y-64374954D01*
X67428898Y-64396182D01*
X67519454Y-64433691D01*
X67526714Y-64435893D01*
X67526883Y-64437605D01*
X67554478Y-64528576D01*
X67599291Y-64612415D01*
X67659599Y-64685901D01*
X67678018Y-64701017D01*
X68476594Y-65499593D01*
X68442455Y-65489238D01*
X68346322Y-65470116D01*
X68301509Y-65465702D01*
X68276947Y-65465702D01*
X68252500Y-65463294D01*
X67752500Y-65463294D01*
X67728053Y-65465702D01*
X67703491Y-65465702D01*
X67658678Y-65470116D01*
X67562545Y-65489238D01*
X67519454Y-65502309D01*
X67428898Y-65539818D01*
X67389184Y-65561046D01*
X67307685Y-65615502D01*
X67272876Y-65644068D01*
X67203568Y-65713376D01*
X67175002Y-65748185D01*
X67120546Y-65829684D01*
X67099318Y-65869398D01*
X67061809Y-65959954D01*
X67048738Y-66003045D01*
X67029616Y-66099178D01*
X67025202Y-66143991D01*
X67025202Y-66168553D01*
X67022794Y-66193000D01*
X67022794Y-66693000D01*
X67027208Y-66737813D01*
X67040279Y-66780905D01*
X67061506Y-66820618D01*
X67079874Y-66843000D01*
X67061506Y-66865382D01*
X67040279Y-66905095D01*
X67027208Y-66948187D01*
X67022794Y-66993000D01*
X67022794Y-67493000D01*
X67025202Y-67517447D01*
X67025202Y-67542009D01*
X67029616Y-67586822D01*
X67048738Y-67682955D01*
X67061809Y-67726046D01*
X67099318Y-67816602D01*
X67120546Y-67856316D01*
X67175002Y-67937815D01*
X67203568Y-67972624D01*
X67272876Y-68041932D01*
X67307685Y-68070498D01*
X67389184Y-68124954D01*
X67428898Y-68146182D01*
X67519454Y-68183691D01*
X67562545Y-68196762D01*
X67658678Y-68215884D01*
X67703491Y-68220298D01*
X67728053Y-68220298D01*
X67752500Y-68222706D01*
X68129312Y-68222706D01*
X69238710Y-69332105D01*
X69249837Y-69345663D01*
X69263395Y-69356790D01*
X69263400Y-69356795D01*
X69297578Y-69384844D01*
X69303984Y-69390101D01*
X69365760Y-69423121D01*
X69432790Y-69443454D01*
X69485037Y-69448600D01*
X69485046Y-69448600D01*
X69502499Y-69450319D01*
X69519952Y-69448600D01*
X74984100Y-69448600D01*
X75014238Y-69493705D01*
X75101795Y-69581262D01*
X75204750Y-69650055D01*
X75319148Y-69697440D01*
X75440592Y-69721596D01*
X75564416Y-69721596D01*
X75685860Y-69697440D01*
X75800258Y-69650055D01*
X75903213Y-69581262D01*
X75990770Y-69493705D01*
X76059563Y-69390750D01*
X76106948Y-69276352D01*
X76131104Y-69154908D01*
X76131104Y-69031084D01*
X76106948Y-68909640D01*
X76059563Y-68795242D01*
X76036839Y-68761233D01*
X76857710Y-69582105D01*
X76868837Y-69595663D01*
X76882395Y-69606790D01*
X76882400Y-69606795D01*
X76916578Y-69634844D01*
X76922984Y-69640101D01*
X76957239Y-69658411D01*
X77014234Y-69743709D01*
X77101791Y-69831266D01*
X77204746Y-69900059D01*
X77319144Y-69947444D01*
X77440588Y-69971600D01*
X77564412Y-69971600D01*
X77685856Y-69947444D01*
X77800254Y-69900059D01*
X77903209Y-69831266D01*
X77990766Y-69743709D01*
X78059559Y-69640754D01*
X78106944Y-69526356D01*
X78131100Y-69404912D01*
X78131100Y-69281088D01*
X78106944Y-69159644D01*
X78059559Y-69045246D01*
X77990766Y-68942291D01*
X77903209Y-68854734D01*
X77800254Y-68785941D01*
X77685856Y-68738556D01*
X77564412Y-68714400D01*
X77440588Y-68714400D01*
X77319144Y-68738556D01*
X77204746Y-68785941D01*
X77122375Y-68840980D01*
X74695516Y-66414123D01*
X74706100Y-66360912D01*
X74706100Y-66237088D01*
X74681944Y-66115644D01*
X74634559Y-66001246D01*
X74634127Y-66000600D01*
X76969901Y-66000600D01*
X76969900Y-66796803D01*
X76964234Y-66802469D01*
X76895441Y-66905424D01*
X76848056Y-67019822D01*
X76823900Y-67141266D01*
X76823900Y-67265090D01*
X76848056Y-67386534D01*
X76895441Y-67500932D01*
X76964234Y-67603887D01*
X77051791Y-67691444D01*
X77154746Y-67760237D01*
X77269144Y-67807622D01*
X77390588Y-67831778D01*
X77514412Y-67831778D01*
X77635856Y-67807622D01*
X77750254Y-67760237D01*
X77853209Y-67691444D01*
X77940766Y-67603887D01*
X78009559Y-67500932D01*
X78029004Y-67453986D01*
X78029005Y-67603212D01*
X78023338Y-67608879D01*
X77954545Y-67711834D01*
X77907160Y-67826232D01*
X77883004Y-67947676D01*
X77883004Y-68071500D01*
X77907160Y-68192944D01*
X77954545Y-68307342D01*
X78023338Y-68410297D01*
X78110895Y-68497854D01*
X78213850Y-68566647D01*
X78328248Y-68614032D01*
X78449692Y-68638188D01*
X78573516Y-68638188D01*
X78694960Y-68614032D01*
X78809358Y-68566647D01*
X78912313Y-68497854D01*
X78999870Y-68410297D01*
X79068663Y-68307342D01*
X79116048Y-68192944D01*
X79140204Y-68071500D01*
X79140204Y-67947676D01*
X79116048Y-67826232D01*
X79068663Y-67711834D01*
X78999870Y-67608879D01*
X78994204Y-67603213D01*
X78994204Y-67158797D01*
X80556404Y-65596598D01*
X80564416Y-65596598D01*
X80685860Y-65572442D01*
X80695465Y-65568464D01*
X81069174Y-65942173D01*
X81061809Y-65959954D01*
X81048738Y-66003045D01*
X81029616Y-66099178D01*
X81025202Y-66143991D01*
X81025202Y-66168553D01*
X81022794Y-66193000D01*
X81022794Y-66693000D01*
X81027208Y-66737813D01*
X81040279Y-66780905D01*
X81061506Y-66820618D01*
X81090073Y-66855427D01*
X81124882Y-66883994D01*
X81164595Y-66905221D01*
X81207687Y-66918292D01*
X81252500Y-66922706D01*
X82676311Y-66922706D01*
X82676311Y-67629223D01*
X80818135Y-69487400D01*
X80520907Y-69487400D01*
X80490766Y-69442291D01*
X80403209Y-69354734D01*
X80300254Y-69285941D01*
X80185856Y-69238556D01*
X80064412Y-69214400D01*
X79940588Y-69214400D01*
X79819144Y-69238556D01*
X79704746Y-69285941D01*
X79601791Y-69354734D01*
X79514234Y-69442291D01*
X79445441Y-69545246D01*
X79398056Y-69659644D01*
X79373900Y-69781088D01*
X79373900Y-69904912D01*
X79398056Y-70026356D01*
X79445441Y-70140754D01*
X79514234Y-70243709D01*
X79601791Y-70331266D01*
X79704746Y-70400059D01*
X79819144Y-70447444D01*
X79940588Y-70471600D01*
X80064412Y-70471600D01*
X80185856Y-70447444D01*
X80300254Y-70400059D01*
X80403209Y-70331266D01*
X80490766Y-70243709D01*
X80520907Y-70198600D01*
X80730278Y-70198600D01*
X80649872Y-70318936D01*
X80534643Y-70597124D01*
X80475900Y-70892446D01*
X80475900Y-71193554D01*
X80534643Y-71488876D01*
X80649872Y-71767064D01*
X80817159Y-72017426D01*
X81030074Y-72230341D01*
X81280436Y-72397628D01*
X81558624Y-72512857D01*
X81853946Y-72571600D01*
X82155054Y-72571600D01*
X82450376Y-72512857D01*
X82728564Y-72397628D01*
X82978926Y-72230341D01*
X83191841Y-72017426D01*
X83359128Y-71767064D01*
X83474357Y-71488876D01*
X83533100Y-71193554D01*
X83533100Y-70892446D01*
X83474357Y-70597124D01*
X83359128Y-70318936D01*
X83191841Y-70068574D01*
X82978926Y-69855659D01*
X82728564Y-69688372D01*
X82450376Y-69573143D01*
X82155054Y-69514400D01*
X81853946Y-69514400D01*
X81782762Y-69528559D01*
X83271010Y-68040312D01*
X83284573Y-68029181D01*
X83329011Y-67975034D01*
X83362031Y-67913258D01*
X83382364Y-67846228D01*
X83387510Y-67793981D01*
X83387510Y-67793974D01*
X83389229Y-67776518D01*
X83387510Y-67759063D01*
X83387510Y-62742273D01*
X83389229Y-62724818D01*
X83387510Y-62707362D01*
X83387510Y-62707355D01*
X83382364Y-62655108D01*
X83362031Y-62588078D01*
X83329011Y-62526302D01*
X83311348Y-62504780D01*
X83295705Y-62485719D01*
X83295700Y-62485714D01*
X83284572Y-62472155D01*
X83271014Y-62461028D01*
X83013890Y-62203905D01*
X83002755Y-62190337D01*
X82948608Y-62145899D01*
X82907574Y-62123966D01*
X82905682Y-62119398D01*
X82884454Y-62079684D01*
X82829998Y-61998185D01*
X82801432Y-61963376D01*
X82732124Y-61894068D01*
X82697315Y-61865502D01*
X82615816Y-61811046D01*
X82576102Y-61789818D01*
X82485546Y-61752309D01*
X82442455Y-61739238D01*
X82346322Y-61720116D01*
X82301509Y-61715702D01*
X82276947Y-61715702D01*
X82252500Y-61713294D01*
X81752500Y-61713294D01*
X81728053Y-61715702D01*
X81703491Y-61715702D01*
X81658678Y-61720116D01*
X81562545Y-61739238D01*
X81519454Y-61752309D01*
X81428898Y-61789818D01*
X81389184Y-61811046D01*
X81307685Y-61865502D01*
X81272876Y-61894068D01*
X81203568Y-61963376D01*
X81175002Y-61998185D01*
X81120546Y-62079684D01*
X81099318Y-62119398D01*
X81061809Y-62209954D01*
X81048738Y-62253045D01*
X81029616Y-62349178D01*
X81025202Y-62393991D01*
X81025202Y-62418553D01*
X81022794Y-62443000D01*
X81022794Y-62943000D01*
X81027208Y-62987813D01*
X81040279Y-63030905D01*
X81061506Y-63070618D01*
X81079874Y-63093000D01*
X81061506Y-63115382D01*
X81040279Y-63155095D01*
X81027208Y-63198187D01*
X81022794Y-63243000D01*
X81022794Y-63487400D01*
X81020907Y-63487400D01*
X80990766Y-63442291D01*
X80903209Y-63354734D01*
X80800254Y-63285941D01*
X80685856Y-63238556D01*
X80564412Y-63214400D01*
X80440588Y-63214400D01*
X80401700Y-63222135D01*
X80401700Y-62595200D01*
X80346180Y-62387099D01*
X80251129Y-62193828D01*
X80120199Y-62022815D01*
X79958422Y-61880631D01*
X79772014Y-61772740D01*
X79660421Y-61744460D01*
X79495300Y-61851853D01*
X79495300Y-63145200D01*
X79515300Y-63145200D01*
X79515300Y-63500800D01*
X79495300Y-63500800D01*
X79495300Y-64794147D01*
X79660421Y-64901540D01*
X79772014Y-64873260D01*
X79894539Y-64802344D01*
X79873904Y-64906086D01*
X79873904Y-64914098D01*
X78187122Y-66600881D01*
X78168703Y-66615997D01*
X78108395Y-66689483D01*
X78063582Y-66773322D01*
X78035987Y-66864293D01*
X78031956Y-66905221D01*
X78027637Y-66949069D01*
X78009559Y-66905424D01*
X77940766Y-66802469D01*
X77935100Y-66796803D01*
X77935100Y-65915475D01*
X77935711Y-65914864D01*
X78004504Y-65811909D01*
X78051889Y-65697511D01*
X78076045Y-65576067D01*
X78076045Y-65452243D01*
X78051889Y-65330799D01*
X78004504Y-65216401D01*
X77935711Y-65113446D01*
X77848154Y-65025889D01*
X77745199Y-64957096D01*
X77630801Y-64909711D01*
X77509357Y-64885555D01*
X77385533Y-64885555D01*
X77264089Y-64909711D01*
X77149691Y-64957096D01*
X77046736Y-65025889D01*
X77037225Y-65035400D01*
X72958875Y-65035400D01*
X72953209Y-65029734D01*
X72850254Y-64960941D01*
X72735856Y-64913556D01*
X72614412Y-64889400D01*
X72490588Y-64889400D01*
X72369144Y-64913556D01*
X72254746Y-64960941D01*
X72151791Y-65029734D01*
X72146125Y-65035400D01*
X69377400Y-65035400D01*
X69268443Y-64926443D01*
X69319144Y-64947444D01*
X69440588Y-64971600D01*
X69564412Y-64971600D01*
X69685856Y-64947444D01*
X69800254Y-64900059D01*
X69903209Y-64831266D01*
X69990766Y-64743709D01*
X69998598Y-64731988D01*
X70036578Y-64765369D01*
X70222986Y-64873260D01*
X70334579Y-64901540D01*
X70499700Y-64794147D01*
X70499700Y-63500800D01*
X70855300Y-63500800D01*
X70855300Y-64794147D01*
X71020421Y-64901540D01*
X71132014Y-64873260D01*
X71318422Y-64765369D01*
X71480199Y-64623185D01*
X71611129Y-64452172D01*
X71706180Y-64258901D01*
X71761700Y-64050800D01*
X71761700Y-63500800D01*
X78233300Y-63500800D01*
X78233300Y-64050800D01*
X78288820Y-64258901D01*
X78383871Y-64452172D01*
X78514801Y-64623185D01*
X78676578Y-64765369D01*
X78862986Y-64873260D01*
X78974579Y-64901540D01*
X79139700Y-64794147D01*
X79139700Y-63500800D01*
X78233300Y-63500800D01*
X71761700Y-63500800D01*
X70855300Y-63500800D01*
X70499700Y-63500800D01*
X70479700Y-63500800D01*
X70479700Y-63145200D01*
X70499700Y-63145200D01*
X70499700Y-61851853D01*
X70855300Y-61851853D01*
X70855300Y-63145200D01*
X71677023Y-63145200D01*
X71677491Y-63145900D01*
X71754600Y-63223009D01*
X71845272Y-63283594D01*
X71946021Y-63325326D01*
X72052975Y-63346600D01*
X72162025Y-63346600D01*
X72268979Y-63325326D01*
X72369728Y-63283594D01*
X72460400Y-63223009D01*
X72537509Y-63145900D01*
X72598094Y-63055228D01*
X72639826Y-62954479D01*
X72661100Y-62847525D01*
X72661100Y-62738475D01*
X77333900Y-62738475D01*
X77333900Y-62847525D01*
X77355174Y-62954479D01*
X77396906Y-63055228D01*
X77457491Y-63145900D01*
X77534600Y-63223009D01*
X77625272Y-63283594D01*
X77726021Y-63325326D01*
X77832975Y-63346600D01*
X77942025Y-63346600D01*
X78048979Y-63325326D01*
X78149728Y-63283594D01*
X78240400Y-63223009D01*
X78317509Y-63145900D01*
X78317977Y-63145200D01*
X79139700Y-63145200D01*
X79139700Y-61851853D01*
X78974579Y-61744460D01*
X78862986Y-61772740D01*
X78676578Y-61880631D01*
X78514801Y-62022815D01*
X78383871Y-62193828D01*
X78288820Y-62387099D01*
X78283700Y-62406291D01*
X78240400Y-62362991D01*
X78149728Y-62302406D01*
X78048979Y-62260674D01*
X77942025Y-62239400D01*
X77832975Y-62239400D01*
X77726021Y-62260674D01*
X77625272Y-62302406D01*
X77534600Y-62362991D01*
X77457491Y-62440100D01*
X77396906Y-62530772D01*
X77355174Y-62631521D01*
X77333900Y-62738475D01*
X72661100Y-62738475D01*
X72639826Y-62631521D01*
X72598094Y-62530772D01*
X72537509Y-62440100D01*
X72460400Y-62362991D01*
X72369728Y-62302406D01*
X72268979Y-62260674D01*
X72162025Y-62239400D01*
X72052975Y-62239400D01*
X71946021Y-62260674D01*
X71845272Y-62302406D01*
X71754600Y-62362991D01*
X71711300Y-62406291D01*
X71706180Y-62387099D01*
X71611129Y-62193828D01*
X71480199Y-62022815D01*
X71318422Y-61880631D01*
X71132014Y-61772740D01*
X71020421Y-61744460D01*
X70855300Y-61851853D01*
X70499700Y-61851853D01*
X70334579Y-61744460D01*
X70222986Y-61772740D01*
X70036578Y-61880631D01*
X69874801Y-62022815D01*
X69743871Y-62193828D01*
X69648820Y-62387099D01*
X69593300Y-62595200D01*
X69593300Y-62603708D01*
X69108109Y-62118518D01*
X69092993Y-62100099D01*
X69019507Y-62039791D01*
X68935669Y-61994978D01*
X68844698Y-61967383D01*
X68801150Y-61963094D01*
X68732124Y-61894068D01*
X68697315Y-61865502D01*
X68615816Y-61811046D01*
X68576102Y-61789818D01*
X68485546Y-61752309D01*
X68442455Y-61739238D01*
X68346322Y-61720116D01*
X68301509Y-61715702D01*
X68276947Y-61715702D01*
X68252500Y-61713294D01*
X67752500Y-61713294D01*
X67728053Y-61715702D01*
X67703491Y-61715702D01*
X67658678Y-61720116D01*
X67562545Y-61739238D01*
X67519454Y-61752309D01*
X67428898Y-61789818D01*
X67389184Y-61811046D01*
X67307685Y-61865502D01*
X67272876Y-61894068D01*
X67203568Y-61963376D01*
X67175002Y-61998185D01*
X67120546Y-62079684D01*
X67099318Y-62119398D01*
X67061809Y-62209954D01*
X67048738Y-62253045D01*
X67029616Y-62349178D01*
X67025202Y-62393991D01*
X67025202Y-62418553D01*
X67022794Y-62443000D01*
X66308100Y-62443000D01*
X66308100Y-58557848D01*
X66324317Y-58392446D01*
X66475900Y-58392446D01*
X66475900Y-58693554D01*
X66534643Y-58988876D01*
X66649872Y-59267064D01*
X66817159Y-59517426D01*
X67030074Y-59730341D01*
X67280436Y-59897628D01*
X67558624Y-60012857D01*
X67853946Y-60071600D01*
X68155054Y-60071600D01*
X68450376Y-60012857D01*
X68728564Y-59897628D01*
X68978926Y-59730341D01*
X69191841Y-59517426D01*
X69207847Y-59493470D01*
X69577687Y-59493470D01*
X69608666Y-59707063D01*
X69680719Y-59910508D01*
X69791078Y-60095987D01*
X69935502Y-60256372D01*
X70108440Y-60385500D01*
X70334579Y-60471540D01*
X70499700Y-60364147D01*
X70499700Y-59320800D01*
X70855300Y-59320800D01*
X70855300Y-60364147D01*
X71020421Y-60471540D01*
X71246560Y-60385500D01*
X71419498Y-60256372D01*
X71563922Y-60095987D01*
X71674281Y-59910508D01*
X71746334Y-59707063D01*
X71777313Y-59493470D01*
X78217687Y-59493470D01*
X78248666Y-59707063D01*
X78320719Y-59910508D01*
X78431078Y-60095987D01*
X78575502Y-60256372D01*
X78748440Y-60385500D01*
X78974579Y-60471540D01*
X79139700Y-60364147D01*
X79139700Y-59320800D01*
X78369382Y-59320800D01*
X78217687Y-59493470D01*
X71777313Y-59493470D01*
X71625618Y-59320800D01*
X70855300Y-59320800D01*
X70499700Y-59320800D01*
X69729382Y-59320800D01*
X69577687Y-59493470D01*
X69207847Y-59493470D01*
X69359128Y-59267064D01*
X69474357Y-58988876D01*
X69513412Y-58792530D01*
X69577687Y-58792530D01*
X69729382Y-58965200D01*
X70499700Y-58965200D01*
X70499700Y-57921853D01*
X70855300Y-57921853D01*
X70855300Y-58965200D01*
X71625618Y-58965200D01*
X71777313Y-58792530D01*
X78217687Y-58792530D01*
X78369382Y-58965200D01*
X79139700Y-58965200D01*
X79139700Y-57921853D01*
X79495300Y-57921853D01*
X79495300Y-58965200D01*
X79515300Y-58965200D01*
X79515300Y-59320800D01*
X79495300Y-59320800D01*
X79495300Y-60364147D01*
X79660421Y-60471540D01*
X79886560Y-60385500D01*
X80059498Y-60256372D01*
X80093262Y-60218876D01*
X80580072Y-60218876D01*
X80773663Y-60539592D01*
X81186829Y-60741353D01*
X81631418Y-60858632D01*
X82090343Y-60886923D01*
X82545971Y-60825137D01*
X82980789Y-60675650D01*
X83235337Y-60539592D01*
X83428928Y-60218876D01*
X82004500Y-58794447D01*
X80580072Y-60218876D01*
X80093262Y-60218876D01*
X80203922Y-60095987D01*
X80293153Y-59946017D01*
X80328624Y-59967428D01*
X81753053Y-58543000D01*
X80328624Y-57118572D01*
X80007908Y-57312163D01*
X79806147Y-57725329D01*
X79771488Y-57856718D01*
X79660421Y-57814460D01*
X79495300Y-57921853D01*
X79139700Y-57921853D01*
X78974579Y-57814460D01*
X78748440Y-57900500D01*
X78575502Y-58029628D01*
X78431078Y-58190013D01*
X78320719Y-58375492D01*
X78248666Y-58578937D01*
X78217687Y-58792530D01*
X71777313Y-58792530D01*
X71746334Y-58578937D01*
X71674281Y-58375492D01*
X71563922Y-58190013D01*
X71419498Y-58029628D01*
X71246560Y-57900500D01*
X71020421Y-57814460D01*
X70855300Y-57921853D01*
X70499700Y-57921853D01*
X70334579Y-57814460D01*
X70108440Y-57900500D01*
X69935502Y-58029628D01*
X69791078Y-58190013D01*
X69680719Y-58375492D01*
X69608666Y-58578937D01*
X69577687Y-58792530D01*
X69513412Y-58792530D01*
X69533100Y-58693554D01*
X69533100Y-58392446D01*
X69474357Y-58097124D01*
X69359128Y-57818936D01*
X69191841Y-57568574D01*
X68978926Y-57355659D01*
X68728564Y-57188372D01*
X68450376Y-57073143D01*
X68155054Y-57014400D01*
X67853946Y-57014400D01*
X67558624Y-57073143D01*
X67280436Y-57188372D01*
X67030074Y-57355659D01*
X66817159Y-57568574D01*
X66649872Y-57818936D01*
X66534643Y-58097124D01*
X66475900Y-58392446D01*
X66324317Y-58392446D01*
X66341836Y-58213783D01*
X66437445Y-57897109D01*
X66592744Y-57605034D01*
X66801817Y-57348686D01*
X67056702Y-57137826D01*
X67347678Y-56980496D01*
X67663686Y-56882675D01*
X68006916Y-56846600D01*
X80592461Y-56846600D01*
X80580072Y-56867124D01*
G04 #@! TA.AperFunction,Conductor*
D19*
G36*
X80580072Y-56867124D02*
G01*
X82004500Y-58291553D01*
X83064929Y-57231123D01*
X83198814Y-57340317D01*
X83316443Y-57482505D01*
X82255947Y-58543000D01*
X83680376Y-59967428D01*
X83700900Y-59955039D01*
X83700901Y-71028142D01*
X83667164Y-71372219D01*
X83571554Y-71688893D01*
X83416253Y-71980969D01*
X83207183Y-72237314D01*
X82952298Y-72448174D01*
X82661318Y-72605506D01*
X82345315Y-72703325D01*
X82002084Y-72739400D01*
X68019348Y-72739400D01*
X67675281Y-72705664D01*
X67358607Y-72610054D01*
X67066531Y-72454753D01*
X66810186Y-72245683D01*
X66599326Y-71990798D01*
X66441994Y-71699818D01*
X66344175Y-71383815D01*
X66308100Y-71040584D01*
X66308100Y-70892446D01*
X66475900Y-70892446D01*
X66475900Y-71193554D01*
X66534643Y-71488876D01*
X66649872Y-71767064D01*
X66817159Y-72017426D01*
X67030074Y-72230341D01*
X67280436Y-72397628D01*
X67558624Y-72512857D01*
X67853946Y-72571600D01*
X68155054Y-72571600D01*
X68450376Y-72512857D01*
X68728564Y-72397628D01*
X68978926Y-72230341D01*
X69191841Y-72017426D01*
X69359128Y-71767064D01*
X69474357Y-71488876D01*
X69533100Y-71193554D01*
X69533100Y-70892446D01*
X69474357Y-70597124D01*
X69359128Y-70318936D01*
X69191841Y-70068574D01*
X68978926Y-69855659D01*
X68728564Y-69688372D01*
X68450376Y-69573143D01*
X68155054Y-69514400D01*
X67853946Y-69514400D01*
X67558624Y-69573143D01*
X67280436Y-69688372D01*
X67030074Y-69855659D01*
X66817159Y-70068574D01*
X66649872Y-70318936D01*
X66534643Y-70597124D01*
X66475900Y-70892446D01*
X66308100Y-70892446D01*
X66308100Y-62443000D01*
X67022794Y-62443000D01*
X67022794Y-62943000D01*
X67027208Y-62987813D01*
X67040279Y-63030905D01*
X67061506Y-63070618D01*
X67079874Y-63093000D01*
X67061506Y-63115382D01*
X67040279Y-63155095D01*
X67027208Y-63198187D01*
X67022794Y-63243000D01*
X67022794Y-63743000D01*
X67025202Y-63767447D01*
X67025202Y-63792009D01*
X67029616Y-63836822D01*
X67048738Y-63932955D01*
X67061809Y-63976046D01*
X67099318Y-64066602D01*
X67120546Y-64106316D01*
X67175002Y-64187815D01*
X67203568Y-64222624D01*
X67272876Y-64291932D01*
X67307685Y-64320498D01*
X67389184Y-64374954D01*
X67428898Y-64396182D01*
X67519454Y-64433691D01*
X67526714Y-64435893D01*
X67526883Y-64437605D01*
X67554478Y-64528576D01*
X67599291Y-64612415D01*
X67659599Y-64685901D01*
X67678018Y-64701017D01*
X68476594Y-65499593D01*
X68442455Y-65489238D01*
X68346322Y-65470116D01*
X68301509Y-65465702D01*
X68276947Y-65465702D01*
X68252500Y-65463294D01*
X67752500Y-65463294D01*
X67728053Y-65465702D01*
X67703491Y-65465702D01*
X67658678Y-65470116D01*
X67562545Y-65489238D01*
X67519454Y-65502309D01*
X67428898Y-65539818D01*
X67389184Y-65561046D01*
X67307685Y-65615502D01*
X67272876Y-65644068D01*
X67203568Y-65713376D01*
X67175002Y-65748185D01*
X67120546Y-65829684D01*
X67099318Y-65869398D01*
X67061809Y-65959954D01*
X67048738Y-66003045D01*
X67029616Y-66099178D01*
X67025202Y-66143991D01*
X67025202Y-66168553D01*
X67022794Y-66193000D01*
X67022794Y-66693000D01*
X67027208Y-66737813D01*
X67040279Y-66780905D01*
X67061506Y-66820618D01*
X67079874Y-66843000D01*
X67061506Y-66865382D01*
X67040279Y-66905095D01*
X67027208Y-66948187D01*
X67022794Y-66993000D01*
X67022794Y-67493000D01*
X67025202Y-67517447D01*
X67025202Y-67542009D01*
X67029616Y-67586822D01*
X67048738Y-67682955D01*
X67061809Y-67726046D01*
X67099318Y-67816602D01*
X67120546Y-67856316D01*
X67175002Y-67937815D01*
X67203568Y-67972624D01*
X67272876Y-68041932D01*
X67307685Y-68070498D01*
X67389184Y-68124954D01*
X67428898Y-68146182D01*
X67519454Y-68183691D01*
X67562545Y-68196762D01*
X67658678Y-68215884D01*
X67703491Y-68220298D01*
X67728053Y-68220298D01*
X67752500Y-68222706D01*
X68129312Y-68222706D01*
X69238710Y-69332105D01*
X69249837Y-69345663D01*
X69263395Y-69356790D01*
X69263400Y-69356795D01*
X69297578Y-69384844D01*
X69303984Y-69390101D01*
X69365760Y-69423121D01*
X69432790Y-69443454D01*
X69485037Y-69448600D01*
X69485046Y-69448600D01*
X69502499Y-69450319D01*
X69519952Y-69448600D01*
X74984100Y-69448600D01*
X75014238Y-69493705D01*
X75101795Y-69581262D01*
X75204750Y-69650055D01*
X75319148Y-69697440D01*
X75440592Y-69721596D01*
X75564416Y-69721596D01*
X75685860Y-69697440D01*
X75800258Y-69650055D01*
X75903213Y-69581262D01*
X75990770Y-69493705D01*
X76059563Y-69390750D01*
X76106948Y-69276352D01*
X76131104Y-69154908D01*
X76131104Y-69031084D01*
X76106948Y-68909640D01*
X76059563Y-68795242D01*
X76036839Y-68761233D01*
X76857710Y-69582105D01*
X76868837Y-69595663D01*
X76882395Y-69606790D01*
X76882400Y-69606795D01*
X76916578Y-69634844D01*
X76922984Y-69640101D01*
X76957239Y-69658411D01*
X77014234Y-69743709D01*
X77101791Y-69831266D01*
X77204746Y-69900059D01*
X77319144Y-69947444D01*
X77440588Y-69971600D01*
X77564412Y-69971600D01*
X77685856Y-69947444D01*
X77800254Y-69900059D01*
X77903209Y-69831266D01*
X77990766Y-69743709D01*
X78059559Y-69640754D01*
X78106944Y-69526356D01*
X78131100Y-69404912D01*
X78131100Y-69281088D01*
X78106944Y-69159644D01*
X78059559Y-69045246D01*
X77990766Y-68942291D01*
X77903209Y-68854734D01*
X77800254Y-68785941D01*
X77685856Y-68738556D01*
X77564412Y-68714400D01*
X77440588Y-68714400D01*
X77319144Y-68738556D01*
X77204746Y-68785941D01*
X77122375Y-68840980D01*
X74695516Y-66414123D01*
X74706100Y-66360912D01*
X74706100Y-66237088D01*
X74681944Y-66115644D01*
X74634559Y-66001246D01*
X74634127Y-66000600D01*
X76969901Y-66000600D01*
X76969900Y-66796803D01*
X76964234Y-66802469D01*
X76895441Y-66905424D01*
X76848056Y-67019822D01*
X76823900Y-67141266D01*
X76823900Y-67265090D01*
X76848056Y-67386534D01*
X76895441Y-67500932D01*
X76964234Y-67603887D01*
X77051791Y-67691444D01*
X77154746Y-67760237D01*
X77269144Y-67807622D01*
X77390588Y-67831778D01*
X77514412Y-67831778D01*
X77635856Y-67807622D01*
X77750254Y-67760237D01*
X77853209Y-67691444D01*
X77940766Y-67603887D01*
X78009559Y-67500932D01*
X78029004Y-67453986D01*
X78029005Y-67603212D01*
X78023338Y-67608879D01*
X77954545Y-67711834D01*
X77907160Y-67826232D01*
X77883004Y-67947676D01*
X77883004Y-68071500D01*
X77907160Y-68192944D01*
X77954545Y-68307342D01*
X78023338Y-68410297D01*
X78110895Y-68497854D01*
X78213850Y-68566647D01*
X78328248Y-68614032D01*
X78449692Y-68638188D01*
X78573516Y-68638188D01*
X78694960Y-68614032D01*
X78809358Y-68566647D01*
X78912313Y-68497854D01*
X78999870Y-68410297D01*
X79068663Y-68307342D01*
X79116048Y-68192944D01*
X79140204Y-68071500D01*
X79140204Y-67947676D01*
X79116048Y-67826232D01*
X79068663Y-67711834D01*
X78999870Y-67608879D01*
X78994204Y-67603213D01*
X78994204Y-67158797D01*
X80556404Y-65596598D01*
X80564416Y-65596598D01*
X80685860Y-65572442D01*
X80695465Y-65568464D01*
X81069174Y-65942173D01*
X81061809Y-65959954D01*
X81048738Y-66003045D01*
X81029616Y-66099178D01*
X81025202Y-66143991D01*
X81025202Y-66168553D01*
X81022794Y-66193000D01*
X81022794Y-66693000D01*
X81027208Y-66737813D01*
X81040279Y-66780905D01*
X81061506Y-66820618D01*
X81090073Y-66855427D01*
X81124882Y-66883994D01*
X81164595Y-66905221D01*
X81207687Y-66918292D01*
X81252500Y-66922706D01*
X82676311Y-66922706D01*
X82676311Y-67629223D01*
X80818135Y-69487400D01*
X80520907Y-69487400D01*
X80490766Y-69442291D01*
X80403209Y-69354734D01*
X80300254Y-69285941D01*
X80185856Y-69238556D01*
X80064412Y-69214400D01*
X79940588Y-69214400D01*
X79819144Y-69238556D01*
X79704746Y-69285941D01*
X79601791Y-69354734D01*
X79514234Y-69442291D01*
X79445441Y-69545246D01*
X79398056Y-69659644D01*
X79373900Y-69781088D01*
X79373900Y-69904912D01*
X79398056Y-70026356D01*
X79445441Y-70140754D01*
X79514234Y-70243709D01*
X79601791Y-70331266D01*
X79704746Y-70400059D01*
X79819144Y-70447444D01*
X79940588Y-70471600D01*
X80064412Y-70471600D01*
X80185856Y-70447444D01*
X80300254Y-70400059D01*
X80403209Y-70331266D01*
X80490766Y-70243709D01*
X80520907Y-70198600D01*
X80730278Y-70198600D01*
X80649872Y-70318936D01*
X80534643Y-70597124D01*
X80475900Y-70892446D01*
X80475900Y-71193554D01*
X80534643Y-71488876D01*
X80649872Y-71767064D01*
X80817159Y-72017426D01*
X81030074Y-72230341D01*
X81280436Y-72397628D01*
X81558624Y-72512857D01*
X81853946Y-72571600D01*
X82155054Y-72571600D01*
X82450376Y-72512857D01*
X82728564Y-72397628D01*
X82978926Y-72230341D01*
X83191841Y-72017426D01*
X83359128Y-71767064D01*
X83474357Y-71488876D01*
X83533100Y-71193554D01*
X83533100Y-70892446D01*
X83474357Y-70597124D01*
X83359128Y-70318936D01*
X83191841Y-70068574D01*
X82978926Y-69855659D01*
X82728564Y-69688372D01*
X82450376Y-69573143D01*
X82155054Y-69514400D01*
X81853946Y-69514400D01*
X81782762Y-69528559D01*
X83271010Y-68040312D01*
X83284573Y-68029181D01*
X83329011Y-67975034D01*
X83362031Y-67913258D01*
X83382364Y-67846228D01*
X83387510Y-67793981D01*
X83387510Y-67793974D01*
X83389229Y-67776518D01*
X83387510Y-67759063D01*
X83387510Y-62742273D01*
X83389229Y-62724818D01*
X83387510Y-62707362D01*
X83387510Y-62707355D01*
X83382364Y-62655108D01*
X83362031Y-62588078D01*
X83329011Y-62526302D01*
X83311348Y-62504780D01*
X83295705Y-62485719D01*
X83295700Y-62485714D01*
X83284572Y-62472155D01*
X83271014Y-62461028D01*
X83013890Y-62203905D01*
X83002755Y-62190337D01*
X82948608Y-62145899D01*
X82907574Y-62123966D01*
X82905682Y-62119398D01*
X82884454Y-62079684D01*
X82829998Y-61998185D01*
X82801432Y-61963376D01*
X82732124Y-61894068D01*
X82697315Y-61865502D01*
X82615816Y-61811046D01*
X82576102Y-61789818D01*
X82485546Y-61752309D01*
X82442455Y-61739238D01*
X82346322Y-61720116D01*
X82301509Y-61715702D01*
X82276947Y-61715702D01*
X82252500Y-61713294D01*
X81752500Y-61713294D01*
X81728053Y-61715702D01*
X81703491Y-61715702D01*
X81658678Y-61720116D01*
X81562545Y-61739238D01*
X81519454Y-61752309D01*
X81428898Y-61789818D01*
X81389184Y-61811046D01*
X81307685Y-61865502D01*
X81272876Y-61894068D01*
X81203568Y-61963376D01*
X81175002Y-61998185D01*
X81120546Y-62079684D01*
X81099318Y-62119398D01*
X81061809Y-62209954D01*
X81048738Y-62253045D01*
X81029616Y-62349178D01*
X81025202Y-62393991D01*
X81025202Y-62418553D01*
X81022794Y-62443000D01*
X81022794Y-62943000D01*
X81027208Y-62987813D01*
X81040279Y-63030905D01*
X81061506Y-63070618D01*
X81079874Y-63093000D01*
X81061506Y-63115382D01*
X81040279Y-63155095D01*
X81027208Y-63198187D01*
X81022794Y-63243000D01*
X81022794Y-63487400D01*
X81020907Y-63487400D01*
X80990766Y-63442291D01*
X80903209Y-63354734D01*
X80800254Y-63285941D01*
X80685856Y-63238556D01*
X80564412Y-63214400D01*
X80440588Y-63214400D01*
X80401700Y-63222135D01*
X80401700Y-62595200D01*
X80346180Y-62387099D01*
X80251129Y-62193828D01*
X80120199Y-62022815D01*
X79958422Y-61880631D01*
X79772014Y-61772740D01*
X79660421Y-61744460D01*
X79495300Y-61851853D01*
X79495300Y-63145200D01*
X79515300Y-63145200D01*
X79515300Y-63500800D01*
X79495300Y-63500800D01*
X79495300Y-64794147D01*
X79660421Y-64901540D01*
X79772014Y-64873260D01*
X79894539Y-64802344D01*
X79873904Y-64906086D01*
X79873904Y-64914098D01*
X78187122Y-66600881D01*
X78168703Y-66615997D01*
X78108395Y-66689483D01*
X78063582Y-66773322D01*
X78035987Y-66864293D01*
X78031956Y-66905221D01*
X78027637Y-66949069D01*
X78009559Y-66905424D01*
X77940766Y-66802469D01*
X77935100Y-66796803D01*
X77935100Y-65915475D01*
X77935711Y-65914864D01*
X78004504Y-65811909D01*
X78051889Y-65697511D01*
X78076045Y-65576067D01*
X78076045Y-65452243D01*
X78051889Y-65330799D01*
X78004504Y-65216401D01*
X77935711Y-65113446D01*
X77848154Y-65025889D01*
X77745199Y-64957096D01*
X77630801Y-64909711D01*
X77509357Y-64885555D01*
X77385533Y-64885555D01*
X77264089Y-64909711D01*
X77149691Y-64957096D01*
X77046736Y-65025889D01*
X77037225Y-65035400D01*
X72958875Y-65035400D01*
X72953209Y-65029734D01*
X72850254Y-64960941D01*
X72735856Y-64913556D01*
X72614412Y-64889400D01*
X72490588Y-64889400D01*
X72369144Y-64913556D01*
X72254746Y-64960941D01*
X72151791Y-65029734D01*
X72146125Y-65035400D01*
X69377400Y-65035400D01*
X69268443Y-64926443D01*
X69319144Y-64947444D01*
X69440588Y-64971600D01*
X69564412Y-64971600D01*
X69685856Y-64947444D01*
X69800254Y-64900059D01*
X69903209Y-64831266D01*
X69990766Y-64743709D01*
X69998598Y-64731988D01*
X70036578Y-64765369D01*
X70222986Y-64873260D01*
X70334579Y-64901540D01*
X70499700Y-64794147D01*
X70499700Y-63500800D01*
X70855300Y-63500800D01*
X70855300Y-64794147D01*
X71020421Y-64901540D01*
X71132014Y-64873260D01*
X71318422Y-64765369D01*
X71480199Y-64623185D01*
X71611129Y-64452172D01*
X71706180Y-64258901D01*
X71761700Y-64050800D01*
X71761700Y-63500800D01*
X78233300Y-63500800D01*
X78233300Y-64050800D01*
X78288820Y-64258901D01*
X78383871Y-64452172D01*
X78514801Y-64623185D01*
X78676578Y-64765369D01*
X78862986Y-64873260D01*
X78974579Y-64901540D01*
X79139700Y-64794147D01*
X79139700Y-63500800D01*
X78233300Y-63500800D01*
X71761700Y-63500800D01*
X70855300Y-63500800D01*
X70499700Y-63500800D01*
X70479700Y-63500800D01*
X70479700Y-63145200D01*
X70499700Y-63145200D01*
X70499700Y-61851853D01*
X70855300Y-61851853D01*
X70855300Y-63145200D01*
X71677023Y-63145200D01*
X71677491Y-63145900D01*
X71754600Y-63223009D01*
X71845272Y-63283594D01*
X71946021Y-63325326D01*
X72052975Y-63346600D01*
X72162025Y-63346600D01*
X72268979Y-63325326D01*
X72369728Y-63283594D01*
X72460400Y-63223009D01*
X72537509Y-63145900D01*
X72598094Y-63055228D01*
X72639826Y-62954479D01*
X72661100Y-62847525D01*
X72661100Y-62738475D01*
X77333900Y-62738475D01*
X77333900Y-62847525D01*
X77355174Y-62954479D01*
X77396906Y-63055228D01*
X77457491Y-63145900D01*
X77534600Y-63223009D01*
X77625272Y-63283594D01*
X77726021Y-63325326D01*
X77832975Y-63346600D01*
X77942025Y-63346600D01*
X78048979Y-63325326D01*
X78149728Y-63283594D01*
X78240400Y-63223009D01*
X78317509Y-63145900D01*
X78317977Y-63145200D01*
X79139700Y-63145200D01*
X79139700Y-61851853D01*
X78974579Y-61744460D01*
X78862986Y-61772740D01*
X78676578Y-61880631D01*
X78514801Y-62022815D01*
X78383871Y-62193828D01*
X78288820Y-62387099D01*
X78283700Y-62406291D01*
X78240400Y-62362991D01*
X78149728Y-62302406D01*
X78048979Y-62260674D01*
X77942025Y-62239400D01*
X77832975Y-62239400D01*
X77726021Y-62260674D01*
X77625272Y-62302406D01*
X77534600Y-62362991D01*
X77457491Y-62440100D01*
X77396906Y-62530772D01*
X77355174Y-62631521D01*
X77333900Y-62738475D01*
X72661100Y-62738475D01*
X72639826Y-62631521D01*
X72598094Y-62530772D01*
X72537509Y-62440100D01*
X72460400Y-62362991D01*
X72369728Y-62302406D01*
X72268979Y-62260674D01*
X72162025Y-62239400D01*
X72052975Y-62239400D01*
X71946021Y-62260674D01*
X71845272Y-62302406D01*
X71754600Y-62362991D01*
X71711300Y-62406291D01*
X71706180Y-62387099D01*
X71611129Y-62193828D01*
X71480199Y-62022815D01*
X71318422Y-61880631D01*
X71132014Y-61772740D01*
X71020421Y-61744460D01*
X70855300Y-61851853D01*
X70499700Y-61851853D01*
X70334579Y-61744460D01*
X70222986Y-61772740D01*
X70036578Y-61880631D01*
X69874801Y-62022815D01*
X69743871Y-62193828D01*
X69648820Y-62387099D01*
X69593300Y-62595200D01*
X69593300Y-62603708D01*
X69108109Y-62118518D01*
X69092993Y-62100099D01*
X69019507Y-62039791D01*
X68935669Y-61994978D01*
X68844698Y-61967383D01*
X68801150Y-61963094D01*
X68732124Y-61894068D01*
X68697315Y-61865502D01*
X68615816Y-61811046D01*
X68576102Y-61789818D01*
X68485546Y-61752309D01*
X68442455Y-61739238D01*
X68346322Y-61720116D01*
X68301509Y-61715702D01*
X68276947Y-61715702D01*
X68252500Y-61713294D01*
X67752500Y-61713294D01*
X67728053Y-61715702D01*
X67703491Y-61715702D01*
X67658678Y-61720116D01*
X67562545Y-61739238D01*
X67519454Y-61752309D01*
X67428898Y-61789818D01*
X67389184Y-61811046D01*
X67307685Y-61865502D01*
X67272876Y-61894068D01*
X67203568Y-61963376D01*
X67175002Y-61998185D01*
X67120546Y-62079684D01*
X67099318Y-62119398D01*
X67061809Y-62209954D01*
X67048738Y-62253045D01*
X67029616Y-62349178D01*
X67025202Y-62393991D01*
X67025202Y-62418553D01*
X67022794Y-62443000D01*
X66308100Y-62443000D01*
X66308100Y-58557848D01*
X66324317Y-58392446D01*
X66475900Y-58392446D01*
X66475900Y-58693554D01*
X66534643Y-58988876D01*
X66649872Y-59267064D01*
X66817159Y-59517426D01*
X67030074Y-59730341D01*
X67280436Y-59897628D01*
X67558624Y-60012857D01*
X67853946Y-60071600D01*
X68155054Y-60071600D01*
X68450376Y-60012857D01*
X68728564Y-59897628D01*
X68978926Y-59730341D01*
X69191841Y-59517426D01*
X69207847Y-59493470D01*
X69577687Y-59493470D01*
X69608666Y-59707063D01*
X69680719Y-59910508D01*
X69791078Y-60095987D01*
X69935502Y-60256372D01*
X70108440Y-60385500D01*
X70334579Y-60471540D01*
X70499700Y-60364147D01*
X70499700Y-59320800D01*
X70855300Y-59320800D01*
X70855300Y-60364147D01*
X71020421Y-60471540D01*
X71246560Y-60385500D01*
X71419498Y-60256372D01*
X71563922Y-60095987D01*
X71674281Y-59910508D01*
X71746334Y-59707063D01*
X71777313Y-59493470D01*
X78217687Y-59493470D01*
X78248666Y-59707063D01*
X78320719Y-59910508D01*
X78431078Y-60095987D01*
X78575502Y-60256372D01*
X78748440Y-60385500D01*
X78974579Y-60471540D01*
X79139700Y-60364147D01*
X79139700Y-59320800D01*
X78369382Y-59320800D01*
X78217687Y-59493470D01*
X71777313Y-59493470D01*
X71625618Y-59320800D01*
X70855300Y-59320800D01*
X70499700Y-59320800D01*
X69729382Y-59320800D01*
X69577687Y-59493470D01*
X69207847Y-59493470D01*
X69359128Y-59267064D01*
X69474357Y-58988876D01*
X69513412Y-58792530D01*
X69577687Y-58792530D01*
X69729382Y-58965200D01*
X70499700Y-58965200D01*
X70499700Y-57921853D01*
X70855300Y-57921853D01*
X70855300Y-58965200D01*
X71625618Y-58965200D01*
X71777313Y-58792530D01*
X78217687Y-58792530D01*
X78369382Y-58965200D01*
X79139700Y-58965200D01*
X79139700Y-57921853D01*
X79495300Y-57921853D01*
X79495300Y-58965200D01*
X79515300Y-58965200D01*
X79515300Y-59320800D01*
X79495300Y-59320800D01*
X79495300Y-60364147D01*
X79660421Y-60471540D01*
X79886560Y-60385500D01*
X80059498Y-60256372D01*
X80093262Y-60218876D01*
X80580072Y-60218876D01*
X80773663Y-60539592D01*
X81186829Y-60741353D01*
X81631418Y-60858632D01*
X82090343Y-60886923D01*
X82545971Y-60825137D01*
X82980789Y-60675650D01*
X83235337Y-60539592D01*
X83428928Y-60218876D01*
X82004500Y-58794447D01*
X80580072Y-60218876D01*
X80093262Y-60218876D01*
X80203922Y-60095987D01*
X80293153Y-59946017D01*
X80328624Y-59967428D01*
X81753053Y-58543000D01*
X80328624Y-57118572D01*
X80007908Y-57312163D01*
X79806147Y-57725329D01*
X79771488Y-57856718D01*
X79660421Y-57814460D01*
X79495300Y-57921853D01*
X79139700Y-57921853D01*
X78974579Y-57814460D01*
X78748440Y-57900500D01*
X78575502Y-58029628D01*
X78431078Y-58190013D01*
X78320719Y-58375492D01*
X78248666Y-58578937D01*
X78217687Y-58792530D01*
X71777313Y-58792530D01*
X71746334Y-58578937D01*
X71674281Y-58375492D01*
X71563922Y-58190013D01*
X71419498Y-58029628D01*
X71246560Y-57900500D01*
X71020421Y-57814460D01*
X70855300Y-57921853D01*
X70499700Y-57921853D01*
X70334579Y-57814460D01*
X70108440Y-57900500D01*
X69935502Y-58029628D01*
X69791078Y-58190013D01*
X69680719Y-58375492D01*
X69608666Y-58578937D01*
X69577687Y-58792530D01*
X69513412Y-58792530D01*
X69533100Y-58693554D01*
X69533100Y-58392446D01*
X69474357Y-58097124D01*
X69359128Y-57818936D01*
X69191841Y-57568574D01*
X68978926Y-57355659D01*
X68728564Y-57188372D01*
X68450376Y-57073143D01*
X68155054Y-57014400D01*
X67853946Y-57014400D01*
X67558624Y-57073143D01*
X67280436Y-57188372D01*
X67030074Y-57355659D01*
X66817159Y-57568574D01*
X66649872Y-57818936D01*
X66534643Y-58097124D01*
X66475900Y-58392446D01*
X66324317Y-58392446D01*
X66341836Y-58213783D01*
X66437445Y-57897109D01*
X66592744Y-57605034D01*
X66801817Y-57348686D01*
X67056702Y-57137826D01*
X67347678Y-56980496D01*
X67663686Y-56882675D01*
X68006916Y-56846600D01*
X80592461Y-56846600D01*
X80580072Y-56867124D01*
G37*
G04 #@! TD.AperFunction*
M02*
