G04 #@! TF.GenerationSoftware,KiCad,Pcbnew,(5.1.10-1-10_14)*
G04 #@! TF.CreationDate,2021-11-29T20:50:22+01:00*
G04 #@! TF.ProjectId,Unified-Daughterboard,556e6966-6965-4642-9d44-617567687465,C3*
G04 #@! TF.SameCoordinates,Original*
G04 #@! TF.FileFunction,Other,Fab,Top*
%FSLAX46Y46*%
G04 Gerber Fmt 4.6, Leading zero omitted, Abs format (unit mm)*
G04 Created by KiCad (PCBNEW (5.1.10-1-10_14)) date 2021-11-29 20:50:22*
%MOMM*%
%LPD*%
G01*
G04 APERTURE LIST*
%ADD10C,0.100000*%
%ADD11C,0.150000*%
%ADD12C,0.050800*%
%ADD13C,0.120000*%
%ADD14C,0.063500*%
%ADD15C,0.075000*%
%ADD16C,0.060000*%
G04 APERTURE END LIST*
D10*
X73502500Y-68675107D02*
X74002500Y-67968000D01*
X73002500Y-67968000D02*
X73502500Y-68675107D01*
X78002500Y-67968000D02*
X78002500Y-72218000D01*
X72002500Y-67968000D02*
X72002500Y-72218000D01*
X72002500Y-72218000D02*
X78002500Y-72218000D01*
X72002500Y-67968000D02*
X78002500Y-67968000D01*
X82827500Y-64768000D02*
X81227500Y-64768000D01*
X81227500Y-64768000D02*
X81227500Y-61568000D01*
X81227500Y-61568000D02*
X82827500Y-61568000D01*
X82827500Y-61568000D02*
X82827500Y-64768000D01*
X70173125Y-64995500D02*
X70173125Y-66595500D01*
X70173125Y-66595500D02*
X66973125Y-66595500D01*
X66973125Y-66595500D02*
X66973125Y-64995500D01*
X66973125Y-64995500D02*
X70173125Y-64995500D01*
X79467500Y-63843000D02*
X70527500Y-63843000D01*
X79467500Y-63843000D02*
X79467500Y-56543000D01*
X79467500Y-56543000D02*
X70527500Y-56543000D01*
X70527500Y-63843000D02*
X70527500Y-56543000D01*
X80452500Y-68818000D02*
X80452500Y-65718000D01*
X80452500Y-65718000D02*
X82252500Y-65718000D01*
X82252500Y-68168000D02*
X82252500Y-65718000D01*
X80452500Y-68818000D02*
X81602500Y-68818000D01*
X82252500Y-68168000D02*
X81602500Y-68818000D01*
X66690000Y-63180500D02*
X66690000Y-61580500D01*
X67515000Y-63180500D02*
X66690000Y-63180500D01*
X67515000Y-61580500D02*
X67515000Y-63180500D01*
X66690000Y-61580500D02*
X67515000Y-61580500D01*
X68240000Y-61580500D02*
X69065000Y-61580500D01*
X69065000Y-61580500D02*
X69065000Y-63180500D01*
X69065000Y-63180500D02*
X68240000Y-63180500D01*
X68240000Y-63180500D02*
X68240000Y-61580500D01*
X69902500Y-69076750D02*
X67102500Y-69076750D01*
X67102500Y-69076750D02*
X67102500Y-67276750D01*
X67102500Y-67276750D02*
X69902500Y-67276750D01*
X69902500Y-67276750D02*
X69902500Y-69076750D01*
X69252500Y-68176750D02*
X68852500Y-68176750D01*
X68852500Y-68176750D02*
X68852500Y-68726750D01*
X68852500Y-68176750D02*
X68852500Y-67626750D01*
X68852500Y-68176750D02*
X68252500Y-68576750D01*
X68252500Y-68576750D02*
X68252500Y-67776750D01*
X68252500Y-67776750D02*
X68852500Y-68176750D01*
X68252500Y-68176750D02*
X67752500Y-68176750D01*
D11*
X65478690Y-74027761D02*
X65621547Y-74075380D01*
X65859642Y-74075380D01*
X65954880Y-74027761D01*
X66002500Y-73980142D01*
X66050119Y-73884904D01*
X66050119Y-73789666D01*
X66002500Y-73694428D01*
X65954880Y-73646809D01*
X65859642Y-73599190D01*
X65669166Y-73551571D01*
X65573928Y-73503952D01*
X65526309Y-73456333D01*
X65478690Y-73361095D01*
X65478690Y-73265857D01*
X65526309Y-73170619D01*
X65573928Y-73123000D01*
X65669166Y-73075380D01*
X65907261Y-73075380D01*
X66050119Y-73123000D01*
X66478690Y-74075380D02*
X66478690Y-73075380D01*
X66812023Y-73789666D01*
X67145357Y-73075380D01*
X67145357Y-74075380D01*
X67812023Y-73075380D02*
X67907261Y-73075380D01*
X68002500Y-73123000D01*
X68050119Y-73170619D01*
X68097738Y-73265857D01*
X68145357Y-73456333D01*
X68145357Y-73694428D01*
X68097738Y-73884904D01*
X68050119Y-73980142D01*
X68002500Y-74027761D01*
X67907261Y-74075380D01*
X67812023Y-74075380D01*
X67716785Y-74027761D01*
X67669166Y-73980142D01*
X67621547Y-73884904D01*
X67573928Y-73694428D01*
X67573928Y-73456333D01*
X67621547Y-73265857D01*
X67669166Y-73170619D01*
X67716785Y-73123000D01*
X67812023Y-73075380D01*
X69002500Y-73408714D02*
X69002500Y-74075380D01*
X68764404Y-73027761D02*
X68526309Y-73742047D01*
X69145357Y-73742047D01*
X69859642Y-73551571D02*
X70002500Y-73599190D01*
X70050119Y-73646809D01*
X70097738Y-73742047D01*
X70097738Y-73884904D01*
X70050119Y-73980142D01*
X70002500Y-74027761D01*
X69907261Y-74075380D01*
X69526309Y-74075380D01*
X69526309Y-73075380D01*
X69859642Y-73075380D01*
X69954880Y-73123000D01*
X70002500Y-73170619D01*
X70050119Y-73265857D01*
X70050119Y-73361095D01*
X70002500Y-73456333D01*
X69954880Y-73503952D01*
X69859642Y-73551571D01*
X69526309Y-73551571D01*
X70526309Y-73694428D02*
X71288214Y-73694428D01*
X71716785Y-74027761D02*
X71859642Y-74075380D01*
X72097738Y-74075380D01*
X72192976Y-74027761D01*
X72240595Y-73980142D01*
X72288214Y-73884904D01*
X72288214Y-73789666D01*
X72240595Y-73694428D01*
X72192976Y-73646809D01*
X72097738Y-73599190D01*
X71907261Y-73551571D01*
X71812023Y-73503952D01*
X71764404Y-73456333D01*
X71716785Y-73361095D01*
X71716785Y-73265857D01*
X71764404Y-73170619D01*
X71812023Y-73123000D01*
X71907261Y-73075380D01*
X72145357Y-73075380D01*
X72288214Y-73123000D01*
X73288214Y-74075380D02*
X72954880Y-73599190D01*
X72716785Y-74075380D02*
X72716785Y-73075380D01*
X73097738Y-73075380D01*
X73192976Y-73123000D01*
X73240595Y-73170619D01*
X73288214Y-73265857D01*
X73288214Y-73408714D01*
X73240595Y-73503952D01*
X73192976Y-73551571D01*
X73097738Y-73599190D01*
X72716785Y-73599190D01*
X73669166Y-74027761D02*
X73812023Y-74075380D01*
X74050119Y-74075380D01*
X74145357Y-74027761D01*
X74192976Y-73980142D01*
X74240595Y-73884904D01*
X74240595Y-73789666D01*
X74192976Y-73694428D01*
X74145357Y-73646809D01*
X74050119Y-73599190D01*
X73859642Y-73551571D01*
X73764404Y-73503952D01*
X73716785Y-73456333D01*
X73669166Y-73361095D01*
X73669166Y-73265857D01*
X73716785Y-73170619D01*
X73764404Y-73123000D01*
X73859642Y-73075380D01*
X74097738Y-73075380D01*
X74240595Y-73123000D01*
X74621547Y-74027761D02*
X74764404Y-74075380D01*
X75002500Y-74075380D01*
X75097738Y-74027761D01*
X75145357Y-73980142D01*
X75192976Y-73884904D01*
X75192976Y-73789666D01*
X75145357Y-73694428D01*
X75097738Y-73646809D01*
X75002500Y-73599190D01*
X74812023Y-73551571D01*
X74716785Y-73503952D01*
X74669166Y-73456333D01*
X74621547Y-73361095D01*
X74621547Y-73265857D01*
X74669166Y-73170619D01*
X74716785Y-73123000D01*
X74812023Y-73075380D01*
X75050119Y-73075380D01*
X75192976Y-73123000D01*
X75621547Y-73694428D02*
X76383452Y-73694428D01*
X76716785Y-73075380D02*
X77288214Y-73075380D01*
X77002500Y-74075380D02*
X77002500Y-73075380D01*
X77954880Y-73551571D02*
X78097738Y-73599190D01*
X78145357Y-73646809D01*
X78192976Y-73742047D01*
X78192976Y-73884904D01*
X78145357Y-73980142D01*
X78097738Y-74027761D01*
X78002500Y-74075380D01*
X77621547Y-74075380D01*
X77621547Y-73075380D01*
X77954880Y-73075380D01*
X78050119Y-73123000D01*
X78097738Y-73170619D01*
X78145357Y-73265857D01*
X78145357Y-73361095D01*
X78097738Y-73456333D01*
X78050119Y-73503952D01*
X77954880Y-73551571D01*
X77621547Y-73551571D01*
X78907261Y-74456333D02*
X78859642Y-74408714D01*
X78764404Y-74265857D01*
X78716785Y-74170619D01*
X78669166Y-74027761D01*
X78621547Y-73789666D01*
X78621547Y-73599190D01*
X78669166Y-73361095D01*
X78716785Y-73218238D01*
X78764404Y-73123000D01*
X78859642Y-72980142D01*
X78907261Y-72932523D01*
X79764404Y-74075380D02*
X79288214Y-74075380D01*
X79288214Y-73075380D01*
X80431071Y-73551571D02*
X80097738Y-73551571D01*
X80097738Y-74075380D02*
X80097738Y-73075380D01*
X80573928Y-73075380D01*
X80859642Y-74456333D02*
X80907261Y-74408714D01*
X81002500Y-74265857D01*
X81050119Y-74170619D01*
X81097738Y-74027761D01*
X81145357Y-73789666D01*
X81145357Y-73599190D01*
X81097738Y-73361095D01*
X81050119Y-73218238D01*
X81002500Y-73123000D01*
X80907261Y-72980142D01*
X80859642Y-72932523D01*
X81907261Y-74456333D02*
X81859642Y-74408714D01*
X81764404Y-74265857D01*
X81716785Y-74170619D01*
X81669166Y-74027761D01*
X81621547Y-73789666D01*
X81621547Y-73599190D01*
X81669166Y-73361095D01*
X81716785Y-73218238D01*
X81764404Y-73123000D01*
X81859642Y-72980142D01*
X81907261Y-72932523D01*
X82240595Y-74027761D02*
X82383452Y-74075380D01*
X82621547Y-74075380D01*
X82716785Y-74027761D01*
X82764404Y-73980142D01*
X82812023Y-73884904D01*
X82812023Y-73789666D01*
X82764404Y-73694428D01*
X82716785Y-73646809D01*
X82621547Y-73599190D01*
X82431071Y-73551571D01*
X82335833Y-73503952D01*
X82288214Y-73456333D01*
X82240595Y-73361095D01*
X82240595Y-73265857D01*
X82288214Y-73170619D01*
X82335833Y-73123000D01*
X82431071Y-73075380D01*
X82669166Y-73075380D01*
X82812023Y-73123000D01*
X83240595Y-74075380D02*
X83240595Y-73075380D01*
X83812023Y-74075380D01*
X83812023Y-73075380D01*
X84192976Y-74456333D02*
X84240595Y-74408714D01*
X84335833Y-74265857D01*
X84383452Y-74170619D01*
X84431071Y-74027761D01*
X84478690Y-73789666D01*
X84478690Y-73599190D01*
X84431071Y-73361095D01*
X84383452Y-73218238D01*
X84335833Y-73123000D01*
X84240595Y-72980142D01*
X84192976Y-72932523D01*
X74669166Y-69095380D02*
X74669166Y-69809666D01*
X74621547Y-69952523D01*
X74526309Y-70047761D01*
X74383452Y-70095380D01*
X74288214Y-70095380D01*
X75097738Y-69190619D02*
X75145357Y-69143000D01*
X75240595Y-69095380D01*
X75478690Y-69095380D01*
X75573928Y-69143000D01*
X75621547Y-69190619D01*
X75669166Y-69285857D01*
X75669166Y-69381095D01*
X75621547Y-69523952D01*
X75050119Y-70095380D01*
X75669166Y-70095380D01*
X78361642Y-74695380D02*
X78361642Y-73695380D01*
X78694976Y-74409666D01*
X79028309Y-73695380D01*
X79028309Y-74695380D01*
X79647357Y-74695380D02*
X79552119Y-74647761D01*
X79504500Y-74600142D01*
X79456880Y-74504904D01*
X79456880Y-74219190D01*
X79504500Y-74123952D01*
X79552119Y-74076333D01*
X79647357Y-74028714D01*
X79790214Y-74028714D01*
X79885452Y-74076333D01*
X79933071Y-74123952D01*
X79980690Y-74219190D01*
X79980690Y-74504904D01*
X79933071Y-74600142D01*
X79885452Y-74647761D01*
X79790214Y-74695380D01*
X79647357Y-74695380D01*
X80837833Y-74028714D02*
X80837833Y-74695380D01*
X80409261Y-74028714D02*
X80409261Y-74552523D01*
X80456880Y-74647761D01*
X80552119Y-74695380D01*
X80694976Y-74695380D01*
X80790214Y-74647761D01*
X80837833Y-74600142D01*
X81314023Y-74028714D02*
X81314023Y-74695380D01*
X81314023Y-74123952D02*
X81361642Y-74076333D01*
X81456880Y-74028714D01*
X81599738Y-74028714D01*
X81694976Y-74076333D01*
X81742595Y-74171571D01*
X81742595Y-74695380D01*
X82075928Y-74028714D02*
X82456880Y-74028714D01*
X82218785Y-73695380D02*
X82218785Y-74552523D01*
X82266404Y-74647761D01*
X82361642Y-74695380D01*
X82456880Y-74695380D01*
X82790214Y-74314428D02*
X83552119Y-74314428D01*
X84028309Y-74695380D02*
X84028309Y-73695380D01*
X84361642Y-74409666D01*
X84694976Y-73695380D01*
X84694976Y-74695380D01*
X85123547Y-73790619D02*
X85171166Y-73743000D01*
X85266404Y-73695380D01*
X85504499Y-73695380D01*
X85599738Y-73743000D01*
X85647357Y-73790619D01*
X85694976Y-73885857D01*
X85694976Y-73981095D01*
X85647357Y-74123952D01*
X85075928Y-74695380D01*
X85694976Y-74695380D01*
X80971166Y-71495380D02*
X80971166Y-70495380D01*
X81304500Y-71209666D01*
X81637833Y-70495380D01*
X81637833Y-71495380D01*
X82114023Y-71495380D02*
X82114023Y-70495380D01*
X82114023Y-70971571D02*
X82685452Y-70971571D01*
X82685452Y-71495380D02*
X82685452Y-70495380D01*
X83590214Y-70828714D02*
X83590214Y-71495380D01*
X83352119Y-70447761D02*
X83114023Y-71162047D01*
X83733071Y-71162047D01*
X64361642Y-74695380D02*
X64361642Y-73695380D01*
X64694976Y-74409666D01*
X65028309Y-73695380D01*
X65028309Y-74695380D01*
X65647357Y-74695380D02*
X65552119Y-74647761D01*
X65504500Y-74600142D01*
X65456880Y-74504904D01*
X65456880Y-74219190D01*
X65504500Y-74123952D01*
X65552119Y-74076333D01*
X65647357Y-74028714D01*
X65790214Y-74028714D01*
X65885452Y-74076333D01*
X65933071Y-74123952D01*
X65980690Y-74219190D01*
X65980690Y-74504904D01*
X65933071Y-74600142D01*
X65885452Y-74647761D01*
X65790214Y-74695380D01*
X65647357Y-74695380D01*
X66837833Y-74028714D02*
X66837833Y-74695380D01*
X66409261Y-74028714D02*
X66409261Y-74552523D01*
X66456880Y-74647761D01*
X66552119Y-74695380D01*
X66694976Y-74695380D01*
X66790214Y-74647761D01*
X66837833Y-74600142D01*
X67314023Y-74028714D02*
X67314023Y-74695380D01*
X67314023Y-74123952D02*
X67361642Y-74076333D01*
X67456880Y-74028714D01*
X67599738Y-74028714D01*
X67694976Y-74076333D01*
X67742595Y-74171571D01*
X67742595Y-74695380D01*
X68075928Y-74028714D02*
X68456880Y-74028714D01*
X68218785Y-73695380D02*
X68218785Y-74552523D01*
X68266404Y-74647761D01*
X68361642Y-74695380D01*
X68456880Y-74695380D01*
X68790214Y-74314428D02*
X69552119Y-74314428D01*
X70028309Y-74695380D02*
X70028309Y-73695380D01*
X70361642Y-74409666D01*
X70694976Y-73695380D01*
X70694976Y-74695380D01*
X71123547Y-73790619D02*
X71171166Y-73743000D01*
X71266404Y-73695380D01*
X71504500Y-73695380D01*
X71599738Y-73743000D01*
X71647357Y-73790619D01*
X71694976Y-73885857D01*
X71694976Y-73981095D01*
X71647357Y-74123952D01*
X71075928Y-74695380D01*
X71694976Y-74695380D01*
X66971166Y-71495380D02*
X66971166Y-70495380D01*
X67304500Y-71209666D01*
X67637833Y-70495380D01*
X67637833Y-71495380D01*
X68114023Y-71495380D02*
X68114023Y-70495380D01*
X68114023Y-70971571D02*
X68685452Y-70971571D01*
X68685452Y-71495380D02*
X68685452Y-70495380D01*
X69066404Y-70495380D02*
X69685452Y-70495380D01*
X69352119Y-70876333D01*
X69494976Y-70876333D01*
X69590214Y-70923952D01*
X69637833Y-70971571D01*
X69685452Y-71066809D01*
X69685452Y-71304904D01*
X69637833Y-71400142D01*
X69590214Y-71447761D01*
X69494976Y-71495380D01*
X69209261Y-71495380D01*
X69114023Y-71447761D01*
X69066404Y-71400142D01*
X78361642Y-62195380D02*
X78361642Y-61195380D01*
X78694976Y-61909666D01*
X79028309Y-61195380D01*
X79028309Y-62195380D01*
X79647357Y-62195380D02*
X79552119Y-62147761D01*
X79504500Y-62100142D01*
X79456880Y-62004904D01*
X79456880Y-61719190D01*
X79504500Y-61623952D01*
X79552119Y-61576333D01*
X79647357Y-61528714D01*
X79790214Y-61528714D01*
X79885452Y-61576333D01*
X79933071Y-61623952D01*
X79980690Y-61719190D01*
X79980690Y-62004904D01*
X79933071Y-62100142D01*
X79885452Y-62147761D01*
X79790214Y-62195380D01*
X79647357Y-62195380D01*
X80837833Y-61528714D02*
X80837833Y-62195380D01*
X80409261Y-61528714D02*
X80409261Y-62052523D01*
X80456880Y-62147761D01*
X80552119Y-62195380D01*
X80694976Y-62195380D01*
X80790214Y-62147761D01*
X80837833Y-62100142D01*
X81314023Y-61528714D02*
X81314023Y-62195380D01*
X81314023Y-61623952D02*
X81361642Y-61576333D01*
X81456880Y-61528714D01*
X81599738Y-61528714D01*
X81694976Y-61576333D01*
X81742595Y-61671571D01*
X81742595Y-62195380D01*
X82075928Y-61528714D02*
X82456880Y-61528714D01*
X82218785Y-61195380D02*
X82218785Y-62052523D01*
X82266404Y-62147761D01*
X82361642Y-62195380D01*
X82456880Y-62195380D01*
X82790214Y-61814428D02*
X83552119Y-61814428D01*
X84028309Y-62195380D02*
X84028309Y-61195380D01*
X84361642Y-61909666D01*
X84694976Y-61195380D01*
X84694976Y-62195380D01*
X85123547Y-61290619D02*
X85171166Y-61243000D01*
X85266404Y-61195380D01*
X85504499Y-61195380D01*
X85599738Y-61243000D01*
X85647357Y-61290619D01*
X85694976Y-61385857D01*
X85694976Y-61481095D01*
X85647357Y-61623952D01*
X85075928Y-62195380D01*
X85694976Y-62195380D01*
X80971166Y-58995380D02*
X80971166Y-57995380D01*
X81304500Y-58709666D01*
X81637833Y-57995380D01*
X81637833Y-58995380D01*
X82114023Y-58995380D02*
X82114023Y-57995380D01*
X82114023Y-58471571D02*
X82685452Y-58471571D01*
X82685452Y-58995380D02*
X82685452Y-57995380D01*
X83114023Y-58090619D02*
X83161642Y-58043000D01*
X83256880Y-57995380D01*
X83494976Y-57995380D01*
X83590214Y-58043000D01*
X83637833Y-58090619D01*
X83685452Y-58185857D01*
X83685452Y-58281095D01*
X83637833Y-58423952D01*
X83066404Y-58995380D01*
X83685452Y-58995380D01*
X64361642Y-62195380D02*
X64361642Y-61195380D01*
X64694976Y-61909666D01*
X65028309Y-61195380D01*
X65028309Y-62195380D01*
X65647357Y-62195380D02*
X65552119Y-62147761D01*
X65504500Y-62100142D01*
X65456880Y-62004904D01*
X65456880Y-61719190D01*
X65504500Y-61623952D01*
X65552119Y-61576333D01*
X65647357Y-61528714D01*
X65790214Y-61528714D01*
X65885452Y-61576333D01*
X65933071Y-61623952D01*
X65980690Y-61719190D01*
X65980690Y-62004904D01*
X65933071Y-62100142D01*
X65885452Y-62147761D01*
X65790214Y-62195380D01*
X65647357Y-62195380D01*
X66837833Y-61528714D02*
X66837833Y-62195380D01*
X66409261Y-61528714D02*
X66409261Y-62052523D01*
X66456880Y-62147761D01*
X66552119Y-62195380D01*
X66694976Y-62195380D01*
X66790214Y-62147761D01*
X66837833Y-62100142D01*
X67314023Y-61528714D02*
X67314023Y-62195380D01*
X67314023Y-61623952D02*
X67361642Y-61576333D01*
X67456880Y-61528714D01*
X67599738Y-61528714D01*
X67694976Y-61576333D01*
X67742595Y-61671571D01*
X67742595Y-62195380D01*
X68075928Y-61528714D02*
X68456880Y-61528714D01*
X68218785Y-61195380D02*
X68218785Y-62052523D01*
X68266404Y-62147761D01*
X68361642Y-62195380D01*
X68456880Y-62195380D01*
X68790214Y-61814428D02*
X69552119Y-61814428D01*
X70028309Y-62195380D02*
X70028309Y-61195380D01*
X70361642Y-61909666D01*
X70694976Y-61195380D01*
X70694976Y-62195380D01*
X71123547Y-61290619D02*
X71171166Y-61243000D01*
X71266404Y-61195380D01*
X71504500Y-61195380D01*
X71599738Y-61243000D01*
X71647357Y-61290619D01*
X71694976Y-61385857D01*
X71694976Y-61481095D01*
X71647357Y-61623952D01*
X71075928Y-62195380D01*
X71694976Y-62195380D01*
X66971166Y-58995380D02*
X66971166Y-57995380D01*
X67304500Y-58709666D01*
X67637833Y-57995380D01*
X67637833Y-58995380D01*
X68114023Y-58995380D02*
X68114023Y-57995380D01*
X68114023Y-58471571D02*
X68685452Y-58471571D01*
X68685452Y-58995380D02*
X68685452Y-57995380D01*
X69685452Y-58995380D02*
X69114023Y-58995380D01*
X69399738Y-58995380D02*
X69399738Y-57995380D01*
X69304500Y-58138238D01*
X69209261Y-58233476D01*
X69114023Y-58281095D01*
D12*
X83019309Y-65366428D02*
X83019309Y-65463190D01*
X83043500Y-65511571D01*
X83067690Y-65535761D01*
X83140261Y-65584142D01*
X83237023Y-65608333D01*
X83430547Y-65608333D01*
X83478928Y-65584142D01*
X83503119Y-65559952D01*
X83527309Y-65511571D01*
X83527309Y-65414809D01*
X83503119Y-65366428D01*
X83478928Y-65342238D01*
X83430547Y-65318047D01*
X83309595Y-65318047D01*
X83261214Y-65342238D01*
X83237023Y-65366428D01*
X83212833Y-65414809D01*
X83212833Y-65511571D01*
X83237023Y-65559952D01*
X83261214Y-65584142D01*
X83309595Y-65608333D01*
X83019309Y-65003571D02*
X83019309Y-64955190D01*
X83043500Y-64906809D01*
X83067690Y-64882619D01*
X83116071Y-64858428D01*
X83212833Y-64834238D01*
X83333785Y-64834238D01*
X83430547Y-64858428D01*
X83478928Y-64882619D01*
X83503119Y-64906809D01*
X83527309Y-64955190D01*
X83527309Y-65003571D01*
X83503119Y-65051952D01*
X83478928Y-65076142D01*
X83430547Y-65100333D01*
X83333785Y-65124523D01*
X83212833Y-65124523D01*
X83116071Y-65100333D01*
X83067690Y-65076142D01*
X83043500Y-65051952D01*
X83019309Y-65003571D01*
X83527309Y-64326238D02*
X83285404Y-64495571D01*
X83527309Y-64616523D02*
X83019309Y-64616523D01*
X83019309Y-64423000D01*
X83043500Y-64374619D01*
X83067690Y-64350428D01*
X83116071Y-64326238D01*
X83188642Y-64326238D01*
X83237023Y-64350428D01*
X83261214Y-64374619D01*
X83285404Y-64423000D01*
X83285404Y-64616523D01*
X83285404Y-63794047D02*
X83261214Y-63818238D01*
X83237023Y-63866619D01*
X83237023Y-63915000D01*
X83261214Y-63963380D01*
X83285404Y-63987571D01*
X83333785Y-64011761D01*
X83382166Y-64011761D01*
X83430547Y-63987571D01*
X83454738Y-63963380D01*
X83478928Y-63915000D01*
X83478928Y-63866619D01*
X83454738Y-63818238D01*
X83430547Y-63794047D01*
X83237023Y-63794047D02*
X83430547Y-63794047D01*
X83454738Y-63769857D01*
X83454738Y-63745666D01*
X83430547Y-63697285D01*
X83382166Y-63673095D01*
X83261214Y-63673095D01*
X83188642Y-63721476D01*
X83140261Y-63794047D01*
X83116071Y-63890809D01*
X83140261Y-63987571D01*
X83188642Y-64060142D01*
X83261214Y-64108523D01*
X83357976Y-64132714D01*
X83454738Y-64108523D01*
X83527309Y-64060142D01*
X83575690Y-63987571D01*
X83599880Y-63890809D01*
X83575690Y-63794047D01*
X83527309Y-63721476D01*
X83527309Y-63189285D02*
X83527309Y-63479571D01*
X83527309Y-63334428D02*
X83019309Y-63334428D01*
X83091880Y-63382809D01*
X83140261Y-63431190D01*
X83164452Y-63479571D01*
X83019309Y-62874809D02*
X83019309Y-62826428D01*
X83043500Y-62778047D01*
X83067690Y-62753857D01*
X83116071Y-62729666D01*
X83212833Y-62705476D01*
X83333785Y-62705476D01*
X83430547Y-62729666D01*
X83478928Y-62753857D01*
X83503119Y-62778047D01*
X83527309Y-62826428D01*
X83527309Y-62874809D01*
X83503119Y-62923190D01*
X83478928Y-62947380D01*
X83430547Y-62971571D01*
X83333785Y-62995761D01*
X83212833Y-62995761D01*
X83116071Y-62971571D01*
X83067690Y-62947380D01*
X83043500Y-62923190D01*
X83019309Y-62874809D01*
X83019309Y-62391000D02*
X83019309Y-62342619D01*
X83043500Y-62294238D01*
X83067690Y-62270047D01*
X83116071Y-62245857D01*
X83212833Y-62221666D01*
X83333785Y-62221666D01*
X83430547Y-62245857D01*
X83478928Y-62270047D01*
X83503119Y-62294238D01*
X83527309Y-62342619D01*
X83527309Y-62391000D01*
X83503119Y-62439380D01*
X83478928Y-62463571D01*
X83430547Y-62487761D01*
X83333785Y-62511952D01*
X83212833Y-62511952D01*
X83116071Y-62487761D01*
X83067690Y-62463571D01*
X83043500Y-62439380D01*
X83019309Y-62391000D01*
X83527309Y-62003952D02*
X83019309Y-62003952D01*
X83382166Y-61834619D01*
X83019309Y-61665285D01*
X83527309Y-61665285D01*
X83527309Y-61423380D02*
X83019309Y-61423380D01*
X83261214Y-61423380D02*
X83261214Y-61133095D01*
X83527309Y-61133095D02*
X83019309Y-61133095D01*
X83188642Y-60939571D02*
X83188642Y-60673476D01*
X83527309Y-60939571D01*
X83527309Y-60673476D01*
D13*
X82351309Y-67339428D02*
X82389404Y-67225142D01*
X82389404Y-67034666D01*
X82351309Y-66958476D01*
X82313214Y-66920380D01*
X82237023Y-66882285D01*
X82160833Y-66882285D01*
X82084642Y-66920380D01*
X82046547Y-66958476D01*
X82008452Y-67034666D01*
X81970357Y-67187047D01*
X81932261Y-67263238D01*
X81894166Y-67301333D01*
X81817976Y-67339428D01*
X81741785Y-67339428D01*
X81665595Y-67301333D01*
X81627500Y-67263238D01*
X81589404Y-67187047D01*
X81589404Y-66996571D01*
X81627500Y-66882285D01*
X81475119Y-67110857D02*
X82503690Y-67110857D01*
X82694166Y-66310857D02*
X82694166Y-66348952D01*
X82656071Y-66425142D01*
X82579880Y-66463238D01*
X82198928Y-66463238D01*
X82122738Y-66501333D01*
X82084642Y-66577523D01*
X82046547Y-66501333D01*
X81970357Y-66463238D01*
X81589404Y-66463238D01*
X81513214Y-66425142D01*
X81475119Y-66348952D01*
X81475119Y-66310857D01*
X82389404Y-65548952D02*
X82008452Y-65815619D01*
X82389404Y-66006095D02*
X81589404Y-66006095D01*
X81589404Y-65701333D01*
X81627500Y-65625142D01*
X81665595Y-65587047D01*
X81741785Y-65548952D01*
X81856071Y-65548952D01*
X81932261Y-65587047D01*
X81970357Y-65625142D01*
X82008452Y-65701333D01*
X82008452Y-66006095D01*
X81970357Y-65206095D02*
X81970357Y-64939428D01*
X82389404Y-64825142D02*
X82389404Y-65206095D01*
X81589404Y-65206095D01*
X81589404Y-64825142D01*
X81970357Y-64215619D02*
X81970357Y-64482285D01*
X82389404Y-64482285D02*
X81589404Y-64482285D01*
X81589404Y-64101333D01*
X81970357Y-63796571D02*
X81970357Y-63529904D01*
X82389404Y-63415619D02*
X82389404Y-63796571D01*
X81589404Y-63796571D01*
X81589404Y-63415619D01*
X82389404Y-62615619D02*
X82008452Y-62882285D01*
X82389404Y-63072761D02*
X81589404Y-63072761D01*
X81589404Y-62768000D01*
X81627500Y-62691809D01*
X81665595Y-62653714D01*
X81741785Y-62615619D01*
X81856071Y-62615619D01*
X81932261Y-62653714D01*
X81970357Y-62691809D01*
X82008452Y-62768000D01*
X82008452Y-63072761D01*
X81970357Y-62272761D02*
X81970357Y-62006095D01*
X82389404Y-61891809D02*
X82389404Y-62272761D01*
X81589404Y-62272761D01*
X81589404Y-61891809D01*
X82389404Y-61548952D02*
X81589404Y-61548952D01*
X82389404Y-61091809D01*
X81589404Y-61091809D01*
X82313214Y-60253714D02*
X82351309Y-60291809D01*
X82389404Y-60406095D01*
X82389404Y-60482285D01*
X82351309Y-60596571D01*
X82275119Y-60672761D01*
X82198928Y-60710857D01*
X82046547Y-60748952D01*
X81932261Y-60748952D01*
X81779880Y-60710857D01*
X81703690Y-60672761D01*
X81627500Y-60596571D01*
X81589404Y-60482285D01*
X81589404Y-60406095D01*
X81627500Y-60291809D01*
X81665595Y-60253714D01*
X81970357Y-59910857D02*
X81970357Y-59644190D01*
X82389404Y-59529904D02*
X82389404Y-59910857D01*
X81589404Y-59910857D01*
X81589404Y-59529904D01*
X82694166Y-59263238D02*
X82694166Y-59225142D01*
X82656071Y-59148952D01*
X82579880Y-59110857D01*
X82198928Y-59110857D01*
X82122738Y-59072761D01*
X82084642Y-58996571D01*
X82046547Y-59072761D01*
X81970357Y-59110857D01*
X81589404Y-59110857D01*
X81513214Y-59148952D01*
X81475119Y-59225142D01*
X81475119Y-59263238D01*
D14*
X67130648Y-64694833D02*
X67251601Y-64694833D01*
X67106458Y-64767404D02*
X67191125Y-64513404D01*
X67275791Y-64767404D01*
X67348363Y-64755309D02*
X67384648Y-64767404D01*
X67445125Y-64767404D01*
X67469315Y-64755309D01*
X67481410Y-64743214D01*
X67493505Y-64719023D01*
X67493505Y-64694833D01*
X67481410Y-64670642D01*
X67469315Y-64658547D01*
X67445125Y-64646452D01*
X67396744Y-64634357D01*
X67372553Y-64622261D01*
X67360458Y-64610166D01*
X67348363Y-64585976D01*
X67348363Y-64561785D01*
X67360458Y-64537595D01*
X67372553Y-64525500D01*
X67396744Y-64513404D01*
X67457220Y-64513404D01*
X67493505Y-64525500D01*
X67602363Y-64767404D02*
X67602363Y-64513404D01*
X67687029Y-64694833D01*
X67771696Y-64513404D01*
X67771696Y-64767404D01*
X67892648Y-64767404D02*
X67892648Y-64513404D01*
X67953125Y-64513404D01*
X67989410Y-64525500D01*
X68013601Y-64549690D01*
X68025696Y-64573880D01*
X68037791Y-64622261D01*
X68037791Y-64658547D01*
X68025696Y-64706928D01*
X68013601Y-64731119D01*
X67989410Y-64755309D01*
X67953125Y-64767404D01*
X67892648Y-64767404D01*
X68279696Y-64767404D02*
X68134553Y-64767404D01*
X68207125Y-64767404D02*
X68207125Y-64513404D01*
X68182934Y-64549690D01*
X68158744Y-64573880D01*
X68134553Y-64585976D01*
X68376458Y-64537595D02*
X68388553Y-64525500D01*
X68412744Y-64513404D01*
X68473220Y-64513404D01*
X68497410Y-64525500D01*
X68509505Y-64537595D01*
X68521601Y-64561785D01*
X68521601Y-64585976D01*
X68509505Y-64622261D01*
X68364363Y-64767404D01*
X68521601Y-64767404D01*
X68678839Y-64513404D02*
X68703029Y-64513404D01*
X68727220Y-64525500D01*
X68739315Y-64537595D01*
X68751410Y-64561785D01*
X68763505Y-64610166D01*
X68763505Y-64670642D01*
X68751410Y-64719023D01*
X68739315Y-64743214D01*
X68727220Y-64755309D01*
X68703029Y-64767404D01*
X68678839Y-64767404D01*
X68654648Y-64755309D01*
X68642553Y-64743214D01*
X68630458Y-64719023D01*
X68618363Y-64670642D01*
X68618363Y-64610166D01*
X68630458Y-64561785D01*
X68642553Y-64537595D01*
X68654648Y-64525500D01*
X68678839Y-64513404D01*
X68981220Y-64513404D02*
X68932839Y-64513404D01*
X68908648Y-64525500D01*
X68896553Y-64537595D01*
X68872363Y-64573880D01*
X68860267Y-64622261D01*
X68860267Y-64719023D01*
X68872363Y-64743214D01*
X68884458Y-64755309D01*
X68908648Y-64767404D01*
X68957029Y-64767404D01*
X68981220Y-64755309D01*
X68993315Y-64743214D01*
X69005410Y-64719023D01*
X69005410Y-64658547D01*
X68993315Y-64634357D01*
X68981220Y-64622261D01*
X68957029Y-64610166D01*
X68908648Y-64610166D01*
X68884458Y-64622261D01*
X68872363Y-64634357D01*
X68860267Y-64658547D01*
X69114267Y-64670642D02*
X69307791Y-64670642D01*
X69561791Y-64767404D02*
X69416648Y-64767404D01*
X69489220Y-64767404D02*
X69489220Y-64513404D01*
X69465029Y-64549690D01*
X69440839Y-64573880D01*
X69416648Y-64585976D01*
X69791601Y-64513404D02*
X69670648Y-64513404D01*
X69658553Y-64634357D01*
X69670648Y-64622261D01*
X69694839Y-64610166D01*
X69755315Y-64610166D01*
X69779505Y-64622261D01*
X69791601Y-64634357D01*
X69803696Y-64658547D01*
X69803696Y-64719023D01*
X69791601Y-64743214D01*
X69779505Y-64755309D01*
X69755315Y-64767404D01*
X69694839Y-64767404D01*
X69670648Y-64755309D01*
X69658553Y-64743214D01*
X69960934Y-64513404D02*
X69985125Y-64513404D01*
X70009315Y-64525500D01*
X70021410Y-64537595D01*
X70033505Y-64561785D01*
X70045601Y-64610166D01*
X70045601Y-64670642D01*
X70033505Y-64719023D01*
X70021410Y-64743214D01*
X70009315Y-64755309D01*
X69985125Y-64767404D01*
X69960934Y-64767404D01*
X69936744Y-64755309D01*
X69924648Y-64743214D01*
X69912553Y-64719023D01*
X69900458Y-64670642D01*
X69900458Y-64610166D01*
X69912553Y-64561785D01*
X69924648Y-64537595D01*
X69936744Y-64525500D01*
X69960934Y-64513404D01*
D13*
X64401696Y-66119309D02*
X64515982Y-66157404D01*
X64706458Y-66157404D01*
X64782648Y-66119309D01*
X64820744Y-66081214D01*
X64858839Y-66005023D01*
X64858839Y-65928833D01*
X64820744Y-65852642D01*
X64782648Y-65814547D01*
X64706458Y-65776452D01*
X64554077Y-65738357D01*
X64477886Y-65700261D01*
X64439791Y-65662166D01*
X64401696Y-65585976D01*
X64401696Y-65509785D01*
X64439791Y-65433595D01*
X64477886Y-65395500D01*
X64554077Y-65357404D01*
X64744553Y-65357404D01*
X64858839Y-65395500D01*
X64630267Y-65243119D02*
X64630267Y-66271690D01*
X65430267Y-66462166D02*
X65392172Y-66462166D01*
X65315982Y-66424071D01*
X65277886Y-66347880D01*
X65277886Y-65966928D01*
X65239791Y-65890738D01*
X65163601Y-65852642D01*
X65239791Y-65814547D01*
X65277886Y-65738357D01*
X65277886Y-65357404D01*
X65315982Y-65281214D01*
X65392172Y-65243119D01*
X65430267Y-65243119D01*
X66192172Y-66157404D02*
X65925505Y-65776452D01*
X65735029Y-66157404D02*
X65735029Y-65357404D01*
X66039791Y-65357404D01*
X66115982Y-65395500D01*
X66154077Y-65433595D01*
X66192172Y-65509785D01*
X66192172Y-65624071D01*
X66154077Y-65700261D01*
X66115982Y-65738357D01*
X66039791Y-65776452D01*
X65735029Y-65776452D01*
X66535029Y-65738357D02*
X66801696Y-65738357D01*
X66915982Y-66157404D02*
X66535029Y-66157404D01*
X66535029Y-65357404D01*
X66915982Y-65357404D01*
X67525505Y-65738357D02*
X67258839Y-65738357D01*
X67258839Y-66157404D02*
X67258839Y-65357404D01*
X67639791Y-65357404D01*
X67944553Y-65738357D02*
X68211220Y-65738357D01*
X68325505Y-66157404D02*
X67944553Y-66157404D01*
X67944553Y-65357404D01*
X68325505Y-65357404D01*
X69125505Y-66157404D02*
X68858839Y-65776452D01*
X68668363Y-66157404D02*
X68668363Y-65357404D01*
X68973125Y-65357404D01*
X69049315Y-65395500D01*
X69087410Y-65433595D01*
X69125505Y-65509785D01*
X69125505Y-65624071D01*
X69087410Y-65700261D01*
X69049315Y-65738357D01*
X68973125Y-65776452D01*
X68668363Y-65776452D01*
X69468363Y-65738357D02*
X69735029Y-65738357D01*
X69849315Y-66157404D02*
X69468363Y-66157404D01*
X69468363Y-65357404D01*
X69849315Y-65357404D01*
X70192172Y-66157404D02*
X70192172Y-65357404D01*
X70649315Y-66157404D01*
X70649315Y-65357404D01*
X71487410Y-66081214D02*
X71449315Y-66119309D01*
X71335029Y-66157404D01*
X71258839Y-66157404D01*
X71144553Y-66119309D01*
X71068363Y-66043119D01*
X71030267Y-65966928D01*
X70992172Y-65814547D01*
X70992172Y-65700261D01*
X71030267Y-65547880D01*
X71068363Y-65471690D01*
X71144553Y-65395500D01*
X71258839Y-65357404D01*
X71335029Y-65357404D01*
X71449315Y-65395500D01*
X71487410Y-65433595D01*
X71830267Y-65738357D02*
X72096934Y-65738357D01*
X72211220Y-66157404D02*
X71830267Y-66157404D01*
X71830267Y-65357404D01*
X72211220Y-65357404D01*
X72477886Y-66462166D02*
X72515982Y-66462166D01*
X72592172Y-66424071D01*
X72630267Y-66347880D01*
X72630267Y-65966928D01*
X72668363Y-65890738D01*
X72744553Y-65852642D01*
X72668363Y-65814547D01*
X72630267Y-65738357D01*
X72630267Y-65357404D01*
X72592172Y-65281214D01*
X72515982Y-65243119D01*
X72477886Y-65243119D01*
D11*
X65307023Y-54545380D02*
X65307023Y-55354904D01*
X65354642Y-55450142D01*
X65402261Y-55497761D01*
X65497499Y-55545380D01*
X65687976Y-55545380D01*
X65783214Y-55497761D01*
X65830833Y-55450142D01*
X65878452Y-55354904D01*
X65878452Y-54545380D01*
X66307023Y-55497761D02*
X66449880Y-55545380D01*
X66687976Y-55545380D01*
X66783214Y-55497761D01*
X66830833Y-55450142D01*
X66878452Y-55354904D01*
X66878452Y-55259666D01*
X66830833Y-55164428D01*
X66783214Y-55116809D01*
X66687976Y-55069190D01*
X66497499Y-55021571D01*
X66402261Y-54973952D01*
X66354642Y-54926333D01*
X66307023Y-54831095D01*
X66307023Y-54735857D01*
X66354642Y-54640619D01*
X66402261Y-54593000D01*
X66497499Y-54545380D01*
X66735595Y-54545380D01*
X66878452Y-54593000D01*
X67640357Y-55021571D02*
X67783214Y-55069190D01*
X67830833Y-55116809D01*
X67878452Y-55212047D01*
X67878452Y-55354904D01*
X67830833Y-55450142D01*
X67783214Y-55497761D01*
X67687976Y-55545380D01*
X67307023Y-55545380D01*
X67307023Y-54545380D01*
X67640357Y-54545380D01*
X67735595Y-54593000D01*
X67783214Y-54640619D01*
X67830833Y-54735857D01*
X67830833Y-54831095D01*
X67783214Y-54926333D01*
X67735595Y-54973952D01*
X67640357Y-55021571D01*
X67307023Y-55021571D01*
X68068928Y-55640619D02*
X68830833Y-55640619D01*
X69640357Y-55450142D02*
X69592738Y-55497761D01*
X69449880Y-55545380D01*
X69354642Y-55545380D01*
X69211785Y-55497761D01*
X69116547Y-55402523D01*
X69068928Y-55307285D01*
X69021309Y-55116809D01*
X69021309Y-54973952D01*
X69068928Y-54783476D01*
X69116547Y-54688238D01*
X69211785Y-54593000D01*
X69354642Y-54545380D01*
X69449880Y-54545380D01*
X69592738Y-54593000D01*
X69640357Y-54640619D01*
X69830833Y-55640619D02*
X70592738Y-55640619D01*
X71402261Y-55545380D02*
X71068928Y-55069190D01*
X70830833Y-55545380D02*
X70830833Y-54545380D01*
X71211785Y-54545380D01*
X71307023Y-54593000D01*
X71354642Y-54640619D01*
X71402261Y-54735857D01*
X71402261Y-54878714D01*
X71354642Y-54973952D01*
X71307023Y-55021571D01*
X71211785Y-55069190D01*
X70830833Y-55069190D01*
X72211785Y-55497761D02*
X72116547Y-55545380D01*
X71926071Y-55545380D01*
X71830833Y-55497761D01*
X71783214Y-55402523D01*
X71783214Y-55021571D01*
X71830833Y-54926333D01*
X71926071Y-54878714D01*
X72116547Y-54878714D01*
X72211785Y-54926333D01*
X72259404Y-55021571D01*
X72259404Y-55116809D01*
X71783214Y-55212047D01*
X73116547Y-55497761D02*
X73021309Y-55545380D01*
X72830833Y-55545380D01*
X72735595Y-55497761D01*
X72687976Y-55450142D01*
X72640357Y-55354904D01*
X72640357Y-55069190D01*
X72687976Y-54973952D01*
X72735595Y-54926333D01*
X72830833Y-54878714D01*
X73021309Y-54878714D01*
X73116547Y-54926333D01*
X73926071Y-55497761D02*
X73830833Y-55545380D01*
X73640357Y-55545380D01*
X73545119Y-55497761D01*
X73497500Y-55402523D01*
X73497500Y-55021571D01*
X73545119Y-54926333D01*
X73640357Y-54878714D01*
X73830833Y-54878714D01*
X73926071Y-54926333D01*
X73973690Y-55021571D01*
X73973690Y-55116809D01*
X73497500Y-55212047D01*
X74402261Y-54878714D02*
X74402261Y-55878714D01*
X74402261Y-54926333D02*
X74497500Y-54878714D01*
X74687976Y-54878714D01*
X74783214Y-54926333D01*
X74830833Y-54973952D01*
X74878452Y-55069190D01*
X74878452Y-55354904D01*
X74830833Y-55450142D01*
X74783214Y-55497761D01*
X74687976Y-55545380D01*
X74497500Y-55545380D01*
X74402261Y-55497761D01*
X75164166Y-54878714D02*
X75545119Y-54878714D01*
X75307023Y-54545380D02*
X75307023Y-55402523D01*
X75354642Y-55497761D01*
X75449880Y-55545380D01*
X75545119Y-55545380D01*
X76307023Y-55545380D02*
X76307023Y-55021571D01*
X76259404Y-54926333D01*
X76164166Y-54878714D01*
X75973690Y-54878714D01*
X75878452Y-54926333D01*
X76307023Y-55497761D02*
X76211785Y-55545380D01*
X75973690Y-55545380D01*
X75878452Y-55497761D01*
X75830833Y-55402523D01*
X75830833Y-55307285D01*
X75878452Y-55212047D01*
X75973690Y-55164428D01*
X76211785Y-55164428D01*
X76307023Y-55116809D01*
X77211785Y-55497761D02*
X77116547Y-55545380D01*
X76926071Y-55545380D01*
X76830833Y-55497761D01*
X76783214Y-55450142D01*
X76735595Y-55354904D01*
X76735595Y-55069190D01*
X76783214Y-54973952D01*
X76830833Y-54926333D01*
X76926071Y-54878714D01*
X77116547Y-54878714D01*
X77211785Y-54926333D01*
X77783214Y-55545380D02*
X77687976Y-55497761D01*
X77640357Y-55402523D01*
X77640357Y-54545380D01*
X78545119Y-55497761D02*
X78449880Y-55545380D01*
X78259404Y-55545380D01*
X78164166Y-55497761D01*
X78116547Y-55402523D01*
X78116547Y-55021571D01*
X78164166Y-54926333D01*
X78259404Y-54878714D01*
X78449880Y-54878714D01*
X78545119Y-54926333D01*
X78592738Y-55021571D01*
X78592738Y-55116809D01*
X78116547Y-55212047D01*
X78783214Y-55640619D02*
X79545119Y-55640619D01*
X79783214Y-54545380D02*
X79783214Y-55354904D01*
X79830833Y-55450142D01*
X79878452Y-55497761D01*
X79973690Y-55545380D01*
X80164166Y-55545380D01*
X80259404Y-55497761D01*
X80307023Y-55450142D01*
X80354642Y-55354904D01*
X80354642Y-54545380D01*
X80783214Y-55497761D02*
X80926071Y-55545380D01*
X81164166Y-55545380D01*
X81259404Y-55497761D01*
X81307023Y-55450142D01*
X81354642Y-55354904D01*
X81354642Y-55259666D01*
X81307023Y-55164428D01*
X81259404Y-55116809D01*
X81164166Y-55069190D01*
X80973690Y-55021571D01*
X80878452Y-54973952D01*
X80830833Y-54926333D01*
X80783214Y-54831095D01*
X80783214Y-54735857D01*
X80830833Y-54640619D01*
X80878452Y-54593000D01*
X80973690Y-54545380D01*
X81211785Y-54545380D01*
X81354642Y-54593000D01*
X82116547Y-55021571D02*
X82259404Y-55069190D01*
X82307023Y-55116809D01*
X82354642Y-55212047D01*
X82354642Y-55354904D01*
X82307023Y-55450142D01*
X82259404Y-55497761D01*
X82164166Y-55545380D01*
X81783214Y-55545380D01*
X81783214Y-54545380D01*
X82116547Y-54545380D01*
X82211785Y-54593000D01*
X82259404Y-54640619D01*
X82307023Y-54735857D01*
X82307023Y-54831095D01*
X82259404Y-54926333D01*
X82211785Y-54973952D01*
X82116547Y-55021571D01*
X81783214Y-55021571D01*
X82735595Y-54640619D02*
X82783214Y-54593000D01*
X82878452Y-54545380D01*
X83116547Y-54545380D01*
X83211785Y-54593000D01*
X83259404Y-54640619D01*
X83307023Y-54735857D01*
X83307023Y-54831095D01*
X83259404Y-54973952D01*
X82687976Y-55545380D01*
X83307023Y-55545380D01*
X83735595Y-55450142D02*
X83783214Y-55497761D01*
X83735595Y-55545380D01*
X83687976Y-55497761D01*
X83735595Y-55450142D01*
X83735595Y-55545380D01*
X84402261Y-54545380D02*
X84497499Y-54545380D01*
X84592738Y-54593000D01*
X84640357Y-54640619D01*
X84687976Y-54735857D01*
X84735595Y-54926333D01*
X84735595Y-55164428D01*
X84687976Y-55354904D01*
X84640357Y-55450142D01*
X84592738Y-55497761D01*
X84497499Y-55545380D01*
X84402261Y-55545380D01*
X84307023Y-55497761D01*
X84259404Y-55450142D01*
X84211785Y-55354904D01*
X84164166Y-55164428D01*
X84164166Y-54926333D01*
X84211785Y-54735857D01*
X84259404Y-54640619D01*
X84307023Y-54593000D01*
X84402261Y-54545380D01*
X74664166Y-59645380D02*
X74664166Y-60359666D01*
X74616547Y-60502523D01*
X74521309Y-60597761D01*
X74378452Y-60645380D01*
X74283214Y-60645380D01*
X75664166Y-60645380D02*
X75092738Y-60645380D01*
X75378452Y-60645380D02*
X75378452Y-59645380D01*
X75283214Y-59788238D01*
X75187976Y-59883476D01*
X75092738Y-59931095D01*
X76162023Y-63820380D02*
X76162023Y-64629904D01*
X76209642Y-64725142D01*
X76257261Y-64772761D01*
X76352500Y-64820380D01*
X76542976Y-64820380D01*
X76638214Y-64772761D01*
X76685833Y-64725142D01*
X76733452Y-64629904D01*
X76733452Y-63820380D01*
X77162023Y-64772761D02*
X77304880Y-64820380D01*
X77542976Y-64820380D01*
X77638214Y-64772761D01*
X77685833Y-64725142D01*
X77733452Y-64629904D01*
X77733452Y-64534666D01*
X77685833Y-64439428D01*
X77638214Y-64391809D01*
X77542976Y-64344190D01*
X77352500Y-64296571D01*
X77257261Y-64248952D01*
X77209642Y-64201333D01*
X77162023Y-64106095D01*
X77162023Y-64010857D01*
X77209642Y-63915619D01*
X77257261Y-63868000D01*
X77352500Y-63820380D01*
X77590595Y-63820380D01*
X77733452Y-63868000D01*
X78495357Y-64296571D02*
X78638214Y-64344190D01*
X78685833Y-64391809D01*
X78733452Y-64487047D01*
X78733452Y-64629904D01*
X78685833Y-64725142D01*
X78638214Y-64772761D01*
X78542976Y-64820380D01*
X78162023Y-64820380D01*
X78162023Y-63820380D01*
X78495357Y-63820380D01*
X78590595Y-63868000D01*
X78638214Y-63915619D01*
X78685833Y-64010857D01*
X78685833Y-64106095D01*
X78638214Y-64201333D01*
X78590595Y-64248952D01*
X78495357Y-64296571D01*
X78162023Y-64296571D01*
X79638214Y-64820380D02*
X79162023Y-64820380D01*
X79162023Y-63820380D01*
X80542976Y-64725142D02*
X80495357Y-64772761D01*
X80352500Y-64820380D01*
X80257261Y-64820380D01*
X80114404Y-64772761D01*
X80019166Y-64677523D01*
X79971547Y-64582285D01*
X79923928Y-64391809D01*
X79923928Y-64248952D01*
X79971547Y-64058476D01*
X80019166Y-63963238D01*
X80114404Y-63868000D01*
X80257261Y-63820380D01*
X80352500Y-63820380D01*
X80495357Y-63868000D01*
X80542976Y-63915619D01*
X81400119Y-63820380D02*
X81209642Y-63820380D01*
X81114404Y-63868000D01*
X81066785Y-63915619D01*
X80971547Y-64058476D01*
X80923928Y-64248952D01*
X80923928Y-64629904D01*
X80971547Y-64725142D01*
X81019166Y-64772761D01*
X81114404Y-64820380D01*
X81304880Y-64820380D01*
X81400119Y-64772761D01*
X81447738Y-64725142D01*
X81495357Y-64629904D01*
X81495357Y-64391809D01*
X81447738Y-64296571D01*
X81400119Y-64248952D01*
X81304880Y-64201333D01*
X81114404Y-64201333D01*
X81019166Y-64248952D01*
X80971547Y-64296571D01*
X80923928Y-64391809D01*
X81923928Y-64439428D02*
X82685833Y-64439428D01*
X83114404Y-63915619D02*
X83162023Y-63868000D01*
X83257261Y-63820380D01*
X83495357Y-63820380D01*
X83590595Y-63868000D01*
X83638214Y-63915619D01*
X83685833Y-64010857D01*
X83685833Y-64106095D01*
X83638214Y-64248952D01*
X83066785Y-64820380D01*
X83685833Y-64820380D01*
X84066785Y-64772761D02*
X84209642Y-64820380D01*
X84447738Y-64820380D01*
X84542976Y-64772761D01*
X84590595Y-64725142D01*
X84638214Y-64629904D01*
X84638214Y-64534666D01*
X84590595Y-64439428D01*
X84542976Y-64391809D01*
X84447738Y-64344190D01*
X84257261Y-64296571D01*
X84162023Y-64248952D01*
X84114404Y-64201333D01*
X84066785Y-64106095D01*
X84066785Y-64010857D01*
X84114404Y-63915619D01*
X84162023Y-63868000D01*
X84257261Y-63820380D01*
X84495357Y-63820380D01*
X84638214Y-63868000D01*
X85638214Y-64725142D02*
X85590595Y-64772761D01*
X85447738Y-64820380D01*
X85352500Y-64820380D01*
X85209642Y-64772761D01*
X85114404Y-64677523D01*
X85066785Y-64582285D01*
X85019166Y-64391809D01*
X85019166Y-64248952D01*
X85066785Y-64058476D01*
X85114404Y-63963238D01*
X85209642Y-63868000D01*
X85352500Y-63820380D01*
X85447738Y-63820380D01*
X85590595Y-63868000D01*
X85638214Y-63915619D01*
X86495357Y-63820380D02*
X86304880Y-63820380D01*
X86209642Y-63868000D01*
X86162023Y-63915619D01*
X86066785Y-64058476D01*
X86019166Y-64248952D01*
X86019166Y-64629904D01*
X86066785Y-64725142D01*
X86114404Y-64772761D01*
X86209642Y-64820380D01*
X86400119Y-64820380D01*
X86495357Y-64772761D01*
X86542976Y-64725142D01*
X86590595Y-64629904D01*
X86590595Y-64391809D01*
X86542976Y-64296571D01*
X86495357Y-64248952D01*
X86400119Y-64201333D01*
X86209642Y-64201333D01*
X86114404Y-64248952D01*
X86066785Y-64296571D01*
X86019166Y-64391809D01*
D15*
X81078690Y-67648952D02*
X81483452Y-67648952D01*
X81531071Y-67625142D01*
X81554880Y-67601333D01*
X81578690Y-67553714D01*
X81578690Y-67458476D01*
X81554880Y-67410857D01*
X81531071Y-67387047D01*
X81483452Y-67363238D01*
X81078690Y-67363238D01*
X81578690Y-66863238D02*
X81578690Y-67148952D01*
X81578690Y-67006095D02*
X81078690Y-67006095D01*
X81150119Y-67053714D01*
X81197738Y-67101333D01*
X81221547Y-67148952D01*
D11*
X65124880Y-63261452D02*
X65124880Y-63737642D01*
X65601071Y-63785261D01*
X65553452Y-63737642D01*
X65505833Y-63642404D01*
X65505833Y-63404309D01*
X65553452Y-63309071D01*
X65601071Y-63261452D01*
X65696309Y-63213833D01*
X65934404Y-63213833D01*
X66029642Y-63261452D01*
X66077261Y-63309071D01*
X66124880Y-63404309D01*
X66124880Y-63642404D01*
X66077261Y-63737642D01*
X66029642Y-63785261D01*
X66029642Y-62785261D02*
X66077261Y-62737642D01*
X66124880Y-62785261D01*
X66077261Y-62832880D01*
X66029642Y-62785261D01*
X66124880Y-62785261D01*
X66124880Y-61785261D02*
X66124880Y-62356690D01*
X66124880Y-62070976D02*
X65124880Y-62070976D01*
X65267738Y-62166214D01*
X65362976Y-62261452D01*
X65410595Y-62356690D01*
X66124880Y-61356690D02*
X65124880Y-61356690D01*
X65743928Y-61261452D02*
X66124880Y-60975738D01*
X65458214Y-60975738D02*
X65839166Y-61356690D01*
D16*
X67283452Y-62447166D02*
X67092976Y-62580500D01*
X67283452Y-62675738D02*
X66883452Y-62675738D01*
X66883452Y-62523357D01*
X66902500Y-62485261D01*
X66921547Y-62466214D01*
X66959642Y-62447166D01*
X67016785Y-62447166D01*
X67054880Y-62466214D01*
X67073928Y-62485261D01*
X67092976Y-62523357D01*
X67092976Y-62675738D01*
X67283452Y-62066214D02*
X67283452Y-62294785D01*
X67283452Y-62180500D02*
X66883452Y-62180500D01*
X66940595Y-62218595D01*
X66978690Y-62256690D01*
X66997738Y-62294785D01*
D11*
X66674880Y-63261452D02*
X66674880Y-63737642D01*
X67151071Y-63785261D01*
X67103452Y-63737642D01*
X67055833Y-63642404D01*
X67055833Y-63404309D01*
X67103452Y-63309071D01*
X67151071Y-63261452D01*
X67246309Y-63213833D01*
X67484404Y-63213833D01*
X67579642Y-63261452D01*
X67627261Y-63309071D01*
X67674880Y-63404309D01*
X67674880Y-63642404D01*
X67627261Y-63737642D01*
X67579642Y-63785261D01*
X67579642Y-62785261D02*
X67627261Y-62737642D01*
X67674880Y-62785261D01*
X67627261Y-62832880D01*
X67579642Y-62785261D01*
X67674880Y-62785261D01*
X67674880Y-61785261D02*
X67674880Y-62356690D01*
X67674880Y-62070976D02*
X66674880Y-62070976D01*
X66817738Y-62166214D01*
X66912976Y-62261452D01*
X66960595Y-62356690D01*
X67674880Y-61356690D02*
X66674880Y-61356690D01*
X67293928Y-61261452D02*
X67674880Y-60975738D01*
X67008214Y-60975738D02*
X67389166Y-61356690D01*
D16*
X68833452Y-62447166D02*
X68642976Y-62580500D01*
X68833452Y-62675738D02*
X68433452Y-62675738D01*
X68433452Y-62523357D01*
X68452500Y-62485261D01*
X68471547Y-62466214D01*
X68509642Y-62447166D01*
X68566785Y-62447166D01*
X68604880Y-62466214D01*
X68623928Y-62485261D01*
X68642976Y-62523357D01*
X68642976Y-62675738D01*
X68471547Y-62294785D02*
X68452500Y-62275738D01*
X68433452Y-62237642D01*
X68433452Y-62142404D01*
X68452500Y-62104309D01*
X68471547Y-62085261D01*
X68509642Y-62066214D01*
X68547738Y-62066214D01*
X68604880Y-62085261D01*
X68833452Y-62313833D01*
X68833452Y-62066214D01*
D11*
X65097738Y-66481511D02*
X65240595Y-66529130D01*
X65478690Y-66529130D01*
X65573928Y-66481511D01*
X65621547Y-66433892D01*
X65669166Y-66338654D01*
X65669166Y-66243416D01*
X65621547Y-66148178D01*
X65573928Y-66100559D01*
X65478690Y-66052940D01*
X65288214Y-66005321D01*
X65192976Y-65957702D01*
X65145357Y-65910083D01*
X65097738Y-65814845D01*
X65097738Y-65719607D01*
X65145357Y-65624369D01*
X65192976Y-65576750D01*
X65288214Y-65529130D01*
X65526309Y-65529130D01*
X65669166Y-65576750D01*
X66097738Y-66529130D02*
X66097738Y-65529130D01*
X66431071Y-66243416D01*
X66764404Y-65529130D01*
X66764404Y-66529130D01*
X67573928Y-66005321D02*
X67240595Y-66005321D01*
X67240595Y-66529130D02*
X67240595Y-65529130D01*
X67716785Y-65529130D01*
X68145357Y-66529130D02*
X68335833Y-66529130D01*
X68431071Y-66481511D01*
X68478690Y-66433892D01*
X68573928Y-66291035D01*
X68621547Y-66100559D01*
X68621547Y-65719607D01*
X68573928Y-65624369D01*
X68526309Y-65576750D01*
X68431071Y-65529130D01*
X68240595Y-65529130D01*
X68145357Y-65576750D01*
X68097738Y-65624369D01*
X68050119Y-65719607D01*
X68050119Y-65957702D01*
X68097738Y-66052940D01*
X68145357Y-66100559D01*
X68240595Y-66148178D01*
X68431071Y-66148178D01*
X68526309Y-66100559D01*
X68573928Y-66052940D01*
X68621547Y-65957702D01*
X69050119Y-66433892D02*
X69097738Y-66481511D01*
X69050119Y-66529130D01*
X69002500Y-66481511D01*
X69050119Y-66433892D01*
X69050119Y-66529130D01*
X69716785Y-65529130D02*
X69812023Y-65529130D01*
X69907261Y-65576750D01*
X69954880Y-65624369D01*
X70002500Y-65719607D01*
X70050119Y-65910083D01*
X70050119Y-66148178D01*
X70002500Y-66338654D01*
X69954880Y-66433892D01*
X69907261Y-66481511D01*
X69812023Y-66529130D01*
X69716785Y-66529130D01*
X69621547Y-66481511D01*
X69573928Y-66433892D01*
X69526309Y-66338654D01*
X69478690Y-66148178D01*
X69478690Y-65910083D01*
X69526309Y-65719607D01*
X69573928Y-65624369D01*
X69621547Y-65576750D01*
X69716785Y-65529130D01*
X71050119Y-66433892D02*
X71002500Y-66481511D01*
X70859642Y-66529130D01*
X70764404Y-66529130D01*
X70621547Y-66481511D01*
X70526309Y-66386273D01*
X70478690Y-66291035D01*
X70431071Y-66100559D01*
X70431071Y-65957702D01*
X70478690Y-65767226D01*
X70526309Y-65671988D01*
X70621547Y-65576750D01*
X70764404Y-65529130D01*
X70859642Y-65529130D01*
X71002500Y-65576750D01*
X71050119Y-65624369D01*
X71431071Y-66243416D02*
X71907261Y-66243416D01*
X71335833Y-66529130D02*
X71669166Y-65529130D01*
X72002500Y-66529130D01*
X67891404Y-70534130D02*
X67891404Y-69534130D01*
X68129500Y-69534130D01*
X68272357Y-69581750D01*
X68367595Y-69676988D01*
X68415214Y-69772226D01*
X68462833Y-69962702D01*
X68462833Y-70105559D01*
X68415214Y-70296035D01*
X68367595Y-70391273D01*
X68272357Y-70486511D01*
X68129500Y-70534130D01*
X67891404Y-70534130D01*
X69415214Y-70534130D02*
X68843785Y-70534130D01*
X69129500Y-70534130D02*
X69129500Y-69534130D01*
X69034261Y-69676988D01*
X68939023Y-69772226D01*
X68843785Y-69819845D01*
M02*
